<?xml version="1.0" encoding="utf-8"?>
<!-- Generator: Adobe Illustrator 26.3.1, SVG Export Plug-In . SVG Version: 6.00 Build 0)  -->
<svg version="1.1" id="Layer_7" xmlns="http://www.w3.org/2000/svg" xmlns:xlink="http://www.w3.org/1999/xlink" x="0px" y="0px"
	 viewBox="0 0 595.3 841.9" style="enable-background:new 0 0 595.3 841.9;" xml:space="preserve">
<style type="text/css">
	.st0{fill:url(#SVGID_1_);}
	.st1{fill:#00416B;}
	.st2{fill:url(#SVGID_00000109722892912979287080000017608618251561412283_);}
	.st3{fill:url(#SVGID_00000008836921327116037290000006981591495155827358_);}
	.st4{fill:url(#SVGID_00000034056178354858128570000016855610349105157281_);}
	.st5{fill:url(#SVGID_00000107566314696306185310000013163410236395977373_);}
	.st6{fill:url(#SVGID_00000178177719142582975790000009154759864728285094_);}
	.st7{fill:url(#SVGID_00000126322840421797169270000007626939282551992984_);}
	.st8{fill:url(#SVGID_00000106840477084989930530000014054308746651280815_);}
	.st9{fill:url(#SVGID_00000054968535173544252080000011556760973261222077_);}
	.st10{fill:url(#SVGID_00000059998751356077452890000005326575913350515386_);}
	.st11{fill:url(#SVGID_00000139260461717977666710000002691856590411997346_);}
	.st12{fill:url(#SVGID_00000153687731087655337020000006219087787561326269_);}
	.st13{fill:url(#SVGID_00000004542555523626567440000009300462232673471885_);}
	.st14{fill:url(#SVGID_00000060753504033122779190000014267908465110678958_);}
	.st15{fill:#FFFEF9;}
</style>
<linearGradient id="SVGID_1_" gradientUnits="userSpaceOnUse" x1="-22.2699" y1="-2.4705" x2="662.23" y2="94.0295" gradientTransform="matrix(1 0 0 -1 0 842)">
	<stop  offset="0" style="stop-color:#003F62"/>
	<stop  offset="0.33" style="stop-color:#006980"/>
	<stop  offset="0.7" style="stop-color:#009C86"/>
	<stop  offset="1" style="stop-color:#A7D6A3"/>
</linearGradient>
<polygon class="st0" points="240.1,756.9 195.4,756.8 0,756.8 0,841.9 595.3,841.9 595.3,756.9 "/>
<path class="st1" d="M417.6,61.2l-2-5.2h0.7l1.8,4.9h-0.3l1.9-4.9h0.6l1.8,4.9h-0.3l1.8-4.9h0.6l-2,5.2h-0.7l-1.8-4.6h0.3l-1.8,4.6
	H417.6z"/>
<path class="st1" d="M426.5,61.2l-2-5.2h0.7l1.8,4.9h-0.3l1.9-4.9h0.6l1.9,4.9h-0.3l1.8-4.9h0.6l-2,5.2h-0.7l-1.8-4.6h0.2l-1.8,4.6
	H426.5z"/>
<path class="st1" d="M435.4,61.2l-2-5.2h0.7l1.8,4.9h-0.3l1.9-4.9h0.6l1.8,4.9h-0.3l1.8-4.9h0.6l-2,5.2h-0.7l-1.8-4.6h0.2l-1.8,4.6
	H435.4z"/>
<path class="st1" d="M443.1,61.2c-0.1,0-0.3-0.1-0.4-0.2c-0.2-0.2-0.2-0.6,0-0.8c0.1-0.1,0.2-0.2,0.4-0.2c0.1,0,0.3,0.1,0.4,0.2
	c0.2,0.2,0.2,0.6,0,0.8C443.4,61.2,443.2,61.2,443.1,61.2z"/>
<path class="st1" d="M444.8,61.2v-0.5l3.5-4.4l0.1,0.2h-3.6v-0.6h4.2v0.5l-3.5,4.4l-0.2-0.2h3.7v0.6L444.8,61.2z"/>
<path class="st1" d="M452.6,61.2c-0.5,0-0.9-0.1-1.3-0.3c-0.4-0.2-0.7-0.5-0.9-0.9c-0.5-0.9-0.5-1.9,0-2.8c0.2-0.4,0.5-0.7,0.9-0.9
	c0.4-0.2,0.9-0.3,1.3-0.3c0.4,0,0.9,0.1,1.2,0.3c0.4,0.2,0.7,0.5,0.9,0.9c0.2,0.5,0.3,0.9,0.3,1.5c0,0.5-0.1,1-0.3,1.5
	c-0.2,0.4-0.5,0.7-0.9,0.9C453.5,61.1,453.1,61.2,452.6,61.2z M452.7,60.6c0.3,0,0.7-0.1,1-0.2c0.3-0.2,0.5-0.4,0.7-0.7
	c0.3-0.7,0.3-1.5,0-2.2c-0.2-0.3-0.4-0.5-0.7-0.7c-0.3-0.2-0.6-0.3-1-0.3c-0.7,0-1.4,0.4-1.7,1c-0.3,0.7-0.3,1.5,0,2.2
	c0.2,0.3,0.4,0.5,0.7,0.7C452,60.5,452.4,60.6,452.7,60.6L452.7,60.6z M454.7,61.2v-1.6l0.1-1.1l-0.1-1.1v-3.7h0.7v7.4H454.7z"/>
<path class="st1" d="M457.5,61.2v-5.2h0.7v1.4l-0.1-0.2c0.1-0.4,0.4-0.7,0.7-0.9c0.4-0.2,0.8-0.3,1.3-0.3v0.7H460
	c-0.5,0-1,0.2-1.3,0.5c-0.3,0.4-0.5,0.9-0.5,1.4v2.7L457.5,61.2z"/>
<path class="st1" d="M462.8,61.2c-0.3,0-0.7-0.1-1-0.2c-0.3-0.1-0.5-0.3-0.7-0.5c-0.3-0.4-0.3-1-0.1-1.5c0.2-0.2,0.4-0.4,0.6-0.5
	c0.4-0.2,0.8-0.2,1.2-0.2h1.8v0.5h-1.8c-0.4,0-0.7,0.1-1,0.3c-0.4,0.3-0.4,0.9-0.1,1.3c0,0,0.1,0.1,0.1,0.1c0.3,0.2,0.6,0.3,1,0.3
	c0.4,0,0.7-0.1,1-0.3c0.3-0.2,0.5-0.5,0.6-0.8l0.2,0.5c-0.1,0.3-0.4,0.6-0.7,0.8C463.6,61.2,463.2,61.2,462.8,61.2z M464.6,61.2V60
	v-0.2v-1.9c0-0.4-0.1-0.7-0.4-1c-0.3-0.3-0.7-0.4-1.1-0.4c-0.3,0-0.7,0.1-1,0.2c-0.3,0.1-0.5,0.3-0.8,0.5l-0.3-0.5
	c0.3-0.2,0.6-0.4,1-0.5c0.4-0.1,0.8-0.2,1.2-0.2c0.6,0,1.1,0.1,1.6,0.5c0.4,0.4,0.6,1,0.5,1.5v3.3L464.6,61.2z"/>
<path class="st1" d="M468.6,61.2l-2.3-5.2h0.7l2.1,4.9h-0.4l2.2-4.9h0.7l-2.3,5.2H468.6z"/>
<path class="st1" d="M474.9,61.2c-0.5,0-0.9-0.1-1.4-0.3c-0.4-0.2-0.8-0.6-1-1c-0.5-0.9-0.5-1.9,0-2.8c0.2-0.4,0.6-0.7,1-0.9
	c0.4-0.2,0.9-0.3,1.4-0.3c0.5,0,1,0.1,1.4,0.3c0.4,0.2,0.8,0.5,1,0.9c0.5,0.9,0.5,1.9,0,2.8c-0.2,0.4-0.6,0.8-1,1
	C475.8,61.1,475.4,61.2,474.9,61.2z M474.9,60.6c0.3,0,0.7-0.1,1-0.2c0.3-0.2,0.5-0.4,0.7-0.7c0.3-0.7,0.3-1.5,0-2.2
	c-0.2-0.3-0.4-0.5-0.7-0.7c-0.3-0.2-0.6-0.3-1-0.3c-0.7,0-1.4,0.4-1.7,1c-0.3,0.7-0.3,1.5,0,2.2c0.2,0.3,0.4,0.5,0.7,0.7
	C474.2,60.5,474.5,60.6,474.9,60.6z"/>
<path class="st1" d="M479.1,61.2c-0.1,0-0.3-0.1-0.4-0.2c-0.2-0.2-0.2-0.6,0-0.8c0.1-0.1,0.2-0.2,0.4-0.2c0.1,0,0.3,0.1,0.4,0.2
	c0.2,0.2,0.2,0.6,0,0.8C479.4,61.2,479.3,61.2,479.1,61.2z"/>
<path class="st1" d="M481.8,54.8c-0.1,0-0.3-0.1-0.4-0.2c-0.1-0.1-0.2-0.2-0.1-0.4c0-0.1,0.1-0.3,0.1-0.3c0.1-0.1,0.2-0.2,0.4-0.2
	c0.1,0,0.3,0,0.4,0.1c0.1,0.1,0.2,0.2,0.1,0.3c0,0.1,0,0.3-0.1,0.4C482,54.7,481.9,54.8,481.8,54.8z M481.4,61.2v-5.2h0.7v5.2H481.4
	z"/>
<path class="st1" d="M487,55.9c0.4,0,0.8,0.1,1.1,0.2c0.3,0.2,0.6,0.4,0.8,0.7c0.2,0.4,0.3,0.8,0.3,1.3v3h-0.7v-3
	c0-0.4-0.2-0.8-0.5-1.1c-0.3-0.3-0.7-0.5-1.2-0.4c-0.3,0-0.7,0.1-1,0.2c-0.3,0.1-0.5,0.4-0.6,0.7c-0.2,0.3-0.2,0.7-0.2,1v2.8h-0.7
	v-5.3h0.8v1.4l-0.1-0.3c0.2-0.4,0.4-0.7,0.8-0.9C486.1,56,486.5,55.9,487,55.9z"/>
<path class="st1" d="M491.3,61.2c-0.1,0-0.3-0.1-0.4-0.2c-0.2-0.2-0.2-0.6,0-0.8c0.1-0.1,0.2-0.2,0.4-0.2c0.1,0,0.3,0.1,0.4,0.2
	c0.2,0.2,0.2,0.6,0,0.8C491.6,61.2,491.5,61.2,491.3,61.2z"/>
<path class="st1" d="M495.6,61.2c-0.4,0-0.8-0.1-1.2-0.2c-0.3-0.2-0.6-0.4-0.8-0.8c-0.2-0.4-0.3-0.8-0.3-1.2v-3h0.7v3
	c0,0.5,0.1,0.9,0.4,1.3c0.3,0.3,0.7,0.4,1.2,0.4c0.3,0,0.7-0.1,1-0.2c0.3-0.2,0.5-0.4,0.6-0.7c0.1-0.3,0.2-0.7,0.2-1v-2.9h0.7v5.2
	h-0.7v-1.4l0.1,0.3c-0.2,0.4-0.4,0.7-0.8,0.9C496.5,61.1,496,61.3,495.6,61.2z"/>
<path class="st1" d="M501.8,61.2c-0.3,0-0.7-0.1-1-0.2c-0.3-0.1-0.5-0.3-0.7-0.5c-0.3-0.5-0.3-1.1,0-1.5c0.2-0.2,0.4-0.4,0.6-0.5
	c0.4-0.2,0.8-0.2,1.2-0.2h1.8v0.5H502c-0.4,0-0.7,0.1-1,0.3c-0.4,0.3-0.4,0.9-0.1,1.3c0,0,0.1,0.1,0.1,0.1c0.3,0.2,0.6,0.3,1,0.3
	c0.4,0,0.7-0.1,1-0.3c0.3-0.2,0.5-0.5,0.6-0.8l0.2,0.5c-0.1,0.3-0.4,0.6-0.7,0.8C502.7,61.1,502.3,61.3,501.8,61.2z M503.6,61.2V60
	v-0.2v-1.9c0-0.4-0.1-0.7-0.4-1c-0.3-0.3-0.7-0.4-1.1-0.4c-0.3,0-0.7,0.1-1,0.2c-0.3,0.1-0.5,0.3-0.8,0.5l-0.3-0.5
	c0.3-0.2,0.6-0.4,1-0.5c0.4-0.1,0.8-0.2,1.2-0.2c0.6,0,1.1,0.1,1.6,0.5c0.4,0.4,0.6,1,0.5,1.5v3.3L503.6,61.2z"/>
<path class="st1" d="M415.4,70c-0.1,0-0.3-0.1-0.4-0.2c-0.2-0.2-0.2-0.5,0-0.7c0.1-0.1,0.2-0.1,0.4-0.1c0.1,0,0.3,0,0.4,0.1
	c0.1,0.1,0.2,0.2,0.1,0.3c0,0.1,0,0.3-0.1,0.4C415.6,69.9,415.5,70,415.4,70z M415,76.4v-5.2h0.7v5.2H415z"/>
<path class="st1" d="M420.6,71.1c0.4,0,0.8,0.1,1.1,0.2c0.3,0.2,0.6,0.4,0.8,0.8c0.2,0.4,0.3,0.8,0.3,1.3v3H422v-3
	c0-0.5-0.1-0.9-0.4-1.3c-0.3-0.3-0.7-0.4-1.2-0.4c-0.3,0-0.7,0.1-1,0.2c-0.3,0.1-0.5,0.4-0.6,0.7c-0.2,0.3-0.2,0.7-0.2,1v2.8h-0.7
	v-5.2h0.7v1.4l-0.1-0.3c0.2-0.4,0.4-0.7,0.8-0.9C419.6,71.2,420.1,71,420.6,71.1z"/>
<path class="st1" d="M424,71.7v-0.6h3.2v0.6H424z M424.9,76.4v-5.9c0-0.4,0.1-0.8,0.4-1.1c0.3-0.3,0.7-0.5,1.2-0.4
	c0.2,0,0.4,0,0.6,0.1c0.2,0,0.3,0.1,0.5,0.2l-0.2,0.5c-0.1-0.1-0.2-0.2-0.4-0.2c-0.1,0-0.3-0.1-0.4-0.1c-0.3,0-0.5,0.1-0.7,0.2
	c-0.2,0.2-0.3,0.5-0.2,0.7v0.8v0.3v4.8L424.9,76.4z"/>
<path class="st1" d="M430.5,76.4c-0.5,0-0.9-0.1-1.4-0.3c-0.4-0.2-0.8-0.6-1-1c-0.5-0.9-0.5-1.9,0-2.8c0.2-0.4,0.6-0.7,1-0.9
	c0.4-0.2,0.9-0.4,1.4-0.3c0.5,0,1,0.1,1.4,0.3c0.4,0.2,0.7,0.5,1,0.9c0.5,0.9,0.5,1.9,0,2.8c-0.2,0.4-0.6,0.8-1,1
	C431.4,76.3,430.9,76.4,430.5,76.4z M430.5,75.8c0.4,0,0.7-0.1,1-0.3c0.3-0.2,0.5-0.4,0.7-0.7c0.2-0.3,0.3-0.7,0.2-1.1
	c0-0.4-0.1-0.7-0.2-1.1c-0.2-0.3-0.4-0.6-0.7-0.7c-0.3-0.2-0.7-0.3-1-0.2c-0.3,0-0.7,0.1-1,0.2c-0.3,0.2-0.5,0.4-0.7,0.7
	c-0.2,0.3-0.3,0.7-0.3,1.1c0,0.4,0.1,0.7,0.3,1.1c0.2,0.3,0.4,0.5,0.7,0.7C429.8,75.7,430.1,75.8,430.5,75.8z"/>
<path class="st1" d="M439,78.4c-0.6,0-1.3-0.1-1.9-0.3c-0.5-0.2-1-0.5-1.5-0.9c-0.4-0.4-0.7-0.9-1-1.4c-0.5-1.2-0.5-2.5,0-3.7
	c0.2-0.5,0.6-1,1-1.4c0.4-0.4,0.9-0.7,1.5-0.9c0.6-0.2,1.2-0.3,1.8-0.3c0.6,0,1.3,0.1,1.9,0.3c0.5,0.2,1,0.5,1.5,0.9
	c0.4,0.4,0.8,0.9,1,1.4c0.4,1,0.4,2.2,0.1,3.2c-0.1,0.4-0.3,0.7-0.6,0.9c-0.2,0.2-0.6,0.3-0.9,0.3c-0.3,0-0.6-0.1-0.8-0.3
	c-0.2-0.2-0.3-0.6-0.3-0.9v-0.8l0.1-0.6l-0.1-1v-1.5h0.6v3.8c0,0.2,0,0.4,0.2,0.6c0.1,0.1,0.3,0.2,0.4,0.2c0.2,0,0.4-0.1,0.5-0.2
	c0.2-0.2,0.3-0.5,0.4-0.7c0.1-0.4,0.1-0.8,0.1-1.1c0-0.5-0.1-1.1-0.3-1.6c-0.2-0.5-0.5-0.9-0.9-1.2c-0.4-0.4-0.8-0.6-1.3-0.8
	c-0.5-0.2-1.1-0.3-1.7-0.3c-0.6,0-1.1,0.1-1.7,0.3c-0.5,0.2-0.9,0.5-1.3,0.8c-0.4,0.4-0.7,0.8-0.9,1.3c-0.2,0.5-0.3,1.1-0.3,1.6
	c0,0.6,0.1,1.1,0.3,1.6c0.2,0.5,0.5,0.9,0.8,1.3c0.4,0.4,0.8,0.6,1.3,0.8c0.5,0.2,1.1,0.3,1.7,0.3c0.3,0,0.7,0,1-0.1
	c0.3-0.1,0.6-0.2,1-0.3l0.2,0.5c-0.3,0.2-0.7,0.3-1,0.3C439.8,78.3,439.4,78.4,439,78.4z M438.9,76.4c-0.4,0-0.9-0.1-1.3-0.3
	c-0.4-0.2-0.7-0.5-0.9-0.9c-0.4-0.8-0.4-1.8,0-2.7c0.2-0.4,0.5-0.7,0.9-0.9c0.4-0.2,0.8-0.3,1.3-0.3c0.4,0,0.9,0.1,1.2,0.3
	c0.4,0.2,0.6,0.5,0.8,0.9c0.4,0.9,0.4,1.9,0,2.8c-0.2,0.4-0.5,0.7-0.8,0.9C439.7,76.3,439.3,76.4,438.9,76.4L438.9,76.4z M439,75.8
	c0.3,0,0.7-0.1,1-0.2c0.3-0.2,0.5-0.4,0.7-0.7c0.3-0.7,0.3-1.4,0-2.1c-0.2-0.3-0.4-0.5-0.7-0.7c-0.6-0.3-1.4-0.3-2,0
	c-0.3,0.2-0.5,0.4-0.7,0.7c-0.3,0.7-0.3,1.4,0,2.1c0.2,0.3,0.4,0.5,0.7,0.7C438.3,75.7,438.6,75.8,439,75.8L439,75.8z"/>
<path class="st1" d="M444.8,76.4v-0.5l3.5-4.4l0.1,0.2h-3.6v-0.6h4.2v0.5l-3.5,4.4l-0.2-0.2h3.7v0.6L444.8,76.4z"/>
<path class="st1" d="M452.6,76.4c-0.5,0-0.9-0.1-1.3-0.3c-0.4-0.2-0.7-0.6-0.9-0.9c-0.5-0.9-0.5-1.9,0-2.8c0.2-0.4,0.5-0.7,0.9-0.9
	c0.4-0.2,0.9-0.3,1.3-0.3c0.4,0,0.9,0.1,1.2,0.3c0.4,0.2,0.7,0.5,0.9,0.9c0.4,0.9,0.4,2,0,2.9c-0.2,0.4-0.5,0.7-0.9,0.9
	C453.5,76.3,453.1,76.4,452.6,76.4z M452.7,75.8c0.4,0,0.7-0.1,1-0.3c0.3-0.2,0.5-0.4,0.7-0.7c0.2-0.3,0.3-0.7,0.2-1.1
	c0-0.4-0.1-0.7-0.2-1.1c-0.2-0.3-0.4-0.5-0.7-0.7c-0.3-0.2-0.7-0.3-1-0.2c-0.3,0-0.7,0.1-1,0.2c-0.3,0.2-0.5,0.4-0.7,0.7
	c-0.2,0.3-0.3,0.7-0.3,1.1c0,0.4,0.1,0.7,0.3,1.1c0.2,0.3,0.4,0.5,0.7,0.7C452,75.7,452.3,75.8,452.7,75.8L452.7,75.8z M454.7,76.4
	v-1.6l0.1-1.1l-0.1-1.1v-3.7h0.7v7.4L454.7,76.4z"/>
<path class="st1" d="M457.5,76.4v-5.2h0.7v1.4l-0.1-0.2c0.1-0.4,0.4-0.7,0.7-0.9c0.4-0.2,0.8-0.3,1.3-0.3v0.7H460
	c-0.5,0-1,0.2-1.3,0.5c-0.3,0.4-0.5,0.9-0.5,1.4v2.7L457.5,76.4z"/>
<path class="st1" d="M462.8,76.4c-0.3,0-0.7-0.1-1-0.2c-0.3-0.1-0.5-0.3-0.7-0.5c-0.2-0.2-0.2-0.5-0.2-0.8c0-0.3,0.1-0.5,0.2-0.8
	c0.2-0.2,0.4-0.4,0.6-0.5c0.4-0.1,0.8-0.2,1.2-0.2h1.8v0.5h-1.8c-0.4,0-0.7,0.1-1,0.3c-0.2,0.2-0.3,0.4-0.3,0.7
	c0,0.3,0.1,0.6,0.4,0.7c0.3,0.2,0.6,0.3,1,0.3c0.4,0,0.7-0.1,1-0.3c0.3-0.2,0.5-0.5,0.6-0.8l0.2,0.5c-0.1,0.3-0.4,0.6-0.7,0.8
	C463.6,76.3,463.2,76.4,462.8,76.4z M464.6,76.4v-1.2V75v-1.9c0-0.4-0.1-0.7-0.4-1c-0.3-0.3-0.7-0.4-1.1-0.4c-0.3,0-0.7,0-1,0.2
	c-0.3,0.1-0.5,0.3-0.8,0.4l-0.3-0.5c0.3-0.2,0.6-0.4,1-0.5c0.4-0.1,0.8-0.2,1.2-0.2c0.6,0,1.1,0.1,1.6,0.5c0.4,0.4,0.6,1,0.5,1.5
	v3.3L464.6,76.4z"/>
<path class="st1" d="M468.6,76.4l-2.3-5.2h0.7l2.2,4.9h-0.4l2.2-4.9h0.7l-2.3,5.2H468.6z"/>
<path class="st1" d="M474.9,76.4c-0.5,0-0.9-0.1-1.4-0.3c-0.4-0.2-0.8-0.6-1-1c-0.5-0.9-0.5-1.9,0-2.8c0.2-0.4,0.6-0.7,1-0.9
	c0.4-0.2,0.9-0.4,1.4-0.3c0.5,0,1,0.1,1.4,0.3c0.4,0.2,0.8,0.5,1,0.9c0.5,0.9,0.5,1.9,0,2.8c-0.2,0.4-0.6,0.8-1,1
	C475.8,76.3,475.4,76.4,474.9,76.4z M474.9,75.8c0.4,0,0.7-0.1,1-0.3c0.3-0.2,0.5-0.4,0.7-0.7c0.2-0.3,0.3-0.7,0.2-1.1
	c0-0.4-0.1-0.7-0.2-1.1c-0.2-0.3-0.4-0.6-0.7-0.7c-0.3-0.2-0.7-0.3-1-0.2c-0.3,0-0.7,0.1-1,0.2c-0.3,0.2-0.5,0.4-0.7,0.7
	c-0.2,0.3-0.3,0.7-0.3,1.1c0,0.4,0.1,0.7,0.3,1.1c0.2,0.3,0.4,0.5,0.7,0.7C474.2,75.7,474.5,75.8,474.9,75.8z"/>
<path class="st1" d="M479.1,76.4c-0.1,0-0.3-0.1-0.4-0.2c-0.1-0.1-0.2-0.2-0.2-0.4c0-0.3,0.2-0.5,0.5-0.5c0,0,0,0,0,0
	c0.1,0,0.3,0.1,0.4,0.2c0.1,0.1,0.2,0.2,0.1,0.4c0,0.1-0.1,0.3-0.1,0.4C479.4,76.4,479.3,76.4,479.1,76.4z"/>
<path class="st1" d="M481.8,70c-0.1,0-0.3-0.1-0.4-0.2c-0.2-0.2-0.2-0.5,0-0.7c0.1-0.1,0.2-0.1,0.4-0.1c0.1,0,0.3,0,0.4,0.1
	c0.1,0.1,0.2,0.2,0.1,0.3c0,0.1,0,0.3-0.1,0.4C482,69.9,481.9,70,481.8,70z M481.4,76.4v-5.3h0.7v5.2L481.4,76.4z"/>
<path class="st1" d="M487,71.1c0.4,0,0.8,0.1,1.1,0.2c0.3,0.2,0.6,0.4,0.8,0.8c0.2,0.4,0.3,0.8,0.3,1.3v3h-0.7v-3
	c0-0.5-0.1-0.9-0.4-1.3c-0.3-0.3-0.7-0.4-1.2-0.4c-0.3,0-0.7,0.1-1,0.2c-0.3,0.1-0.5,0.4-0.6,0.7c-0.2,0.3-0.2,0.7-0.2,1v2.8h-0.7
	v-5.2h0.7v1.4l-0.1-0.3c0.2-0.4,0.4-0.7,0.8-0.9C486.1,71.2,486.5,71,487,71.1z"/>
<path class="st1" d="M491.3,76.4c-0.1,0-0.3-0.1-0.4-0.2c-0.1-0.1-0.2-0.2-0.2-0.4c0-0.3,0.2-0.5,0.5-0.5c0,0,0,0,0,0
	c0.1,0,0.3,0.1,0.4,0.2c0.1,0.1,0.2,0.2,0.1,0.4c0,0.1-0.1,0.3-0.1,0.4C491.6,76.4,491.5,76.4,491.3,76.4z"/>
<path class="st1" d="M495.6,76.4c-0.4,0-0.8-0.1-1.2-0.2c-0.3-0.2-0.6-0.4-0.8-0.8c-0.2-0.4-0.3-0.8-0.3-1.2v-3h0.7v3
	c0,0.5,0.1,0.9,0.4,1.3c0.3,0.3,0.7,0.5,1.2,0.4c0.3,0,0.7-0.1,1-0.2c0.3-0.2,0.5-0.4,0.6-0.7c0.1-0.3,0.2-0.7,0.2-1v-2.9h0.7v5.2
	h-0.7v-1.4l0.1,0.3c-0.2,0.4-0.4,0.7-0.8,0.9C496.5,76.3,496,76.4,495.6,76.4z"/>
<path class="st1" d="M501.8,76.4c-0.3,0-0.7-0.1-1-0.2c-0.3-0.1-0.5-0.3-0.7-0.5c-0.2-0.2-0.2-0.5-0.2-0.8c0-0.3,0.1-0.5,0.2-0.8
	c0.2-0.2,0.4-0.4,0.6-0.5c0.4-0.1,0.8-0.2,1.2-0.2h1.8v0.5H502c-0.4,0-0.7,0.1-1,0.3c-0.2,0.2-0.3,0.4-0.3,0.7
	c0,0.3,0.1,0.6,0.4,0.7c0.3,0.2,0.6,0.3,1,0.3c0.4,0,0.7-0.1,1-0.3c0.3-0.2,0.5-0.5,0.6-0.8l0.2,0.5c-0.1,0.3-0.4,0.6-0.7,0.8
	C502.7,76.3,502.2,76.4,501.8,76.4z M503.6,76.4v-1.2V75v-1.9c0-0.4-0.1-0.7-0.4-1c-0.3-0.3-0.7-0.4-1.1-0.4c-0.3,0-0.7,0-1,0.2
	c-0.3,0.1-0.6,0.2-0.8,0.4l-0.3-0.5c0.3-0.2,0.6-0.4,1-0.5c0.4-0.1,0.8-0.2,1.2-0.2c0.6,0,1.1,0.1,1.6,0.5c0.4,0.4,0.6,1,0.5,1.5
	v3.3L503.6,76.4z"/>
<path class="st1" d="M405.5,88.3v-0.6h4.4v0.6L405.5,88.3z M407.4,90.1v-4.2h0.6v4.2H407.4z"/>
<path class="st1" d="M413.2,91.6c-0.5,0-1-0.1-1.4-0.2c-0.4-0.1-0.8-0.4-1.1-0.7l0.4-0.6c0.3,0.3,0.6,0.5,0.9,0.6
	c0.4,0.2,0.8,0.2,1.2,0.2c0.5,0,1-0.1,1.3-0.4c0.3-0.2,0.5-0.6,0.5-1c0-0.4-0.2-0.8-0.5-1c-0.4-0.3-0.9-0.4-1.4-0.4h-0.5v-0.5
	l2.2-2.7l0.1,0.3h-3.9v-0.6h4.5V85l-2.2,2.7l-0.4-0.2h0.3c0.7,0,1.3,0.1,1.9,0.6c0.4,0.4,0.6,0.9,0.6,1.4c0,0.4-0.1,0.7-0.3,1.1
	c-0.2,0.3-0.5,0.6-0.8,0.7C414.1,91.5,413.6,91.6,413.2,91.6z"/>
<path class="st1" d="M419.6,91.6c-0.5,0-1-0.1-1.4-0.2c-0.4-0.1-0.7-0.4-0.9-0.7c-0.2-0.3-0.3-0.7-0.3-1.1c0-0.4,0.1-0.7,0.3-1
	c0.2-0.3,0.6-0.5,0.9-0.7c0.9-0.3,2-0.3,2.9,0c0.4,0.1,0.7,0.4,0.9,0.7c0.2,0.3,0.3,0.6,0.3,1c0,0.4-0.1,0.8-0.3,1.1
	c-0.2,0.3-0.6,0.6-0.9,0.7C420.6,91.5,420.1,91.6,419.6,91.6z M419.6,88c-0.4,0-0.9-0.1-1.3-0.2c-0.3-0.1-0.6-0.3-0.8-0.6
	c-0.2-0.3-0.3-0.6-0.3-1c0-0.4,0.1-0.7,0.3-1c0.2-0.3,0.5-0.5,0.9-0.6c0.8-0.3,1.8-0.3,2.6,0c0.3,0.1,0.6,0.3,0.9,0.6
	c0.2,0.3,0.3,0.6,0.3,1c0,0.4-0.1,0.7-0.3,1c-0.2,0.3-0.5,0.5-0.8,0.6C420.5,88,420,88,419.6,88L419.6,88z M419.6,90.9
	c0.5,0,1-0.1,1.5-0.4c0.6-0.4,0.6-1.2,0.2-1.8c-0.1-0.1-0.1-0.2-0.2-0.2c-0.4-0.3-0.9-0.4-1.5-0.4c-0.5,0-1,0.1-1.5,0.4
	c-0.6,0.4-0.6,1.2-0.2,1.8c0.1,0.1,0.1,0.2,0.2,0.2C418.5,90.8,419.1,91,419.6,90.9z M419.6,87.6c0.5,0,0.9-0.1,1.3-0.3
	c0.3-0.2,0.5-0.5,0.5-0.9c0-0.4-0.2-0.7-0.5-0.9c-0.8-0.5-1.7-0.5-2.5,0c-0.5,0.4-0.6,1.1-0.2,1.6c0.1,0.1,0.2,0.2,0.2,0.2
	C418.7,87.5,419.1,87.6,419.6,87.6z"/>
<path class="st1" d="M428,93.4c-0.4-0.7-0.7-1.4-0.9-2.1c-0.4-1.7-0.4-3.5,0-5.2c0.2-0.7,0.5-1.4,0.9-2.1h0.7
	c-0.4,0.7-0.7,1.4-0.9,2.2c-0.4,1.6-0.4,3.4,0,5c0.2,0.8,0.5,1.5,0.9,2.2L428,93.4z"/>
<path class="st1" d="M432.6,91.6c-0.5,0-1-0.1-1.4-0.4c-0.4-0.3-0.8-0.7-1-1.2c-0.5-1.2-0.5-2.6,0-3.8c0.2-0.5,0.6-0.9,1-1.2
	c0.9-0.6,2-0.6,2.9,0c0.4,0.3,0.8,0.7,1,1.2c0.5,1.2,0.5,2.6,0,3.8c-0.2,0.5-0.6,0.9-1,1.2C433.6,91.4,433.1,91.6,432.6,91.6z
	 M432.6,90.9c0.4,0,0.8-0.1,1.1-0.3c0.3-0.3,0.6-0.6,0.7-1c0.3-1,0.3-2.1,0-3.2c-0.1-0.4-0.4-0.7-0.7-1c-0.3-0.2-0.7-0.3-1.1-0.3
	c-0.4,0-0.8,0.1-1.1,0.3c-0.3,0.3-0.6,0.6-0.7,1c-0.3,1-0.3,2.1,0,3.2c0.1,0.4,0.4,0.7,0.7,1C431.8,90.8,432.2,90.9,432.6,90.9z"/>
<path class="st1" d="M436.5,89.7v-0.5l3.7-4.6h0.8l-3.7,4.6l-0.4-0.1h5.6v0.6H436.5z M440.5,91.5v-1.8V89v-1.6h0.7v4.1H440.5z"/>
<path class="st1" d="M443.3,89.7v-0.5l3.7-4.6h0.8l-3.7,4.6l-0.4-0.1h5.6v0.6L443.3,89.7z M447.3,91.5v-1.8V89v-1.6h0.7v4.1H447.3z"
	/>
<path class="st1" d="M450.8,93.4h-0.7c0.4-0.7,0.7-1.4,0.9-2.2c0.4-1.6,0.4-3.4,0-5c-0.2-0.8-0.5-1.5-0.9-2.2h0.7
	c0.4,0.6,0.7,1.4,0.9,2.1c0.4,1.7,0.4,3.5,0,5.2C451.5,92.1,451.2,92.8,450.8,93.4z"/>
<path class="st1" d="M458.8,91.6c-0.5,0-1-0.1-1.4-0.2c-0.4-0.1-0.8-0.4-1.1-0.7l0.4-0.6c0.3,0.3,0.6,0.5,0.9,0.6
	c0.4,0.2,0.8,0.2,1.2,0.2c0.5,0,1-0.1,1.4-0.4c0.3-0.2,0.5-0.6,0.5-1c0-0.3-0.1-0.5-0.2-0.8c-0.2-0.2-0.4-0.4-0.7-0.5
	c-0.5-0.1-0.9-0.2-1.4-0.2h-1.5l0.4-3.5h3.8v0.6h-3.5l0.4-0.3l-0.3,2.9l-0.4-0.4h1.3c0.6,0,1.2,0.1,1.7,0.3c0.4,0.1,0.7,0.4,0.9,0.7
	c0.2,0.3,0.3,0.7,0.3,1.1c0,0.4-0.1,0.8-0.3,1.1c-0.2,0.3-0.5,0.6-0.8,0.8C459.7,91.5,459.2,91.6,458.8,91.6z"/>
<path class="st1" d="M465.2,91.6c-0.5,0-1-0.1-1.4-0.4c-0.4-0.3-0.8-0.7-1-1.2c-0.5-1.2-0.5-2.6,0-3.8c0.2-0.5,0.6-0.9,1-1.2
	c0.9-0.6,2-0.6,2.9,0c0.4,0.3,0.8,0.7,1,1.2c0.5,1.2,0.5,2.6,0,3.8c-0.2,0.5-0.6,0.9-1,1.2C466.2,91.4,465.7,91.6,465.2,91.6z
	 M465.2,90.9c0.4,0,0.8-0.1,1.1-0.3c0.3-0.3,0.6-0.6,0.7-1c0.3-1,0.3-2.1,0-3.2c-0.1-0.4-0.4-0.7-0.7-1c-0.3-0.2-0.7-0.3-1.1-0.3
	c-0.4,0-0.8,0.1-1.1,0.3c-0.3,0.3-0.6,0.6-0.7,1c-0.3,1-0.3,2.1,0,3.2c0.1,0.4,0.4,0.7,0.7,1C464.4,90.8,464.8,90.9,465.2,90.9z"/>
<path class="st1" d="M471.2,91.6c-0.5,0-1-0.1-1.4-0.2c-0.4-0.1-0.8-0.4-1.1-0.7l0.4-0.6c0.3,0.3,0.6,0.5,0.9,0.6
	c0.4,0.2,0.8,0.2,1.2,0.2c0.5,0,1-0.1,1.3-0.4c0.3-0.2,0.5-0.6,0.5-1c0-0.4-0.2-0.8-0.5-1c-0.4-0.3-0.9-0.4-1.4-0.4h-0.5v-0.5
	l2.2-2.7l0.1,0.3H469v-0.6h4.5V85l-2.2,2.7l-0.4-0.2h0.3c0.7,0,1.3,0.1,1.9,0.6c0.4,0.4,0.6,0.9,0.6,1.4c0,0.4-0.1,0.7-0.3,1.1
	c-0.2,0.3-0.5,0.6-0.8,0.7C472.2,91.5,471.7,91.6,471.2,91.6z"/>
<path class="st1" d="M479,91.5l3-6.7l0.2,0.3h-4.3l0.4-0.3v1.7h-0.7v-2h5.1V85l-2.9,6.5H479z"/>
<path class="st1" d="M486.4,91.6c-0.5,0-1-0.1-1.4-0.2c-0.4-0.1-0.7-0.4-0.9-0.7c-0.2-0.3-0.3-0.7-0.3-1.1c0-0.4,0.1-0.7,0.3-1
	c0.2-0.3,0.6-0.5,0.9-0.7c0.9-0.3,2-0.3,2.9,0c0.4,0.1,0.7,0.4,0.9,0.7c0.2,0.3,0.3,0.6,0.3,1c0,0.4-0.1,0.8-0.3,1.1
	c-0.2,0.3-0.6,0.6-0.9,0.7C487.3,91.5,486.8,91.6,486.4,91.6z M486.4,88c-0.4,0-0.9-0.1-1.3-0.2c-0.3-0.1-0.6-0.3-0.8-0.6
	c-0.2-0.3-0.3-0.6-0.3-1c0-0.4,0.1-0.7,0.3-1c0.2-0.3,0.5-0.5,0.9-0.6c0.4-0.2,0.9-0.2,1.3-0.2c0.4,0,0.9,0.1,1.3,0.2
	c0.3,0.1,0.6,0.4,0.9,0.6c0.2,0.3,0.3,0.6,0.3,1c0,0.4-0.1,0.7-0.3,1c-0.2,0.3-0.5,0.5-0.8,0.6C487.3,88,486.8,88,486.4,88L486.4,88
	z M486.4,90.9c0.5,0,1-0.1,1.5-0.4c0.6-0.4,0.6-1.2,0.2-1.8c-0.1-0.1-0.1-0.2-0.2-0.2c-0.4-0.3-0.9-0.4-1.5-0.4
	c-0.5,0-1,0.1-1.5,0.4c-0.6,0.4-0.6,1.2-0.2,1.8c0.1,0.1,0.1,0.2,0.2,0.2C485.3,90.8,485.8,91,486.4,90.9z M486.4,87.6
	c0.5,0,0.9-0.1,1.3-0.3c0.3-0.2,0.5-0.5,0.5-0.9c0-0.4-0.2-0.7-0.5-0.9c-0.8-0.5-1.7-0.5-2.5,0c-0.5,0.4-0.6,1.1-0.2,1.6
	c0.1,0.1,0.2,0.2,0.2,0.2C485.5,87.5,485.9,87.6,486.4,87.6z"/>
<path class="st1" d="M496,91.6c-0.6,0-1.1-0.1-1.6-0.4c-0.4-0.3-0.8-0.7-1-1.2c-0.2-0.6-0.3-1.2-0.3-1.9c0-0.7,0.1-1.4,0.4-2
	c0.2-0.5,0.6-0.9,1.1-1.2c0.5-0.3,1.1-0.4,1.7-0.4c0.3,0,0.6,0,0.9,0.1c0.3,0.1,0.5,0.2,0.8,0.3l-0.3,0.6c-0.2-0.1-0.4-0.2-0.6-0.2
	c-0.2-0.1-0.5-0.1-0.7-0.1c-0.7,0-1.3,0.2-1.8,0.7c-0.5,0.6-0.7,1.4-0.7,2.2c0,0.2,0,0.3,0,0.6c0,0.2,0,0.4,0.1,0.6l-0.2-0.2
	c0.1-0.3,0.2-0.6,0.4-0.9c0.2-0.2,0.5-0.4,0.8-0.6c0.3-0.1,0.7-0.2,1.1-0.2c0.4,0,0.8,0.1,1.2,0.3c0.3,0.2,0.6,0.4,0.8,0.7
	c0.2,0.3,0.3,0.7,0.3,1.1c0,0.4-0.1,0.8-0.3,1.1c-0.2,0.3-0.5,0.6-0.9,0.8C496.8,91.5,496.4,91.6,496,91.6z M496,90.9
	c0.3,0,0.6-0.1,0.9-0.2c0.2-0.1,0.5-0.3,0.6-0.5c0.2-0.2,0.2-0.5,0.2-0.8c0-0.4-0.2-0.8-0.5-1.1c-0.4-0.3-0.8-0.4-1.3-0.4
	c-0.3,0-0.6,0.1-0.9,0.2c-0.3,0.1-0.5,0.3-0.6,0.6c-0.2,0.2-0.2,0.5-0.2,0.8c0,0.3,0.1,0.5,0.2,0.7c0.2,0.2,0.4,0.4,0.6,0.6
	C495.3,90.9,495.6,90.9,496,90.9L496,90.9z"/>
<path class="st1" d="M502,91.6c-0.5,0-1-0.1-1.4-0.2c-0.4-0.1-0.7-0.4-0.9-0.7c-0.2-0.3-0.3-0.7-0.3-1.1c0-0.4,0.1-0.7,0.3-1
	c0.2-0.3,0.6-0.5,0.9-0.7c0.9-0.3,2-0.3,2.9,0c0.4,0.1,0.7,0.4,0.9,0.7c0.2,0.3,0.3,0.6,0.3,1c0,0.4-0.1,0.8-0.3,1.1
	c-0.2,0.3-0.6,0.6-0.9,0.7C503,91.5,502.5,91.6,502,91.6z M502,88c-0.4,0-0.9-0.1-1.3-0.2c-0.3-0.1-0.6-0.3-0.8-0.6
	c-0.2-0.3-0.3-0.6-0.3-1c0-0.4,0.1-0.7,0.3-1c0.2-0.3,0.5-0.5,0.9-0.6c0.4-0.2,0.9-0.2,1.3-0.2c0.4,0,0.9,0.1,1.3,0.2
	c0.3,0.1,0.6,0.4,0.9,0.6c0.2,0.3,0.3,0.6,0.3,1c0,0.4-0.1,0.7-0.3,1c-0.2,0.3-0.5,0.5-0.8,0.6C502.9,87.9,502.5,88,502,88z
	 M502,90.9c0.5,0,1-0.1,1.5-0.4c0.6-0.4,0.6-1.2,0.2-1.8c-0.1-0.1-0.1-0.2-0.2-0.2c-0.4-0.3-0.9-0.4-1.5-0.4c-0.5,0-1,0.1-1.5,0.4
	c-0.6,0.4-0.6,1.2-0.2,1.8c0.1,0.1,0.1,0.2,0.2,0.2C501,90.8,501.5,91,502,90.9L502,90.9z M502,87.5c0.5,0,0.9-0.1,1.3-0.3
	c0.3-0.2,0.5-0.5,0.5-0.9c0-0.4-0.2-0.7-0.5-0.9c-0.4-0.2-0.8-0.4-1.3-0.3c-0.4,0-0.9,0.1-1.3,0.3c-0.5,0.4-0.6,1.1-0.2,1.6
	c0.1,0.1,0.2,0.2,0.2,0.2C501.1,87.4,501.5,87.6,502,87.5L502,87.5z"/>
<g id="BK76if">
	
		<linearGradient id="SVGID_00000137106315425791336420000004992764912404451461_" gradientUnits="userSpaceOnUse" x1="518.3175" y1="744.9978" x2="542.8175" y2="800.2478" gradientTransform="matrix(1 0 0 -1 0 842)">
		<stop  offset="0" style="stop-color:#003F62"/>
		<stop  offset="0.33" style="stop-color:#006980"/>
		<stop  offset="0.7" style="stop-color:#009C86"/>
		<stop  offset="1" style="stop-color:#A7D6A3"/>
	</linearGradient>
	<path style="fill:url(#SVGID_00000137106315425791336420000004992764912404451461_);" d="M519,84.4c0.1,0,0.3,0.1,0.4,0.2
		c0.4,0.5,0.7,1,1,1.5c0.1,0.2,0.1,0.5-0.2,0.7c-0.1,0.1-0.2,0.2-0.3,0.2l-0.2,0.2v0.2c0,0.2,0,0.3,0.1,0.5c0.4,0.6,0.9,1.1,1.4,1.6
		c0.5,0.5,1.1,1,1.7,1.4c0.1,0.1,0.2,0.1,0.4,0.1h0.1c0.2,0,0.3-0.2,0.4-0.3c0.1-0.1,0.2-0.2,0.2-0.3c0.1-0.1,0.3-0.2,0.4-0.2
		c0.1,0,0.2,0,0.3,0.1c0.5,0.3,1,0.7,1.4,1c0.2,0.1,0.3,0.4,0.2,0.6c-0.2,0.5-0.6,0.8-1.1,0.8h-0.3h-0.1c-0.6,0-1.3-0.2-1.8-0.4
		c-2-1-3.6-2.6-4.5-4.6c-0.2-0.5-0.4-1-0.4-1.6c-0.1-0.5,0.1-1,0.4-1.3C518.5,84.5,518.7,84.4,519,84.4L519,84.4 M519,83.6h-0.2
		c-0.4,0.1-0.7,0.3-1,0.5c-0.5,0.5-0.7,1.2-0.6,1.9c0,0.7,0.2,1.3,0.5,1.9c1,2.2,2.7,3.9,4.9,4.9c0.7,0.3,1.4,0.5,2.2,0.5h0.2h0.3
		c0.7-0.1,1.4-0.6,1.6-1.3c0.3-0.5,0.1-1.2-0.4-1.5c-0.5-0.4-1-0.7-1.5-1c-0.2-0.1-0.4-0.2-0.7-0.2c-0.4,0-0.8,0.2-1,0.5
		c-0.1,0.1-0.1,0.2-0.2,0.3c-0.5-0.4-1-0.8-1.5-1.2c-0.4-0.4-0.8-0.9-1.2-1.4l0.3-0.2c0.5-0.4,0.7-1.1,0.3-1.7c-0.3-0.5-0.7-1-1-1.5
		C519.8,83.9,519.4,83.7,519,83.6L519,83.6z"/>
</g>
<linearGradient id="SVGID_00000005966568947411628360000001246138301997822853_" gradientUnits="userSpaceOnUse" x1="511.8386" y1="747.8662" x2="536.3386" y2="803.1161" gradientTransform="matrix(1 0 0 -1 0 842)">
	<stop  offset="0" style="stop-color:#003F62"/>
	<stop  offset="0.33" style="stop-color:#006980"/>
	<stop  offset="0.7" style="stop-color:#009C86"/>
	<stop  offset="1" style="stop-color:#A7D6A3"/>
</linearGradient>
<path style="fill:url(#SVGID_00000005966568947411628360000001246138301997822853_);" d="M522,74.3c-0.2,0-0.4-0.1-0.6-0.2l-4.4-2.9
	l0.4-0.6l0.5,0.3l3.9,2.6c0.1,0.1,0.3,0.1,0.4,0l4.4-2.9l0.4,0.6l-4.4,2.9C522.5,74.2,522.2,74.3,522,74.3z"/>
<linearGradient id="SVGID_00000165934109216852959840000012829091012170970258_" gradientUnits="userSpaceOnUse" x1="512.6757" y1="747.4975" x2="537.1757" y2="802.7475" gradientTransform="matrix(1 0 0 -1 0 842)">
	<stop  offset="0" style="stop-color:#003F62"/>
	<stop  offset="0.33" style="stop-color:#006980"/>
	<stop  offset="0.7" style="stop-color:#009C86"/>
	<stop  offset="1" style="stop-color:#A7D6A3"/>
</linearGradient>
<path style="fill:url(#SVGID_00000165934109216852959840000012829091012170970258_);" d="M525.9,70.3c0.3,0,0.6,0.2,0.7,0.5
	c0,0,0,0.1,0,0.1v5c0,0.3-0.2,0.6-0.5,0.7c0,0-0.1,0-0.1,0h-7.7c-0.3,0-0.6-0.2-0.7-0.5c0,0,0-0.1,0-0.1v-5l0,0
	c0-0.3,0.2-0.6,0.5-0.7c0,0,0.1,0,0.1,0H525.9 M525.9,69.5h-7.7c-0.7,0-1.4,0.5-1.4,1.2c0,0.1,0,0.1,0,0.2v5c0,0.7,0.5,1.4,1.3,1.4
	c0,0,0.1,0,0.1,0h7.7c0.7,0,1.4-0.5,1.4-1.2c0-0.1,0-0.1,0-0.2v-5c0-0.7-0.5-1.4-1.2-1.4C526,69.5,525.9,69.5,525.9,69.5z"/>
<linearGradient id="SVGID_00000021102730619294039840000003543120740081678771_" gradientUnits="userSpaceOnUse" x1="507.0329" y1="749.9976" x2="531.5329" y2="805.2476" gradientTransform="matrix(1 0 0 -1 0 842)">
	<stop  offset="0" style="stop-color:#003F62"/>
	<stop  offset="0.33" style="stop-color:#006980"/>
	<stop  offset="0.7" style="stop-color:#009C86"/>
	<stop  offset="1" style="stop-color:#A7D6A3"/>
</linearGradient>
<path style="fill:url(#SVGID_00000021102730619294039840000003543120740081678771_);" d="M522,53.7c2.5,0,4.5,2,4.5,4.5
	s-2,4.5-4.5,4.5c-2.5,0-4.5-2-4.5-4.5S519.5,53.7,522,53.7L522,53.7 M522,53c-2.9,0-5.3,2.4-5.3,5.3s2.4,5.3,5.3,5.3
	s5.3-2.4,5.3-5.3C527.2,55.4,524.9,53,522,53L522,53z"/>
<linearGradient id="SVGID_00000099628779723214342640000014333456836011708596_" gradientUnits="userSpaceOnUse" x1="507.0329" y1="749.9976" x2="531.5329" y2="805.2476" gradientTransform="matrix(1 0 0 -1 0 842)">
	<stop  offset="0" style="stop-color:#003F62"/>
	<stop  offset="0.33" style="stop-color:#006980"/>
	<stop  offset="0.7" style="stop-color:#009C86"/>
	<stop  offset="1" style="stop-color:#A7D6A3"/>
</linearGradient>
<path style="fill:url(#SVGID_00000099628779723214342640000014333456836011708596_);" d="M522,53.7c0.9,0,1.6,2,1.6,4.5
	s-0.7,4.5-1.6,4.5s-1.6-2-1.6-4.5S521.1,53.7,522,53.7 M522,53c-1.6,0-2.3,2.7-2.3,5.3s0.7,5.3,2.3,5.3s2.3-2.7,2.3-5.3
	S523.6,53,522,53L522,53z"/>
<linearGradient id="SVGID_00000054950294149632128740000006629313318318844349_" gradientUnits="userSpaceOnUse" x1="507.8606" y1="749.6342" x2="532.3606" y2="804.8842" gradientTransform="matrix(1 0 0 -1 0 842)">
	<stop  offset="0" style="stop-color:#003F62"/>
	<stop  offset="0.33" style="stop-color:#006980"/>
	<stop  offset="0.7" style="stop-color:#009C86"/>
	<stop  offset="1" style="stop-color:#A7D6A3"/>
</linearGradient>
<path style="fill:url(#SVGID_00000054950294149632128740000006629313318318844349_);" d="M518,61l-0.6-0.5c0.7-0.8,2.5-1.2,4.6-1.2
	s3.8,0.5,4.5,1.2L526,61c-0.4-0.5-1.9-1-4-1S518.4,60.5,518,61z"/>
<linearGradient id="SVGID_00000156580364272110288380000015627627173658219946_" gradientUnits="userSpaceOnUse" x1="506.24" y1="750.35" x2="530.73" y2="805.6" gradientTransform="matrix(1 0 0 -1 0 842)">
	<stop  offset="0" style="stop-color:#003F62"/>
	<stop  offset="0.33" style="stop-color:#006980"/>
	<stop  offset="0.7" style="stop-color:#009C86"/>
	<stop  offset="1" style="stop-color:#A7D6A3"/>
</linearGradient>
<path style="fill:url(#SVGID_00000156580364272110288380000015627627173658219946_);" d="M522,57.2c-2,0-3.8-0.5-4.5-1.2l0.5-0.5
	c2.5,1.3,5.5,1.3,8,0l0.5,0.5C525.8,56.8,524,57.2,522,57.2z"/>
<linearGradient id="SVGID_00000082361448008496144140000015759575433334582683_" gradientUnits="userSpaceOnUse" x1="68.1562" y1="744.0774" x2="257.3162" y2="770.4574" gradientTransform="matrix(1 0 0 -1 0 842)">
	<stop  offset="0" style="stop-color:#003F62"/>
	<stop  offset="0.33" style="stop-color:#006980"/>
	<stop  offset="0.7" style="stop-color:#009C86"/>
	<stop  offset="1" style="stop-color:#A7D6A3"/>
</linearGradient>
<path style="fill:url(#SVGID_00000082361448008496144140000015759575433334582683_);" d="M226.9,69c-4,0-7.7,2.2-9.6,5.7l-0.2,0.4
	c-1.2,2.3-0.4,5.2,1.9,6.4c0.7,0.4,1.5,0.6,2.2,0.6h9.1c4,0,7.7-2.2,9.6-5.7l3.5-6.4h0.9l0.5-1H226.9z M235,73.1l-1.7,3.2
	c-1.6,2.7-5,4.9-7.7,4.9l0,0c-2.8,0-3.8-2.3-2.3-5.1l0.6-1.1c1.5-2.8,5-5,7.8-5h7.6C237.4,70.4,235.9,71.5,235,73.1z"/>
<linearGradient id="SVGID_00000078750460596121153620000000748151826598489500_" gradientUnits="userSpaceOnUse" x1="67.2007" y1="750.9551" x2="256.3607" y2="777.3251" gradientTransform="matrix(1 0 0 -1 0 842)">
	<stop  offset="0" style="stop-color:#003F62"/>
	<stop  offset="0.33" style="stop-color:#006980"/>
	<stop  offset="0.7" style="stop-color:#009C86"/>
	<stop  offset="1" style="stop-color:#A7D6A3"/>
</linearGradient>
<path style="fill:url(#SVGID_00000078750460596121153620000000748151826598489500_);" d="M172.1,69c-4,0-7.7,2.2-9.6,5.7l-0.2,0.4
	c-1.2,2.3-0.4,5.2,1.9,6.4c0.7,0.4,1.5,0.6,2.2,0.6h4.3c2.1-0.1,4.1-0.8,5.7-2.1l-1.2,2.2h9.5l0.5-1h-1.4c-0.7,0-1-0.6-0.6-1.3
	l5.4-9.9h0.9l0.5-1H172.1z M180.2,73.1l-1.6,3c-1.5,2.8-5,5.1-7.8,5.1s-3.8-2.3-2.3-5.1L169,75c1.5-2.8,5-5,7.8-5h7.6
	C182.6,70.4,181,71.5,180.2,73.1L180.2,73.1z"/>
<linearGradient id="SVGID_00000036970749980577036070000000810606732562122123_" gradientUnits="userSpaceOnUse" x1="65.6428" y1="762.0997" x2="254.8028" y2="788.4797" gradientTransform="matrix(1 0 0 -1 0 842)">
	<stop  offset="0" style="stop-color:#003F62"/>
	<stop  offset="0.33" style="stop-color:#006980"/>
	<stop  offset="0.7" style="stop-color:#009C86"/>
	<stop  offset="1" style="stop-color:#A7D6A3"/>
</linearGradient>
<path style="fill:url(#SVGID_00000036970749980577036070000000810606732562122123_);" d="M139.5,59.7H130l-0.5,1h1.4
	c0.7,0,1,0.6,0.6,1.3l-3.9,7h-10.3c-4,0-7.7,2.2-9.7,5.7l-0.2,0.4c-1.2,2.3-0.4,5.2,1.9,6.4c0.7,0.4,1.5,0.6,2.3,0.6h4.3
	c2.1-0.1,4.1-0.8,5.7-2.1l-1.2,2.2h9.5l0.5-1H129c-0.7,0-1-0.6-0.6-1.3l5.5-9.9h0.9l0.5-1h-0.9L139.5,59.7z M125.4,73.1l-1.6,3
	c-1.5,2.8-5,5.1-7.8,5.1s-3.8-2.3-2.3-5.1l0.6-1.1c1.5-2.8,5-5,7.8-5h7.6C127.8,70.4,126.2,71.5,125.4,73.1z"/>
<linearGradient id="SVGID_00000169540850367527327170000017191726005568159139_" gradientUnits="userSpaceOnUse" x1="67.5773" y1="748.2195" x2="256.7473" y2="774.5895" gradientTransform="matrix(1 0 0 -1 0 842)">
	<stop  offset="0" style="stop-color:#003F62"/>
	<stop  offset="0.33" style="stop-color:#006980"/>
	<stop  offset="0.7" style="stop-color:#009C86"/>
	<stop  offset="1" style="stop-color:#A7D6A3"/>
</linearGradient>
<path style="fill:url(#SVGID_00000169540850367527327170000017191726005568159139_);" d="M193,71.3l-5.9,10.8h17.1
	c3.9,0,7.6-2.1,9.6-5.5l4.2-7.6h-8.6l-0.5,1h4.3c-1.8,0.3-3.3,1.5-4.2,3.1l-1.7,3c-1.5,2.8-5,5-7.8,5h-7.6c1.8-0.4,3.3-1.5,4.2-3.1
	l4.9-9h-9.5l-0.5,1h1.4C193.1,70,193.4,70.6,193,71.3z"/>
<linearGradient id="SVGID_00000085215003078837928780000003083128436723643062_" gradientUnits="userSpaceOnUse" x1="66.0892" y1="758.8958" x2="255.2492" y2="785.2658" gradientTransform="matrix(1 0 0 -1 0 842)">
	<stop  offset="0" style="stop-color:#003F62"/>
	<stop  offset="0.33" style="stop-color:#006980"/>
	<stop  offset="0.7" style="stop-color:#009C86"/>
	<stop  offset="1" style="stop-color:#A7D6A3"/>
</linearGradient>
<path style="fill:url(#SVGID_00000085215003078837928780000003083128436723643062_);" d="M93.9,77.7h-8.6l-0.5,1h6.6
	c2.6,0.1,3.5,2.3,2,5l-1,1.8c-1.5,2.8-5,5-7.8,5h-7.4c-2.7,0-3.9-2.2-2.3-5.1l0.6-1.1c0.7-1.2,1.7-2.3,2.8-3.2h-7.2
	c-0.9,0.8-1.7,1.8-2.2,2.9l-0.3,0.5c-1.2,2.3-0.4,5.2,1.9,6.4c0.7,0.4,1.5,0.6,2.2,0.6h16.7c3.9,0,7.5-2.1,9.5-5.5l0.3-0.6
	c1.3-2.3,0.5-5.2-1.8-6.5c-0.2-0.1-0.3-0.2-0.5-0.2h1c2.8,0,6.3-2.3,7.8-5l2-3.7h0.9l0.5-1H94.6c0.1-0.1,0.1-0.2,0.1-0.3
	c0-0.3-0.2-0.5-0.5-0.5s-0.5,0.2-0.5,0.5c0,0.1,0,0.2,0.1,0.3H83.6c-3.9,0-7.5,2.1-9.5,5.4h6.8c1.7-2.5,4.8-4.4,7.4-4.4h15.1
	c-1.8,0.3-3.3,1.5-4.2,3.1l-0.9,1.7C97.4,76.4,95.7,77.5,93.9,77.7"/>
<linearGradient id="SVGID_00000118397618335239919370000008598321560117489549_" gradientUnits="userSpaceOnUse" x1="66.4573" y1="756.2797" x2="255.6172" y2="782.6597" gradientTransform="matrix(1 0 0 -1 0 842)">
	<stop  offset="0" style="stop-color:#003F62"/>
	<stop  offset="0.33" style="stop-color:#006980"/>
	<stop  offset="0.7" style="stop-color:#009C86"/>
	<stop  offset="1" style="stop-color:#A7D6A3"/>
</linearGradient>
<path style="fill:url(#SVGID_00000118397618335239919370000008598321560117489549_);" d="M152.8,75.4c-0.4,0.8-1.2,1.3-2.1,1.3h-1.4
	l-0.5,1h9.5l4.2-7.7h1.1l0.5-1h-13.4c-2.1,0.1-4.1,0.9-5.7,2.2l1.2-2.2h-9.5l-0.5,1h1.4c0.7,0,1,0.6,0.6,1.3l-6,10.8h9.5l0.5-1h-1.4
	c-0.7,0-1-0.6-0.6-1.3l2.7-4.8c1.5-2.8,5-5,7.8-5h7.5c-1.8,0.3-3.3,1.5-4.2,3.1L152.8,75.4z"/>
<path class="st15" d="M259.9,792.1v-6.2l0.3,0.3h-2.6v-1.1h5.9v1.1h-2.6l0.3-0.3v6.2H259.9z"/>
<path class="st15" d="M268,792.2c-0.5,0-1-0.1-1.5-0.3c-0.4-0.2-0.9-0.4-1.2-0.8c-0.3-0.3-0.6-0.7-0.8-1.2c-0.2-0.5-0.3-0.9-0.3-1.4
	c0-0.5,0.1-1,0.3-1.4c0.2-0.4,0.5-0.8,0.8-1.1c0.3-0.3,0.8-0.6,1.2-0.8c1-0.4,2-0.4,3,0c0.4,0.2,0.9,0.4,1.2,0.8
	c0.3,0.3,0.6,0.7,0.8,1.1c0.4,0.9,0.4,2,0,2.9c-0.2,0.4-0.5,0.8-0.8,1.1c-0.3,0.3-0.8,0.6-1.2,0.8C269,792.1,268.5,792.2,268,792.2z
	 M268,791.1c0.3,0,0.7-0.1,1-0.2c0.3-0.1,0.6-0.3,0.8-0.5c0.2-0.2,0.4-0.5,0.5-0.8c0.1-0.3,0.2-0.7,0.2-1c0-0.3-0.1-0.7-0.2-1
	c-0.1-0.3-0.3-0.6-0.5-0.8c-0.2-0.2-0.5-0.4-0.8-0.5c-0.3-0.1-0.7-0.2-1-0.2c-0.3,0-0.7,0.1-1,0.2c-0.3,0.1-0.6,0.3-0.8,0.5
	c-0.2,0.2-0.4,0.5-0.5,0.8c-0.2,0.6-0.2,1.4,0,2c0.1,0.3,0.3,0.6,0.5,0.8c0.2,0.2,0.5,0.4,0.8,0.5C267.3,791,267.7,791.1,268,791.1
	L268,791.1z"/>
<path class="st15" d="M273.4,792.1v-7h3.1c0.6,0,1.3,0.1,1.8,0.5c0.7,0.6,0.9,1.6,0.3,2.4c-0.1,0.1-0.2,0.2-0.3,0.3
	c-0.5,0.3-1.1,0.5-1.7,0.5l0.2-0.4c0.6,0,1.3,0.1,1.8,0.5c0.4,0.3,0.7,0.8,0.6,1.4c0,0.6-0.2,1.1-0.7,1.4c-0.6,0.4-1.3,0.6-2,0.5
	L273.4,792.1z M274.7,788.1h1.7c0.4,0,0.7-0.1,1-0.3c0.2-0.2,0.3-0.4,0.3-0.7c0-0.3-0.1-0.6-0.3-0.8c-0.3-0.2-0.6-0.3-1-0.2h-1.7
	V788.1z M274.7,791.1h2c0.4,0,0.7-0.1,1-0.2c0.2-0.2,0.4-0.5,0.4-0.8c0-0.3-0.1-0.6-0.4-0.8c-0.3-0.2-0.7-0.3-1-0.2h-2V791.1z"/>
<path class="st15" d="M283.7,787.9l-0.1-2.8h1.1l-0.1,2.8H283.7z M285.6,787.9l-0.1-2.8h1.1l-0.1,2.8H285.6z"/>
<path class="st15" d="M287.7,791.4l0.4-1c0.3,0.2,0.6,0.4,1,0.5c0.3,0.1,0.7,0.2,1.1,0.2c0.3,0,0.7,0,1-0.1c0.3-0.1,0.5-0.2,0.7-0.4
	c0.2-0.2,0.3-0.4,0.3-0.7c0-0.3-0.1-0.6-0.4-0.7c-0.3-0.2-0.7-0.2-1-0.2H289v-1h1.5c0.3,0,0.6-0.1,0.9-0.2c0.2-0.1,0.3-0.4,0.3-0.7
	c0-0.2-0.1-0.4-0.2-0.6c-0.2-0.2-0.4-0.3-0.6-0.3c-0.3-0.1-0.5-0.1-0.8-0.1c-0.3,0-0.6,0.1-0.9,0.1c-0.3,0.1-0.6,0.2-0.9,0.4l-0.4-1
	c0.4-0.2,0.9-0.4,1.4-0.5c0.5-0.1,0.9-0.1,1.4-0.1c0.4,0,0.8,0.1,1.2,0.3c0.3,0.1,0.6,0.4,0.9,0.7c0.4,0.5,0.4,1.3,0.1,1.8
	c-0.2,0.3-0.4,0.5-0.7,0.6c-0.3,0.1-0.7,0.2-1.1,0.2l0-0.3c0.4,0,0.8,0.1,1.2,0.2c0.3,0.1,0.6,0.4,0.8,0.7c0.4,0.6,0.4,1.3,0,1.8
	c-0.2,0.3-0.4,0.5-0.7,0.7c-0.3,0.2-0.6,0.3-1,0.4c-0.4,0.1-0.8,0.1-1.2,0.1c-0.4,0-0.9-0.1-1.3-0.2
	C288.4,791.9,288,791.7,287.7,791.4z"/>
<path class="st15" d="M294.2,793.6V791h7.8v2.6h-1.2v-1.5h-5.4v1.5L294.2,793.6z M299.7,791.5v-5.3H297v1.2c0,0.5,0,0.9-0.1,1.3
	c0,0.4-0.1,0.8-0.2,1.1c-0.1,0.3-0.2,0.6-0.3,0.8c-0.1,0.2-0.3,0.4-0.5,0.5l-1.4-0.2c0.2,0,0.5-0.1,0.6-0.3c0.2-0.2,0.3-0.5,0.4-0.8
	c0.1-0.4,0.2-0.8,0.2-1.2c0-0.5,0.1-0.9,0.1-1.5l0.1-2.2h5.1v6.4H299.7z"/>
<path class="st15" d="M303.4,792.1v-7h2.9c0.5,0,1.1,0.1,1.6,0.3c0.4,0.2,0.8,0.5,1,0.9c0.5,0.8,0.5,1.8,0,2.7
	c-0.2,0.4-0.6,0.7-1,0.9c-0.5,0.2-1,0.3-1.6,0.3h-2.2l0.6-0.6v2.6L303.4,792.1z M304.7,789.6l-0.6-0.6h2.1c0.5,0,0.9-0.1,1.3-0.4
	c0.6-0.5,0.6-1.4,0-2c0,0,0,0,0,0c-0.4-0.3-0.8-0.4-1.3-0.4h-2.1l0.6-0.6V789.6z"/>
<path class="st15" d="M309.5,792.1l3.1-7h1.3l3.2,7h-1.4l-2.7-6.3h0.5l-2.7,6.3H309.5z M310.9,790.5l0.4-1h3.7l0.4,1H310.9z"/>
<path class="st15" d="M318.3,792.1v-7h3.1c0.6,0,1.3,0.1,1.8,0.5c0.7,0.6,0.9,1.6,0.3,2.4c-0.1,0.1-0.2,0.2-0.3,0.3
	c-0.5,0.3-1.1,0.5-1.7,0.5l0.2-0.4c0.6,0,1.3,0.1,1.8,0.5c0.4,0.3,0.7,0.8,0.6,1.4c0,0.6-0.2,1.1-0.7,1.4c-0.6,0.4-1.3,0.6-2,0.5
	L318.3,792.1z M319.6,788.1h1.7c0.4,0,0.7-0.1,1-0.3c0.2-0.2,0.3-0.4,0.3-0.7c0-0.3-0.1-0.6-0.3-0.8c-0.3-0.2-0.6-0.3-1-0.2h-1.7
	V788.1z M319.6,791.1h2c0.4,0,0.7-0.1,1-0.2c0.2-0.2,0.4-0.5,0.4-0.8c0-0.3-0.1-0.6-0.4-0.8c-0.3-0.2-0.7-0.3-1-0.2h-2V791.1z"/>
<path class="st15" d="M329.2,792.2c-0.5,0-1-0.1-1.5-0.3c-0.4-0.2-0.9-0.4-1.2-0.8c-0.7-0.7-1.1-1.6-1.1-2.6c0-1,0.4-1.9,1.1-2.6
	c0.3-0.3,0.8-0.6,1.2-0.8c1-0.4,2-0.4,3,0c0.4,0.2,0.9,0.4,1.2,0.8c0.3,0.3,0.6,0.7,0.8,1.1c0.4,0.9,0.4,2,0,2.9
	c-0.2,0.4-0.5,0.8-0.8,1.1c-0.3,0.3-0.8,0.6-1.2,0.8C330.2,792.1,329.7,792.2,329.2,792.2z M329.2,791.1c0.3,0,0.7-0.1,1-0.2
	c0.3-0.1,0.6-0.3,0.8-0.5c0.2-0.2,0.4-0.5,0.5-0.8c0.1-0.3,0.2-0.7,0.2-1c0-0.3-0.1-0.7-0.2-1c-0.1-0.3-0.3-0.6-0.5-0.8
	c-0.2-0.2-0.5-0.4-0.8-0.5c-0.3-0.1-0.7-0.2-1-0.2c-0.3,0-0.7,0.1-1,0.2c-0.3,0.1-0.6,0.3-0.8,0.5c-0.2,0.2-0.4,0.5-0.5,0.8
	c-0.2,0.6-0.2,1.4,0,2c0.1,0.3,0.3,0.6,0.5,0.8c0.2,0.2,0.5,0.4,0.8,0.5C328.5,791,328.9,791.1,329.2,791.1L329.2,791.1z"/>
<path class="st15" d="M334.1,787.9l-0.1-2.8h1.1l-0.1,2.8H334.1z M336,787.9l-0.1-2.8h1l-0.1,2.8H336z"/>
<path class="st15" d="M185,806.1v-5.3h2.6c0.5,0,1.1,0.1,1.5,0.4c0.3,0.2,0.6,0.6,0.6,1c0,0.4-0.2,0.8-0.5,1
	c-0.4,0.3-0.9,0.4-1.4,0.4l0.1-0.3c0.5,0,1,0.1,1.4,0.3c0.3,0.2,0.5,0.6,0.5,1c0,0.4-0.2,0.8-0.5,1.1c-0.5,0.3-1,0.4-1.6,0.4
	L185,806.1z M186.2,803h1.3c0.3,0,0.5,0,0.7-0.2c0.2-0.1,0.3-0.3,0.2-0.5c0-0.2-0.1-0.4-0.2-0.5c-0.2-0.1-0.5-0.2-0.7-0.2h-1.3V803z
	 M186.2,805.2h1.4c0.3,0,0.5,0,0.8-0.2c0.2-0.1,0.3-0.3,0.3-0.5c0-0.2-0.1-0.4-0.2-0.5c-0.2-0.1-0.5-0.2-0.8-0.2h-1.5L186.2,805.2z"
	/>
<path class="st15" d="M191.9,808.1c-0.3,0-0.5,0-0.8-0.1c-0.2-0.1-0.5-0.2-0.6-0.4l0.5-0.9c0.1,0.1,0.3,0.2,0.4,0.3
	c0.2,0.1,0.3,0.1,0.5,0.1c0.2,0,0.4-0.1,0.6-0.2c0.2-0.2,0.3-0.4,0.4-0.6l0.3-0.7l0.1-0.2l2-4.7h1.2l-2.5,5.8
	c-0.1,0.4-0.3,0.7-0.6,1c-0.2,0.2-0.4,0.4-0.7,0.5C192.4,808.1,192.1,808.1,191.9,808.1z M193,806.3l-2.4-5.5h1.3l2,4.6L193,806.3z"
	/>
<path class="st15" d="M196.4,806.1l0.1-1h0.1h0.1c0.2,0,0.4-0.1,0.5-0.2c0.1-0.1,0.2-0.3,0.3-0.5c0.1-0.2,0.1-0.5,0.1-0.7
	c0-0.3,0-0.5,0-0.8l0.1-2.1h4.4v5.3h-1.2v-4.6l0.3,0.3h-2.5l0.3-0.3l-0.1,1.4c0,0.4-0.1,0.9-0.1,1.3c0,0.4-0.1,0.7-0.3,1.1
	c-0.1,0.3-0.3,0.5-0.5,0.7c-0.2,0.2-0.5,0.3-0.8,0.2h-0.3L196.4,806.1z"/>
<path class="st15" d="M204.3,806.2c-0.2,0-0.4-0.1-0.6-0.2c-0.2-0.2-0.2-0.4-0.2-0.6c0-0.2,0.1-0.4,0.2-0.6c0.2-0.1,0.4-0.2,0.6-0.2
	c0.4,0,0.8,0.3,0.8,0.8c0,0,0,0,0,0.1c0,0.2-0.1,0.4-0.2,0.6C204.7,806.1,204.5,806.2,204.3,806.2z"/>
<path class="st15" d="M208.7,806.1l3.1-7h1.3l3.2,7H215l-2.7-6.3h0.5l-2.7,6.3H208.7z M210.2,804.5l0.4-1h3.8l0.4,1H210.2z"/>
<path class="st15" d="M217.5,806.1v-5.3h2.6c0.5,0,1.1,0.1,1.5,0.4c0.3,0.2,0.6,0.6,0.6,1c0,0.4-0.2,0.8-0.5,1
	c-0.4,0.3-0.9,0.4-1.4,0.4l0.1-0.3c0.5,0,1,0.1,1.4,0.3c0.3,0.2,0.5,0.6,0.5,1c0,0.4-0.2,0.8-0.5,1.1c-0.5,0.3-1,0.4-1.6,0.4
	L217.5,806.1z M218.7,803h1.3c0.3,0,0.5,0,0.7-0.2c0.2-0.1,0.3-0.3,0.2-0.5c0-0.2-0.1-0.4-0.2-0.5c-0.2-0.1-0.5-0.2-0.7-0.2h-1.3
	L218.7,803z M218.7,805.2h1.4c0.3,0,0.5,0,0.8-0.2c0.2-0.1,0.3-0.3,0.3-0.5c0-0.2-0.1-0.4-0.2-0.5c-0.2-0.1-0.5-0.2-0.8-0.2h-1.5
	L218.7,805.2z"/>
<path class="st15" d="M225,806.1v-4.6l0.3,0.3h-2.2v-1.1h5v1.1H226l0.3-0.3v4.6H225z"/>
<path class="st15" d="M231.3,806.2c-0.5,0-1-0.1-1.5-0.4c-0.4-0.2-0.8-0.6-1-1c-0.2-0.4-0.4-0.9-0.4-1.4c0-0.5,0.1-1,0.4-1.4
	c0.2-0.4,0.6-0.8,1-1c0.9-0.5,2-0.5,2.9,0c0.4,0.2,0.8,0.6,1,1c0.5,0.9,0.5,1.9,0,2.8c-0.2,0.4-0.6,0.8-1,1
	C232.4,806.1,231.9,806.2,231.3,806.2z M231.3,805.1c0.3,0,0.6-0.1,0.8-0.2c0.2-0.1,0.4-0.3,0.6-0.6c0.3-0.6,0.3-1.2,0-1.8
	c-0.1-0.2-0.3-0.4-0.6-0.6c-0.5-0.3-1.1-0.3-1.6,0c-0.2,0.1-0.4,0.3-0.6,0.6c-0.3,0.6-0.3,1.2,0,1.8c0.1,0.2,0.3,0.4,0.6,0.6
	C230.8,805.1,231.1,805.1,231.3,805.1z"/>
<path class="st15" d="M236,806.1c-0.4-0.1-0.7-0.2-1.1-0.4l0.4-0.9c0.3,0.2,0.6,0.3,0.9,0.3c0.3,0.1,0.7,0.1,1,0.1
	c0.2,0,0.5,0,0.7-0.1c0.2,0,0.3-0.1,0.5-0.2c0.1-0.1,0.2-0.2,0.2-0.4c0-0.2-0.1-0.4-0.3-0.5c-0.2-0.1-0.5-0.2-0.8-0.2h-1V803h0.9
	c0.2,0,0.4,0,0.6-0.1c0.1,0,0.2-0.1,0.3-0.2c0.1-0.1,0.1-0.2,0.1-0.3c0-0.1,0-0.3-0.1-0.3c-0.1-0.1-0.3-0.2-0.4-0.2
	c-0.2-0.1-0.4-0.1-0.6-0.1c-0.3,0-0.6,0-0.8,0.1c-0.3,0.1-0.6,0.2-0.9,0.3l-0.3-0.9c0.3-0.1,0.7-0.3,1-0.4c0.3-0.1,0.7-0.1,1-0.1
	c0.4,0,0.9,0,1.3,0.2c0.3,0.1,0.6,0.3,0.9,0.5c0.2,0.2,0.3,0.5,0.3,0.8c0,0.2-0.1,0.5-0.2,0.7c-0.2,0.2-0.4,0.4-0.6,0.5
	c-0.3,0.1-0.6,0.2-0.9,0.2v-0.3c0.5,0,1,0.1,1.4,0.3c0.3,0.2,0.5,0.6,0.5,1c0,0.3-0.1,0.6-0.3,0.9c-0.2,0.3-0.6,0.5-0.9,0.6
	c-0.4,0.1-0.9,0.2-1.3,0.2C236.8,806.3,236.4,806.2,236,806.1z"/>
<path class="st15" d="M242.8,806.2c-0.4,0-0.7-0.1-1.1-0.2c-0.3-0.1-0.5-0.3-0.7-0.6c-0.2-0.2-0.3-0.5-0.2-0.8
	c0-0.3,0.1-0.6,0.2-0.8c0.2-0.3,0.4-0.5,0.7-0.6c0.4-0.2,0.9-0.2,1.3-0.2h1.6v0.8h-1.5c-0.3,0-0.6,0-0.9,0.2
	c-0.1,0.1-0.2,0.3-0.2,0.5c0,0.2,0.1,0.4,0.3,0.5c0.2,0.1,0.5,0.2,0.8,0.2c0.3,0,0.6-0.1,0.8-0.2c0.2-0.1,0.4-0.4,0.5-0.6l0.2,0.8
	c-0.1,0.3-0.3,0.6-0.6,0.7C243.6,806.1,243.2,806.2,242.8,806.2z M244.5,806.1V805l-0.1-0.2v-1.9c0-0.3-0.1-0.6-0.3-0.9
	c-0.3-0.2-0.6-0.3-1-0.3c-0.3,0-0.6,0-0.9,0.1c-0.3,0.1-0.5,0.2-0.7,0.4l-0.5-0.9c0.3-0.2,0.6-0.4,1-0.5c0.4-0.1,0.8-0.2,1.2-0.2
	c0.6,0,1.3,0.2,1.8,0.5c0.5,0.5,0.7,1.1,0.6,1.7v3.1L244.5,806.1z"/>
<path class="st15" d="M247.4,806.1v-5.3h2.6c0.5,0,1.1,0.1,1.5,0.4c0.3,0.2,0.6,0.6,0.6,1c0,0.4-0.2,0.8-0.5,1
	c-0.4,0.3-0.9,0.4-1.4,0.4l0.1-0.3c0.5,0,1,0.1,1.4,0.3c0.3,0.2,0.5,0.6,0.5,1c0,0.4-0.2,0.8-0.5,1.1c-0.5,0.3-1,0.4-1.6,0.4
	L247.4,806.1z M248.6,803h1.3c0.3,0,0.5,0,0.7-0.2c0.2-0.1,0.3-0.3,0.2-0.5c0-0.2-0.1-0.4-0.2-0.5c-0.2-0.1-0.5-0.2-0.7-0.2h-1.3
	V803z M248.6,805.2h1.4c0.3,0,0.5,0,0.8-0.2c0.2-0.1,0.3-0.3,0.3-0.5c0-0.2-0.1-0.4-0.2-0.5c-0.2-0.1-0.5-0.2-0.8-0.2h-1.5
	L248.6,805.2z"/>
<path class="st15" d="M256.2,806.2c-0.5,0-1-0.1-1.5-0.4c-0.4-0.2-0.8-0.6-1-1c-0.2-0.4-0.4-0.9-0.4-1.4c0-0.5,0.1-1,0.4-1.4
	c0.2-0.4,0.6-0.8,1-1c0.9-0.5,2-0.5,2.9,0c0.4,0.2,0.8,0.6,1,1c0.5,0.9,0.5,1.9,0,2.8c-0.2,0.4-0.6,0.8-1,1
	C257.2,806.1,256.7,806.2,256.2,806.2z M256.2,805.1c0.3,0,0.6-0.1,0.8-0.2c0.2-0.1,0.4-0.3,0.6-0.6c0.3-0.6,0.3-1.2,0-1.8
	c-0.1-0.2-0.4-0.4-0.6-0.5c-0.5-0.3-1.1-0.3-1.6,0c-0.2,0.1-0.4,0.3-0.6,0.6c-0.3,0.6-0.3,1.2,0,1.8c0.1,0.2,0.3,0.4,0.6,0.6
	C255.6,805.1,255.9,805.1,256.2,805.1z"/>
<path class="st15" d="M259.7,807.3v-2.2h6.5v2.2H265v-1.2h-4.1v1.2H259.7z M264.1,805.5v-3.7h-2v0.9c0,0.3,0,0.6-0.1,0.9
	c0,0.3-0.1,0.5-0.1,0.8c0,0.2-0.1,0.4-0.3,0.6c-0.1,0.1-0.3,0.3-0.5,0.3l-1.2-0.2c0.2,0,0.4-0.1,0.5-0.2c0.1-0.2,0.2-0.3,0.3-0.5
	c0.1-0.3,0.1-0.5,0.1-0.8c0-0.3,0.1-0.6,0.1-0.9l0.1-1.8h4.4v4.8L264.1,805.5z"/>
<path class="st15" d="M269.9,806.2c-0.5,0-1-0.1-1.5-0.4c-0.4-0.2-0.8-0.6-1-1c-0.2-0.4-0.4-0.9-0.4-1.4c0-0.5,0.1-1,0.4-1.4
	c0.2-0.4,0.6-0.8,1-1c0.5-0.2,1-0.4,1.5-0.3c0.5,0,1,0.1,1.4,0.3c0.4,0.2,0.7,0.5,0.9,0.9l-1,0.6c-0.1-0.2-0.3-0.4-0.6-0.6
	c-0.2-0.1-0.5-0.2-0.8-0.2c-0.3,0-0.6,0.1-0.8,0.2c-0.2,0.1-0.4,0.3-0.6,0.6c-0.1,0.3-0.2,0.6-0.2,0.9c0,0.3,0.1,0.6,0.2,0.9
	c0.1,0.2,0.3,0.4,0.6,0.6c0.3,0.1,0.5,0.2,0.8,0.2c0.3,0,0.5-0.1,0.8-0.2c0.2-0.1,0.4-0.3,0.6-0.6l1,0.6c-0.2,0.4-0.5,0.7-0.9,0.9
	C270.8,806,270.4,806.2,269.9,806.2z"/>
<path class="st15" d="M276.1,802.5c0.6,0,1.1,0.1,1.6,0.5c0.7,0.7,0.7,1.9,0,2.6c0,0,0,0-0.1,0.1c-0.5,0.4-1.1,0.5-1.7,0.5h-2.5
	v-5.3h1.2v1.8H276.1z M275.9,805.2c0.3,0,0.6-0.1,0.8-0.2c0.2-0.2,0.3-0.4,0.3-0.7c0-0.3-0.1-0.5-0.3-0.7c-0.3-0.1-0.6-0.2-0.9-0.2
	h-1.1v1.8H275.9z"/>
<path class="st15" d="M279.5,806.1v-5.3h1.2v5.3H279.5z M280.4,804v-1h1.8v1H280.4z M282.6,803.6l-1.2-0.1l2-2.7h1.3L282.6,803.6z
	 M283.4,806.1l-1.9-2.6l1-0.6l2.4,3.2H283.4z"/>
<path class="st15" d="M287.4,806.2c-0.4,0-0.7-0.1-1-0.2c-0.3-0.1-0.5-0.3-0.7-0.6c-0.2-0.2-0.3-0.5-0.2-0.8c0-0.3,0.1-0.6,0.2-0.8
	c0.2-0.3,0.4-0.5,0.7-0.6c0.4-0.2,0.9-0.2,1.3-0.2h1.5v0.8h-1.5c-0.3,0-0.6,0-0.9,0.2c-0.1,0.1-0.2,0.3-0.2,0.5
	c0,0.2,0.1,0.4,0.3,0.5c0.2,0.1,0.5,0.2,0.8,0.2c0.3,0,0.6-0.1,0.8-0.2c0.2-0.1,0.4-0.4,0.5-0.6l0.2,0.8c-0.1,0.3-0.3,0.6-0.6,0.7
	C288.2,806.1,287.8,806.2,287.4,806.2z M289.1,806.1V805l-0.1-0.2v-1.9c0-0.3-0.1-0.6-0.3-0.9c-0.3-0.2-0.6-0.3-1-0.3
	c-0.3,0-0.6,0-0.9,0.1c-0.3,0.1-0.5,0.2-0.7,0.4l-0.5-0.9c0.3-0.2,0.6-0.4,1-0.5c0.4-0.1,0.8-0.2,1.2-0.2c0.6,0,1.3,0.2,1.8,0.5
	c0.5,0.5,0.7,1.1,0.6,1.7v3.1L289.1,806.1z"/>
<path class="st15" d="M296.9,806.2c-0.5,0-1-0.1-1.4-0.2c-0.4-0.1-0.8-0.3-1.2-0.6l0.5-1c0.3,0.2,0.6,0.4,0.9,0.5
	c0.4,0.1,0.7,0.2,1.1,0.2c0.4,0,0.8-0.1,1.1-0.3c0.3-0.2,0.4-0.5,0.4-0.8c0-0.2,0-0.4-0.2-0.6c-0.1-0.2-0.3-0.3-0.6-0.4
	c-0.4-0.1-0.8-0.1-1.1-0.1h-1.7l0.4-3.8h4.1v1.1h-3.6l0.7-0.6l-0.3,2.8l-0.7-0.6h1.4c0.6,0,1.1,0.1,1.7,0.3c0.4,0.2,0.7,0.4,0.9,0.8
	c0.2,0.3,0.3,0.7,0.3,1.1c0,0.8-0.5,1.6-1.2,1.9C298,806.1,297.4,806.2,296.9,806.2z"/>
<path class="st15" d="M300.5,804.5v-0.9l3.5-4.5h1.4l-3.4,4.5l-0.6-0.2h5.5v1.1L300.5,804.5z M304.3,806.1v-1.6v-1.1V802h1.2v4.1
	L304.3,806.1z"/>
<path class="st15" d="M307.1,807.1l3.3-9.4h1.1l-3.3,9.4H307.1z"/>
<path class="st15" d="M313.2,806.1v-6.5l0.6,0.6h-2v-1.1h2.8v7H313.2z"/>
<path class="st15" d="M318.4,799c0.6,0,1.1,0.1,1.6,0.4c0.4,0.3,0.8,0.7,1,1.2c0.3,0.6,0.4,1.2,0.4,1.9c0,0.7-0.1,1.4-0.4,2
	c-0.3,0.5-0.7,1-1.2,1.3c-0.5,0.3-1.2,0.4-1.8,0.4c-0.3,0-0.7,0-1-0.1c-0.3-0.1-0.6-0.2-0.8-0.3l0.5-1c0.2,0.1,0.4,0.2,0.6,0.3
	c0.2,0.1,0.5,0.1,0.7,0.1c0.6,0,1.2-0.2,1.6-0.6c0.4-0.5,0.6-1.1,0.6-1.8c0-0.1,0-0.3,0-0.5c0-0.2,0-0.3-0.1-0.5l0.4,0.4
	c-0.1,0.3-0.3,0.5-0.5,0.7c-0.2,0.2-0.5,0.3-0.8,0.4c-0.3,0.1-0.7,0.1-1,0.1c-0.4,0-0.8-0.1-1.2-0.3c-0.4-0.2-0.7-0.4-0.9-0.8
	c-0.2-0.3-0.3-0.7-0.3-1.1c0-0.4,0.1-0.8,0.3-1.2c0.2-0.3,0.6-0.6,0.9-0.8C317.5,799,318,799,318.4,799z M318.5,800
	c-0.2,0-0.5,0-0.7,0.1c-0.2,0.1-0.4,0.2-0.5,0.4c-0.1,0.2-0.2,0.4-0.2,0.6c0,0.3,0.1,0.7,0.4,0.9c0.5,0.4,1.2,0.4,1.8,0.2
	c0.2-0.1,0.4-0.2,0.5-0.4c0.1-0.2,0.2-0.4,0.2-0.6c0-0.2-0.1-0.4-0.2-0.6c-0.1-0.2-0.3-0.3-0.5-0.4C319,800,318.8,800,318.5,800
	L318.5,800z"/>
<path class="st15" d="M325.1,806.1l3.1-7h1.3l3.2,7h-1.4l-2.7-6.3h0.5l-2.7,6.3H325.1z M326.6,804.5l0.4-1h3.8l0.4,1H326.6z"/>
<path class="st15" d="M333.8,807.6l0.6-2.2l0.2,0.7c-0.2,0-0.4-0.1-0.6-0.2c-0.2-0.1-0.3-0.4-0.2-0.6c0-0.2,0.1-0.4,0.2-0.6
	c0.3-0.3,0.8-0.3,1.1,0c0.2,0.2,0.2,0.4,0.2,0.6c0,0.1,0,0.1,0,0.2c0,0.1,0,0.2-0.1,0.3c0,0.1-0.1,0.3-0.1,0.4l-0.5,1.4H333.8z"/>
<path class="st15" d="M339.8,806.1v-5.3h1.3l2.1,3.8h-0.5l2.3-3.8h1.2v5.3H345v-4l0.2,0.1l-2,3.3h-0.5l-2-3.4l0.2-0.1v4L339.8,806.1
	z"/>
<path class="st15" d="M348.4,806.2c-0.2,0-0.4-0.1-0.6-0.2c-0.2-0.2-0.2-0.4-0.2-0.6c0-0.2,0.1-0.4,0.2-0.6c0.2-0.1,0.4-0.2,0.6-0.2
	c0.4,0,0.8,0.3,0.8,0.8c0,0,0,0,0,0.1c0,0.2-0.1,0.4-0.2,0.6C348.9,806.1,348.6,806.2,348.4,806.2z"/>
<path class="st15" d="M353.8,806.1v-7h1.3v7H353.8z M354.7,803.1V802h2.3v1.1H354.7z M357.2,802.7l-1.2-0.2l2.4-3.5h1.4L357.2,802.7
	z M358.4,806.1l-2.4-3.4l1-0.7l2.8,4.1H358.4z"/>
<path class="st15" d="M361,806.1v-5.3h1.2v3.5l3-3.5h1.1v5.3h-1.2v-3.5l-2.9,3.5H361z"/>
<path class="st15" d="M368,799.9c-0.2,0-0.3-0.1-0.4-0.2c-0.1-0.1-0.2-0.3-0.2-0.4c0-0.2,0.1-0.3,0.2-0.4c0.2-0.2,0.6-0.2,0.8,0
	c0.1,0.1,0.2,0.3,0.2,0.4C368.6,799.6,368.3,799.9,368,799.9C368,799.9,368,799.9,368,799.9L368,799.9z M368.1,806.1v-5.3h1.2v5.3
	H368.1z M369.5,799.9c-0.2,0-0.3-0.1-0.4-0.2c-0.1-0.1-0.2-0.3-0.2-0.4c0-0.2,0.1-0.3,0.2-0.4c0.2-0.2,0.6-0.2,0.8,0
	c0.1,0.1,0.2,0.3,0.2,0.4C370.1,799.6,369.9,799.9,369.5,799.9C369.6,799.9,369.5,799.9,369.5,799.9L369.5,799.9z"/>
<path class="st15" d="M371.3,806.1v-5.3h2.6c0.5,0,1.1,0.1,1.5,0.4c0.3,0.2,0.6,0.6,0.5,1c0,0.4-0.2,0.8-0.5,1
	c-0.4,0.3-0.9,0.4-1.4,0.4l0.1-0.3c0.5,0,1,0.1,1.5,0.3c0.3,0.2,0.5,0.6,0.5,1c0,0.4-0.2,0.8-0.5,1.1c-0.5,0.3-1,0.4-1.6,0.4
	L371.3,806.1z M372.5,803h1.3c0.3,0,0.5,0,0.7-0.2c0.2-0.1,0.3-0.3,0.2-0.5c0-0.2-0.1-0.4-0.2-0.5c-0.2-0.1-0.5-0.2-0.7-0.2h-1.3
	V803z M372.5,805.2h1.4c0.3,0,0.5,0,0.8-0.2c0.2-0.1,0.3-0.3,0.3-0.5c0-0.2-0.1-0.4-0.2-0.5c-0.2-0.1-0.5-0.2-0.8-0.2h-1.5V805.2z"
	/>
<path class="st15" d="M377.3,807.6l0.6-2.2l0.2,0.7c-0.2,0-0.4-0.1-0.6-0.2c-0.2-0.1-0.3-0.4-0.2-0.6c0-0.2,0.1-0.4,0.2-0.6
	c0.2-0.1,0.4-0.2,0.6-0.2c0.2,0,0.4,0.1,0.6,0.2c0.2,0.2,0.2,0.4,0.2,0.6c0,0.1,0,0.1,0,0.2c0,0.1,0,0.2-0.1,0.3
	c0,0.1-0.1,0.3-0.1,0.4l-0.5,1.4H377.3z"/>
<path class="st15" d="M385.8,806.2c-0.5,0-1-0.1-1.5-0.4c-0.5-0.3-0.8-0.7-1-1.2c-0.3-0.6-0.4-1.3-0.4-2c0-0.7,0.1-1.4,0.4-2
	c0.2-0.5,0.6-0.9,1-1.2c0.9-0.6,2.1-0.6,3,0c0.4,0.3,0.8,0.7,1,1.2c0.3,0.6,0.4,1.3,0.4,2c0,0.7-0.1,1.4-0.4,2
	c-0.2,0.5-0.6,0.9-1,1.2C386.8,806.1,386.3,806.2,385.8,806.2z M385.8,805.1c0.3,0,0.6-0.1,0.9-0.3c0.3-0.2,0.5-0.5,0.6-0.8
	c0.3-0.9,0.3-1.9,0-2.8c-0.1-0.3-0.3-0.6-0.6-0.8c-0.2-0.2-0.5-0.3-0.9-0.3c-0.3,0-0.6,0.1-0.8,0.3c-0.3,0.2-0.5,0.5-0.6,0.8
	c-0.3,0.9-0.3,1.9,0,2.8c0.1,0.3,0.3,0.6,0.6,0.8C385.2,805,385.5,805.1,385.8,805.1L385.8,805.1z"/>
<path class="st15" d="M389.7,804.5v-0.9l3.5-4.5h1.4l-3.4,4.5l-0.6-0.2h5.5v1.1L389.7,804.5z M393.5,806.1v-1.6v-1.1V802h1.2v4.1
	L393.5,806.1z"/>
<path class="st15" d="M397.7,806.1v-6.5l0.6,0.6h-2v-1.1h2.8v7H397.7z"/>
<path class="st15" d="M401.7,806.1v-6.5l0.6,0.6h-2v-1.1h2.8v7H401.7z"/>
<path class="st15" d="M404.5,804.5v-0.9l3.5-4.5h1.4l-3.4,4.5l-0.6-0.2h5.5v1.1L404.5,804.5z M408.3,806.1v-1.6v-1.1V802h1.2v4.1
	L408.3,806.1z"/>
</svg>
