<svg id="Back_side" xmlns="http://www.w3.org/2000/svg" xmlns:xlink="http://www.w3.org/1999/xlink" viewBox="0 0 255.12 141.73"><defs><style>.cls-1{fill:url(#linear-gradient);}.cls-2{fill:#fffffc;}</style><linearGradient id="linear-gradient" x1="-10.79" y1="148.48" x2="277" y2="-12.97" gradientUnits="userSpaceOnUse"><stop offset="0" stop-color="#003c5c"/><stop offset="0.33" stop-color="#00667e"/><stop offset="0.7" stop-color="#009280"/><stop offset="1" stop-color="#b4d6a3"/></linearGradient></defs><rect class="cls-1" x="-5.67" y="-5.67" width="266.46" height="153.07"/><path class="cls-2" d="M198.86,115.21v-.47l2-2.39.13.26H198.9V112h2.68v.47l-2,2.39-.15-.26h2.18v.6Z"/><path class="cls-2" d="M203.75,115.26a1.63,1.63,0,0,1-.83-.21,1.51,1.51,0,0,1-.58-.57,1.75,1.75,0,0,1-.21-.87,1.69,1.69,0,0,1,.21-.86,1.39,1.39,0,0,1,.58-.57,1.63,1.63,0,0,1,.83-.21,1.48,1.48,0,0,1,.72.18,1.25,1.25,0,0,1,.5.54,1.93,1.93,0,0,1,.19.92,2.07,2.07,0,0,1-.18.92,1.28,1.28,0,0,1-.5.55A1.46,1.46,0,0,1,203.75,115.26Zm.09-.65a1,1,0,0,0,.48-.12.86.86,0,0,0,.34-.34,1.05,1.05,0,0,0,.13-.54,1,1,0,0,0-.13-.54.86.86,0,0,0-.34-.34,1,1,0,0,0-.48-.12,1,1,0,0,0-.49.12.92.92,0,0,0-.34.34,1.13,1.13,0,0,0-.13.54,1.16,1.16,0,0,0,.13.54.92.92,0,0,0,.34.34A1,1,0,0,0,203.84,114.61Zm1,.6v-.75l0-.85-.06-.86v-2h.74v4.45Z"/><path class="cls-2" d="M206.63,115.21V112h.72v.88l-.09-.26a1,1,0,0,1,.46-.49,1.6,1.6,0,0,1,.77-.17v.72l-.09,0h-.09a.88.88,0,0,0-.67.25,1,1,0,0,0-.26.74v1.55Z"/><path class="cls-2" d="M210,115.26a1.54,1.54,0,0,1-.63-.13,1,1,0,0,1-.42-.34.93.93,0,0,1-.14-.49.9.9,0,0,1,.13-.49.82.82,0,0,1,.42-.34,1.89,1.89,0,0,1,.78-.13h.93v.5h-.88a.77.77,0,0,0-.51.12.41.41,0,0,0-.14.31.39.39,0,0,0,.17.32.73.73,0,0,0,.45.12.9.9,0,0,0,.49-.13.69.69,0,0,0,.32-.37l.12.45a.82.82,0,0,1-.38.44A1.52,1.52,0,0,1,210,115.26Zm1-.05v-.64l0-.14v-1.14a.66.66,0,0,0-.2-.51.86.86,0,0,0-.6-.18,1.89,1.89,0,0,0-.53.08,1.32,1.32,0,0,0-.44.24l-.3-.55a2,2,0,0,1,.62-.3,3,3,0,0,1,.74-.1,1.57,1.57,0,0,1,1.08.34,1.3,1.3,0,0,1,.38,1v1.87Z"/><path class="cls-2" d="M213.57,115.21l-1.38-3.2H213l1.19,2.83h-.39L215,112h.72l-1.38,3.2Z"/><path class="cls-2" d="M217.65,115.26a1.78,1.78,0,0,1-.87-.22,1.55,1.55,0,0,1-.61-.58,1.63,1.63,0,0,1,.61-2.28,1.78,1.78,0,0,1,.87-.21,1.83,1.83,0,0,1,.89.21,1.62,1.62,0,0,1,.61.58,1.67,1.67,0,0,1,.21.85,1.7,1.7,0,0,1-.21.85,1.55,1.55,0,0,1-.61.58A1.83,1.83,0,0,1,217.65,115.26Zm0-.65a1,1,0,0,0,.5-.12.92.92,0,0,0,.34-.34,1.16,1.16,0,0,0,.12-.54,1.13,1.13,0,0,0-.12-.54.92.92,0,0,0-.34-.34,1,1,0,0,0-.49-.12,1,1,0,0,0-.49.12.92.92,0,0,0-.34.34,1.13,1.13,0,0,0-.12.54,1.16,1.16,0,0,0,.12.54.92.92,0,0,0,.34.34A1,1,0,0,0,217.65,114.61Z"/><path class="cls-2" d="M220.39,115.26a.51.51,0,0,1-.5-.5.48.48,0,0,1,.15-.37.48.48,0,0,1,.35-.13.47.47,0,0,1,.34.13.48.48,0,0,1,.15.37.45.45,0,0,1-.15.35A.45.45,0,0,1,220.39,115.26Z"/><path class="cls-2" d="M222.11,111.48a.48.48,0,0,1-.35-.13.46.46,0,0,1,0-.64.48.48,0,0,1,.35-.13.45.45,0,0,1,.34.13.39.39,0,0,1,.14.3.46.46,0,0,1-.14.34A.44.44,0,0,1,222.11,111.48Zm-.38,3.73V112h.75v3.2Z"/><path class="cls-2" d="M225.4,112a1.52,1.52,0,0,1,.69.15,1.1,1.1,0,0,1,.47.46,1.58,1.58,0,0,1,.18.8v1.83H226v-1.74a.9.9,0,0,0-.2-.63.75.75,0,0,0-.56-.21.88.88,0,0,0-.47.11.76.76,0,0,0-.32.32,1.19,1.19,0,0,0-.11.53v1.62h-.75V112h.72v.86l-.13-.26a1.17,1.17,0,0,1,.49-.47A1.58,1.58,0,0,1,225.4,112Z"/><path class="cls-2" d="M228.05,115.26a.5.5,0,0,1-.49-.5.51.51,0,0,1,.14-.37.51.51,0,0,1,.35-.13.46.46,0,0,1,.49.5.45.45,0,0,1-.14.35A.45.45,0,0,1,228.05,115.26Z"/><path class="cls-2" d="M230.69,115.26a1.53,1.53,0,0,1-.72-.16,1,1,0,0,1-.48-.47,1.57,1.57,0,0,1-.18-.79V112h.75v1.73a.91.91,0,0,0,.2.64.71.71,0,0,0,.55.22,1,1,0,0,0,.46-.11.77.77,0,0,0,.31-.33,1.19,1.19,0,0,0,.11-.53V112h.75v3.2h-.72v-.86l.13.26a1.09,1.09,0,0,1-.47.48A1.47,1.47,0,0,1,230.69,115.26Z"/><path class="cls-2" d="M234.51,115.26a1.54,1.54,0,0,1-.63-.13,1,1,0,0,1-.42-.34.86.86,0,0,1-.15-.49,1,1,0,0,1,.13-.49.89.89,0,0,1,.43-.34,1.86,1.86,0,0,1,.78-.13h.93v.5h-.88a.81.81,0,0,0-.52.12.44.44,0,0,0-.13.31.39.39,0,0,0,.17.32.71.71,0,0,0,.45.12.92.92,0,0,0,.49-.13.64.64,0,0,0,.31-.37l.13.45a.8.8,0,0,1-.39.44A1.45,1.45,0,0,1,234.51,115.26Zm1-.05v-.64l-.05-.14v-1.14a.66.66,0,0,0-.19-.51.9.9,0,0,0-.6-.18,1.89,1.89,0,0,0-.53.08,1.32,1.32,0,0,0-.44.24l-.3-.55a1.88,1.88,0,0,1,.62-.3,2.94,2.94,0,0,1,.74-.1,1.53,1.53,0,0,1,1.07.34,1.27,1.27,0,0,1,.38,1v1.87Z"/><path class="cls-2" d="M19.3,28.66v-7h6.38v7H24.06V22.61l.37.37H20.54l.37-.37v6.05Z"/><path class="cls-2" d="M27.49,30.6V23.28H29v1.1L29,26l.1,1.59v3Zm3.18-1.86a2.29,2.29,0,0,1-1.19-.3,2,2,0,0,1-.8-.92A3.7,3.7,0,0,1,28.4,26a3.83,3.83,0,0,1,.27-1.56,1.9,1.9,0,0,1,.78-.91,2.35,2.35,0,0,1,1.22-.3,2.69,2.69,0,0,1,1.36.34,2.56,2.56,0,0,1,1,1A2.85,2.85,0,0,1,33.35,26,2.91,2.91,0,0,1,33,27.44a2.6,2.6,0,0,1-1,1A2.8,2.8,0,0,1,30.67,28.74Zm-.27-1.28a1.31,1.31,0,0,0,.69-.18,1.37,1.37,0,0,0,.49-.52,1.85,1.85,0,0,0,0-1.59,1.34,1.34,0,0,0-.49-.51,1.31,1.31,0,0,0-.69-.18,1.35,1.35,0,0,0-.7.18,1.27,1.27,0,0,0-.49.51,1.85,1.85,0,0,0,0,1.59,1.29,1.29,0,0,0,.49.52A1.35,1.35,0,0,0,30.4,27.46Z"/><path class="cls-2" d="M35.4,22.53a1,1,0,0,1-.69-.25.8.8,0,0,1-.28-.62.77.77,0,0,1,.28-.62,1,1,0,0,1,.69-.25,1,1,0,0,1,.7.23.75.75,0,0,1,.28.61.84.84,0,0,1-.27.64A1,1,0,0,1,35.4,22.53Zm-.77,6.13V23.28h1.55v5.38Z"/><path class="cls-2" d="M38.42,28.63a4.85,4.85,0,0,1-1.13-.39l.42-1.09a4,4,0,0,0,.89.3,4.62,4.62,0,0,0,1,.11,2.28,2.28,0,0,0,.62-.08,1,1,0,0,0,.41-.21.49.49,0,0,0,.14-.34.45.45,0,0,0-.22-.4,1.27,1.27,0,0,0-.65-.13H38.8v-1h1a1.47,1.47,0,0,0,.46-.06.56.56,0,0,0,.29-.18.44.44,0,0,0,.09-.27.38.38,0,0,0-.11-.29.78.78,0,0,0-.35-.19,2.4,2.4,0,0,0-.58-.06,4.14,4.14,0,0,0-.84.09,5.16,5.16,0,0,0-.87.28l-.38-1.08a6.36,6.36,0,0,1,1-.35,4.19,4.19,0,0,1,1-.14,4,4,0,0,1,1.34.16,2.16,2.16,0,0,1,1,.52A1.18,1.18,0,0,1,42,25.39a1.66,1.66,0,0,1-.64.48,2.32,2.32,0,0,1-.92.18l0-.31a2.4,2.4,0,0,1,1.4.35,1.12,1.12,0,0,1,.51,1A1.29,1.29,0,0,1,42,28a2.3,2.3,0,0,1-1,.59,4.13,4.13,0,0,1-1.36.21A6.44,6.44,0,0,1,38.42,28.63Z"/><path class="cls-2" d="M43.65,28.66V23.28H46.4a2.93,2.93,0,0,1,1.58.36,1.17,1.17,0,0,1,.58,1,1.18,1.18,0,0,1-.54,1,2.43,2.43,0,0,1-1.42.38l.16-.36a2.45,2.45,0,0,1,1.47.36,1.23,1.23,0,0,1,.48,1.05,1.34,1.34,0,0,1-.54,1.12,2.74,2.74,0,0,1-1.65.41Zm1.43-3.17h1.18a1,1,0,0,0,.62-.15.5.5,0,0,0,.2-.43.46.46,0,0,0-.2-.43,1.05,1.05,0,0,0-.62-.14H45.08Zm0,2.11h1.31a1.13,1.13,0,0,0,.65-.15.5.5,0,0,0,.21-.44.54.54,0,0,0-.19-.46,1.11,1.11,0,0,0-.64-.14H45.08Z"/><path class="cls-2" d="M50.07,28.66V23.28h1.55v3.2l2.62-3.2h1.43v5.38H54.12v-3.2l-2.61,3.2Z"/><path class="cls-2" d="M61,27.38l-.34.36V23.28h1.56v4.46l-.36-.36h2.48l-.35.36V23.28h1.55v5.38H57.37V23.28h1.55v4.46l-.35-.36Zm3.84,2.35V28.3l.35.36H64V27.38h2.34v2.35Z"/><path class="cls-2" d="M69.91,28.74a3.44,3.44,0,0,1-1.61-.36A2.62,2.62,0,0,1,66.84,26a2.76,2.76,0,0,1,.38-1.44,2.67,2.67,0,0,1,1-1,3,3,0,0,1,1.47-.35,3,3,0,0,1,1.43.33,2.43,2.43,0,0,1,1,1,2.88,2.88,0,0,1,.37,1.5,1.48,1.48,0,0,1,0,.2,1.5,1.5,0,0,1,0,.22H68.11V25.5h3.55l-.6.27a1.41,1.41,0,0,0-.17-.73,1.23,1.23,0,0,0-.47-.49,1.32,1.32,0,0,0-.7-.17,1.35,1.35,0,0,0-.7.17,1.33,1.33,0,0,0-.48.49,1.6,1.6,0,0,0-.17.75V26a1.5,1.5,0,0,0,.2.77,1.29,1.29,0,0,0,.55.51,1.81,1.81,0,0,0,.83.18,2.2,2.2,0,0,0,.76-.13A1.89,1.89,0,0,0,71.3,27l.83.9a2.31,2.31,0,0,1-.93.64A3.41,3.41,0,0,1,69.91,28.74Z"/><path class="cls-2" d="M77.06,28.66v-7h1.62v7Z"/><path class="cls-2" d="M80.49,28.66V23.28h1.63l2,3.68H83.5l2.17-3.68h1.46l0,5.38H85.74V24.88L86,25l-1.85,3.1h-.66l-1.86-3.21.29-.07v3.8Z"/><path class="cls-2" d="M88.54,24.56l.66-2.4.22.91a1,1,0,0,1-.7-.26.91.91,0,0,1-.28-.69.92.92,0,0,1,1-1,.93.93,0,0,1,.69.26.94.94,0,0,1,.27.7,2.09,2.09,0,0,1,0,.25,1.56,1.56,0,0,1-.07.3l-.18.45-.58,1.44Z"/><path class="cls-2" d="M91.22,28.66l1.43-2.05h1.59l-1.36,2.05Zm3.83,0V26.87l.22.25H93.78A3,3,0,0,1,92,26.64a1.6,1.6,0,0,1-.66-1.38,1.72,1.72,0,0,1,.7-1.47,3.09,3.09,0,0,1,1.87-.51h2.57v5.38Zm0-2.27V24.15l.22.4H93.9a1.31,1.31,0,0,0-.74.18.64.64,0,0,0-.27.58c0,.51.33.77,1,.77h1.39Z"/><path class="cls-2" d="M180.82,119.58a.46.46,0,0,1-.34-.14.42.42,0,0,1-.14-.32.45.45,0,0,1,.14-.32.49.49,0,0,1,.34-.12.51.51,0,0,1,.35.12.39.39,0,0,1,.13.31.44.44,0,0,1-.13.33A.47.47,0,0,1,180.82,119.58Zm-.38,3.73V120.1h.75v3.21Z"/><path class="cls-2" d="M184.11,120.07a1.52,1.52,0,0,1,.69.15,1.12,1.12,0,0,1,.48.46,1.65,1.65,0,0,1,.17.79v1.84h-.75v-1.74a.86.86,0,0,0-.2-.64.73.73,0,0,0-.56-.21,1,1,0,0,0-.47.11.74.74,0,0,0-.31.32,1.08,1.08,0,0,0-.11.54v1.62h-.75V120.1H183V121l-.12-.27a1.15,1.15,0,0,1,.48-.47A1.64,1.64,0,0,1,184.11,120.07Z"/><path class="cls-2" d="M186.1,120.73v-.6h2.14v.6Zm.53,2.58v-3.39a1.05,1.05,0,0,1,1.15-1.11,1.5,1.5,0,0,1,.37,0,.69.69,0,0,1,.3.13l-.21.56a.57.57,0,0,0-.19-.1.78.78,0,0,0-.22,0,.43.43,0,0,0-.35.13.54.54,0,0,0-.12.39v.35l0,.34v2.68Z"/><path class="cls-2" d="M190.25,123.35a1.78,1.78,0,0,1-.87-.21,1.65,1.65,0,0,1-.61-.59,1.73,1.73,0,0,1,0-1.69,1.55,1.55,0,0,1,.61-.58,1.78,1.78,0,0,1,.87-.21,1.83,1.83,0,0,1,.89.21,1.5,1.5,0,0,1,.6.57,1.62,1.62,0,0,1,.22.86,1.6,1.6,0,0,1-.22.84,1.55,1.55,0,0,1-.6.59A1.83,1.83,0,0,1,190.25,123.35Zm0-.64a1,1,0,0,0,.5-.12.86.86,0,0,0,.33-.35,1,1,0,0,0,.13-.53,1,1,0,0,0-.13-.54.86.86,0,0,0-.33-.35,1,1,0,0,0-.49-.12,1,1,0,0,0-.49.12,1,1,0,0,0-.34.35,1.13,1.13,0,0,0-.12.54,1.12,1.12,0,0,0,.12.53.9.9,0,0,0,.82.47Z"/><path class="cls-2" d="M195.42,124.53a3.28,3.28,0,0,1-1.16-.2,2.63,2.63,0,0,1-.9-.58,2.55,2.55,0,0,1-.58-.87,2.84,2.84,0,0,1-.21-1.1,2.79,2.79,0,0,1,.21-1.09,2.42,2.42,0,0,1,.58-.86,2.6,2.6,0,0,1,.91-.57,3.13,3.13,0,0,1,1.17-.21,3.25,3.25,0,0,1,1.14.2,2.76,2.76,0,0,1,.89.54,2.54,2.54,0,0,1,.79,1.89,2.6,2.6,0,0,1-.14.89,1.3,1.3,0,0,1-.39.58,1,1,0,0,1-.63.19.8.8,0,0,1-.59-.22.9.9,0,0,1-.21-.64v-.34l0-.35-.06-.77v-.69h.67v2a.45.45,0,0,0,.09.32.34.34,0,0,0,.22.1.39.39,0,0,0,.28-.13.8.8,0,0,0,.17-.37,2.58,2.58,0,0,0,.06-.6,2.21,2.21,0,0,0-.17-.87,1.93,1.93,0,0,0-.47-.68,2.16,2.16,0,0,0-.73-.44,2.85,2.85,0,0,0-.94-.16,2.67,2.67,0,0,0-.95.17,2.23,2.23,0,0,0-.73.47,2,2,0,0,0-.47.71,2.35,2.35,0,0,0-.16.89,2.47,2.47,0,0,0,.16.92,2.12,2.12,0,0,0,.46.71,2.38,2.38,0,0,0,.73.46,2.54,2.54,0,0,0,.94.16A3,3,0,0,0,196,124a2.34,2.34,0,0,0,.58-.2l.16.48a2.59,2.59,0,0,1-.63.21A3.37,3.37,0,0,1,195.42,124.53Zm-.16-1.19a1.43,1.43,0,0,1-.74-.19,1.47,1.47,0,0,1-.51-.54,1.76,1.76,0,0,1,0-1.59,1.3,1.3,0,0,1,.51-.53,1.44,1.44,0,0,1,.74-.2,1.39,1.39,0,0,1,.71.18,1.23,1.23,0,0,1,.46.52,1.72,1.72,0,0,1,.17.82,1.94,1.94,0,0,1-.16.84,1.17,1.17,0,0,1-.46.52A1.47,1.47,0,0,1,195.26,123.34Zm.13-.58a1,1,0,0,0,.46-.11.77.77,0,0,0,.31-.33,1,1,0,0,0,.12-.51,1,1,0,0,0-.12-.5.8.8,0,0,0-.31-.32.9.9,0,0,0-.46-.11,1,1,0,0,0-.47.11.9.9,0,0,0-.31.33,1.07,1.07,0,0,0-.11.49,1.13,1.13,0,0,0,.11.51.8.8,0,0,0,.31.32A.91.91,0,0,0,195.39,122.76Z"/><path class="cls-2" d="M198.86,123.31v-.48l2-2.38.13.25H198.9v-.6h2.68v.48l-2,2.39-.15-.26h2.18v.6Z"/><path class="cls-2" d="M203.75,123.35a1.63,1.63,0,0,1-.83-.21,1.51,1.51,0,0,1-.58-.57,1.89,1.89,0,0,1,0-1.73,1.51,1.51,0,0,1,.58-.57,1.73,1.73,0,0,1,.83-.2,1.53,1.53,0,0,1,.72.17,1.25,1.25,0,0,1,.5.54,2,2,0,0,1,.19.93,2.1,2.1,0,0,1-.18.92,1.25,1.25,0,0,1-.5.54A1.46,1.46,0,0,1,203.75,123.35Zm.09-.64a1,1,0,0,0,.48-.12.88.88,0,0,0,.34-.35,1,1,0,0,0,.13-.53,1,1,0,0,0-.13-.54.88.88,0,0,0-.34-.35,1,1,0,0,0-.48-.12,1,1,0,0,0-.49.12,1,1,0,0,0-.34.35,1.17,1.17,0,0,0,0,1.07,1,1,0,0,0,.34.35A1,1,0,0,0,203.84,122.71Zm1,.6v-.76l0-.85-.06-.85v-2h.74v4.45Z"/><path class="cls-2" d="M206.63,123.31V120.1h.72V121l-.09-.26a1,1,0,0,1,.46-.49,1.49,1.49,0,0,1,.77-.17v.71h-.18a.92.92,0,0,0-.67.25,1,1,0,0,0-.26.74v1.56Z"/><path class="cls-2" d="M210,123.35a1.54,1.54,0,0,1-.63-.12,1,1,0,0,1-.42-.35.91.91,0,0,1-.14-.49.92.92,0,0,1,.13-.49.87.87,0,0,1,.42-.34,2.09,2.09,0,0,1,.78-.12h.93v.49h-.88a.71.71,0,0,0-.51.13.39.39,0,0,0-.14.3.37.37,0,0,0,.17.32.73.73,0,0,0,.45.12,1,1,0,0,0,.49-.12.77.77,0,0,0,.32-.37l.12.45a.84.84,0,0,1-.38.43A1.41,1.41,0,0,1,210,123.35Zm1,0v-.65l0-.14v-1.13a.7.7,0,0,0-.2-.52.86.86,0,0,0-.6-.18,1.6,1.6,0,0,0-.53.09,1.15,1.15,0,0,0-.44.23l-.3-.55a1.77,1.77,0,0,1,.62-.29,2.59,2.59,0,0,1,.74-.1,1.62,1.62,0,0,1,1.08.33,1.31,1.31,0,0,1,.38,1v1.88Z"/><path class="cls-2" d="M213.57,123.31l-1.38-3.21H213l1.19,2.83h-.39L215,120.1h.72l-1.38,3.21Z"/><path class="cls-2" d="M217.65,123.35a1.78,1.78,0,0,1-.87-.21,1.65,1.65,0,0,1-.61-.59,1.73,1.73,0,0,1,0-1.69,1.55,1.55,0,0,1,.61-.58,1.78,1.78,0,0,1,.87-.21,1.83,1.83,0,0,1,.89.21,1.6,1.6,0,0,1,.61.57,1.71,1.71,0,0,1,.21.86,1.69,1.69,0,0,1-.21.84,1.65,1.65,0,0,1-.61.59A1.83,1.83,0,0,1,217.65,123.35Zm0-.64a1,1,0,0,0,.5-.12,1,1,0,0,0,.34-.35,1.12,1.12,0,0,0,.12-.53,1.13,1.13,0,0,0-.12-.54,1,1,0,0,0-.34-.35,1,1,0,0,0-.49-.12,1,1,0,0,0-.49.12,1,1,0,0,0-.34.35,1.13,1.13,0,0,0-.12.54,1.12,1.12,0,0,0,.12.53.9.9,0,0,0,.82.47Z"/><path class="cls-2" d="M220.39,123.35a.48.48,0,0,1-.35-.14.48.48,0,0,1-.15-.36.46.46,0,0,1,.15-.36.48.48,0,0,1,.35-.14.48.48,0,0,1,.34.14.46.46,0,0,1,.15.36.5.5,0,0,1-.49.5Z"/><path class="cls-2" d="M222.11,119.58a.48.48,0,0,1-.35-.14.41.41,0,0,1-.13-.32.44.44,0,0,1,.13-.32.51.51,0,0,1,.35-.12.49.49,0,0,1,.34.12.4.4,0,0,1,.14.31.45.45,0,0,1-.14.33A.44.44,0,0,1,222.11,119.58Zm-.38,3.73V120.1h.75v3.21Z"/><path class="cls-2" d="M225.4,120.07a1.52,1.52,0,0,1,.69.15,1,1,0,0,1,.47.46,1.54,1.54,0,0,1,.18.79v1.84H226v-1.74a.91.91,0,0,0-.2-.64.75.75,0,0,0-.56-.21,1,1,0,0,0-.47.11.76.76,0,0,0-.32.32,1.2,1.2,0,0,0-.11.54v1.62h-.75V120.1h.72V121l-.13-.27a1.17,1.17,0,0,1,.49-.47A1.58,1.58,0,0,1,225.4,120.07Z"/><path class="cls-2" d="M228.05,123.35a.52.52,0,0,1-.35-.14.51.51,0,0,1-.14-.36.49.49,0,0,1,.14-.36.52.52,0,0,1,.35-.14.48.48,0,0,1,.35.14.45.45,0,0,1,.14.36.47.47,0,0,1-.14.36A.48.48,0,0,1,228.05,123.35Z"/><path class="cls-2" d="M230.69,123.35a1.66,1.66,0,0,1-.72-.15,1.09,1.09,0,0,1-.48-.47,1.61,1.61,0,0,1-.18-.8V120.1h.75v1.73a1,1,0,0,0,.2.65.71.71,0,0,0,.55.21,1,1,0,0,0,.46-.11.8.8,0,0,0,.31-.32,1.24,1.24,0,0,0,.11-.54V120.1h.75v3.21h-.72v-.87l.13.27a1.07,1.07,0,0,1-.47.47A1.47,1.47,0,0,1,230.69,123.35Z"/><path class="cls-2" d="M234.51,123.35a1.54,1.54,0,0,1-.63-.12,1,1,0,0,1-.42-.35.84.84,0,0,1-.15-.49,1,1,0,0,1,.13-.49,1,1,0,0,1,.43-.34,2.06,2.06,0,0,1,.78-.12h.93v.49h-.88a.74.74,0,0,0-.52.13.42.42,0,0,0-.13.3.37.37,0,0,0,.17.32.71.71,0,0,0,.45.12,1,1,0,0,0,.49-.12.7.7,0,0,0,.31-.37l.13.45a.81.81,0,0,1-.39.43A1.34,1.34,0,0,1,234.51,123.35Zm1,0v-.65l-.05-.14v-1.13a.69.69,0,0,0-.19-.52.9.9,0,0,0-.6-.18,1.6,1.6,0,0,0-.53.09,1.15,1.15,0,0,0-.44.23l-.3-.55a1.69,1.69,0,0,1,.62-.29,2.55,2.55,0,0,1,.74-.1,1.57,1.57,0,0,1,1.07.33,1.28,1.28,0,0,1,.38,1v1.88Z"/><path class="cls-2" d="M175,105.32v-.6h2.77v.6Zm1.06,1.05v-2.7h.64v2.7Z"/><path class="cls-2" d="M179.75,107.18a2.8,2.8,0,0,1-.86-.13,2,2,0,0,1-.71-.36l.33-.6a2.06,2.06,0,0,0,.55.3,2.25,2.25,0,0,0,.68.11,1.08,1.08,0,0,0,.66-.17.55.55,0,0,0,.23-.46.53.53,0,0,0-.22-.46,1.13,1.13,0,0,0-.69-.17h-.39v-.53l1.2-1.43.11.29h-2.26v-.65h2.86v.52l-1.2,1.43-.41-.24h.24A1.76,1.76,0,0,1,181,105a1.15,1.15,0,0,1,.39.89,1.22,1.22,0,0,1-.18.65,1.32,1.32,0,0,1-.55.49A2.16,2.16,0,0,1,179.75,107.18Z"/><path class="cls-2" d="M183.73,107.18a2.23,2.23,0,0,1-.9-.16,1.31,1.31,0,0,1-.6-.44,1.09,1.09,0,0,1-.21-.67,1,1,0,0,1,.21-.64,1.27,1.27,0,0,1,.58-.41,2.84,2.84,0,0,1,.92-.13,2.76,2.76,0,0,1,.92.13,1.34,1.34,0,0,1,.6.41,1,1,0,0,1,.2.64,1.09,1.09,0,0,1-.21.67,1.31,1.31,0,0,1-.6.44A2.31,2.31,0,0,1,183.73,107.18Zm0-2.05a2.3,2.3,0,0,1-.83-.13,1.19,1.19,0,0,1-.54-.37,1,1,0,0,1-.19-.6,1,1,0,0,1,.2-.62,1.31,1.31,0,0,1,.55-.41,2.21,2.21,0,0,1,.81-.14,2.37,2.37,0,0,1,.83.14,1.45,1.45,0,0,1,.55.41,1,1,0,0,1,.2.62,1,1,0,0,1-.19.6,1.17,1.17,0,0,1-.55.37A2.32,2.32,0,0,1,183.73,105.13Zm0,1.44a1.18,1.18,0,0,0,.69-.18.6.6,0,0,0,.25-.5.58.58,0,0,0-.25-.49,1.18,1.18,0,0,0-.69-.18,1.09,1.09,0,0,0-.67.18.56.56,0,0,0-.25.49.58.58,0,0,0,.25.5A1.09,1.09,0,0,0,183.73,106.57Zm0-1.92a1,1,0,0,0,.59-.15.53.53,0,0,0,.22-.43.5.5,0,0,0-.23-.44.93.93,0,0,0-.58-.16.9.9,0,0,0-.57.16.5.5,0,0,0-.22.44.52.52,0,0,0,.21.43A1,1,0,0,0,183.73,104.65Z"/><path class="cls-2" d="M188.83,108.28a4.26,4.26,0,0,1-.55-1.26,6.31,6.31,0,0,1-.19-1.54,6.47,6.47,0,0,1,.19-1.56,4.08,4.08,0,0,1,.55-1.25h.71A6.07,6.07,0,0,0,189,104a6.4,6.4,0,0,0,0,2.93,6.07,6.07,0,0,0,.54,1.34Z"/><path class="cls-2" d="M191.81,107.18a1.65,1.65,0,0,1-.9-.25,1.77,1.77,0,0,1-.63-.74,3.22,3.22,0,0,1,0-2.34,1.77,1.77,0,0,1,.63-.74,1.74,1.74,0,0,1,1.8,0,1.85,1.85,0,0,1,.63.74,3.09,3.09,0,0,1,0,2.34,1.85,1.85,0,0,1-.63.74A1.65,1.65,0,0,1,191.81,107.18Zm0-.68a.84.84,0,0,0,.51-.16,1,1,0,0,0,.34-.49,2.43,2.43,0,0,0,.12-.83,2.49,2.49,0,0,0-.12-.84,1,1,0,0,0-.34-.48.84.84,0,0,0-.51-.16.79.79,0,0,0-.5.16.93.93,0,0,0-.34.48,2.25,2.25,0,0,0-.13.84,2.19,2.19,0,0,0,.13.83,1,1,0,0,0,.34.49A.79.79,0,0,0,191.81,106.5Z"/><path class="cls-2" d="M194.15,106.17v-.54l2.07-2.71h.84l-2,2.71-.39-.12H198v.66Zm2.31,1v-1l0-.66v-.85h.73v2.46Z"/><path class="cls-2" d="M198.35,106.17v-.54l2.07-2.71h.83l-2,2.71-.39-.12h3.33v.66Zm2.3,1v-1l0-.66v-.85h.73v2.46Z"/><path class="cls-2" d="M203.18,108.28h-.71a5.23,5.23,0,0,0,.54-1.34,6.4,6.4,0,0,0,0-2.93,5.23,5.23,0,0,0-.54-1.34h.71a4.08,4.08,0,0,1,.55,1.25,6.47,6.47,0,0,1,.19,1.56,6.31,6.31,0,0,1-.19,1.54A4.26,4.26,0,0,1,203.18,108.28Z"/><path class="cls-2" d="M208,107.18a2.82,2.82,0,0,1-.87-.13,2.06,2.06,0,0,1-.71-.36l.33-.6a2.06,2.06,0,0,0,.55.3,2.26,2.26,0,0,0,.69.11,1.14,1.14,0,0,0,.65-.17.57.57,0,0,0,.23-.47.6.6,0,0,0-.1-.35.64.64,0,0,0-.34-.23,2.53,2.53,0,0,0-.68-.07h-1l.22-2.29h2.46v.65h-2.17l.4-.37-.16,1.71-.41-.36h.85a2.52,2.52,0,0,1,1,.16,1.09,1.09,0,0,1,.56.46,1.21,1.21,0,0,1,.18.66,1.29,1.29,0,0,1-.18.67,1.2,1.2,0,0,1-.55.49A2,2,0,0,1,208,107.18Z"/><path class="cls-2" d="M212,107.18a1.65,1.65,0,0,1-.9-.25,1.75,1.75,0,0,1-.62-.74,3.09,3.09,0,0,1,0-2.34,1.75,1.75,0,0,1,.62-.74,1.65,1.65,0,0,1,.9-.25,1.6,1.6,0,0,1,.9.25,1.77,1.77,0,0,1,.63.74,3.09,3.09,0,0,1,0,2.34,1.77,1.77,0,0,1-.63.74A1.6,1.6,0,0,1,212,107.18Zm0-.68a.8.8,0,0,0,.51-.16,1,1,0,0,0,.34-.49,2.43,2.43,0,0,0,.12-.83,2.49,2.49,0,0,0-.12-.84.93.93,0,0,0-.34-.48.8.8,0,0,0-.51-.16.81.81,0,0,0-.5.16.93.93,0,0,0-.34.48,2.49,2.49,0,0,0-.12.84,2.43,2.43,0,0,0,.12.83,1,1,0,0,0,.34.49A.81.81,0,0,0,212,106.5Z"/><path class="cls-2" d="M215.63,107.18a2.82,2.82,0,0,1-.87-.13,2.06,2.06,0,0,1-.71-.36l.34-.6a1.91,1.91,0,0,0,.55.3,2.15,2.15,0,0,0,.68.11,1.07,1.07,0,0,0,.65-.17.53.53,0,0,0,.23-.46.55.55,0,0,0-.21-.46,1.18,1.18,0,0,0-.7-.17h-.38v-.53l1.2-1.43.1.29h-2.26v-.65h2.87v.52l-1.2,1.43-.41-.24h.23a1.75,1.75,0,0,1,1.16.34,1.15,1.15,0,0,1,.39.89,1.22,1.22,0,0,1-.18.65,1.26,1.26,0,0,1-.55.49A2.14,2.14,0,0,1,215.63,107.18Z"/><path class="cls-2" d="M220.4,107.12l1.73-3.89.21.35H220l.37-.38v1.09h-.72v-1.37h3.26v.52l-1.63,3.68Z"/><path class="cls-2" d="M225,107.18a2.23,2.23,0,0,1-.9-.16,1.31,1.31,0,0,1-.6-.44,1.09,1.09,0,0,1-.21-.67,1,1,0,0,1,.21-.64,1.27,1.27,0,0,1,.58-.41,3.32,3.32,0,0,1,1.84,0,1.34,1.34,0,0,1,.6.41,1.06,1.06,0,0,1,.2.64,1.09,1.09,0,0,1-.21.67,1.31,1.31,0,0,1-.6.44A2.31,2.31,0,0,1,225,107.18Zm0-2.05a2.3,2.3,0,0,1-.83-.13,1.14,1.14,0,0,1-.54-.37,1,1,0,0,1-.19-.6,1,1,0,0,1,.2-.62,1.34,1.34,0,0,1,.54-.41,2.31,2.31,0,0,1,.82-.14,2.27,2.27,0,0,1,.82.14,1.41,1.41,0,0,1,.56.41,1,1,0,0,1,.19.62,1,1,0,0,1-.19.6,1.09,1.09,0,0,1-.54.37A2.35,2.35,0,0,1,225,105.13Zm0,1.44a1.12,1.12,0,0,0,.68-.18.59.59,0,0,0,.26-.5.57.57,0,0,0-.26-.49,1.12,1.12,0,0,0-.68-.18,1.14,1.14,0,0,0-.68.18.58.58,0,0,0-.24.49.59.59,0,0,0,.24.5A1.14,1.14,0,0,0,225,106.57Zm0-1.92a1,1,0,0,0,.59-.15.53.53,0,0,0,.22-.43.5.5,0,0,0-.23-.44,1,1,0,0,0-.58-.16.9.9,0,0,0-.57.16.5.5,0,0,0-.22.44.52.52,0,0,0,.21.43A1,1,0,0,0,225,104.65Z"/><path class="cls-2" d="M231,107.18a1.9,1.9,0,0,1-1-.24,1.59,1.59,0,0,1-.62-.71,2.61,2.61,0,0,1-.22-1.14,2.68,2.68,0,0,1,.26-1.22,1.82,1.82,0,0,1,.73-.75,2.2,2.2,0,0,1,1.07-.26,2.43,2.43,0,0,1,.61.07,1.36,1.36,0,0,1,.49.2l-.28.59a1.06,1.06,0,0,0-.38-.16,1.86,1.86,0,0,0-.42,0,1.24,1.24,0,0,0-.94.37A1.46,1.46,0,0,0,230,105v.27a1.81,1.81,0,0,0,.05.31l-.24-.27a1.22,1.22,0,0,1,.29-.41,1.41,1.41,0,0,1,.45-.25,2.12,2.12,0,0,1,.57-.08,1.61,1.61,0,0,1,.74.16,1.17,1.17,0,0,1,.51.45,1.19,1.19,0,0,1,.2.68,1.27,1.27,0,0,1-.21.72,1.33,1.33,0,0,1-.55.47A1.79,1.79,0,0,1,231,107.18Zm0-.61a.93.93,0,0,0,.42-.09.64.64,0,0,0,.4-.63.65.65,0,0,0-.23-.52.89.89,0,0,0-.61-.19,1,1,0,0,0-.44.09.7.7,0,0,0-.3.26.67.67,0,0,0-.11.37.6.6,0,0,0,.1.35.7.7,0,0,0,.3.26A1,1,0,0,0,230.94,106.57Z"/><path class="cls-2" d="M234.73,107.18a2.23,2.23,0,0,1-.9-.16,1.31,1.31,0,0,1-.6-.44,1.09,1.09,0,0,1-.21-.67,1,1,0,0,1,.21-.64,1.27,1.27,0,0,1,.58-.41,2.84,2.84,0,0,1,.92-.13,2.8,2.8,0,0,1,.92.13,1.34,1.34,0,0,1,.6.41,1.06,1.06,0,0,1,.2.64,1.09,1.09,0,0,1-.21.67,1.31,1.31,0,0,1-.6.44A2.31,2.31,0,0,1,234.73,107.18Zm0-2.05a2.3,2.3,0,0,1-.83-.13,1.19,1.19,0,0,1-.54-.37,1,1,0,0,1-.19-.6,1,1,0,0,1,.2-.62,1.31,1.31,0,0,1,.55-.41,2.21,2.21,0,0,1,.81-.14,2.27,2.27,0,0,1,.82.14,1.41,1.41,0,0,1,.56.41,1,1,0,0,1,.19.62,1,1,0,0,1-.19.6,1.09,1.09,0,0,1-.54.37A2.32,2.32,0,0,1,234.73,105.13Zm0,1.44a1.18,1.18,0,0,0,.69-.18.6.6,0,0,0,.25-.5.58.58,0,0,0-.25-.49,1.18,1.18,0,0,0-.69-.18,1.14,1.14,0,0,0-.68.18.58.58,0,0,0-.24.49.59.59,0,0,0,.24.5A1.14,1.14,0,0,0,234.73,106.57Zm0-1.92a1,1,0,0,0,.59-.15.53.53,0,0,0,.22-.43.5.5,0,0,0-.23-.44.93.93,0,0,0-.58-.16.9.9,0,0,0-.57.16.5.5,0,0,0-.22.44.52.52,0,0,0,.21.43A1,1,0,0,0,234.73,104.65Z"/><path class="cls-2" d="M18.93,39V35.83H22V39h-.74V36.29l.17.18H19.51l.17-.18V39Z"/><path class="cls-2" d="M24.56,39.08a1.75,1.75,0,0,1-.87-.21,1.65,1.65,0,0,1-.61-.59A1.61,1.61,0,0,1,23.69,36a1.75,1.75,0,0,1,.87-.21,1.86,1.86,0,0,1,.89.21,1.5,1.5,0,0,1,.6.57,1.75,1.75,0,0,1,0,1.7,1.55,1.55,0,0,1-.6.59A1.86,1.86,0,0,1,24.56,39.08Zm0-.64a1,1,0,0,0,.5-.12.86.86,0,0,0,.33-.35,1,1,0,0,0,.13-.54,1,1,0,0,0-.13-.53.86.86,0,0,0-.33-.35,1,1,0,0,0-.49-.12,1,1,0,0,0-.49.12,1,1,0,0,0-.34.35,1.12,1.12,0,0,0-.12.53,1.13,1.13,0,0,0,.12.54.9.9,0,0,0,.82.47Z"/><path class="cls-2" d="M28.59,39.08a1.87,1.87,0,0,1-.9-.21,1.57,1.57,0,0,1-.61-.59,1.69,1.69,0,0,1,0-1.7,1.53,1.53,0,0,1,.61-.57,1.87,1.87,0,0,1,.9-.21,1.66,1.66,0,0,1,.82.19,1.27,1.27,0,0,1,.55.55l-.58.34a.82.82,0,0,0-.35-.34,1,1,0,0,0-.94,0,.84.84,0,0,0-.35.35,1,1,0,0,0-.13.53,1,1,0,0,0,.13.54.84.84,0,0,0,.35.35,1,1,0,0,0,.94,0,.88.88,0,0,0,.35-.34l.58.34a1.33,1.33,0,0,1-.55.55A1.66,1.66,0,0,1,28.59,39.08Z"/><path class="cls-2" d="M31.67,39.08A1.54,1.54,0,0,1,31,39a1,1,0,0,1-.41-.35.84.84,0,0,1-.15-.49.92.92,0,0,1,.13-.49.82.82,0,0,1,.42-.34,2.11,2.11,0,0,1,.78-.13h.93v.5h-.88a.73.73,0,0,0-.51.13.38.38,0,0,0-.13.3.38.38,0,0,0,.16.32.75.75,0,0,0,.45.12,1,1,0,0,0,.49-.12.75.75,0,0,0,.32-.38l.12.45a.82.82,0,0,1-.38.44A1.38,1.38,0,0,1,31.67,39.08Zm1,0v-.65l0-.14V37.12a.7.7,0,0,0-.2-.52.86.86,0,0,0-.6-.18,1.89,1.89,0,0,0-.53.08,1.43,1.43,0,0,0-.44.24l-.3-.55a1.77,1.77,0,0,1,.62-.29,2.64,2.64,0,0,1,.74-.1,1.62,1.62,0,0,1,1.08.33,1.3,1.3,0,0,1,.38,1V39Z"/><path class="cls-2" d="M34,39.75V38.4h3.87v1.35h-.7V39H34.68v.71Zm2.65-1.06V36.47H35.4V37c0,.19,0,.37,0,.54a2.1,2.1,0,0,1-.08.46,1,1,0,0,1-.15.35.41.41,0,0,1-.27.18l-.75-.11a.37.37,0,0,0,.29-.12.66.66,0,0,0,.18-.32,3,3,0,0,0,.09-.47c0-.18,0-.37,0-.56l0-1.1h2.65v2.86Z"/><path class="cls-2" d="M39.59,39.08A1.54,1.54,0,0,1,39,39a1,1,0,0,1-.42-.35.84.84,0,0,1-.15-.49,1,1,0,0,1,.13-.49.91.91,0,0,1,.42-.34,2.11,2.11,0,0,1,.78-.13h.93v.5h-.87a.74.74,0,0,0-.52.13.42.42,0,0,0-.13.3.38.38,0,0,0,.16.32.75.75,0,0,0,.45.12,1,1,0,0,0,.5-.12.73.73,0,0,0,.31-.38l.13.45a.8.8,0,0,1-.39.44A1.34,1.34,0,0,1,39.59,39.08Zm1,0v-.65l-.05-.14V37.12a.66.66,0,0,0-.2-.52.85.85,0,0,0-.59-.18,2,2,0,0,0-.54.08,1.43,1.43,0,0,0-.44.24l-.29-.55a1.72,1.72,0,0,1,.61-.29,2.66,2.66,0,0,1,.75-.1,1.57,1.57,0,0,1,1.07.33,1.27,1.27,0,0,1,.38,1V39Z"/></svg>