<?xml version="1.0" encoding="utf-8"?>
<!-- Generator: Adobe Illustrator 26.3.1, SVG Export Plug-In . SVG Version: 6.00 Build 0)  -->
<svg version="1.1" id="Layer_1" xmlns="http://www.w3.org/2000/svg" xmlns:xlink="http://www.w3.org/1999/xlink" x="0px" y="0px"
	 viewBox="0 0 283 283" style="enable-background:new 0 0 283 283;" xml:space="preserve">
<style type="text/css">
	.st0{fill:#FFEE00;}
	.st1{fill:#006EB7;}
	.st2{fill:#E52329;}
	.st3{fill:#04A64B;}
	.st4{fill:#F18825;}
	.st5{fill:#5D358C;}
	.st6{fill:none;}
	.st7{fill:#00ACA9;}
	.st8{fill:#952264;}
	.st9{fill:#164194;}
	.st10{fill:#E8423F;}
	.st11{fill:#75B843;}
	.st12{fill:#FBBA00;}
	.st13{fill:#2C2F88;}
	.st14{fill:#7B2182;}
	.st15{fill:#542583;}
	.st16{fill:#662483;}
	.st17{fill:#EF7911;}
	.st18{fill:#008DD4;}
	.st19{fill:#0052A1;}
	.st20{fill:#0067B2;}
	.st21{fill:#007BC4;}
	.st22{fill:#E51A2F;}
	.st23{fill:#E84621;}
	.st24{fill:#E5133A;}
	.st25{fill:#AF1280;}
	.st26{fill:#971B81;}
	.st27{fill:#D2007F;}
	.st28{fill:#D70142;}
	.st29{fill:#274193;}
	.st30{fill:#FFE000;}
	.st31{fill:#FCBF00;}
	.st32{fill:#F0E400;}
	.st33{fill:#FFED00;}
	.st34{fill:#FFD000;}
	.st35{fill:#EC6907;}
	.st36{fill:#EA5B13;}
	.st37{fill:#F9AE00;}
	.st38{fill:#E9511D;}
	.st39{fill:#00A8D4;}
	.st40{fill:#009BA2;}
	.st41{fill:#BCCF00;}
	.st42{fill:#009874;}
	.st43{fill:#009FE3;}
	.st44{fill:#009CB6;}
	.st45{fill:#13A538;}
	.st46{fill:#4EAD33;}
	.st47{fill:#009760;}
	.st48{fill:#009F3C;}
	.st49{fill:none;stroke:#009BA2;stroke-miterlimit:10;}
</style>
<g id="Layer_2_00000040556868628835451640000016386886270493483395_">
	<g id="Layer_14">
		<polygon class="st0" points="159.2,131.4 141.5,141.5 123.9,131.4 141.5,100.8 		"/>
		<polygon class="st1" points="141.5,141.5 141.5,161.9 106.3,161.9 123.9,131.4 		"/>
		<polygon class="st2" points="141.5,141.5 159.2,131.4 176.8,161.9 141.5,161.9 		"/>
		<polygon class="st3" points="106.3,121.2 141.5,100.8 106.3,161.9 		"/>
		<polygon class="st4" points="141.5,100.8 176.8,161.9 176.8,121.2 		"/>
		<polygon class="st5" points="106.3,161.9 176.8,161.9 141.5,182.2 		"/>
		<polygon class="st6" points="141.5,141.5 141.5,141.5 141.5,141.5 		"/>
		<polygon class="st6" points="141.5,141.5 141.5,141.5 141.5,141.5 		"/>
		<polygon class="st6" points="141.5,141.5 141.5,141.5 141.5,141.5 141.5,141.5 141.5,141.5 141.5,141.5 141.5,141.5 141.5,141.5 
					"/>
		<polygon class="st6" points="141.5,141.5 141.5,141.5 141.5,141.5 141.5,141.5 141.5,141.5 141.5,141.5 141.5,141.5 		"/>
		<polygon class="st6" points="141.5,141.5 141.5,141.5 141.5,141.5 		"/>
		<polygon class="st6" points="141.5,141.5 141.5,141.5 141.5,141.5 		"/>
		<polygon class="st6" points="141.5,141.5 141.5,141.5 141.5,141.5 		"/>
		<polygon class="st6" points="141.5,141.5 141.5,141.5 141.5,141.5 		"/>
		<polygon class="st6" points="141.5,141.5 141.5,141.5 141.5,141.5 		"/>
		<polygon class="st6" points="141.5,141.5 141.5,141.5 141.5,141.5 		"/>
		<polygon class="st6" points="141.5,141.5 141.5,141.5 141.5,141.5 141.5,141.5 141.5,141.5 141.5,141.5 141.5,141.5 141.5,141.5 
			141.5,141.5 141.5,141.5 		"/>
		<polygon class="st6" points="141.5,141.5 141.5,141.5 141.5,141.5 		"/>
		<polygon class="st6" points="141.5,141.5 141.5,141.5 141.5,141.5 		"/>
		<polygon class="st6" points="141.5,141.5 141.5,141.5 141.5,141.5 141.5,141.5 141.5,141.5 		"/>
		<path class="st5" d="M141.5,201.6c5.3,0,10.5-0.7,15.6-2l5.4,20c-13.7,3.6-28.1,3.6-41.8,0l5.3-20
			C131.1,200.9,136.3,201.6,141.5,201.6z"/>
		<path class="st7" d="M63.5,120.6l20,5.3c-2.7,10.2-2.7,20.9,0,31.1l-20,5.4C59.9,148.7,59.9,134.3,63.5,120.6z"/>
		<path class="st8" d="M184,184l14.6,14.6l0,0c-7.3,7.4-16,13.2-25.6,17.3c-3.4,1.4-6.9,2.7-10.5,3.6l-5.4-20
			C167.3,196.8,176.6,191.4,184,184z"/>
		<path class="st1" d="M99.1,184l-14.6,14.6c-7.4-7.3-13.2-16-17.3-25.6c-1.4-3.4-2.7-6.9-3.6-10.5l20-5.4
			C86.3,167.3,91.6,176.6,99.1,184z"/>
		<path class="st9" d="M126,199.6l-5.3,20c-3.6-1-7.1-2.2-10.5-3.6c-9.6-4.1-18.3-9.9-25.7-17.3l0,0L99.1,184
			C106.5,191.5,115.8,196.8,126,199.6z"/>
		<path class="st10" d="M201.6,141.5c0-5.3-0.7-10.5-2-15.6l20-5.3c3.6,13.7,3.6,28.1,0,41.8l-20-5.4
			C200.9,152,201.6,146.8,201.6,141.5z"/>
		<path class="st0" d="M141.5,81.5c-5.2,0-10.5,0.7-15.6,2l-5.3-20c13.7-3.6,28.1-3.6,41.8,0l-5.4,20
			C152,82.1,146.8,81.4,141.5,81.5z"/>
		<path class="st11" d="M99.1,99.1L84.4,84.4l0,0c10-10,22.5-17.2,36.2-20.9l5.3,20C115.8,86.2,106.5,91.6,99.1,99.1z"/>
		<path class="st3" d="M83.5,126l-20-5.3c1-3.6,2.2-7.1,3.6-10.5c4.1-9.6,9.9-18.3,17.3-25.7l14.6,14.6
			C91.6,106.5,86.2,115.8,83.5,126z"/>
		<path class="st4" d="M184,99.1l14.6-14.6c10,10,17.2,22.5,20.9,36.2l-20,5.3C196.8,115.8,191.4,106.5,184,99.1z"/>
		<path class="st12" d="M157.1,83.5l5.4-20c13.7,3.7,26.2,10.9,36.2,20.9l0,0L184,99.1C176.5,91.6,167.3,86.2,157.1,83.5z"/>
		<path class="st2" d="M199.6,157.1l20,5.4c-1,3.6-2.2,7.1-3.7,10.6c-4,9.6-9.9,18.3-17.3,25.6L184,184
			C191.5,176.5,196.8,167.3,199.6,157.1z"/>
		<path class="st13" d="M141.5,242.8c-5.9,0-11.7-0.5-17.5-1.5l-4.5,25.3c7.3,1.3,14.6,1.9,22,1.9l0,0L141.5,242.8L141.5,242.8z"/>
		<path class="st14" d="M176.2,236.7l8.8,24.2c2-0.7,4-1.5,6-2.4c4.8-2,9.5-4.4,14.1-7l-12.9-22.3
			C187.1,232.2,181.7,234.7,176.2,236.7z"/>
		<path class="st15" d="M141.5,242.8v25.7c7.4,0,14.8-0.6,22.1-1.9l-4.5-25.3C153.3,242.3,147.4,242.8,141.5,242.8z"/>
		<path class="st16" d="M159.1,241.3l4.5,25.3c7.3-1.3,14.5-3.2,21.4-5.7l-8.8-24.2C170.7,238.7,164.9,240.2,159.1,241.3z"/>
		<path class="st17" d="M219.1,76.4l19.7-16.5c-2.4-2.8-4.9-5.6-7.5-8.2s-5.3-5.1-8.1-7.5L206.6,64
			C211.1,67.8,215.3,71.9,219.1,76.4z"/>
		<path class="st18" d="M53.8,192.2L31.5,205c1.5,2.6,3,5.1,4.7,7.5c2.5,3.7,5.1,7.2,8,10.6L64,206.6
			C60.2,202.1,56.8,197.3,53.8,192.2z"/>
		<path class="st19" d="M90.9,229.2L78,251.5c4.5,2.6,9.2,5,14,7c2,0.8,4,1.6,6,2.4l8.8-24.2C101.3,234.7,96,232.2,90.9,229.2z"/>
		<path class="st20" d="M76.4,219.1l-16.5,19.7c3.4,2.8,6.9,5.5,10.6,8c2.4,1.6,5,3.2,7.5,4.7l12.9-22.3
			C85.8,226.3,81,222.9,76.4,219.1z"/>
		<path class="st21" d="M64,206.6l-19.7,16.5c2.4,2.8,4.9,5.6,7.5,8.2s5.3,5.1,8.2,7.5l16.5-19.7C72,215.3,67.8,211.1,64,206.6z"/>
		<path class="st22" d="M241.3,159.1l25.3,4.5c1.3-7.3,1.9-14.7,1.9-22.1h-25.7C242.8,147.4,242.3,153.3,241.3,159.1z"/>
		<path class="st23" d="M266.6,119.5l-25.3,4.5c1,5.8,1.5,11.7,1.5,17.6h25.7C268.5,134.2,267.9,126.8,266.6,119.5z"/>
		<path class="st24" d="M236.7,176.2l24.2,8.8c2.5-6.9,4.4-14.1,5.7-21.4l-25.3-4.5C240.2,164.9,238.7,170.6,236.7,176.2z"/>
		<path class="st25" d="M206.6,219.1l16.5,19.7c2.8-2.4,5.6-4.9,8.2-7.5s5.1-5.3,7.5-8.2l-19.7-16.5
			C215.3,211.1,211.1,215.3,206.6,219.1z"/>
		<path class="st26" d="M192.2,229.2l12.8,22.3c2.6-1.5,5.1-3,7.5-4.7c3.7-2.5,7.2-5.1,10.6-8l-16.5-19.7
			C202.1,222.9,197.3,226.3,192.2,229.2z"/>
		<path class="st27" d="M219.1,206.6l19.7,16.5c2.9-3.4,5.5-6.9,8-10.6c1.6-2.4,3.2-5,4.7-7.5l-22.3-12.9
			C226.3,197.3,222.9,202.1,219.1,206.6z"/>
		<path class="st28" d="M229.2,192.1l22.3,12.9c2.6-4.5,5-9.2,7-14.1c0.8-2,1.6-4,2.4-6l-24.2-8.8
			C234.7,181.7,232.2,187,229.2,192.1z"/>
		<path class="st29" d="M106.9,236.7l-8.8,24.2c6.9,2.5,14.1,4.4,21.4,5.7l4.5-25.3C118.2,240.2,112.5,238.7,106.9,236.7z"/>
		<path class="st30" d="M159.1,41.8l4.5-25.3c-7.3-1.3-14.7-1.9-22.1-1.9v25.7C147.4,40.3,153.3,40.8,159.1,41.8z"/>
		<path class="st31" d="M192.2,53.8L205,31.6c-4.5-2.6-9.3-5-14.1-7c-2-0.8-4-1.6-6-2.4l-8.8,24.2C181.7,48.4,187.1,50.9,192.2,53.8
			z"/>
		<path class="st32" d="M124,41.8l-4.5-25.3c-7.3,1.3-14.4,3.2-21.4,5.7l8.8,24.2C112.5,44.3,118.2,42.8,124,41.8z"/>
		<path class="st33" d="M141.5,40.3L141.5,40.3V14.5l0,0c-7.4,0-14.7,0.6-22,1.9l4.5,25.3C129.8,40.8,135.6,40.3,141.5,40.3z"/>
		<path class="st34" d="M176.2,46.3l8.8-24.2c-6.9-2.5-14.1-4.4-21.4-5.7l-4.5,25.3C165,42.8,170.7,44.3,176.2,46.3z"/>
		<path class="st35" d="M229.2,90.9L251.5,78c-1.5-2.6-3-5.1-4.7-7.5c-2.5-3.7-5.2-7.2-8-10.6l-19.7,16.5
			C222.9,80.9,226.3,85.8,229.2,90.9z"/>
		<path class="st36" d="M236.7,106.9l24.2-8.8c-0.7-2-1.5-4-2.4-6c-2-4.8-4.4-9.5-7-14l-22.3,12.8C232.2,96,234.7,101.4,236.7,106.9
			z"/>
		<path class="st37" d="M206.6,64l16.5-19.7c-3.4-2.8-6.9-5.5-10.6-8c-2.4-1.6-4.9-3.2-7.5-4.7l-12.9,22.2
			C197.3,56.8,202.1,60.2,206.6,64z"/>
		<path class="st38" d="M241.3,124l25.3-4.5c-1.3-7.3-3.2-14.4-5.7-21.4l-24.2,8.8C238.7,112.5,240.2,118.2,241.3,124z"/>
		<path class="st39" d="M41.8,159.1l-25.3,4.5c1.3,7.3,3.2,14.5,5.7,21.4l24.2-8.8C44.3,170.7,42.8,164.9,41.8,159.1z"/>
		<path class="st40" d="M40.3,141.5c0-5.9,0.5-11.8,1.5-17.6l-25.3-4.5c-1.3,7.3-1.9,14.7-1.9,22.1H40.3z"/>
		<path class="st41" d="M106.9,46.3l-8.8-24.2c-2,0.7-4,1.5-6,2.4c-4.8,2-9.5,4.4-14.1,7l12.9,22.3C96,50.9,101.3,48.4,106.9,46.3z"
			/>
		<path class="st42" d="M46.3,106.9l-24.2-8.8c-2.5,6.9-4.4,14.1-5.7,21.4l25.3,4.5C42.8,118.1,44.3,112.4,46.3,106.9z"/>
		<path class="st43" d="M46.3,176.2L22.2,185c0.7,2,1.5,4,2.4,6c2,4.8,4.4,9.5,7,14.1l22.3-12.9C50.9,187.1,48.4,181.7,46.3,176.2z"
			/>
		<path class="st44" d="M40.3,141.5H14.5c0,7.4,0.6,14.8,1.9,22.1l25.3-4.5C40.8,153.3,40.3,147.4,40.3,141.5z"/>
		<path class="st45" d="M76.4,64L59.9,44.2c-2.8,2.4-5.6,4.9-8.2,7.5s-5.1,5.3-7.5,8.2L64,76.4C67.8,71.9,71.9,67.8,76.4,64z"/>
		<path class="st46" d="M90.9,53.8L78,31.5c-2.6,1.5-5.1,3-7.5,4.7c-3.7,2.5-7.2,5.2-10.6,8L76.4,64C81,60.2,85.8,56.8,90.9,53.8z"
			/>
		<path class="st47" d="M53.8,90.9L31.5,78c-2.6,4.5-5,9.2-7,14.1c-0.8,2-1.6,4-2.4,6l24.2,8.8C48.4,101.3,50.9,96,53.8,90.9z"/>
		<path class="st48" d="M64,76.4L44.2,59.9c-2.8,3.4-5.5,6.9-8,10.6c-1.7,2.4-3.2,5-4.7,7.5l22.3,12.8C56.8,85.8,60.2,80.9,64,76.4z
			"/>
		<path class="st49" d="M141.5,14.5v-14c-8.2,0-16.4,0.7-24.5,2.1C109,4,101,6.2,93.3,9c-2.2,0.8-4.5,1.7-6.7,2.6
			C81.3,13.9,76,16.5,71,19.4c-2.8,1.6-5.6,3.4-8.3,5.2c-4.1,2.8-8,5.7-11.8,8.9c-3.2,2.6-6.2,5.4-9.1,8.3s-5.7,5.9-8.3,9.1
			c-3.2,3.8-6.1,7.7-8.9,11.8c-1.8,2.7-3.6,5.5-5.2,8.3c-2.9,5-5.5,10.3-7.8,15.6c-0.9,2.2-1.8,4.4-2.6,6.7C6.2,101,4,108.9,2.6,117
			c-1.4,8.1-2.1,16.3-2.1,24.5l0,0c0,8.2,0.7,16.4,2.1,24.5c1.4,8.1,3.6,16.1,6.4,23.8c0.8,2.2,1.7,4.4,2.6,6.6
			c2.3,5.4,4.9,10.6,7.8,15.6c1.6,2.8,3.4,5.6,5.2,8.3c2.8,4.1,5.7,8,8.9,11.8c2.6,3.1,5.4,6.2,8.3,9.1s5.9,5.7,9.1,8.3
			c3.8,3.2,7.7,6.1,11.8,8.9c2.7,1.8,5.5,3.6,8.4,5.2c5,2.9,10.2,5.5,15.6,7.8c2.2,0.9,4.4,1.8,6.7,2.6l4.8-13.2"/>
	</g>
</g>
</svg>
