<?xml version="1.0" encoding="utf-8"?>
<!-- Generator: Adobe Illustrator 26.3.1, SVG Export Plug-In . SVG Version: 6.00 Build 0)  -->
<svg version="1.1" id="Layer_3" xmlns="http://www.w3.org/2000/svg" xmlns:xlink="http://www.w3.org/1999/xlink" x="0px" y="0px"
	 viewBox="0 0 595.3 220.8" style="enable-background:new 0 0 595.3 220.8;" xml:space="preserve">
<style type="text/css">
	.st0{fill:url(#SVGID_1_);}
	.st1{fill:#CCCCCC;}
	.st2{fill:#3F3F3E;}
	.st3{fill:#EBEBEB;}
	.st4{fill:#797979;}
	.st5{fill:#B2B2B2;}
	.st6{fill:url(#SVGID_00000134936562965072865460000000662473526886699709_);}
	.st7{fill:#FFFFFF;}
</style>
<g>
	
		<linearGradient id="SVGID_1_" gradientUnits="userSpaceOnUse" x1="79.8806" y1="2322.3403" x2="706.2288" y2="2223.8586" gradientTransform="matrix(1 0 0 1 -98.36 -2132.1348)">
		<stop  offset="0" style="stop-color:#3F3F3E"/>
		<stop  offset="0.3514" style="stop-color:#797979"/>
		<stop  offset="0.7178" style="stop-color:#B2B2B2"/>
		<stop  offset="1" style="stop-color:#EBEBEB"/>
	</linearGradient>
	<path class="st0" d="M595.3,59.9H0v161.2h595.3V59.9z"/>
</g>
<g>
	<path class="st1" d="M6.3,31.8l-1.1-1.1l-1.1,1.1C3.6,32.2,0,35.9,0,39.3c0,2.9,2.3,5.2,5.2,5.2s5.2-2.3,5.2-5.2
		C10.3,35.9,6.7,32.2,6.3,31.8z"/>
	<path class="st2" d="M5.2,42.9c2,0,3.6-1.6,3.6-3.6s-1.6-3.6-3.6-3.6s-3.6,1.6-3.6,3.6C1.6,41.3,3.2,42.9,5.2,42.9z"/>
</g>
<g>
	<path class="st1" d="M591.2,31.8l-1.1-1.1l-1.1,1.1c-0.4,0.4-4.1,4.1-4.1,7.6c0,2.8,2.3,5.2,5.2,5.2s5.2-2.3,5.2-5.2
		C595.3,35.9,591.6,32.2,591.2,31.8z"/>
	<path class="st3" d="M589.5,42.9c2.4,0.4,4.5-1.7,4.1-4.1c-0.2-1.5-1.5-2.8-3-3c-2.4-0.4-4.5,1.7-4.1,4.1
		C586.7,41.4,588,42.7,589.5,42.9z"/>
</g>
<g>
	<path class="st2" d="M149.4,59.9H0v161.2h149.4V59.9z"/>
</g>
<g>
	<path class="st4" d="M298,59.9H149.4v161.2H298V59.9z"/>
</g>
<g>
	<path class="st5" d="M445.9,59.9H298v161.2h147.8V59.9H445.9z"/>
</g>
<g>
	<path class="st3" d="M595.3,59.9H445.9v161.2h149.4V59.9z"/>
</g>
<g>
	
		<linearGradient id="SVGID_00000096051044500169431510000008339965228532436633_" gradientUnits="userSpaceOnUse" x1="90.332" y1="2195.5471" x2="695.9729" y2="2100.321" gradientTransform="matrix(1 0 0 1 -98.36 -2132.1348)">
		<stop  offset="0" style="stop-color:#3F3F3E"/>
		<stop  offset="0.3514" style="stop-color:#797979"/>
		<stop  offset="0.7178" style="stop-color:#B2B2B2"/>
		<stop  offset="1" style="stop-color:#EBEBEB"/>
	</linearGradient>
	<path style="fill:url(#SVGID_00000096051044500169431510000008339965228532436633_);" d="M595.3,0H0v30.7h595.3V0z"/>
</g>
<g>
	<path class="st7" d="M474.9,179.9c-0.8,0-1.5-0.2-2.1-0.5s-1.1-0.8-1.5-1.4c-0.4-0.6-0.5-1.3-0.5-2.1s0.2-1.4,0.5-2
		c0.4-0.6,0.9-1.1,1.5-1.4c0.6-0.3,1.4-0.5,2.1-0.5s1.3,0.1,1.8,0.4c0.5,0.2,1,0.6,1.4,1l-1.1,1.1c-0.5-0.6-1.2-0.9-1.9-0.9
		c-0.5,0-0.9,0.1-1.3,0.3s-0.7,0.5-0.9,0.9c-0.2,0.4-0.3,0.8-0.3,1.3s0.1,0.9,0.3,1.3c0.2,0.4,0.5,0.7,0.9,0.9s0.8,0.3,1.3,0.3
		c0.8,0,1.4-0.3,1.9-0.9l1.1,1.1c-0.4,0.4-0.8,0.8-1.4,1C476.1,179.8,475.5,179.9,474.9,179.9z M479.7,175.9c-0.3,0-0.6-0.1-0.8-0.3
		s-0.3-0.5-0.3-0.8s0.1-0.6,0.3-0.8c0.2-0.2,0.5-0.3,0.8-0.3s0.6,0.1,0.8,0.3c0.2,0.2,0.3,0.4,0.3,0.8c0,0.3-0.1,0.6-0.3,0.8
		S480,175.9,479.7,175.9z M479.7,179.9c-0.3,0-0.6-0.1-0.8-0.3c-0.2-0.2-0.3-0.5-0.3-0.8s0.1-0.6,0.3-0.8c0.2-0.2,0.5-0.3,0.8-0.3
		s0.6,0.1,0.8,0.3c0.2,0.2,0.3,0.4,0.3,0.8c0,0.3-0.1,0.6-0.3,0.8C480.2,179.8,480,179.9,479.7,179.9z M484.9,179.9
		c-0.6,0-1.2-0.2-1.7-0.5s-0.9-0.8-1.2-1.4c-0.3-0.6-0.4-1.3-0.4-2.1s0.1-1.5,0.4-2.1s0.7-1.1,1.2-1.4c0.5-0.3,1.1-0.5,1.7-0.5
		s1.2,0.2,1.7,0.5s0.9,0.8,1.2,1.4c0.3,0.6,0.4,1.3,0.4,2.1s-0.1,1.5-0.4,2.1s-0.7,1-1.2,1.4C486.1,179.8,485.5,179.9,484.9,179.9z
		 M484.9,178.4c0.5,0,0.8-0.2,1.1-0.6c0.3-0.4,0.4-1,0.4-1.9c0-0.8-0.1-1.5-0.4-1.9s-0.6-0.6-1.1-0.6s-0.8,0.2-1.1,0.6
		c-0.3,0.4-0.4,1-0.4,1.9c0,0.8,0.1,1.5,0.4,1.9C484,178.2,484.4,178.4,484.9,178.4z M499.6,179.8v-4.6l-2.3,3.8h-0.8l-2.3-3.7v4.5
		h-1.7v-7.7h1.5l2.9,4.8l2.8-4.8h1.5v7.7H499.6z M503.7,175.9c-0.3,0-0.6-0.1-0.8-0.3c-0.2-0.2-0.3-0.5-0.3-0.8s0.1-0.6,0.3-0.8
		c0.2-0.2,0.5-0.3,0.8-0.3s0.6,0.1,0.8,0.3c0.2,0.2,0.3,0.4,0.3,0.8c0,0.3-0.1,0.6-0.3,0.8C504.2,175.8,504,175.9,503.7,175.9z
		 M503.7,179.9c-0.3,0-0.6-0.1-0.8-0.3c-0.2-0.2-0.3-0.5-0.3-0.8s0.1-0.6,0.3-0.8c0.2-0.2,0.5-0.3,0.8-0.3s0.6,0.1,0.8,0.3
		c0.2,0.2,0.3,0.4,0.3,0.8c0,0.3-0.1,0.6-0.3,0.8C504.2,179.8,504,179.9,503.7,179.9z M508.8,179.9c-0.6,0-1.2-0.2-1.7-0.5
		s-0.9-0.8-1.2-1.4c-0.3-0.6-0.4-1.3-0.4-2.1s0.1-1.5,0.4-2.1s0.7-1.1,1.2-1.4c0.5-0.3,1.1-0.5,1.7-0.5s1.2,0.2,1.7,0.5
		s0.9,0.8,1.2,1.4c0.3,0.6,0.4,1.3,0.4,2.1s-0.1,1.5-0.4,2.1c-0.3,0.6-0.7,1-1.2,1.4C510.1,179.8,509.5,179.9,508.8,179.9z
		 M508.8,178.4c0.5,0,0.8-0.2,1.1-0.6c0.3-0.4,0.4-1,0.4-1.9c0-0.8-0.1-1.5-0.4-1.9s-0.6-0.6-1.1-0.6s-0.8,0.2-1.1,0.6
		c-0.3,0.4-0.4,1-0.4,1.9c0,0.8,0.1,1.5,0.4,1.9C508,178.2,508.4,178.4,508.8,178.4z M520.3,177.1v2.7h-1.8V177l-3-5h1.9l2.1,3.4
		l2.1-3.4h1.8L520.3,177.1z M524.2,175.9c-0.3,0-0.6-0.1-0.8-0.3s-0.3-0.5-0.3-0.8s0.1-0.6,0.3-0.8s0.5-0.3,0.8-0.3s0.6,0.1,0.8,0.3
		s0.3,0.4,0.3,0.8c0,0.3-0.1,0.6-0.3,0.8S524.5,175.9,524.2,175.9z M524.2,179.9c-0.3,0-0.6-0.1-0.8-0.3s-0.3-0.5-0.3-0.8
		s0.1-0.6,0.3-0.8s0.5-0.3,0.8-0.3s0.6,0.1,0.8,0.3s0.3,0.4,0.3,0.8c0,0.3-0.1,0.6-0.3,0.8C524.7,179.8,524.5,179.9,524.2,179.9z
		 M529.3,179.9c-0.6,0-1.2-0.2-1.7-0.5s-0.9-0.8-1.2-1.4c-0.3-0.6-0.4-1.3-0.4-2.1s0.1-1.5,0.4-2.1c0.3-0.6,0.7-1.1,1.2-1.4
		c0.5-0.3,1.1-0.5,1.7-0.5s1.2,0.2,1.7,0.5s0.9,0.8,1.2,1.4c0.3,0.6,0.4,1.3,0.4,2.1s-0.1,1.5-0.4,2.1c-0.3,0.6-0.7,1-1.2,1.4
		C530.5,179.8,530,179.9,529.3,179.9z M529.3,178.4c0.5,0,0.8-0.2,1.1-0.6c0.3-0.4,0.4-1,0.4-1.9c0-0.8-0.1-1.5-0.4-1.9
		c-0.3-0.4-0.6-0.6-1.1-0.6s-0.8,0.2-1.1,0.6c-0.3,0.4-0.4,1-0.4,1.9c0,0.8,0.1,1.5,0.4,1.9C528.5,178.2,528.9,178.4,529.3,178.4z
		 M539.9,176.8l-1,1.1v1.9h-1.8v-7.7h1.8v3.6l3.4-3.6h2l-3.2,3.4l3.4,4.3h-2.1L539.9,176.8z M545.8,175.9c-0.3,0-0.6-0.1-0.8-0.3
		s-0.3-0.5-0.3-0.8s0.1-0.6,0.3-0.8s0.5-0.3,0.8-0.3s0.6,0.1,0.8,0.3s0.3,0.4,0.3,0.8c0,0.3-0.1,0.6-0.3,0.8
		C546.3,175.8,546.1,175.9,545.8,175.9z M545.8,179.9c-0.3,0-0.6-0.1-0.8-0.3s-0.3-0.5-0.3-0.8s0.1-0.6,0.3-0.8s0.5-0.3,0.8-0.3
		s0.6,0.1,0.8,0.3s0.3,0.4,0.3,0.8c0,0.3-0.1,0.6-0.3,0.8C546.3,179.8,546.1,179.9,545.8,179.9z M550.6,172.1v7.7h-1.8v-6.3h-1.5
		v-1.4H550.6z M554.9,172.1v7.7h-1.8v-6.3h-1.5v-1.4H554.9z M482.8,185.5l-2.5,7.7h-1.9l-1.7-5.2l-1.8,5.2H473l-2.5-7.7h1.8l1.7,5.4
		l1.8-5.4h1.7l1.8,5.5l1.8-5.5H482.8z M489.1,190.2c0,0,0,0.2,0,0.5h-4.5c0.1,0.4,0.3,0.7,0.6,0.9c0.3,0.2,0.7,0.3,1.1,0.3
		c0.3,0,0.6,0,0.8-0.1c0.2-0.1,0.5-0.2,0.7-0.4l0.9,1c-0.6,0.6-1.4,1-2.4,1c-0.7,0-1.3-0.1-1.8-0.4c-0.5-0.3-0.9-0.6-1.2-1.1
		c-0.3-0.5-0.4-1-0.4-1.6s0.1-1.1,0.4-1.6s0.7-0.8,1.1-1.1c0.5-0.3,1-0.4,1.6-0.4s1.1,0.1,1.6,0.4c0.5,0.2,0.8,0.6,1.1,1.1
		C488.9,189.1,489.1,189.6,489.1,190.2z M486,188.5c-0.4,0-0.7,0.1-1,0.3s-0.4,0.5-0.5,0.9h2.9c-0.1-0.4-0.2-0.7-0.5-0.9
		C486.7,188.6,486.4,188.5,486,188.5z M493.7,187.2c0.6,0,1,0.1,1.5,0.4c0.5,0.2,0.8,0.6,1.1,1.1c0.3,0.5,0.4,1,0.4,1.6
		s-0.1,1.1-0.4,1.6s-0.6,0.8-1.1,1.1c-0.4,0.2-0.9,0.4-1.5,0.4c-0.8,0-1.4-0.3-1.9-0.8v0.7h-1.6V185h1.7v2.9
		C492.3,187.4,492.9,187.2,493.7,187.2z M493.4,191.8c0.4,0,0.8-0.1,1.1-0.4c0.3-0.3,0.4-0.7,0.4-1.2s-0.1-0.9-0.4-1.2
		s-0.6-0.5-1.1-0.5s-0.8,0.2-1.1,0.5c-0.3,0.3-0.4,0.7-0.4,1.2s0.1,0.9,0.4,1.2C492.6,191.7,493,191.8,493.4,191.8z M506,190.2h1.4
		v1.2h-1.6l-0.2,1.8h-1.2l0.2-1.8H503l-0.2,1.8h-1.2l0.2-1.8h-1.4v-1.2h1.6l0.2-1.8h-1.4v-1.2h1.6l0.2-1.8h1.2l-0.2,1.8h1.6l0.2-1.8
		h1.2l-0.2,1.8h1.4v1.2h-1.6L506,190.2z M504.8,190.2l0.2-1.8h-1.6l-0.2,1.8H504.8z M514.9,191.7v1.4h-6v-7.7h5.8v1.4h-4.1v1.7h3.6
		v1.4h-3.6v1.8L514.9,191.7L514.9,191.7z M522,189.2c0.4,0.1,0.8,0.4,1,0.7s0.4,0.7,0.4,1.2c0,0.7-0.3,1.2-0.8,1.6
		c-0.5,0.4-1.3,0.5-2.3,0.5h-4v-7.7h3.8c0.9,0,1.7,0.2,2.2,0.5c0.5,0.4,0.8,0.8,0.8,1.5c0,0.4-0.1,0.7-0.3,1
		C522.6,188.8,522.3,189,522,189.2z M518.1,186.8v1.8h1.8c0.4,0,0.8-0.1,1-0.2c0.2-0.2,0.3-0.4,0.3-0.7s-0.1-0.5-0.3-0.7
		s-0.6-0.2-1-0.2L518.1,186.8L518.1,186.8z M520.2,191.8c0.5,0,0.8-0.1,1.1-0.2c0.2-0.2,0.4-0.4,0.4-0.7c0-0.6-0.5-1-1.4-1h-2.1v1.9
		H520.2z M530.7,191.7v1.4h-6v-7.7h5.8v1.4h-4.1v1.7h3.6v1.4h-3.6v1.8L530.7,191.7L530.7,191.7z M537.8,189.2c0.4,0.1,0.8,0.4,1,0.7
		s0.4,0.7,0.4,1.2c0,0.7-0.3,1.2-0.8,1.6c-0.5,0.4-1.3,0.5-2.3,0.5h-4v-7.7h3.8c0.9,0,1.7,0.2,2.2,0.5c0.5,0.4,0.8,0.8,0.8,1.5
		c0,0.4-0.1,0.7-0.3,1S538.1,189,537.8,189.2z M533.9,186.8v1.8h1.8c0.4,0,0.8-0.1,1-0.2c0.2-0.2,0.3-0.4,0.3-0.7s-0.1-0.5-0.3-0.7
		s-0.6-0.2-1-0.2L533.9,186.8L533.9,186.8z M536,191.8c0.5,0,0.8-0.1,1.1-0.2c0.2-0.2,0.4-0.4,0.4-0.7c0-0.6-0.5-1-1.4-1H534v1.9
		H536z M546.5,191.7v1.4h-6v-7.7h5.8v1.4h-4.1v1.7h3.6v1.4h-3.6v1.8L546.5,191.7L546.5,191.7z M553.6,189.2c0.4,0.1,0.8,0.4,1,0.7
		s0.4,0.7,0.4,1.2c0,0.7-0.3,1.2-0.8,1.6c-0.5,0.4-1.3,0.5-2.3,0.5h-4v-7.7h3.8c0.9,0,1.7,0.2,2.2,0.5c0.5,0.4,0.8,0.8,0.8,1.5
		c0,0.4-0.1,0.7-0.3,1S553.9,189,553.6,189.2z M549.7,186.8v1.8h1.8c0.4,0,0.8-0.1,1-0.2c0.2-0.2,0.3-0.4,0.3-0.7s-0.1-0.5-0.3-0.7
		s-0.6-0.2-1-0.2L549.7,186.8L549.7,186.8z M551.8,191.8c0.5,0,0.8-0.1,1.1-0.2c0.2-0.2,0.4-0.4,0.4-0.7c0-0.6-0.5-1-1.4-1h-2.1v1.9
		H551.8z M474.5,198.8c0.7,0,1.3,0.1,1.8,0.3s0.9,0.6,1.2,1c0.3,0.4,0.4,0.9,0.4,1.5s-0.1,1.1-0.4,1.5s-0.7,0.7-1.2,1
		c-0.5,0.2-1.1,0.3-1.8,0.3H473v2.1h-1.8v-7.7L474.5,198.8L474.5,198.8z M474.4,203c0.5,0,0.9-0.1,1.2-0.3c0.3-0.2,0.4-0.6,0.4-1
		s-0.1-0.8-0.4-1s-0.7-0.4-1.2-0.4H473v2.7H474.4z M481.3,200.5c0.9,0,1.6,0.2,2.1,0.7c0.5,0.4,0.7,1.1,0.7,2v3.4h-1.6v-0.7
		c-0.3,0.6-0.9,0.8-1.8,0.8c-0.5,0-0.9-0.1-1.2-0.2c-0.3-0.2-0.6-0.4-0.8-0.6s-0.3-0.6-0.3-0.9c0-0.6,0.2-1,0.6-1.3s1.1-0.5,1.9-0.5
		h1.4c0-0.4-0.1-0.7-0.3-0.9c-0.2-0.2-0.6-0.3-1-0.3c-0.3,0-0.6,0.1-0.9,0.2c-0.3,0.1-0.6,0.2-0.8,0.4l-0.6-1.2
		c0.3-0.2,0.7-0.4,1.2-0.5C480.4,200.6,480.9,200.5,481.3,200.5z M481.2,205.5c0.3,0,0.6-0.1,0.8-0.2c0.2-0.1,0.4-0.3,0.5-0.6v-0.6
		h-1.2c-0.7,0-1.1,0.2-1.1,0.7c0,0.2,0.1,0.4,0.3,0.5C480.7,205.4,480.9,205.5,481.2,205.5z M489.3,200.5c0.7,0,1.3,0.2,1.8,0.7
		c0.5,0.4,0.7,1.1,0.7,2v3.4h-1.7v-3.1c0-0.5-0.1-0.8-0.3-1c-0.2-0.2-0.5-0.4-0.9-0.4s-0.8,0.1-1,0.4c-0.3,0.3-0.4,0.7-0.4,1.2v2.9
		h-1.7v-5.9h1.6v0.7c0.2-0.2,0.5-0.4,0.8-0.6C488.6,200.6,488.9,200.5,489.3,200.5z M497.2,206.2c-0.2,0.1-0.4,0.2-0.6,0.3
		s-0.5,0.1-0.8,0.1c-0.7,0-1.3-0.2-1.6-0.5c-0.4-0.4-0.6-0.9-0.6-1.6v-2.4h-0.9v-1.3h0.9v-1.4h1.7v1.4h1.5v1.3h-1.5v2.4
		c0,0.2,0.1,0.4,0.2,0.6c0.1,0.1,0.3,0.2,0.6,0.2c0.3,0,0.5-0.1,0.7-0.2L497.2,206.2z M500.8,206.6c-0.6,0-1.2-0.1-1.7-0.4
		c-0.5-0.3-0.9-0.6-1.2-1.1s-0.4-1-0.4-1.6s0.1-1.1,0.4-1.6s0.7-0.8,1.2-1.1s1.1-0.4,1.7-0.4s1.2,0.1,1.7,0.4
		c0.5,0.3,0.9,0.6,1.2,1.1s0.4,1,0.4,1.6s-0.1,1.1-0.4,1.6s-0.7,0.8-1.2,1.1C502,206.5,501.4,206.6,500.8,206.6z M500.8,205.2
		c0.4,0,0.8-0.1,1.1-0.4c0.3-0.3,0.4-0.7,0.4-1.2s-0.1-0.9-0.4-1.2s-0.6-0.5-1.1-0.5s-0.8,0.2-1.1,0.5c-0.3,0.3-0.4,0.7-0.4,1.2
		s0.1,0.9,0.4,1.2C500,205.1,500.3,205.2,500.8,205.2z M508.8,200.5c0.7,0,1.3,0.2,1.8,0.7c0.5,0.4,0.7,1.1,0.7,2v3.4h-1.7v-3.1
		c0-0.5-0.1-0.8-0.3-1c-0.2-0.2-0.5-0.4-0.9-0.4s-0.8,0.1-1,0.4c-0.3,0.3-0.4,0.7-0.4,1.2v2.9h-1.7v-5.9h1.6v0.7
		c0.2-0.2,0.5-0.4,0.8-0.6C508,200.6,508.4,200.5,508.8,200.5z M518.7,203.6c0,0,0,0.2,0,0.5h-4.5c0.1,0.4,0.3,0.7,0.6,0.9
		s0.7,0.3,1.1,0.3c0.3,0,0.6,0,0.8-0.1s0.5-0.2,0.7-0.4l0.9,1c-0.6,0.6-1.4,1-2.4,1c-0.7,0-1.3-0.1-1.8-0.4
		c-0.5-0.3-0.9-0.6-1.2-1.1s-0.4-1-0.4-1.6s0.1-1.1,0.4-1.6c0.3-0.5,0.7-0.8,1.1-1.1c0.5-0.3,1-0.4,1.6-0.4s1.1,0.1,1.6,0.4
		c0.5,0.2,0.8,0.6,1.1,1.1C518.5,202.4,518.7,203,518.7,203.6z M515.6,201.8c-0.4,0-0.7,0.1-1,0.3s-0.4,0.5-0.5,0.9h2.9
		c-0.1-0.4-0.2-0.7-0.5-0.9C516.3,201.9,516,201.8,515.6,201.8z M526.4,198.8c0.7,0,1.3,0.1,1.8,0.3s0.9,0.6,1.2,1s0.4,0.9,0.4,1.5
		s-0.1,1.1-0.4,1.5c-0.3,0.4-0.7,0.7-1.2,1c-0.5,0.2-1.1,0.3-1.8,0.3h-1.6v2.1H523v-7.7L526.4,198.8L526.4,198.8z M526.3,203
		c0.5,0,0.9-0.1,1.2-0.3s0.4-0.6,0.4-1s-0.1-0.8-0.4-1c-0.3-0.2-0.7-0.4-1.2-0.4h-1.5v2.7H526.3z M536.7,198.8v7.7h-1.8v-6.3h-1.5
		v-1.4H536.7z M544.1,198.8v1.2l-2.9,6.6h-1.9l2.8-6.3h-2.6v1.3h-1.6v-2.7h6.2V198.8z M547.6,198.7c1.1,0,1.9,0.3,2.5,1
		s0.9,1.6,0.9,2.8c0,0.9-0.2,1.6-0.5,2.2c-0.3,0.6-0.8,1.1-1.4,1.4c-0.6,0.3-1.3,0.5-2.1,0.5c-0.4,0-0.8,0-1.2-0.1s-0.7-0.2-1-0.4
		l0.7-1.3c0.4,0.3,0.9,0.4,1.4,0.4c0.7,0,1.2-0.2,1.6-0.6c0.4-0.4,0.6-0.9,0.6-1.7c-0.5,0.5-1.1,0.7-1.9,0.7c-0.5,0-0.9-0.1-1.3-0.3
		c-0.4-0.2-0.7-0.5-1-0.8c-0.2-0.4-0.4-0.8-0.4-1.3s0.1-1,0.4-1.4c0.3-0.4,0.6-0.7,1-0.9C546.5,198.8,547,198.7,547.6,198.7z
		 M547.7,202.3c0.4,0,0.7-0.1,0.9-0.3s0.4-0.5,0.4-0.8s-0.1-0.6-0.4-0.8c-0.2-0.2-0.6-0.3-1-0.3s-0.7,0.1-0.9,0.3s-0.4,0.5-0.4,0.8
		s0.1,0.6,0.4,0.8C547,202.2,547.3,202.3,547.7,202.3z M552.1,202.7h3.1v1.4h-3.1V202.7z M561.8,205.1v1.5H556v-1.2l3-2.8
		c0.3-0.3,0.5-0.6,0.6-0.8s0.2-0.4,0.2-0.6c0-0.3-0.1-0.5-0.3-0.7s-0.5-0.3-0.9-0.3c-0.3,0-0.6,0.1-0.9,0.2
		c-0.3,0.1-0.5,0.3-0.7,0.6l-1.3-0.8c0.3-0.4,0.7-0.8,1.2-1c0.5-0.3,1.1-0.4,1.8-0.4c0.6,0,1.1,0.1,1.5,0.3s0.8,0.4,1,0.8
		c0.2,0.3,0.4,0.7,0.4,1.2c0,0.4-0.1,0.8-0.3,1.2s-0.5,0.8-1,1.3l-1.8,1.7h3.3V205.1z M566.4,206.7c-1.1,0-2-0.3-2.6-0.9
		c-0.6-0.6-0.9-1.5-0.9-2.6v-4.3h1.8v4.2c0,1.4,0.6,2.1,1.7,2.1c0.6,0,1-0.2,1.3-0.5s0.4-0.9,0.4-1.6v-4.2h1.8v4.3
		c0,1.1-0.3,2-0.9,2.6C568.4,206.4,567.5,206.7,566.4,206.7z"/>
</g>
<g>
	<path class="st7" d="M324.3,179.9c-0.8,0-1.5-0.2-2.1-0.5s-1.1-0.8-1.5-1.4c-0.4-0.6-0.5-1.3-0.5-2.1s0.2-1.4,0.5-2
		c0.4-0.6,0.9-1.1,1.5-1.4c0.6-0.3,1.4-0.5,2.1-0.5s1.3,0.1,1.8,0.4c0.5,0.2,1,0.6,1.4,1l-1.1,1.1c-0.5-0.6-1.2-0.9-1.9-0.9
		c-0.5,0-0.9,0.1-1.3,0.3s-0.7,0.5-0.9,0.9c-0.2,0.4-0.3,0.8-0.3,1.3s0.1,0.9,0.3,1.3c0.2,0.4,0.5,0.7,0.9,0.9s0.8,0.3,1.3,0.3
		c0.8,0,1.4-0.3,1.9-0.9l1.1,1.1c-0.4,0.4-0.8,0.8-1.4,1C325.5,179.8,324.9,179.9,324.3,179.9z M329.1,175.9c-0.3,0-0.6-0.1-0.8-0.3
		c-0.2-0.2-0.3-0.5-0.3-0.8s0.1-0.6,0.3-0.8c0.2-0.2,0.5-0.3,0.8-0.3s0.6,0.1,0.8,0.3c0.2,0.2,0.3,0.4,0.3,0.8
		c0,0.3-0.1,0.6-0.3,0.8S329.4,175.9,329.1,175.9z M329.1,179.9c-0.3,0-0.6-0.1-0.8-0.3c-0.2-0.2-0.3-0.5-0.3-0.8s0.1-0.6,0.3-0.8
		c0.2-0.2,0.5-0.3,0.8-0.3s0.6,0.1,0.8,0.3c0.2,0.2,0.3,0.4,0.3,0.8c0,0.3-0.1,0.6-0.3,0.8C329.6,179.8,329.4,179.9,329.1,179.9z
		 M334.3,179.9c-0.6,0-1.2-0.2-1.7-0.5s-0.9-0.8-1.2-1.4c-0.3-0.6-0.4-1.3-0.4-2.1s0.1-1.5,0.4-2.1s0.7-1.1,1.2-1.4
		c0.5-0.3,1.1-0.5,1.7-0.5s1.2,0.2,1.7,0.5s0.9,0.8,1.2,1.4c0.3,0.6,0.4,1.3,0.4,2.1s-0.1,1.5-0.4,2.1s-0.7,1-1.2,1.4
		C335.5,179.8,334.9,179.9,334.3,179.9z M334.3,178.4c0.5,0,0.8-0.2,1.1-0.6c0.3-0.4,0.4-1,0.4-1.9c0-0.8-0.1-1.5-0.4-1.9
		s-0.6-0.6-1.1-0.6s-0.8,0.2-1.1,0.6c-0.3,0.4-0.4,1-0.4,1.9c0,0.8,0.1,1.5,0.4,1.9C333.4,178.2,333.8,178.4,334.3,178.4z
		 M349.1,179.8v-4.6l-2.3,3.8H346l-2.3-3.7v4.5H342v-7.7h1.5l2.9,4.8l2.8-4.8h1.5v7.7H349.1z M353.1,175.9c-0.3,0-0.6-0.1-0.8-0.3
		c-0.2-0.2-0.3-0.5-0.3-0.8s0.1-0.6,0.3-0.8c0.2-0.2,0.5-0.3,0.8-0.3s0.6,0.1,0.8,0.3c0.2,0.2,0.3,0.4,0.3,0.8
		c0,0.3-0.1,0.6-0.3,0.8C353.6,175.8,353.4,175.9,353.1,175.9z M353.1,179.9c-0.3,0-0.6-0.1-0.8-0.3c-0.2-0.2-0.3-0.5-0.3-0.8
		s0.1-0.6,0.3-0.8c0.2-0.2,0.5-0.3,0.8-0.3s0.6,0.1,0.8,0.3c0.2,0.2,0.3,0.4,0.3,0.8c0,0.3-0.1,0.6-0.3,0.8
		C353.6,179.8,353.4,179.9,353.1,179.9z M358.3,179.9c-0.6,0-1.2-0.2-1.7-0.5s-0.9-0.8-1.2-1.4c-0.3-0.6-0.4-1.3-0.4-2.1
		s0.1-1.5,0.4-2.1s0.7-1.1,1.2-1.4c0.5-0.3,1.1-0.5,1.7-0.5s1.2,0.2,1.7,0.5s0.9,0.8,1.2,1.4c0.3,0.6,0.4,1.3,0.4,2.1
		s-0.1,1.5-0.4,2.1s-0.7,1-1.2,1.4C359.5,179.8,358.9,179.9,358.3,179.9z M358.3,178.4c0.5,0,0.8-0.2,1.1-0.6c0.3-0.4,0.4-1,0.4-1.9
		c0-0.8-0.1-1.5-0.4-1.9s-0.6-0.6-1.1-0.6s-0.8,0.2-1.1,0.6c-0.3,0.4-0.4,1-0.4,1.9c0,0.8,0.1,1.5,0.4,1.9
		C357.4,178.2,357.8,178.4,358.3,178.4z M369.7,177.1v2.7h-1.8V177l-3-5h1.9l2.1,3.4l2.1-3.4h1.8L369.7,177.1z M373.6,175.9
		c-0.3,0-0.6-0.1-0.8-0.3c-0.2-0.2-0.3-0.5-0.3-0.8s0.1-0.6,0.3-0.8c0.2-0.2,0.5-0.3,0.8-0.3s0.6,0.1,0.8,0.3
		c0.2,0.2,0.3,0.4,0.3,0.8c0,0.3-0.1,0.6-0.3,0.8C374.1,175.8,373.9,175.9,373.6,175.9z M373.6,179.9c-0.3,0-0.6-0.1-0.8-0.3
		c-0.2-0.2-0.3-0.5-0.3-0.8s0.1-0.6,0.3-0.8c0.2-0.2,0.5-0.3,0.8-0.3s0.6,0.1,0.8,0.3c0.2,0.2,0.3,0.4,0.3,0.8
		c0,0.3-0.1,0.6-0.3,0.8C374.1,179.8,373.9,179.9,373.6,179.9z M378.7,179.9c-0.6,0-1.2-0.2-1.7-0.5s-0.9-0.8-1.2-1.4
		c-0.3-0.6-0.4-1.3-0.4-2.1s0.1-1.5,0.4-2.1s0.7-1.1,1.2-1.4s1.1-0.5,1.7-0.5s1.2,0.2,1.7,0.5s0.9,0.8,1.2,1.4
		c0.3,0.6,0.4,1.3,0.4,2.1s-0.1,1.5-0.4,2.1s-0.7,1-1.2,1.4C380,179.8,379.4,179.9,378.7,179.9z M378.7,178.4c0.5,0,0.8-0.2,1.1-0.6
		c0.3-0.4,0.4-1,0.4-1.9c0-0.8-0.1-1.5-0.4-1.9s-0.6-0.6-1.1-0.6s-0.8,0.2-1.1,0.6c-0.3,0.4-0.4,1-0.4,1.9c0,0.8,0.1,1.5,0.4,1.9
		C377.9,178.2,378.3,178.4,378.7,178.4z M389.3,176.8l-1,1.1v1.9h-1.8v-7.7h1.8v3.6l3.4-3.6h2l-3.2,3.4l3.4,4.3h-2.1L389.3,176.8z
		 M395.2,175.9c-0.3,0-0.6-0.1-0.8-0.3c-0.2-0.2-0.3-0.5-0.3-0.8s0.1-0.6,0.3-0.8c0.2-0.2,0.5-0.3,0.8-0.3s0.6,0.1,0.8,0.3
		c0.2,0.2,0.3,0.4,0.3,0.8c0,0.3-0.1,0.6-0.3,0.8S395.5,175.9,395.2,175.9z M395.2,179.9c-0.3,0-0.6-0.1-0.8-0.3
		c-0.2-0.2-0.3-0.5-0.3-0.8s0.1-0.6,0.3-0.8c0.2-0.2,0.5-0.3,0.8-0.3s0.6,0.1,0.8,0.3c0.2,0.2,0.3,0.4,0.3,0.8
		c0,0.3-0.1,0.6-0.3,0.8C395.7,179.8,395.5,179.9,395.2,179.9z M404.1,178.2h-1.3v1.6h-1.7v-1.6H397V177l3.6-4.9h1.9l-3.4,4.6h2.1
		v-1.4h1.7v1.4h1.3v1.5H404.1z M408,179.9c-0.6,0-1.2-0.2-1.7-0.5s-0.9-0.8-1.2-1.4c-0.3-0.6-0.4-1.3-0.4-2.1s0.1-1.5,0.4-2.1
		s0.7-1.1,1.2-1.4c0.5-0.3,1.1-0.5,1.7-0.5s1.2,0.2,1.7,0.5s0.9,0.8,1.2,1.4c0.3,0.6,0.4,1.3,0.4,2.1s-0.1,1.5-0.4,2.1
		s-0.7,1-1.2,1.4C409.2,179.8,408.6,179.9,408,179.9z M408,178.4c0.5,0,0.8-0.2,1.1-0.6c0.3-0.4,0.4-1,0.4-1.9
		c0-0.8-0.1-1.5-0.4-1.9s-0.6-0.6-1.1-0.6s-0.8,0.2-1.1,0.6c-0.3,0.4-0.4,1-0.4,1.9c0,0.8,0.1,1.5,0.4,1.9
		C407.1,178.2,407.5,178.4,408,178.4z M332.2,185.5l-2.5,7.7h-1.9l-1.7-5.2l-1.8,5.2h-1.9l-2.5-7.7h1.8l1.7,5.4l1.8-5.4h1.7l1.8,5.5
		l1.8-5.5H332.2z M338.5,190.2c0,0,0,0.2,0,0.5H334c0.1,0.4,0.3,0.7,0.6,0.9c0.3,0.2,0.7,0.3,1.1,0.3c0.3,0,0.6,0,0.8-0.1
		c0.2-0.1,0.5-0.2,0.7-0.4l0.9,1c-0.6,0.6-1.4,1-2.4,1c-0.7,0-1.3-0.1-1.8-0.4c-0.5-0.3-0.9-0.6-1.2-1.1c-0.3-0.5-0.4-1-0.4-1.6
		s0.1-1.1,0.4-1.6s0.7-0.8,1.1-1.1c0.5-0.3,1-0.4,1.6-0.4s1.1,0.1,1.6,0.4c0.5,0.2,0.8,0.6,1.1,1.1
		C338.3,189.1,338.5,189.6,338.5,190.2z M335.4,188.5c-0.4,0-0.7,0.1-1,0.3s-0.4,0.5-0.5,0.9h2.9c-0.1-0.4-0.2-0.7-0.5-0.9
		C336.1,188.6,335.8,188.5,335.4,188.5z M343.1,187.2c0.6,0,1,0.1,1.5,0.4c0.5,0.2,0.8,0.6,1.1,1.1c0.3,0.5,0.4,1,0.4,1.6
		s-0.1,1.1-0.4,1.6s-0.6,0.8-1.1,1.1c-0.4,0.2-0.9,0.4-1.5,0.4c-0.8,0-1.4-0.3-1.9-0.8v0.7h-1.6V185h1.7v2.9
		C341.8,187.4,342.4,187.2,343.1,187.2z M342.8,191.8c0.4,0,0.8-0.1,1.1-0.4c0.3-0.3,0.4-0.7,0.4-1.2s-0.1-0.9-0.4-1.2
		s-0.6-0.5-1.1-0.5s-0.8,0.2-1.1,0.5c-0.3,0.3-0.4,0.7-0.4,1.2s0.1,0.9,0.4,1.2C342,191.7,342.4,191.8,342.8,191.8z M355.4,190.2
		h1.4v1.2h-1.6l-0.2,1.8h-1.2l0.2-1.8h-1.6l-0.2,1.8H351l0.2-1.8h-1.4v-1.2h1.6l0.2-1.8h-1.4v-1.2h1.6l0.2-1.8h1.2l-0.2,1.8h1.6
		l0.2-1.8h1.2l-0.2,1.8h1.4v1.2h-1.6L355.4,190.2z M354.2,190.2l0.2-1.8h-1.6l-0.2,1.8H354.2z M364,189.2c0.4,0.1,0.8,0.4,1,0.7
		s0.4,0.7,0.4,1.2c0,0.7-0.3,1.2-0.8,1.6c-0.5,0.4-1.3,0.5-2.3,0.5h-4v-7.7h3.8c0.9,0,1.7,0.2,2.2,0.5c0.5,0.4,0.8,0.8,0.8,1.5
		c0,0.4-0.1,0.7-0.3,1C364.6,188.8,364.4,189,364,189.2z M360.1,186.8v1.8h1.8c0.4,0,0.8-0.1,1-0.2c0.2-0.2,0.3-0.4,0.3-0.7
		s-0.1-0.5-0.3-0.7c-0.2-0.2-0.6-0.2-1-0.2L360.1,186.8L360.1,186.8z M362.2,191.8c0.5,0,0.8-0.1,1.1-0.2c0.2-0.2,0.4-0.4,0.4-0.7
		c0-0.6-0.5-1-1.4-1h-2.1v1.9H362.2z M372.1,191.7v1.5h-5.8V192l3-2.8c0.3-0.3,0.5-0.6,0.6-0.8s0.2-0.4,0.2-0.6
		c0-0.3-0.1-0.5-0.3-0.7c-0.2-0.2-0.5-0.3-0.9-0.3c-0.3,0-0.6,0.1-0.9,0.2c-0.3,0.1-0.5,0.3-0.7,0.6l-1.3-0.8c0.3-0.4,0.7-0.8,1.2-1
		c0.5-0.3,1.1-0.4,1.8-0.4c0.6,0,1.1,0.1,1.5,0.3s0.8,0.4,1,0.8c0.2,0.3,0.4,0.7,0.4,1.2c0,0.4-0.1,0.8-0.3,1.2
		c-0.2,0.4-0.5,0.8-1,1.3l-1.8,1.7h3.3V191.7z M378.9,189.2c0.4,0.1,0.8,0.4,1,0.7s0.4,0.7,0.4,1.2c0,0.7-0.3,1.2-0.8,1.6
		c-0.5,0.4-1.3,0.5-2.3,0.5h-4v-7.7h3.8c0.9,0,1.7,0.2,2.2,0.5c0.5,0.4,0.8,0.8,0.8,1.5c0,0.4-0.1,0.7-0.3,1
		C379.5,188.8,379.3,189,378.9,189.2z M375.1,186.8v1.8h1.8c0.4,0,0.8-0.1,1-0.2c0.2-0.2,0.3-0.4,0.3-0.7s-0.1-0.5-0.3-0.7
		c-0.2-0.2-0.6-0.2-1-0.2L375.1,186.8L375.1,186.8z M377.1,191.8c0.5,0,0.8-0.1,1.1-0.2c0.2-0.2,0.4-0.4,0.4-0.7c0-0.6-0.5-1-1.4-1
		h-2.1v1.9H377.1z M387,191.7v1.5h-5.8V192l3-2.8c0.3-0.3,0.5-0.6,0.6-0.8s0.2-0.4,0.2-0.6c0-0.3-0.1-0.5-0.3-0.7
		c-0.2-0.2-0.5-0.3-0.9-0.3c-0.3,0-0.6,0.1-0.9,0.2c-0.3,0.1-0.5,0.3-0.7,0.6l-1.3-0.8c0.3-0.4,0.7-0.8,1.2-1
		c0.5-0.3,1.1-0.4,1.8-0.4c0.6,0,1.1,0.1,1.5,0.3s0.8,0.4,1,0.8c0.2,0.3,0.4,0.7,0.4,1.2c0,0.4-0.1,0.8-0.3,1.2
		c-0.2,0.4-0.5,0.8-1,1.3l-1.8,1.7h3.3V191.7z M393.9,189.2c0.4,0.1,0.8,0.4,1,0.7s0.4,0.7,0.4,1.2c0,0.7-0.3,1.2-0.8,1.6
		c-0.5,0.4-1.3,0.5-2.3,0.5h-4v-7.7h3.8c0.9,0,1.7,0.2,2.2,0.5c0.5,0.4,0.8,0.8,0.8,1.5c0,0.4-0.1,0.7-0.3,1
		C394.4,188.8,394.2,189,393.9,189.2z M390,186.8v1.8h1.8c0.4,0,0.8-0.1,1-0.2c0.2-0.2,0.3-0.4,0.3-0.7s-0.1-0.5-0.3-0.7
		c-0.2-0.2-0.6-0.2-1-0.2L390,186.8L390,186.8z M392,191.8c0.5,0,0.8-0.1,1.1-0.2c0.2-0.2,0.4-0.4,0.4-0.7c0-0.6-0.5-1-1.4-1H390
		v1.9H392z M401.9,191.7v1.5h-5.8V192l3-2.8c0.3-0.3,0.5-0.6,0.6-0.8s0.2-0.4,0.2-0.6c0-0.3-0.1-0.5-0.3-0.7
		c-0.2-0.2-0.5-0.3-0.9-0.3c-0.3,0-0.6,0.1-0.9,0.2c-0.3,0.1-0.5,0.3-0.7,0.6l-1.3-0.8c0.3-0.4,0.7-0.8,1.2-1
		c0.5-0.3,1.1-0.4,1.8-0.4c0.6,0,1.1,0.1,1.5,0.3s0.8,0.4,1,0.8c0.2,0.3,0.4,0.7,0.4,1.2c0,0.4-0.1,0.8-0.3,1.2
		c-0.2,0.4-0.5,0.8-1,1.3l-1.8,1.7h3.3V191.7z M323.9,198.8c0.7,0,1.3,0.1,1.8,0.3s0.9,0.6,1.2,1c0.3,0.4,0.4,0.9,0.4,1.5
		s-0.1,1.1-0.4,1.5s-0.7,0.7-1.2,1c-0.5,0.2-1.1,0.3-1.8,0.3h-1.6v2.1h-1.8v-7.7L323.9,198.8L323.9,198.8z M323.8,203
		c0.5,0,0.9-0.1,1.2-0.3c0.3-0.2,0.4-0.6,0.4-1s-0.1-0.8-0.4-1s-0.7-0.4-1.2-0.4h-1.5v2.7H323.8z M330.7,200.5
		c0.9,0,1.6,0.2,2.1,0.7c0.5,0.4,0.7,1.1,0.7,2v3.4H332v-0.7c-0.3,0.6-0.9,0.8-1.8,0.8c-0.5,0-0.9-0.1-1.2-0.2
		c-0.3-0.2-0.6-0.4-0.8-0.6s-0.3-0.6-0.3-0.9c0-0.6,0.2-1,0.6-1.3s1.1-0.5,1.9-0.5h1.4c0-0.4-0.1-0.7-0.3-0.9
		c-0.2-0.2-0.6-0.3-1-0.3c-0.3,0-0.6,0.1-0.9,0.2c-0.3,0.1-0.6,0.2-0.8,0.4l-0.6-1.2c0.3-0.2,0.7-0.4,1.2-0.5
		C329.8,200.6,330.3,200.5,330.7,200.5z M330.6,205.5c0.3,0,0.6-0.1,0.8-0.2c0.2-0.1,0.4-0.3,0.5-0.6v-0.6h-1.2
		c-0.7,0-1.1,0.2-1.1,0.7c0,0.2,0.1,0.4,0.3,0.5C330.1,205.4,330.3,205.5,330.6,205.5z M338.8,200.5c0.7,0,1.3,0.2,1.8,0.7
		c0.5,0.4,0.7,1.1,0.7,2v3.4h-1.7v-3.1c0-0.5-0.1-0.8-0.3-1c-0.2-0.2-0.5-0.4-0.9-0.4s-0.8,0.1-1,0.4c-0.3,0.3-0.4,0.7-0.4,1.2v2.9
		h-1.7v-5.9h1.6v0.7c0.2-0.2,0.5-0.4,0.8-0.6C338,200.6,338.4,200.5,338.8,200.5z M346.6,206.2c-0.2,0.1-0.4,0.2-0.6,0.3
		s-0.5,0.1-0.8,0.1c-0.7,0-1.3-0.2-1.6-0.5c-0.4-0.4-0.6-0.9-0.6-1.6v-2.4h-0.9v-1.3h0.9v-1.4h1.7v1.4h1.5v1.3h-1.5v2.4
		c0,0.2,0.1,0.4,0.2,0.6c0.1,0.1,0.3,0.2,0.6,0.2c0.3,0,0.5-0.1,0.7-0.2L346.6,206.2z M350.2,206.6c-0.6,0-1.2-0.1-1.7-0.4
		c-0.5-0.3-0.9-0.6-1.2-1.1c-0.3-0.5-0.4-1-0.4-1.6s0.1-1.1,0.4-1.6s0.7-0.8,1.2-1.1s1.1-0.4,1.7-0.4s1.2,0.1,1.7,0.4
		c0.5,0.3,0.9,0.6,1.2,1.1c0.3,0.5,0.4,1,0.4,1.6s-0.1,1.1-0.4,1.6s-0.7,0.8-1.2,1.1C351.4,206.5,350.8,206.6,350.2,206.6z
		 M350.2,205.2c0.4,0,0.8-0.1,1.1-0.4c0.3-0.3,0.4-0.7,0.4-1.2s-0.1-0.9-0.4-1.2s-0.6-0.5-1.1-0.5s-0.8,0.2-1.1,0.5
		c-0.3,0.3-0.4,0.7-0.4,1.2s0.1,0.9,0.4,1.2S349.7,205.2,350.2,205.2z M358.2,200.5c0.7,0,1.3,0.2,1.8,0.7c0.5,0.4,0.7,1.1,0.7,2
		v3.4H359v-3.1c0-0.5-0.1-0.8-0.3-1c-0.2-0.2-0.5-0.4-0.9-0.4s-0.8,0.1-1,0.4c-0.3,0.3-0.4,0.7-0.4,1.2v2.9h-1.7v-5.9h1.6v0.7
		c0.2-0.2,0.5-0.4,0.8-0.6C357.4,200.6,357.8,200.5,358.2,200.5z M368.1,203.6c0,0,0,0.2,0,0.5h-4.5c0.1,0.4,0.3,0.7,0.6,0.9
		c0.3,0.2,0.7,0.3,1.1,0.3c0.3,0,0.6,0,0.8-0.1c0.2-0.1,0.5-0.2,0.7-0.4l0.9,1c-0.6,0.6-1.4,1-2.4,1c-0.7,0-1.3-0.1-1.8-0.4
		c-0.5-0.3-0.9-0.6-1.2-1.1c-0.3-0.5-0.4-1-0.4-1.6s0.1-1.1,0.4-1.6s0.7-0.8,1.1-1.1c0.5-0.3,1-0.4,1.6-0.4s1.1,0.1,1.6,0.4
		c0.5,0.2,0.8,0.6,1.1,1.1C367.9,202.4,368.1,203,368.1,203.6z M365,201.8c-0.4,0-0.7,0.1-1,0.3s-0.4,0.5-0.5,0.9h2.9
		c-0.1-0.4-0.2-0.7-0.5-0.9C365.7,201.9,365.4,201.8,365,201.8z M375.8,198.8c0.7,0,1.3,0.1,1.8,0.3s0.9,0.6,1.2,1
		c0.3,0.4,0.4,0.9,0.4,1.5s-0.1,1.1-0.4,1.5s-0.7,0.7-1.2,1c-0.5,0.2-1.1,0.3-1.8,0.3h-1.6v2.1h-1.8v-7.7L375.8,198.8L375.8,198.8z
		 M375.7,203c0.5,0,0.9-0.1,1.2-0.3c0.3-0.2,0.4-0.6,0.4-1s-0.1-0.8-0.4-1s-0.7-0.4-1.2-0.4h-1.5v2.7H375.7z M386.1,198.8v7.7h-1.8
		v-6.3h-1.5v-1.4H386.1z M393.5,198.8v1.2l-2.9,6.6h-1.9l2.8-6.3h-2.6v1.3h-1.6v-2.7h6.2V198.8z M397,198.7c1.1,0,1.9,0.3,2.5,1
		s0.9,1.6,0.9,2.8c0,0.9-0.2,1.6-0.5,2.2c-0.3,0.6-0.8,1.1-1.4,1.4c-0.6,0.3-1.3,0.5-2.1,0.5c-0.4,0-0.8,0-1.2-0.1
		c-0.4-0.1-0.7-0.2-1-0.4l0.7-1.3c0.4,0.3,0.9,0.4,1.4,0.4c0.7,0,1.2-0.2,1.6-0.6c0.4-0.4,0.6-0.9,0.6-1.7c-0.5,0.5-1.1,0.7-1.9,0.7
		c-0.5,0-0.9-0.1-1.3-0.3s-0.7-0.5-1-0.8c-0.2-0.4-0.4-0.8-0.4-1.3s0.1-1,0.4-1.4s0.6-0.7,1-0.9C395.9,198.8,396.4,198.7,397,198.7z
		 M397.1,202.3c0.4,0,0.7-0.1,0.9-0.3c0.2-0.2,0.4-0.5,0.4-0.8s-0.1-0.6-0.4-0.8c-0.2-0.2-0.6-0.3-1-0.3s-0.7,0.1-0.9,0.3
		c-0.2,0.2-0.4,0.5-0.4,0.8s0.1,0.6,0.4,0.8S396.7,202.3,397.1,202.3z M401.5,202.7h3.1v1.4h-3.1V202.7z M409.3,201.7
		c0.5,0,0.9,0.1,1.3,0.3s0.7,0.5,1,0.8c0.2,0.4,0.4,0.8,0.4,1.3s-0.1,1-0.4,1.4s-0.6,0.7-1.1,0.9c-0.4,0.2-0.9,0.3-1.5,0.3
		c-1.1,0-1.9-0.3-2.5-1s-0.9-1.6-0.9-2.8c0-0.9,0.2-1.6,0.5-2.2c0.3-0.6,0.8-1.1,1.4-1.4c0.6-0.3,1.3-0.5,2.1-0.5
		c0.4,0,0.8,0,1.2,0.1c0.4,0.1,0.7,0.2,1,0.4l-0.7,1.3c-0.4-0.3-0.9-0.4-1.4-0.4c-0.7,0-1.2,0.2-1.6,0.6c-0.4,0.4-0.6,0.9-0.6,1.7
		C407.9,201.9,408.5,201.7,409.3,201.7z M409,205.3c0.4,0,0.7-0.1,0.9-0.3c0.2-0.2,0.4-0.5,0.4-0.8c0-0.4-0.1-0.6-0.4-0.8
		c-0.2-0.2-0.6-0.3-0.9-0.3c-0.4,0-0.7,0.1-1,0.3s-0.4,0.5-0.4,0.8s0.1,0.6,0.4,0.8C408.2,205.2,408.5,205.3,409,205.3z
		 M416.5,206.7c-1.1,0-2-0.3-2.6-0.9c-0.6-0.6-0.9-1.5-0.9-2.6v-4.3h1.8v4.2c0,1.4,0.6,2.1,1.7,2.1c0.6,0,1-0.2,1.3-0.5
		s0.4-0.9,0.4-1.6v-4.2h1.8v4.3c0,1.1-0.3,2-0.9,2.6C418.5,206.4,417.6,206.7,416.5,206.7z"/>
</g>
<g>
	<path class="st7" d="M175.5,179.9c-0.8,0-1.5-0.2-2.1-0.5s-1.1-0.8-1.5-1.4c-0.4-0.6-0.5-1.3-0.5-2.1s0.2-1.4,0.5-2
		c0.4-0.6,0.9-1.1,1.5-1.4c0.6-0.3,1.4-0.5,2.1-0.5c0.7,0,1.3,0.1,1.8,0.4c0.5,0.2,1,0.6,1.4,1l-1.1,1.1c-0.5-0.6-1.2-0.9-1.9-0.9
		c-0.5,0-0.9,0.1-1.3,0.3c-0.4,0.2-0.7,0.5-0.9,0.9s-0.3,0.8-0.3,1.3s0.1,0.9,0.3,1.3c0.2,0.4,0.5,0.7,0.9,0.9s0.8,0.3,1.3,0.3
		c0.8,0,1.4-0.3,1.9-0.9l1.1,1.1c-0.4,0.4-0.8,0.8-1.4,1C176.8,179.8,176.2,179.9,175.5,179.9z M180.3,175.9c-0.3,0-0.6-0.1-0.8-0.3
		s-0.3-0.5-0.3-0.8s0.1-0.6,0.3-0.8s0.5-0.3,0.8-0.3s0.6,0.1,0.8,0.3s0.3,0.4,0.3,0.8c0,0.3-0.1,0.6-0.3,0.8
		C180.9,175.8,180.6,175.9,180.3,175.9z M180.3,179.9c-0.3,0-0.6-0.1-0.8-0.3s-0.3-0.5-0.3-0.8s0.1-0.6,0.3-0.8s0.5-0.3,0.8-0.3
		s0.6,0.1,0.8,0.3s0.3,0.4,0.3,0.8c0,0.3-0.1,0.6-0.3,0.8C180.9,179.8,180.6,179.9,180.3,179.9z M185.5,179.9
		c-0.6,0-1.2-0.2-1.7-0.5s-0.9-0.8-1.2-1.4c-0.3-0.6-0.4-1.3-0.4-2.1s0.1-1.5,0.4-2.1c0.3-0.6,0.7-1.1,1.2-1.4
		c0.5-0.3,1.1-0.5,1.7-0.5s1.2,0.2,1.7,0.5s0.9,0.8,1.2,1.4c0.3,0.6,0.4,1.3,0.4,2.1s-0.1,1.5-0.4,2.1c-0.3,0.6-0.7,1-1.2,1.4
		C186.7,179.8,186.1,179.9,185.5,179.9z M185.5,178.4c0.5,0,0.8-0.2,1.1-0.6c0.3-0.4,0.4-1,0.4-1.9c0-0.8-0.1-1.5-0.4-1.9
		c-0.3-0.4-0.6-0.6-1.1-0.6s-0.8,0.2-1.1,0.6c-0.3,0.4-0.4,1-0.4,1.9c0,0.8,0.1,1.5,0.4,1.9C184.7,178.2,185,178.4,185.5,178.4z
		 M200.3,179.8v-4.6L198,179h-0.8l-2.3-3.7v4.5h-1.7v-7.7h1.5l2.9,4.8l2.8-4.8h1.5v7.7H200.3z M204.3,175.9c-0.3,0-0.6-0.1-0.8-0.3
		s-0.3-0.5-0.3-0.8s0.1-0.6,0.3-0.8s0.5-0.3,0.8-0.3s0.6,0.1,0.8,0.3s0.3,0.4,0.3,0.8c0,0.3-0.1,0.6-0.3,0.8
		C204.9,175.8,204.6,175.9,204.3,175.9z M204.3,179.9c-0.3,0-0.6-0.1-0.8-0.3s-0.3-0.5-0.3-0.8s0.1-0.6,0.3-0.8s0.5-0.3,0.8-0.3
		s0.6,0.1,0.8,0.3s0.3,0.4,0.3,0.8c0,0.3-0.1,0.6-0.3,0.8C204.9,179.8,204.6,179.9,204.3,179.9z M209.5,179.9
		c-0.6,0-1.2-0.2-1.7-0.5s-0.9-0.8-1.2-1.4c-0.3-0.6-0.4-1.3-0.4-2.1s0.1-1.5,0.4-2.1c0.3-0.6,0.7-1.1,1.2-1.4
		c0.5-0.3,1.1-0.5,1.7-0.5c0.6,0,1.2,0.2,1.7,0.5s0.9,0.8,1.2,1.4c0.3,0.6,0.4,1.3,0.4,2.1s-0.1,1.5-0.4,2.1c-0.3,0.6-0.7,1-1.2,1.4
		C210.7,179.8,210.1,179.9,209.5,179.9z M209.5,178.4c0.5,0,0.8-0.2,1.1-0.6c0.3-0.4,0.4-1,0.4-1.9c0-0.8-0.1-1.5-0.4-1.9
		c-0.3-0.4-0.6-0.6-1.1-0.6s-0.8,0.2-1.1,0.6c-0.3,0.4-0.4,1-0.4,1.9c0,0.8,0.1,1.5,0.4,1.9C208.6,178.2,209,178.4,209.5,178.4z
		 M220.9,177.1v2.7h-1.8V177l-3-5h1.9l2.1,3.4l2.1-3.4h1.8L220.9,177.1z M224.8,175.9c-0.3,0-0.6-0.1-0.8-0.3s-0.3-0.5-0.3-0.8
		s0.1-0.6,0.3-0.8s0.5-0.3,0.8-0.3s0.6,0.1,0.8,0.3s0.3,0.4,0.3,0.8c0,0.3-0.1,0.6-0.3,0.8C225.4,175.8,225.1,175.9,224.8,175.9z
		 M224.8,179.9c-0.3,0-0.6-0.1-0.8-0.3s-0.3-0.5-0.3-0.8s0.1-0.6,0.3-0.8s0.5-0.3,0.8-0.3s0.6,0.1,0.8,0.3s0.3,0.4,0.3,0.8
		c0,0.3-0.1,0.6-0.3,0.8C225.4,179.8,225.1,179.9,224.8,179.9z M230,179.9c-0.6,0-1.2-0.2-1.7-0.5s-0.9-0.8-1.2-1.4
		c-0.3-0.6-0.4-1.3-0.4-2.1s0.1-1.5,0.4-2.1c0.3-0.6,0.7-1.1,1.2-1.4c0.5-0.3,1.1-0.5,1.7-0.5s1.2,0.2,1.7,0.5s0.9,0.8,1.2,1.4
		c0.3,0.6,0.4,1.3,0.4,2.1s-0.1,1.5-0.4,2.1c-0.3,0.6-0.7,1-1.2,1.4C231.2,179.8,230.6,179.9,230,179.9z M230,178.4
		c0.5,0,0.8-0.2,1.1-0.6c0.3-0.4,0.4-1,0.4-1.9c0-0.8-0.1-1.5-0.4-1.9c-0.3-0.4-0.6-0.6-1.1-0.6s-0.8,0.2-1.1,0.6
		c-0.3,0.4-0.4,1-0.4,1.9c0,0.8,0.1,1.5,0.4,1.9C229.1,178.2,229.5,178.4,230,178.4z M240.5,176.8l-1,1.1v1.9h-1.8v-7.7h1.8v3.6
		l3.4-3.6h2l-3.2,3.4l3.4,4.3H243L240.5,176.8z M246.4,175.9c-0.3,0-0.6-0.1-0.8-0.3s-0.3-0.5-0.3-0.8s0.1-0.6,0.3-0.8
		s0.5-0.3,0.8-0.3s0.6,0.1,0.8,0.3s0.3,0.4,0.3,0.8c0,0.3-0.1,0.6-0.3,0.8S246.7,175.9,246.4,175.9z M246.4,179.9
		c-0.3,0-0.6-0.1-0.8-0.3s-0.3-0.5-0.3-0.8s0.1-0.6,0.3-0.8s0.5-0.3,0.8-0.3s0.6,0.1,0.8,0.3s0.3,0.4,0.3,0.8c0,0.3-0.1,0.6-0.3,0.8
		C247,179.8,246.7,179.9,246.4,179.9z M252,175c0.5,0,0.9,0.1,1.3,0.3c0.4,0.2,0.7,0.5,1,0.8c0.2,0.4,0.4,0.8,0.4,1.3
		s-0.1,1-0.4,1.4s-0.6,0.7-1.1,0.9c-0.4,0.2-0.9,0.3-1.5,0.3c-1.1,0-1.9-0.3-2.5-1s-0.9-1.6-0.9-2.8c0-0.9,0.2-1.6,0.5-2.2
		c0.3-0.6,0.8-1.1,1.4-1.4c0.6-0.3,1.3-0.5,2.1-0.5c0.4,0,0.8,0,1.2,0.1s0.7,0.2,1,0.4l-0.7,1.3c-0.4-0.3-0.9-0.4-1.4-0.4
		c-0.7,0-1.2,0.2-1.6,0.6c-0.4,0.4-0.6,0.9-0.6,1.7C250.5,175.2,251.2,175,252,175z M251.6,178.6c0.4,0,0.7-0.1,0.9-0.3
		s0.4-0.5,0.4-0.8s-0.1-0.6-0.4-0.8c-0.2-0.2-0.6-0.3-0.9-0.3c-0.4,0-0.7,0.1-1,0.3c-0.2,0.2-0.4,0.5-0.4,0.8s0.1,0.6,0.4,0.8
		S251.2,178.6,251.6,178.6z M259,175c0.5,0,0.9,0.1,1.3,0.3s0.7,0.5,1,0.8c0.2,0.4,0.4,0.8,0.4,1.3s-0.1,1-0.4,1.4s-0.6,0.7-1.1,0.9
		c-0.4,0.2-0.9,0.3-1.5,0.3c-1.1,0-1.9-0.3-2.5-1s-0.9-1.6-0.9-2.8c0-0.9,0.2-1.6,0.5-2.2c0.3-0.6,0.8-1.1,1.4-1.4
		c0.6-0.3,1.3-0.5,2.1-0.5c0.4,0,0.8,0,1.2,0.1c0.4,0.1,0.7,0.2,1,0.4l-0.7,1.3c-0.4-0.3-0.9-0.4-1.4-0.4c-0.7,0-1.2,0.2-1.6,0.6
		c-0.4,0.4-0.6,0.9-0.6,1.7C257.6,175.2,258.2,175,259,175z M258.6,178.6c0.4,0,0.7-0.1,0.9-0.3c0.2-0.2,0.4-0.5,0.4-0.8
		s-0.1-0.6-0.4-0.8c-0.2-0.2-0.6-0.3-0.9-0.3c-0.4,0-0.7,0.1-1,0.3c-0.2,0.2-0.4,0.5-0.4,0.8s0.1,0.6,0.4,0.8
		S258.2,178.6,258.6,178.6z M183.5,185.5l-2.5,7.7h-2l-1.7-5.2l-1.8,5.2h-1.9l-2.5-7.7h1.8l1.7,5.4l1.8-5.4h1.7l1.8,5.5l1.8-5.5
		H183.5z M189.7,190.2c0,0,0,0.2,0,0.5h-4.5c0.1,0.4,0.3,0.7,0.6,0.9s0.7,0.3,1.1,0.3c0.3,0,0.6,0,0.8-0.1s0.5-0.2,0.7-0.4l0.9,1
		c-0.6,0.6-1.4,1-2.4,1c-0.7,0-1.3-0.1-1.8-0.4c-0.5-0.3-0.9-0.6-1.2-1.1s-0.4-1-0.4-1.6s0.1-1.1,0.4-1.6c0.3-0.5,0.7-0.8,1.1-1.1
		c0.5-0.3,1-0.4,1.6-0.4s1.1,0.1,1.6,0.4c0.5,0.2,0.8,0.6,1.1,1.1C189.5,189.1,189.7,189.6,189.7,190.2z M186.6,188.5
		c-0.4,0-0.7,0.1-1,0.3s-0.4,0.5-0.5,0.9h2.9c-0.1-0.4-0.2-0.7-0.5-0.9C187.3,188.6,187,188.5,186.6,188.5z M194.3,187.2
		c0.6,0,1,0.1,1.5,0.4c0.5,0.2,0.8,0.6,1.1,1.1s0.4,1,0.4,1.6s-0.1,1.1-0.4,1.6c-0.3,0.5-0.6,0.8-1.1,1.1c-0.4,0.2-0.9,0.4-1.5,0.4
		c-0.8,0-1.4-0.3-1.9-0.8v0.7h-1.6V185h1.7v2.9C193,187.4,193.6,187.2,194.3,187.2z M194,191.8c0.4,0,0.8-0.1,1.1-0.4
		c0.3-0.3,0.4-0.7,0.4-1.2s-0.1-0.9-0.4-1.2c-0.3-0.3-0.6-0.5-1.1-0.5s-0.8,0.2-1.1,0.5s-0.4,0.7-0.4,1.2s0.1,0.9,0.4,1.2
		C193.2,191.7,193.6,191.8,194,191.8z M206.7,190.2h1.4v1.2h-1.6l-0.2,1.8H205l0.2-1.8h-1.6l-0.2,1.8h-1.2l0.2-1.8H201v-1.2h1.6
		l0.2-1.8h-1.4v-1.2h1.6l0.2-1.8h1.2l-0.2,1.8h1.6l0.2-1.8h1.2l-0.2,1.8h1.4v1.2h-1.6L206.7,190.2z M205.4,190.2l0.2-1.8H204
		l-0.2,1.8H205.4z M215.1,185.5v1.2l-2.9,6.6h-1.9l2.8-6.3h-2.6v1.3H209v-2.7h6.1V185.5z M218.6,185.3c1.1,0,1.9,0.3,2.5,1
		s0.9,1.6,0.9,2.8c0,0.9-0.2,1.6-0.5,2.2c-0.3,0.6-0.8,1.1-1.4,1.4s-1.3,0.5-2.1,0.5c-0.4,0-0.8,0-1.2-0.1s-0.7-0.2-1-0.4l0.7-1.3
		c0.4,0.3,0.9,0.4,1.4,0.4c0.7,0,1.2-0.2,1.6-0.6c0.4-0.4,0.6-0.9,0.6-1.7c-0.5,0.5-1.1,0.7-1.9,0.7c-0.5,0-0.9-0.1-1.3-0.3
		c-0.4-0.2-0.7-0.5-1-0.8c-0.2-0.4-0.4-0.8-0.4-1.3s0.1-1,0.4-1.4c0.3-0.4,0.6-0.7,1-0.9C217.6,185.4,218.1,185.3,218.6,185.3z
		 M218.8,189c0.4,0,0.7-0.1,0.9-0.3s0.4-0.5,0.4-0.8s-0.1-0.6-0.4-0.8c-0.2-0.2-0.6-0.3-1-0.3s-0.7,0.1-0.9,0.3s-0.4,0.5-0.4,0.8
		s0.1,0.6,0.4,0.8C218.1,188.9,218.4,189,218.8,189z M228.9,185.5v1.2l-2.9,6.6h-1.9l2.8-6.3h-2.6v1.3h-1.6v-2.7h6.2V185.5z
		 M232.4,185.3c1.1,0,1.9,0.3,2.5,1s0.9,1.6,0.9,2.8c0,0.9-0.2,1.6-0.5,2.2c-0.3,0.6-0.8,1.1-1.4,1.4c-0.6,0.3-1.3,0.5-2.1,0.5
		c-0.4,0-0.8,0-1.2-0.1s-0.7-0.2-1-0.4l0.7-1.3c0.4,0.3,0.9,0.4,1.4,0.4c0.7,0,1.2-0.2,1.6-0.6c0.4-0.4,0.6-0.9,0.6-1.7
		c-0.5,0.5-1.1,0.7-1.9,0.7c-0.5,0-0.9-0.1-1.3-0.3c-0.4-0.2-0.7-0.5-1-0.8c-0.2-0.4-0.4-0.8-0.4-1.3s0.1-1,0.4-1.4
		c0.3-0.4,0.6-0.7,1-0.9C231.4,185.4,231.9,185.3,232.4,185.3z M232.6,189c0.4,0,0.7-0.1,0.9-0.3s0.4-0.5,0.4-0.8s-0.1-0.6-0.4-0.8
		c-0.2-0.2-0.6-0.3-1-0.3s-0.7,0.1-0.9,0.3s-0.4,0.5-0.4,0.8s0.1,0.6,0.4,0.8S232.2,189,232.6,189z M242.7,185.5v1.2l-2.9,6.6h-1.9
		l2.8-6.3h-2.6v1.3h-1.6v-2.7h6.2V185.5z M246.2,185.3c1.1,0,1.9,0.3,2.5,1s0.9,1.6,0.9,2.8c0,0.9-0.2,1.6-0.5,2.2
		c-0.3,0.6-0.8,1.1-1.4,1.4c-0.6,0.3-1.3,0.5-2.1,0.5c-0.4,0-0.8,0-1.2-0.1s-0.7-0.2-1-0.4l0.7-1.3c0.4,0.3,0.9,0.4,1.4,0.4
		c0.7,0,1.2-0.2,1.6-0.6c0.4-0.4,0.6-0.9,0.6-1.7c-0.5,0.5-1.1,0.7-1.9,0.7c-0.5,0-0.9-0.1-1.3-0.3c-0.4-0.2-0.7-0.5-1-0.8
		c-0.2-0.4-0.4-0.8-0.4-1.3s0.1-1,0.4-1.4c0.3-0.4,0.6-0.7,1-0.9C245.2,185.4,245.7,185.3,246.2,185.3z M246.4,189
		c0.4,0,0.7-0.1,0.9-0.3s0.4-0.5,0.4-0.8s-0.1-0.6-0.4-0.8c-0.2-0.2-0.6-0.3-1-0.3s-0.7,0.1-0.9,0.3s-0.4,0.5-0.4,0.8
		s0.1,0.6,0.4,0.8C245.6,188.9,246,189,246.4,189z M175.1,198.8c0.7,0,1.3,0.1,1.8,0.3s0.9,0.6,1.2,1s0.4,0.9,0.4,1.5
		s-0.1,1.1-0.4,1.5c-0.3,0.4-0.7,0.7-1.2,1c-0.5,0.2-1.1,0.3-1.8,0.3h-1.6v2.1h-1.8v-7.7L175.1,198.8L175.1,198.8z M175,203
		c0.5,0,0.9-0.1,1.2-0.3s0.4-0.6,0.4-1s-0.1-0.8-0.4-1c-0.3-0.2-0.7-0.4-1.2-0.4h-1.5v2.7H175z M182,200.5c0.9,0,1.6,0.2,2.1,0.7
		c0.5,0.4,0.7,1.1,0.7,2v3.4h-1.6v-0.7c-0.3,0.6-0.9,0.8-1.8,0.8c-0.5,0-0.9-0.1-1.2-0.2c-0.3-0.2-0.6-0.4-0.8-0.6s-0.3-0.6-0.3-0.9
		c0-0.6,0.2-1,0.6-1.3c0.4-0.3,1.1-0.5,1.9-0.5h1.4c0-0.4-0.1-0.7-0.3-0.9s-0.6-0.3-1-0.3c-0.3,0-0.6,0.1-0.9,0.2
		c-0.3,0.1-0.6,0.2-0.8,0.4l-0.6-1.2c0.3-0.2,0.7-0.4,1.2-0.5C181,200.6,181.5,200.5,182,200.5z M181.8,205.5c0.3,0,0.6-0.1,0.8-0.2
		c0.2-0.1,0.4-0.3,0.5-0.6v-0.6h-1.2c-0.7,0-1.1,0.2-1.1,0.7c0,0.2,0.1,0.4,0.3,0.5S181.5,205.5,181.8,205.5z M190,200.5
		c0.7,0,1.3,0.2,1.8,0.7c0.5,0.4,0.7,1.1,0.7,2v3.4h-1.7v-3.1c0-0.5-0.1-0.8-0.3-1s-0.5-0.4-0.9-0.4s-0.8,0.1-1,0.4
		c-0.3,0.3-0.4,0.7-0.4,1.2v2.9h-1.7v-5.9h1.6v0.7c0.2-0.2,0.5-0.4,0.8-0.6C189.2,200.6,189.6,200.5,190,200.5z M197.8,206.2
		c-0.2,0.1-0.4,0.2-0.6,0.3c-0.2,0.1-0.5,0.1-0.8,0.1c-0.7,0-1.3-0.2-1.6-0.5c-0.4-0.4-0.6-0.9-0.6-1.6v-2.4h-0.9v-1.3h0.9v-1.4h1.7
		v1.4h1.5v1.3h-1.5v2.4c0,0.2,0.1,0.4,0.2,0.6c0.1,0.1,0.3,0.2,0.6,0.2s0.5-0.1,0.7-0.2L197.8,206.2z M201.4,206.6
		c-0.6,0-1.2-0.1-1.7-0.4c-0.5-0.3-0.9-0.6-1.2-1.1s-0.4-1-0.4-1.6s0.1-1.1,0.4-1.6c0.3-0.5,0.7-0.8,1.2-1.1s1.1-0.4,1.7-0.4
		c0.6,0,1.2,0.1,1.7,0.4c0.5,0.3,0.9,0.6,1.2,1.1s0.4,1,0.4,1.6s-0.1,1.1-0.4,1.6c-0.3,0.5-0.7,0.8-1.2,1.1
		C202.6,206.5,202,206.6,201.4,206.6z M201.4,205.2c0.4,0,0.8-0.1,1.1-0.4c0.3-0.3,0.4-0.7,0.4-1.2s-0.1-0.9-0.4-1.2
		c-0.3-0.3-0.6-0.5-1.1-0.5c-0.4,0-0.8,0.2-1.1,0.5s-0.4,0.7-0.4,1.2s0.1,0.9,0.4,1.2C200.6,205.1,201,205.2,201.4,205.2z
		 M209.4,200.5c0.7,0,1.3,0.2,1.8,0.7c0.5,0.4,0.7,1.1,0.7,2v3.4h-1.7v-3.1c0-0.5-0.1-0.8-0.3-1s-0.5-0.4-0.9-0.4s-0.8,0.1-1,0.4
		c-0.3,0.3-0.4,0.7-0.4,1.2v2.9h-1.7v-5.9h1.6v0.7c0.2-0.2,0.5-0.4,0.8-0.6C208.6,200.6,209,200.5,209.4,200.5z M219.3,203.6
		c0,0,0,0.2,0,0.5h-4.5c0.1,0.4,0.3,0.7,0.6,0.9s0.7,0.3,1.1,0.3c0.3,0,0.6,0,0.8-0.1s0.5-0.2,0.7-0.4l0.9,1c-0.6,0.6-1.4,1-2.4,1
		c-0.7,0-1.3-0.1-1.8-0.4c-0.5-0.3-0.9-0.6-1.2-1.1s-0.4-1-0.4-1.6s0.1-1.1,0.4-1.6c0.3-0.5,0.7-0.8,1.1-1.1c0.5-0.3,1-0.4,1.6-0.4
		s1.1,0.1,1.6,0.4c0.5,0.2,0.8,0.6,1.1,1.1C219.1,202.4,219.3,203,219.3,203.6z M216.2,201.8c-0.4,0-0.7,0.1-1,0.3s-0.4,0.5-0.5,0.9
		h2.9c-0.1-0.4-0.2-0.7-0.5-0.9C216.9,201.9,216.6,201.8,216.2,201.8z M227,198.8c0.7,0,1.3,0.1,1.8,0.3s0.9,0.6,1.2,1
		s0.4,0.9,0.4,1.5s-0.1,1.1-0.4,1.5c-0.3,0.4-0.7,0.7-1.2,1c-0.5,0.2-1.1,0.3-1.8,0.3h-1.6v2.1h-1.8v-7.7L227,198.8L227,198.8z
		 M226.9,203c0.5,0,0.9-0.1,1.2-0.3s0.4-0.6,0.4-1s-0.1-0.8-0.4-1c-0.3-0.2-0.7-0.4-1.2-0.4h-1.5v2.7H226.9z M237.3,198.8v7.7h-1.8
		v-6.3H234v-1.4H237.3z M244.7,198.8v1.2l-2.9,6.6h-1.9l2.8-6.3h-2.6v1.3h-1.6v-2.7h6.2V198.8z M248.2,198.7c1.1,0,1.9,0.3,2.5,1
		s0.9,1.6,0.9,2.8c0,0.9-0.2,1.6-0.5,2.2c-0.3,0.6-0.8,1.1-1.4,1.4c-0.6,0.3-1.3,0.5-2.1,0.5c-0.4,0-0.8,0-1.2-0.1s-0.7-0.2-1-0.4
		l0.7-1.3c0.4,0.3,0.9,0.4,1.4,0.4c0.7,0,1.2-0.2,1.6-0.6c0.4-0.4,0.6-0.9,0.6-1.7c-0.5,0.5-1.1,0.7-1.9,0.7c-0.5,0-0.9-0.1-1.3-0.3
		c-0.4-0.2-0.7-0.5-1-0.8c-0.2-0.4-0.4-0.8-0.4-1.3s0.1-1,0.4-1.4c0.3-0.4,0.6-0.7,1-0.9C247.2,198.8,247.7,198.7,248.2,198.7z
		 M248.3,202.3c0.4,0,0.7-0.1,0.9-0.3s0.4-0.5,0.4-0.8s-0.1-0.6-0.4-0.8c-0.2-0.2-0.6-0.3-1-0.3s-0.7,0.1-0.9,0.3s-0.4,0.5-0.4,0.8
		s0.1,0.6,0.4,0.8C247.6,202.2,247.9,202.3,248.3,202.3z M252.7,202.7h3.1v1.4h-3.1V202.7z M259.5,198.8v7.7h-1.8v-6.3h-1.5v-1.4
		H259.5z M264.2,206.7c-0.6,0-1.2-0.2-1.7-0.5s-0.9-0.8-1.2-1.4c-0.3-0.6-0.4-1.3-0.4-2.1s0.1-1.5,0.4-2.1s0.7-1.1,1.2-1.4
		c0.5-0.3,1.1-0.5,1.7-0.5s1.2,0.2,1.7,0.5s0.9,0.8,1.2,1.4c0.3,0.6,0.4,1.3,0.4,2.1s-0.1,1.5-0.4,2.1s-0.7,1-1.2,1.4
		C265.4,206.5,264.8,206.7,264.2,206.7z M264.2,205.2c0.5,0,0.8-0.2,1.1-0.6c0.3-0.4,0.4-1,0.4-1.9s-0.1-1.5-0.4-1.9
		s-0.6-0.6-1.1-0.6s-0.8,0.2-1.1,0.6c-0.3,0.4-0.4,1-0.4,1.9s0.1,1.5,0.4,1.9C263.3,205,263.7,205.2,264.2,205.2z M272.3,206.7
		c-1.1,0-2-0.3-2.6-0.9c-0.6-0.6-0.9-1.5-0.9-2.6v-4.3h1.8v4.2c0,1.4,0.6,2.1,1.7,2.1c0.6,0,1-0.2,1.3-0.5s0.4-0.9,0.4-1.6v-4.2h1.8
		v4.3c0,1.1-0.3,2-0.9,2.6C274.2,206.4,273.4,206.7,272.3,206.7z"/>
</g>
<g>
	<path class="st7" d="M24.5,179.9c-0.8,0-1.5-0.2-2.1-0.5s-1.1-0.8-1.5-1.4c-0.4-0.6-0.5-1.3-0.5-2.1s0.2-1.4,0.5-2
		c0.4-0.6,0.9-1.1,1.5-1.4c0.6-0.3,1.4-0.5,2.1-0.5s1.3,0.1,1.8,0.4c0.5,0.2,1,0.6,1.4,1l-1.1,1.1c-0.5-0.6-1.2-0.9-1.9-0.9
		c-0.5,0-0.9,0.1-1.3,0.3s-0.7,0.5-0.9,0.9c-0.2,0.4-0.3,0.8-0.3,1.3s0.1,0.9,0.3,1.3c0.2,0.4,0.5,0.7,0.9,0.9s0.8,0.3,1.3,0.3
		c0.8,0,1.4-0.3,1.9-0.9l1.1,1.1c-0.4,0.4-0.8,0.8-1.4,1C25.8,179.8,25.2,179.9,24.5,179.9z M29.4,175.9c-0.3,0-0.6-0.1-0.8-0.3
		c-0.2-0.2-0.3-0.5-0.3-0.8s0.1-0.6,0.3-0.8c0.2-0.2,0.5-0.3,0.8-0.3s0.6,0.1,0.8,0.3c0.2,0.2,0.3,0.4,0.3,0.8
		c0,0.3-0.1,0.6-0.3,0.8C29.9,175.8,29.7,175.9,29.4,175.9z M29.4,179.9c-0.3,0-0.6-0.1-0.8-0.3c-0.2-0.2-0.3-0.5-0.3-0.8
		s0.1-0.6,0.3-0.8c0.2-0.2,0.5-0.3,0.8-0.3s0.6,0.1,0.8,0.3c0.2,0.2,0.3,0.4,0.3,0.8c0,0.3-0.1,0.6-0.3,0.8
		C29.9,179.8,29.7,179.9,29.4,179.9z M34.5,179.9c-0.6,0-1.2-0.2-1.7-0.5s-0.9-0.8-1.2-1.4c-0.3-0.6-0.4-1.3-0.4-2.1
		s0.1-1.5,0.4-2.1s0.7-1.1,1.2-1.4c0.5-0.3,1.1-0.5,1.7-0.5s1.2,0.2,1.7,0.5s0.9,0.8,1.2,1.4c0.3,0.6,0.4,1.3,0.4,2.1
		s-0.1,1.5-0.4,2.1c-0.3,0.6-0.7,1-1.2,1.4C35.8,179.8,35.2,179.9,34.5,179.9z M34.5,178.4c0.5,0,0.8-0.2,1.1-0.6
		c0.3-0.4,0.4-1,0.4-1.9c0-0.8-0.1-1.5-0.4-1.9c-0.3-0.4-0.6-0.6-1.1-0.6s-0.8,0.2-1.1,0.6c-0.3,0.4-0.4,1-0.4,1.9
		c0,0.8,0.1,1.5,0.4,1.9C33.7,178.2,34.1,178.4,34.5,178.4z M49.3,179.8v-4.6L47,179h-0.8l-2.3-3.7v4.5h-1.7v-7.7h1.5l2.9,4.8
		l2.8-4.8H51v7.7H49.3z M53.4,175.9c-0.3,0-0.6-0.1-0.8-0.3s-0.3-0.5-0.3-0.8s0.1-0.6,0.3-0.8s0.5-0.3,0.8-0.3s0.6,0.1,0.8,0.3
		s0.3,0.4,0.3,0.8c0,0.3-0.1,0.6-0.3,0.8C53.9,175.8,53.7,175.9,53.4,175.9z M53.4,179.9c-0.3,0-0.6-0.1-0.8-0.3s-0.3-0.5-0.3-0.8
		s0.1-0.6,0.3-0.8s0.5-0.3,0.8-0.3s0.6,0.1,0.8,0.3s0.3,0.4,0.3,0.8c0,0.3-0.1,0.6-0.3,0.8C53.9,179.8,53.7,179.9,53.4,179.9z
		 M58.5,179.9c-0.6,0-1.2-0.2-1.7-0.5s-0.9-0.8-1.2-1.4c-0.3-0.6-0.4-1.3-0.4-2.1s0.1-1.5,0.4-2.1c0.3-0.6,0.7-1.1,1.2-1.4
		c0.5-0.3,1.1-0.5,1.7-0.5c0.6,0,1.2,0.2,1.7,0.5s0.9,0.8,1.2,1.4c0.3,0.6,0.4,1.3,0.4,2.1s-0.1,1.5-0.4,2.1c-0.3,0.6-0.7,1-1.2,1.4
		C59.7,179.8,59.2,179.9,58.5,179.9z M58.5,178.4c0.5,0,0.8-0.2,1.1-0.6c0.3-0.4,0.4-1,0.4-1.9c0-0.8-0.1-1.5-0.4-1.9
		c-0.3-0.4-0.6-0.6-1.1-0.6s-0.8,0.2-1.1,0.6c-0.3,0.4-0.4,1-0.4,1.9c0,0.8,0.1,1.5,0.4,1.9C57.7,178.2,58.1,178.4,58.5,178.4z
		 M70,177.1v2.7h-1.8V177l-3-5h1.9l2.1,3.4l2.1-3.4H73L70,177.1z M73.9,175.9c-0.3,0-0.6-0.1-0.8-0.3c-0.2-0.2-0.3-0.5-0.3-0.8
		s0.1-0.6,0.3-0.8c0.2-0.2,0.5-0.3,0.8-0.3s0.6,0.1,0.8,0.3c0.2,0.2,0.3,0.4,0.3,0.8c0,0.3-0.1,0.6-0.3,0.8
		C74.4,175.8,74.2,175.9,73.9,175.9z M73.9,179.9c-0.3,0-0.6-0.1-0.8-0.3c-0.2-0.2-0.3-0.5-0.3-0.8s0.1-0.6,0.3-0.8
		c0.2-0.2,0.5-0.3,0.8-0.3s0.6,0.1,0.8,0.3c0.2,0.2,0.3,0.4,0.3,0.8c0,0.3-0.1,0.6-0.3,0.8C74.4,179.8,74.2,179.9,73.9,179.9z
		 M79,179.9c-0.6,0-1.2-0.2-1.7-0.5s-0.9-0.8-1.2-1.4c-0.3-0.6-0.4-1.3-0.4-2.1s0.1-1.5,0.4-2.1s0.7-1.1,1.2-1.4
		c0.5-0.3,1.1-0.5,1.7-0.5s1.2,0.2,1.7,0.5s0.9,0.8,1.2,1.4c0.3,0.6,0.4,1.3,0.4,2.1s-0.1,1.5-0.4,2.1s-0.7,1-1.2,1.4
		C80.2,179.8,79.7,179.9,79,179.9z M79,178.4c0.5,0,0.8-0.2,1.1-0.6c0.3-0.4,0.4-1,0.4-1.9c0-0.8-0.1-1.5-0.4-1.9s-0.6-0.6-1.1-0.6
		s-0.8,0.2-1.1,0.6c-0.3,0.4-0.4,1-0.4,1.9c0,0.8,0.1,1.5,0.4,1.9C78.2,178.2,78.6,178.4,79,178.4z M89.6,176.8l-1,1.1v1.9h-1.8
		v-7.7h1.8v3.6l3.4-3.6h2l-3.2,3.4l3.4,4.3h-2.1L89.6,176.8z M95.5,175.9c-0.3,0-0.6-0.1-0.8-0.3c-0.2-0.2-0.3-0.5-0.3-0.8
		s0.1-0.6,0.3-0.8c0.2-0.2,0.5-0.3,0.8-0.3s0.6,0.1,0.8,0.3c0.2,0.2,0.3,0.4,0.3,0.8c0,0.3-0.1,0.6-0.3,0.8
		C96,175.8,95.8,175.9,95.5,175.9z M95.5,179.9c-0.3,0-0.6-0.1-0.8-0.3c-0.2-0.2-0.3-0.5-0.3-0.8s0.1-0.6,0.3-0.8
		c0.2-0.2,0.5-0.3,0.8-0.3s0.6,0.1,0.8,0.3c0.2,0.2,0.3,0.4,0.3,0.8c0,0.3-0.1,0.6-0.3,0.8C96,179.8,95.8,179.9,95.5,179.9z
		 M102.6,175.7c0.4,0.2,0.7,0.4,0.9,0.7c0.2,0.3,0.3,0.7,0.3,1.1c0,0.5-0.1,0.9-0.4,1.3c-0.3,0.4-0.7,0.6-1.1,0.8
		c-0.5,0.2-1.1,0.3-1.7,0.3s-1.2-0.1-1.7-0.3s-0.9-0.5-1.1-0.8c-0.3-0.4-0.4-0.8-0.4-1.3c0-0.4,0.1-0.8,0.3-1.1
		c0.2-0.3,0.5-0.6,0.9-0.7c-0.3-0.2-0.5-0.4-0.7-0.7s-0.2-0.6-0.2-0.9c0-0.4,0.1-0.8,0.4-1.2c0.2-0.3,0.6-0.6,1-0.8s1-0.3,1.5-0.3
		c0.6,0,1.1,0.1,1.6,0.3s0.8,0.4,1.1,0.8s0.4,0.7,0.4,1.2c0,0.3-0.1,0.7-0.2,0.9C103.1,175.3,102.9,175.6,102.6,175.7z M100.5,173.3
		c-0.4,0-0.6,0.1-0.9,0.3c-0.2,0.2-0.3,0.4-0.3,0.7s0.1,0.5,0.3,0.7c0.2,0.2,0.5,0.3,0.9,0.3s0.7-0.1,0.9-0.3
		c0.2-0.2,0.3-0.4,0.3-0.7s-0.1-0.5-0.3-0.7C101.2,173.3,100.9,173.3,100.5,173.3z M100.5,178.6c0.4,0,0.8-0.1,1.1-0.3
		c0.3-0.2,0.4-0.5,0.4-0.8s-0.1-0.6-0.4-0.8s-0.6-0.3-1.1-0.3c-0.4,0-0.8,0.1-1,0.3c-0.3,0.2-0.4,0.5-0.4,0.8s0.1,0.6,0.4,0.8
		C99.7,178.5,100.1,178.6,100.5,178.6z M107.3,171.9c1.1,0,1.9,0.3,2.5,1s0.9,1.6,0.9,2.8c0,0.9-0.2,1.6-0.5,2.2
		c-0.3,0.6-0.8,1.1-1.4,1.4s-1.3,0.5-2.1,0.5c-0.4,0-0.8,0-1.2-0.1c-0.4-0.1-0.7-0.2-1-0.4l0.7-1.3c0.4,0.3,0.9,0.4,1.4,0.4
		c0.7,0,1.2-0.2,1.6-0.6c0.4-0.4,0.6-0.9,0.6-1.7c-0.5,0.5-1.1,0.7-1.9,0.7c-0.5,0-0.9-0.1-1.3-0.3s-0.7-0.5-1-0.8
		c-0.2-0.4-0.4-0.8-0.4-1.3s0.1-1,0.4-1.4s0.6-0.7,1-0.9C106.3,172.1,106.8,171.9,107.3,171.9z M107.4,175.6c0.4,0,0.7-0.1,0.9-0.3
		c0.2-0.2,0.4-0.5,0.4-0.8s-0.1-0.6-0.4-0.8c-0.2-0.2-0.6-0.3-1-0.3s-0.7,0.1-0.9,0.3c-0.2,0.2-0.4,0.5-0.4,0.8s0.1,0.6,0.4,0.8
		C106.7,175.5,107.1,175.6,107.4,175.6z M32.5,185.4l-2.5,7.7h-1.9l-1.7-5.2l-1.8,5.2h-1.9l-2.5-7.7H22l1.7,5.4l1.8-5.4h1.7l1.8,5.5
		l1.8-5.5H32.5z M38.7,190.2c0,0,0,0.2,0,0.5h-4.5c0.1,0.4,0.3,0.7,0.6,0.9s0.7,0.3,1.1,0.3c0.3,0,0.6,0,0.8-0.1s0.5-0.2,0.7-0.4
		l0.9,1c-0.6,0.6-1.4,1-2.4,1c-0.7,0-1.3-0.1-1.8-0.4c-0.5-0.3-0.9-0.6-1.2-1.1s-0.4-1-0.4-1.6s0.1-1.1,0.4-1.6
		c0.3-0.5,0.7-0.8,1.1-1.1c0.5-0.3,1-0.4,1.6-0.4s1.1,0.1,1.6,0.4c0.5,0.2,0.8,0.6,1.1,1.1C38.6,189.1,38.7,189.6,38.7,190.2z
		 M35.7,188.4c-0.4,0-0.7,0.1-1,0.3s-0.4,0.5-0.5,0.9h2.9c-0.1-0.4-0.2-0.7-0.5-0.9C36.4,188.6,36.1,188.4,35.7,188.4z M43.4,187.1
		c0.6,0,1,0.1,1.5,0.4c0.5,0.2,0.8,0.6,1.1,1.1s0.4,1,0.4,1.6s-0.1,1.1-0.4,1.6c-0.3,0.5-0.6,0.8-1.1,1.1c-0.4,0.2-0.9,0.4-1.5,0.4
		c-0.8,0-1.4-0.3-1.9-0.8v0.7h-1.6V185h1.7v2.9C42,187.4,42.6,187.1,43.4,187.1z M43.1,191.8c0.4,0,0.8-0.1,1.1-0.4
		c0.3-0.3,0.4-0.7,0.4-1.2s-0.1-0.9-0.4-1.2c-0.3-0.3-0.6-0.5-1.1-0.5s-0.8,0.2-1.1,0.5s-0.4,0.7-0.4,1.2s0.1,0.9,0.4,1.2
		C42.3,191.7,42.6,191.8,43.1,191.8z M55.7,190.2h1.4v1.2h-1.6l-0.2,1.8h-1.2l0.2-1.8h-1.6l-0.2,1.8h-1.2l0.2-1.8H50v-1.2h1.6
		l0.2-1.8h-1.4v-1.2H52l0.2-1.8h1.2l-0.2,1.8h1.6l0.2-1.8h1.2l-0.2,1.8h1.4v1.2h-1.6L55.7,190.2z M54.5,190.2l0.2-1.8h-1.6l-0.2,1.8
		H54.5z M61.8,188.6c0.7,0.1,1.2,0.4,1.6,0.8c0.4,0.4,0.5,0.9,0.5,1.5c0,0.4-0.1,0.9-0.4,1.2c-0.2,0.4-0.6,0.7-1.1,0.9
		s-1.1,0.3-1.8,0.3c-0.5,0-1.1-0.1-1.6-0.2c-0.5-0.1-1-0.4-1.3-0.6l0.7-1.4c0.3,0.2,0.6,0.4,1,0.5s0.8,0.2,1.2,0.2s0.8-0.1,1.1-0.3
		s0.4-0.4,0.4-0.7c0-0.6-0.5-0.9-1.4-0.9h-0.8v-1.2l1.6-1.8h-3.3v-1.4h5.4v1.2L61.8,188.6z M66.9,186.9v2h3.6v1.4h-3.6v2.8h-1.8
		v-7.7H71v1.4h-4.1V186.9z M75.3,188.6c0.7,0.1,1.2,0.4,1.6,0.8c0.4,0.4,0.5,0.9,0.5,1.5c0,0.4-0.1,0.9-0.4,1.2
		c-0.2,0.4-0.6,0.7-1.1,0.9s-1.1,0.3-1.8,0.3c-0.5,0-1.1-0.1-1.6-0.2c-0.5-0.1-1-0.4-1.3-0.6l0.7-1.4c0.3,0.2,0.6,0.4,1,0.5
		s0.8,0.2,1.2,0.2c0.4,0,0.8-0.1,1.1-0.3c0.3-0.2,0.4-0.4,0.4-0.7c0-0.6-0.5-0.9-1.4-0.9h-0.8v-1.2l1.6-1.8h-3.3v-1.4H77v1.2
		L75.3,188.6z M80.5,186.9v2h3.6v1.4h-3.6v2.8h-1.8v-7.7h5.8v1.4h-4V186.9z M88.9,188.6c0.7,0.1,1.2,0.4,1.6,0.8
		c0.4,0.4,0.5,0.9,0.5,1.5c0,0.4-0.1,0.9-0.4,1.2c-0.2,0.4-0.6,0.7-1.1,0.9s-1.1,0.3-1.8,0.3c-0.5,0-1.1-0.1-1.6-0.2
		c-0.5-0.1-1-0.4-1.3-0.6l0.7-1.4c0.3,0.2,0.6,0.4,1,0.5s0.8,0.2,1.2,0.2c0.4,0,0.8-0.1,1.1-0.3c0.3-0.2,0.4-0.4,0.4-0.7
		c0-0.6-0.5-0.9-1.4-0.9H87v-1.2l1.6-1.8h-3.3v-1.4h5.4v1.2L88.9,188.6z M94,186.9v2h3.6v1.4H94v2.8h-1.8v-7.7H98v1.4h-4V186.9z
		 M24.2,198.8c0.7,0,1.3,0.1,1.8,0.3s0.9,0.6,1.2,1s0.4,0.9,0.4,1.5s-0.1,1.1-0.4,1.5s-0.7,0.7-1.2,1c-0.5,0.2-1.1,0.3-1.8,0.3h-1.6
		v2.1h-1.8v-7.7L24.2,198.8L24.2,198.8z M24.1,202.9c0.5,0,0.9-0.1,1.2-0.3c0.3-0.2,0.4-0.6,0.4-1s-0.1-0.8-0.4-1s-0.7-0.4-1.2-0.4
		h-1.5v2.7H24.1z M31,200.5c0.9,0,1.6,0.2,2.1,0.7c0.5,0.4,0.7,1.1,0.7,2v3.4h-1.6v-0.7c-0.3,0.6-0.9,0.8-1.8,0.8
		c-0.5,0-0.9-0.1-1.2-0.2c-0.3-0.2-0.6-0.4-0.8-0.6c-0.2-0.3-0.3-0.6-0.3-0.9c0-0.6,0.2-1,0.6-1.3s1.1-0.5,1.9-0.5H32
		c0-0.4-0.1-0.7-0.3-0.9c-0.2-0.2-0.6-0.3-1-0.3c-0.3,0-0.6,0.1-0.9,0.2c-0.3,0.1-0.6,0.2-0.8,0.4l-0.6-1.2c0.3-0.2,0.7-0.4,1.2-0.5
		C30.1,200.6,30.6,200.5,31,200.5z M30.9,205.5c0.3,0,0.6-0.1,0.8-0.2c0.2-0.1,0.4-0.3,0.5-0.6V204H31c-0.7,0-1.1,0.2-1.1,0.7
		c0,0.2,0.1,0.4,0.3,0.5C30.4,205.4,30.6,205.5,30.9,205.5z M39,200.5c0.7,0,1.3,0.2,1.8,0.7c0.5,0.4,0.7,1.1,0.7,2v3.4h-1.7v-3.1
		c0-0.5-0.1-0.8-0.3-1s-0.5-0.4-0.9-0.4s-0.8,0.1-1,0.4c-0.3,0.3-0.4,0.7-0.4,1.2v2.9h-1.7v-5.9h1.6v0.7c0.2-0.2,0.5-0.4,0.8-0.6
		C38.3,200.6,38.6,200.5,39,200.5z M46.9,206.2c-0.2,0.1-0.4,0.2-0.6,0.3c-0.2,0.1-0.5,0.1-0.8,0.1c-0.7,0-1.3-0.2-1.6-0.5
		c-0.4-0.4-0.6-0.9-0.6-1.6v-2.4h-0.9v-1.3h0.9v-1.4H45v1.4h1.5v1.3H45v2.4c0,0.2,0.1,0.4,0.2,0.6c0.1,0.1,0.3,0.2,0.6,0.2
		s0.5-0.1,0.7-0.2L46.9,206.2z M50.5,206.6c-0.6,0-1.2-0.1-1.7-0.4c-0.5-0.3-0.9-0.6-1.2-1.1s-0.4-1-0.4-1.6s0.1-1.1,0.4-1.6
		c0.3-0.5,0.7-0.8,1.2-1.1s1.1-0.4,1.7-0.4s1.2,0.1,1.7,0.4c0.5,0.3,0.9,0.6,1.2,1.1s0.4,1,0.4,1.6s-0.1,1.1-0.4,1.6
		c-0.3,0.5-0.7,0.8-1.2,1.1C51.6,206.5,51.1,206.6,50.5,206.6z M50.5,205.2c0.4,0,0.8-0.1,1.1-0.4c0.3-0.3,0.4-0.7,0.4-1.2
		s-0.1-0.9-0.4-1.2c-0.3-0.3-0.6-0.5-1.1-0.5s-0.8,0.2-1.1,0.5s-0.4,0.7-0.4,1.2s0.1,0.9,0.4,1.2C49.7,205.1,50,205.2,50.5,205.2z
		 M58.5,200.5c0.7,0,1.3,0.2,1.8,0.7c0.5,0.4,0.7,1.1,0.7,2v3.4h-1.7v-3.1c0-0.5-0.1-0.8-0.3-1s-0.5-0.4-0.9-0.4s-0.8,0.1-1,0.4
		c-0.3,0.3-0.4,0.7-0.4,1.2v2.9H55v-5.9h1.6v0.7c0.2-0.2,0.5-0.4,0.8-0.6C57.7,200.6,58.1,200.5,58.5,200.5z M68.3,203.6
		c0,0,0,0.2,0,0.5h-4.5c0.1,0.4,0.3,0.7,0.6,0.9c0.3,0.2,0.7,0.3,1.1,0.3c0.3,0,0.6,0,0.8-0.1c0.2-0.1,0.5-0.2,0.7-0.4l0.9,1
		c-0.6,0.6-1.4,1-2.4,1c-0.7,0-1.3-0.1-1.8-0.4c-0.5-0.3-0.9-0.6-1.2-1.1s-0.4-1-0.4-1.6s0.1-1.1,0.4-1.6c0.3-0.5,0.7-0.8,1.1-1.1
		c0.5-0.3,1-0.4,1.6-0.4s1.1,0.1,1.6,0.4c0.5,0.2,0.8,0.6,1.1,1.1C68.2,202.4,68.3,203,68.3,203.6z M65.3,201.8
		c-0.4,0-0.7,0.1-1,0.3s-0.4,0.5-0.5,0.9h2.9c-0.1-0.4-0.2-0.7-0.5-0.9C66,201.9,65.6,201.8,65.3,201.8z M76.1,198.8
		c0.7,0,1.3,0.1,1.8,0.3s0.9,0.6,1.2,1c0.3,0.4,0.4,0.9,0.4,1.5s-0.1,1.1-0.4,1.5s-0.7,0.7-1.2,1c-0.5,0.2-1.1,0.3-1.8,0.3h-1.6v2.1
		h-1.8v-7.7L76.1,198.8L76.1,198.8z M76,202.9c0.5,0,0.9-0.1,1.2-0.3c0.3-0.2,0.4-0.6,0.4-1s-0.1-0.8-0.4-1s-0.7-0.4-1.2-0.4h-1.5
		v2.7H76z M86.4,198.8v7.7h-1.8v-6.3h-1.5v-1.4H86.4z M93.8,198.8v1.2l-2.9,6.6H89l2.8-6.3h-2.6v1.3h-1.6v-2.7h6.2V198.8z
		 M97.3,198.7c1.1,0,1.9,0.3,2.5,1s0.9,1.6,0.9,2.8c0,0.9-0.2,1.6-0.5,2.2c-0.3,0.6-0.8,1.1-1.4,1.4c-0.6,0.3-1.3,0.5-2.1,0.5
		c-0.4,0-0.8,0-1.2-0.1c-0.4-0.1-0.7-0.2-1-0.4l0.7-1.3c0.4,0.3,0.9,0.4,1.4,0.4c0.7,0,1.2-0.2,1.6-0.6c0.4-0.4,0.6-0.9,0.6-1.7
		c-0.5,0.5-1.1,0.7-1.9,0.7c-0.5,0-0.9-0.1-1.3-0.3s-0.7-0.5-1-0.8c-0.2-0.4-0.4-0.8-0.4-1.3s0.1-1,0.4-1.4s0.6-0.7,1-0.9
		C96.2,198.8,96.7,198.7,97.3,198.7z M97.4,202.3c0.4,0,0.7-0.1,0.9-0.3c0.2-0.2,0.4-0.5,0.4-0.8s-0.1-0.6-0.4-0.8
		c-0.2-0.2-0.6-0.3-1-0.3s-0.7,0.1-0.9,0.3c-0.2,0.2-0.4,0.5-0.4,0.8c0,0.4,0.1,0.6,0.4,0.8C96.7,202.2,97,202.3,97.4,202.3z
		 M101.8,202.7h3.1v1.4h-3.1V202.7z M108.6,198.8v7.7h-1.8v-6.3h-1.5v-1.4H108.6z M117,204.9h-1.3v1.6H114v-1.6h-4.2v-1.2l3.6-4.9
		h1.9l-3.4,4.6h2.1V202h1.7v1.4h1.3V204.9z M121.4,206.7c-1.1,0-2-0.3-2.6-0.9c-0.6-0.6-0.9-1.5-0.9-2.6v-4.3h1.8v4.2
		c0,1.4,0.6,2.1,1.7,2.1c0.6,0,1-0.2,1.3-0.5s0.4-0.9,0.4-1.6v-4.2h1.8v4.3c0,1.1-0.3,2-0.9,2.6
		C123.4,206.4,122.5,206.7,121.4,206.7z"/>
</g>
<g>
	<path class="st1" d="M239,31.8l-1.1-1.1l-1.1,1.1c-0.4,0.4-4.1,4.1-4.1,7.6c0,2.8,2.3,5.2,5.2,5.2s5.2-2.3,5.2-5.2
		C243.1,35.9,239.5,32.2,239,31.8z"/>
	<path class="st4" d="M237.9,42.9c2,0,3.6-1.6,3.6-3.6s-1.6-3.6-3.6-3.6s-3.6,1.6-3.6,3.6C234.3,41.3,235.9,42.9,237.9,42.9z"/>
</g>
<g>
	<path class="st1" d="M404.5,31.8l-1.1-1.1l-1.1,1.1c-0.4,0.4-4.1,4.1-4.1,7.6c0,2.8,2.3,5.2,5.2,5.2c2.9,0,5.2-2.3,5.2-5.2
		C408.6,35.9,404.9,32.2,404.5,31.8z"/>
	<path class="st5" d="M403.4,42.9c2,0,3.6-1.6,3.6-3.6s-1.6-3.6-3.6-3.6s-3.6,1.6-3.6,3.6C399.8,41.3,401.5,42.9,403.4,42.9z"/>
</g>
</svg>
