<?xml version="1.0" encoding="utf-8"?>
<!-- Generator: Adobe Illustrator 26.3.1, SVG Export Plug-In . SVG Version: 6.00 Build 0)  -->
<svg version="1.1" id="Layer_2_00000089572816938448683180000000112340057354868914_"
	 xmlns="http://www.w3.org/2000/svg" xmlns:xlink="http://www.w3.org/1999/xlink" x="0px" y="0px" viewBox="0 0 595.3 220.8"
	 style="enable-background:new 0 0 595.3 220.8;" xml:space="preserve">
<style type="text/css">
	.st0{fill:url(#SVGID_1_);}
	.st1{fill:#B2B2B2;}
	.st2{fill:#009280;}
	.st3{fill:#00667E;}
	.st4{fill:#004169;}
	.st5{fill:#B4D6A3;}
	.st6{fill:url(#SVGID_00000076605828925292875110000010119846974593222528_);}
	.st7{fill:#FFFFFF;}
</style>
<g>
	
		<linearGradient id="SVGID_1_" gradientUnits="userSpaceOnUse" x1="13.0146" y1="1638.3798" x2="595.3367" y2="1638.3798" gradientTransform="matrix(1 0 0 1 -8.36 -1498.0797)">
		<stop  offset="1.433450e-02" style="stop-color:#003C5C"/>
		<stop  offset="0.33" style="stop-color:#00667E"/>
		<stop  offset="0.7" style="stop-color:#009280"/>
		<stop  offset="1" style="stop-color:#B4D6A3"/>
	</linearGradient>
	<path class="st0" d="M594.8,59.8H-0.4v161h595.3V59.8z"/>
</g>
<g>
	<path class="st1" d="M396.4,31.7l-1.1-1.1l-1.1,1.1c-0.4,0.4-4.1,4.1-4.1,7.6c0,2.8,2.3,5.2,5.2,5.2c2.9,0,5.2-2.3,5.2-5.2
		C400.5,35.8,396.8,32.1,396.4,31.7z"/>
	<path class="st2" d="M395.3,42.9c2,0,3.6-1.6,3.6-3.6s-1.6-3.6-3.6-3.6s-3.6,1.6-3.6,3.6C391.7,41.3,393.3,42.9,395.3,42.9z"/>
</g>
<g>
	<path class="st1" d="M198.5,31.7l-1.1-1.1l-1.1,1.1c-0.4,0.4-4.1,4.1-4.1,7.6c0,2.8,2.3,5.2,5.2,5.2s5.2-2.3,5.2-5.2
		C202.6,35.8,199,32.1,198.5,31.7z"/>
	<path class="st3" d="M197.4,42.9c2,0,3.6-1.6,3.6-3.6s-1.6-3.6-3.6-3.6s-3.6,1.6-3.6,3.6C193.8,41.3,195.4,42.9,197.4,42.9z"/>
</g>
<g>
	<path class="st1" d="M6.3,31.8l-1.1-1.1l-1.1,1.1C3.6,32.2,0,35.9,0,39.3c0,2.9,2.3,5.2,5.2,5.2s5.2-2.3,5.2-5.2
		C10.3,35.9,6.7,32.2,6.3,31.8z"/>
	<path class="st4" d="M5.2,42.9c2,0,3.6-1.6,3.6-3.6s-1.6-3.6-3.6-3.6s-3.6,1.6-3.6,3.6C1.6,41.3,3.2,42.9,5.2,42.9z"/>
</g>
<g>
	<path class="st1" d="M591.2,31.7l-1.1-1.1l-1.1,1.1c-0.4,0.4-4.1,4.1-4.1,7.6c0,2.8,2.3,5.2,5.2,5.2s5.2-2.3,5.2-5.2
		C595.3,35.8,591.6,32.1,591.2,31.7z"/>
	<path class="st5" d="M590.1,42.9c2,0,3.6-1.6,3.6-3.6s-1.6-3.6-3.6-3.6s-3.6,1.6-3.6,3.6C586.5,41.3,588.1,42.9,590.1,42.9z"/>
</g>
<g>
	<path class="st2" d="M446.4,59.8H297.2v161h149.2L446.4,59.8L446.4,59.8z"/>
</g>
<g>
	<path class="st3" d="M297.2,59.8H148.7v161h148.4v-161H297.2z"/>
</g>
<g>
	<path class="st4" d="M148.7,59.8H-0.5v161h149.2V59.8z"/>
</g>
<g>
	
		<linearGradient id="SVGID_00000098215097380906542150000018311949641915249582_" gradientUnits="userSpaceOnUse" x1="13.4646" y1="1513.3798" x2="595.7867" y2="1513.3798" gradientTransform="matrix(1 0 0 1 -8.36 -1498.0797)">
		<stop  offset="1.433450e-02" style="stop-color:#003C5C"/>
		<stop  offset="0.33" style="stop-color:#00667E"/>
		<stop  offset="0.7" style="stop-color:#009280"/>
		<stop  offset="1" style="stop-color:#B4D6A3"/>
	</linearGradient>
	<path style="fill:url(#SVGID_00000098215097380906542150000018311949641915249582_);" d="M595.3,0H0v30.6h595.3V0z"/>
</g>
<g>
	<path class="st5" d="M594.8,59.8H446.4v161h148.4V59.8z"/>
</g>
<g>
	<path class="st7" d="M474.8,179.9c-0.8,0-1.5-0.2-2.1-0.5s-1.1-0.8-1.5-1.4c-0.4-0.6-0.5-1.3-0.5-2.1s0.2-1.4,0.5-2
		c0.4-0.6,0.9-1.1,1.5-1.4c0.6-0.3,1.4-0.5,2.1-0.5s1.3,0.1,1.8,0.4c0.5,0.2,1,0.6,1.4,1l-1.1,1.1c-0.5-0.6-1.2-0.9-1.9-0.9
		c-0.5,0-0.9,0.1-1.3,0.3s-0.7,0.5-0.9,0.9c-0.2,0.4-0.3,0.8-0.3,1.3s0.1,0.9,0.3,1.3c0.2,0.4,0.5,0.7,0.9,0.9s0.8,0.3,1.3,0.3
		c0.8,0,1.4-0.3,1.9-0.9l1.1,1.1c-0.4,0.4-0.8,0.8-1.4,1C476,179.8,475.4,179.9,474.8,179.9z M479.6,176c-0.3,0-0.6-0.1-0.8-0.3
		s-0.3-0.5-0.3-0.8s0.1-0.6,0.3-0.8c0.2-0.2,0.5-0.3,0.8-0.3s0.6,0.1,0.8,0.3c0.2,0.2,0.3,0.4,0.3,0.8c0,0.3-0.1,0.6-0.3,0.8
		C480.1,175.8,479.9,176,479.6,176z M479.6,179.9c-0.3,0-0.6-0.1-0.8-0.3s-0.3-0.5-0.3-0.8s0.1-0.6,0.3-0.8c0.2-0.2,0.5-0.3,0.8-0.3
		s0.6,0.1,0.8,0.3c0.2,0.2,0.3,0.4,0.3,0.8c0,0.3-0.1,0.6-0.3,0.8C480.1,179.8,479.9,179.9,479.6,179.9z M485.1,175.2
		c0.7,0.1,1.2,0.4,1.6,0.8c0.4,0.4,0.5,0.9,0.5,1.5c0,0.4-0.1,0.9-0.4,1.2c-0.2,0.4-0.6,0.7-1.1,0.9s-1.1,0.3-1.8,0.3
		c-0.5,0-1.1-0.1-1.6-0.2c-0.5-0.1-1-0.4-1.3-0.6l0.7-1.4c0.3,0.2,0.6,0.4,1,0.5s0.8,0.2,1.2,0.2c0.4,0,0.8-0.1,1.1-0.3
		c0.3-0.2,0.4-0.4,0.4-0.7c0-0.6-0.5-0.9-1.4-0.9h-0.8v-1.2l1.6-1.8h-3.3v-1.4h5.4v1.2L485.1,175.2z M491.7,175
		c0.5,0,0.9,0.1,1.3,0.3s0.7,0.5,1,0.8c0.2,0.4,0.4,0.8,0.4,1.3s-0.1,1-0.4,1.4s-0.6,0.7-1.1,0.9c-0.4,0.2-0.9,0.3-1.5,0.3
		c-1.1,0-1.9-0.3-2.5-1s-0.9-1.6-0.9-2.8c0-0.9,0.2-1.6,0.5-2.2c0.3-0.6,0.8-1.1,1.4-1.4c0.6-0.3,1.3-0.5,2.1-0.5
		c0.4,0,0.8,0,1.2,0.1c0.4,0.1,0.7,0.2,1,0.4l-0.7,1.3c-0.4-0.3-0.9-0.4-1.4-0.4c-0.7,0-1.2,0.2-1.6,0.6c-0.4,0.4-0.6,0.9-0.6,1.7
		C490.2,175.2,490.9,175,491.7,175z M491.3,178.6c0.4,0,0.7-0.1,0.9-0.3c0.2-0.2,0.4-0.5,0.4-0.8c0-0.4-0.1-0.6-0.4-0.8
		c-0.2-0.2-0.5-0.3-0.9-0.3s-0.7,0.1-1,0.3c-0.2,0.2-0.4,0.5-0.4,0.8s0.1,0.6,0.4,0.8C490.6,178.5,490.9,178.6,491.3,178.6z
		 M505.6,179.8v-4.6l-2.3,3.8h-0.8l-2.3-3.7v4.5h-1.7v-7.7h1.5l2.9,4.8l2.8-4.8h1.5v7.7H505.6z M509.6,176c-0.3,0-0.6-0.1-0.8-0.3
		c-0.2-0.2-0.3-0.5-0.3-0.8s0.1-0.6,0.3-0.8c0.2-0.2,0.5-0.3,0.8-0.3s0.6,0.1,0.8,0.3c0.2,0.2,0.3,0.4,0.3,0.8
		c0,0.3-0.1,0.6-0.3,0.8C510.1,175.8,509.9,176,509.6,176z M509.6,179.9c-0.3,0-0.6-0.1-0.8-0.3c-0.2-0.2-0.3-0.5-0.3-0.8
		s0.1-0.6,0.3-0.8c0.2-0.2,0.5-0.3,0.8-0.3s0.6,0.1,0.8,0.3c0.2,0.2,0.3,0.4,0.3,0.8c0,0.3-0.1,0.6-0.3,0.8
		C510.1,179.8,509.9,179.9,509.6,179.9z M514.8,179.9c-0.6,0-1.2-0.2-1.7-0.5s-0.9-0.8-1.2-1.4c-0.3-0.6-0.4-1.3-0.4-2.1
		s0.1-1.5,0.4-2.1s0.7-1.1,1.2-1.4c0.5-0.3,1.1-0.5,1.7-0.5s1.2,0.2,1.7,0.5s0.9,0.8,1.2,1.4c0.3,0.6,0.4,1.3,0.4,2.1
		s-0.1,1.5-0.4,2.1c-0.3,0.6-0.7,1-1.2,1.4C516,179.8,515.4,179.9,514.8,179.9z M514.8,178.4c0.5,0,0.8-0.2,1.1-0.6
		c0.3-0.4,0.4-1,0.4-1.9c0-0.8-0.1-1.5-0.4-1.9c-0.3-0.4-0.6-0.6-1.1-0.6s-0.8,0.2-1.1,0.6c-0.3,0.4-0.4,1-0.4,1.9
		c0,0.8,0.1,1.5,0.4,1.9C513.9,178.2,514.3,178.4,514.8,178.4z M526.2,177.1v2.7h-1.8v-2.7l-3-4.9h1.9l2.1,3.4l2.1-3.4h1.7
		L526.2,177.1z M530.1,176c-0.3,0-0.6-0.1-0.8-0.3s-0.3-0.5-0.3-0.8s0.1-0.6,0.3-0.8s0.5-0.3,0.8-0.3s0.6,0.1,0.8,0.3
		s0.3,0.4,0.3,0.8c0,0.3-0.1,0.6-0.3,0.8S530.4,176,530.1,176z M530.1,179.9c-0.3,0-0.6-0.1-0.8-0.3s-0.3-0.5-0.3-0.8
		s0.1-0.6,0.3-0.8s0.5-0.3,0.8-0.3s0.6,0.1,0.8,0.3s0.3,0.4,0.3,0.8c0,0.3-0.1,0.6-0.3,0.8S530.4,179.9,530.1,179.9z M539,178.2
		h-1.3v1.6H536v-1.6h-4.1V177l3.6-4.9h1.9l-3.4,4.6h2.1v-1.4h1.7v1.4h1.3L539,178.2L539,178.2z M543.2,175c0.5,0,0.9,0.1,1.3,0.3
		c0.4,0.2,0.7,0.5,1,0.8c0.2,0.4,0.4,0.8,0.4,1.3s-0.1,1-0.4,1.4s-0.6,0.7-1.1,0.9c-0.4,0.2-0.9,0.3-1.5,0.3c-1.1,0-1.9-0.3-2.5-1
		s-0.9-1.6-0.9-2.8c0-0.9,0.2-1.6,0.5-2.2c0.3-0.6,0.8-1.1,1.4-1.4c0.6-0.3,1.3-0.5,2.1-0.5c0.4,0,0.8,0,1.2,0.1s0.7,0.2,1,0.4
		l-0.7,1.3c-0.4-0.3-0.9-0.4-1.4-0.4c-0.7,0-1.2,0.2-1.6,0.6c-0.4,0.4-0.6,0.9-0.6,1.7C541.8,175.2,542.4,175,543.2,175z
		 M542.8,178.6c0.4,0,0.7-0.1,0.9-0.3s0.4-0.5,0.4-0.8c0-0.4-0.1-0.6-0.4-0.8c-0.2-0.2-0.5-0.3-0.9-0.3s-0.7,0.1-1,0.3
		c-0.2,0.2-0.4,0.5-0.4,0.8s0.1,0.6,0.4,0.8C542.1,178.5,542.4,178.6,542.8,178.6z M552.9,176.8l-1,1.1v1.9h-1.8v-7.7h1.8v3.6
		l3.4-3.6h2l-3.2,3.4l3.4,4.3h-2.1L552.9,176.8z M558.8,176c-0.3,0-0.6-0.1-0.8-0.3s-0.3-0.5-0.3-0.8s0.1-0.6,0.3-0.8
		s0.5-0.3,0.8-0.3s0.6,0.1,0.8,0.3s0.3,0.4,0.3,0.8c0,0.3-0.1,0.6-0.3,0.8C559.3,175.8,559.1,176,558.8,176z M558.8,179.9
		c-0.3,0-0.6-0.1-0.8-0.3s-0.3-0.5-0.3-0.8s0.1-0.6,0.3-0.8s0.5-0.3,0.8-0.3s0.6,0.1,0.8,0.3s0.3,0.4,0.3,0.8c0,0.3-0.1,0.6-0.3,0.8
		C559.3,179.8,559.1,179.9,558.8,179.9z M563.9,179.9c-0.6,0-1.2-0.2-1.7-0.5s-0.9-0.8-1.2-1.4c-0.3-0.6-0.4-1.3-0.4-2.1
		s0.1-1.5,0.4-2.1c0.3-0.6,0.7-1.1,1.2-1.4c0.5-0.3,1.1-0.5,1.7-0.5s1.2,0.2,1.7,0.5s0.9,0.8,1.2,1.4c0.3,0.6,0.4,1.3,0.4,2.1
		s-0.1,1.5-0.4,2.1c-0.3,0.6-0.7,1-1.2,1.4C565.1,179.8,564.6,179.9,563.9,179.9z M563.9,178.4c0.5,0,0.8-0.2,1.1-0.6
		c0.3-0.4,0.4-1,0.4-1.9c0-0.8-0.1-1.5-0.4-1.9c-0.3-0.4-0.6-0.6-1.1-0.6s-0.8,0.2-1.1,0.6c-0.3,0.4-0.4,1-0.4,1.9
		c0,0.8,0.1,1.5,0.4,1.9C563.1,178.2,563.5,178.4,563.9,178.4z M482.7,185.5l-2.5,7.7h-1.9l-1.7-5.2l-1.7,5.2H473l-2.5-7.7h1.8
		l1.7,5.4l1.8-5.4h1.6l1.8,5.5l1.8-5.5H482.7z M488.9,190.2c0,0,0,0.2,0,0.5h-4.5c0.1,0.4,0.3,0.7,0.6,0.9c0.3,0.2,0.7,0.3,1.1,0.3
		c0.3,0,0.6,0,0.8-0.1c0.2-0.1,0.5-0.2,0.7-0.4l0.9,1c-0.6,0.6-1.4,1-2.4,1c-0.7,0-1.3-0.1-1.8-0.4c-0.5-0.3-0.9-0.6-1.2-1.1
		c-0.3-0.5-0.4-1-0.4-1.6s0.1-1.1,0.4-1.6s0.7-0.8,1.1-1.1c0.5-0.3,1-0.4,1.6-0.4s1.1,0.1,1.6,0.4c0.5,0.2,0.8,0.6,1.1,1.1
		C488.8,189.1,488.9,189.6,488.9,190.2z M485.9,188.5c-0.4,0-0.7,0.1-1,0.3s-0.4,0.5-0.5,0.9h2.9c-0.1-0.4-0.2-0.7-0.5-0.9
		C486.6,188.6,486.3,188.5,485.9,188.5z M493.6,187.2c0.5,0,1,0.1,1.5,0.4c0.5,0.2,0.8,0.6,1.1,1.1c0.3,0.5,0.4,1,0.4,1.6
		s-0.1,1.1-0.4,1.6s-0.6,0.8-1.1,1.1c-0.4,0.2-0.9,0.4-1.5,0.4c-0.8,0-1.4-0.3-1.9-0.8v0.7h-1.6V185h1.7v2.9
		C492.2,187.4,492.8,187.2,493.6,187.2z M493.3,191.8c0.4,0,0.8-0.1,1.1-0.4c0.3-0.3,0.4-0.7,0.4-1.2s-0.1-0.9-0.4-1.2
		s-0.6-0.5-1.1-0.5s-0.8,0.2-1.1,0.5c-0.3,0.3-0.4,0.7-0.4,1.2s0.1,0.9,0.4,1.2C492.5,191.7,492.9,191.8,493.3,191.8z M505.9,190.2
		h1.4v1.2h-1.6l-0.2,1.8h-1.2l0.2-1.8h-1.6l-0.2,1.8h-1.2l0.2-1.8h-1.4v-1.2h1.6l0.2-1.8h-1.4v-1.2h1.6l0.2-1.8h1.2l-0.2,1.8h1.6
		l0.2-1.8h1.2l-0.2,1.8h1.4v1.2h-1.6L505.9,190.2z M504.7,190.2l0.2-1.8h-1.6l-0.2,1.8H504.7z M514.5,189.2c0.4,0.1,0.8,0.4,1,0.7
		s0.4,0.7,0.4,1.2c0,0.7-0.3,1.2-0.8,1.6c-0.5,0.4-1.3,0.5-2.3,0.5h-4v-7.7h3.8c0.9,0,1.7,0.2,2.2,0.5c0.5,0.4,0.8,0.8,0.8,1.5
		c0,0.4-0.1,0.7-0.3,1C515.1,188.8,514.8,189,514.5,189.2z M510.6,186.8v1.8h1.8c0.4,0,0.8-0.1,1-0.2s0.3-0.4,0.3-0.7
		s-0.1-0.5-0.3-0.7s-0.6-0.2-1-0.2L510.6,186.8L510.6,186.8z M512.7,191.8c0.5,0,0.8-0.1,1.1-0.2c0.2-0.2,0.4-0.4,0.4-0.7
		c0-0.6-0.5-1-1.4-1h-2.1v1.9H512.7z M523.8,191.5h-1.3v1.6h-1.7v-1.6h-4.1v-1.2l3.6-4.9h1.9l-3.4,4.6h2.1v-1.4h1.7v1.4h1.3
		L523.8,191.5L523.8,191.5z M524.8,185.5h3.5c0.8,0,1.6,0.2,2.2,0.5c0.6,0.3,1.1,0.8,1.5,1.3c0.4,0.6,0.5,1.3,0.5,2s-0.2,1.4-0.5,2
		c-0.4,0.6-0.9,1-1.5,1.4c-0.6,0.3-1.4,0.5-2.2,0.5h-3.5V185.5z M528.2,191.7c0.8,0,1.4-0.2,1.8-0.6c0.5-0.4,0.7-1,0.7-1.7
		s-0.2-1.3-0.7-1.7s-1.1-0.6-1.8-0.6h-1.6v4.8h1.6V191.7z M537.1,188.3c0.5,0,0.9,0.1,1.3,0.3c0.4,0.2,0.7,0.5,1,0.8
		c0.2,0.4,0.4,0.8,0.4,1.3s-0.1,1-0.4,1.4c-0.3,0.4-0.6,0.7-1.1,0.9c-0.4,0.2-0.9,0.3-1.5,0.3c-1.1,0-1.9-0.3-2.5-1
		s-0.9-1.6-0.9-2.8c0-0.9,0.2-1.6,0.5-2.2s0.8-1.1,1.4-1.4c0.6-0.3,1.3-0.5,2.1-0.5c0.4,0,0.8,0,1.2,0.1s0.7,0.2,1,0.4l-0.7,1.3
		c-0.4-0.3-0.9-0.4-1.4-0.4c-0.7,0-1.2,0.2-1.6,0.6s-0.6,0.9-0.6,1.7C535.7,188.6,536.3,188.3,537.1,188.3z M536.8,192
		c0.4,0,0.7-0.1,0.9-0.3s0.4-0.5,0.4-0.8s-0.1-0.6-0.4-0.8c-0.2-0.2-0.5-0.3-0.9-0.3s-0.7,0.1-1,0.3c-0.2,0.2-0.4,0.5-0.4,0.8
		s0.1,0.6,0.4,0.8C536,191.9,536.3,192,536.8,192z M546,191.5h-3.6l-0.7,1.6h-1.8l3.4-7.7h1.8l3.4,7.7h-1.9L546,191.5z M545.5,190.2
		l-1.2-2.9l-1.2,2.9H545.5z M552.6,188.6c0.7,0.1,1.2,0.4,1.6,0.8c0.4,0.4,0.5,0.9,0.5,1.5c0,0.4-0.1,0.9-0.4,1.2
		c-0.2,0.4-0.6,0.7-1.1,0.9s-1.1,0.3-1.8,0.3c-0.5,0-1.1-0.1-1.6-0.2c-0.5-0.1-1-0.4-1.3-0.6l0.7-1.4c0.3,0.2,0.6,0.4,1,0.5
		s0.8,0.2,1.2,0.2s0.8-0.1,1.1-0.3s0.4-0.4,0.4-0.7c0-0.6-0.5-0.9-1.4-0.9h-0.8v-1.2l1.6-1.8H549v-1.4h5.4v1.2L552.6,188.6z
		 M474.4,198.8c0.7,0,1.3,0.1,1.8,0.3s0.9,0.5,1.2,1c0.3,0.4,0.4,0.9,0.4,1.5s-0.1,1.1-0.4,1.5s-0.7,0.7-1.2,1
		c-0.5,0.2-1.1,0.3-1.8,0.3h-1.6v2.1H471v-7.7L474.4,198.8L474.4,198.8z M474.3,202.9c0.5,0,0.9-0.1,1.2-0.3c0.3-0.2,0.4-0.6,0.4-1
		s-0.1-0.8-0.4-1s-0.7-0.4-1.2-0.4h-1.5v2.7H474.3z M481.2,200.5c0.9,0,1.6,0.2,2.1,0.7c0.5,0.4,0.7,1.1,0.7,2v3.4h-1.6v-0.7
		c-0.3,0.5-0.9,0.8-1.8,0.8c-0.5,0-0.9-0.1-1.2-0.2c-0.3-0.2-0.6-0.4-0.8-0.6c-0.2-0.3-0.3-0.6-0.3-0.9c0-0.5,0.2-1,0.6-1.3
		s1.1-0.5,1.9-0.5h1.4c0-0.4-0.1-0.7-0.3-0.9c-0.2-0.2-0.6-0.3-1-0.3c-0.3,0-0.6,0.1-0.9,0.2c-0.3,0.1-0.6,0.2-0.8,0.4l-0.6-1.2
		c0.3-0.2,0.7-0.4,1.2-0.5C480.3,200.6,480.8,200.5,481.2,200.5z M481.1,205.4c0.3,0,0.6-0.1,0.8-0.2c0.2-0.1,0.4-0.3,0.5-0.6V204
		h-1.2c-0.7,0-1.1,0.2-1.1,0.7c0,0.2,0.1,0.4,0.3,0.5C480.6,205.4,480.8,205.4,481.1,205.4z M489.2,200.5c0.7,0,1.3,0.2,1.8,0.7
		c0.5,0.4,0.7,1.1,0.7,2v3.4H490v-3.1c0-0.5-0.1-0.8-0.3-1c-0.2-0.2-0.5-0.4-0.9-0.4s-0.8,0.1-1,0.4c-0.3,0.3-0.4,0.7-0.4,1.2v2.9
		h-1.7v-5.9h1.6v0.7c0.2-0.2,0.5-0.4,0.8-0.6C488.5,200.6,488.8,200.5,489.2,200.5z M497.1,206.2c-0.2,0.1-0.4,0.2-0.6,0.3
		s-0.5,0.1-0.8,0.1c-0.7,0-1.2-0.2-1.6-0.5c-0.4-0.4-0.6-0.9-0.6-1.6V202h-0.9v-1.3h0.9v-1.4h1.7v1.4h1.5v1.3h-1.5v2.4
		c0,0.2,0.1,0.4,0.2,0.6c0.1,0.1,0.3,0.2,0.5,0.2c0.3,0,0.5-0.1,0.7-0.2L497.1,206.2z M500.7,206.6c-0.6,0-1.2-0.1-1.7-0.4
		c-0.5-0.3-0.9-0.6-1.2-1.1s-0.4-1-0.4-1.6s0.1-1.1,0.4-1.6s0.7-0.8,1.2-1.1s1.1-0.4,1.7-0.4s1.2,0.1,1.7,0.4
		c0.5,0.3,0.9,0.6,1.2,1.1s0.4,1,0.4,1.6s-0.1,1.1-0.4,1.6s-0.7,0.8-1.2,1.1C501.8,206.5,501.3,206.6,500.7,206.6z M500.7,205.2
		c0.4,0,0.8-0.1,1.1-0.4c0.3-0.3,0.4-0.7,0.4-1.2s-0.1-0.9-0.4-1.2s-0.6-0.5-1.1-0.5s-0.8,0.2-1.1,0.5c-0.3,0.3-0.4,0.7-0.4,1.2
		s0.1,0.9,0.4,1.2C499.9,205,500.2,205.2,500.7,205.2z M508.6,200.5c0.7,0,1.3,0.2,1.8,0.7c0.5,0.4,0.7,1.1,0.7,2v3.4h-1.7v-3.1
		c0-0.5-0.1-0.8-0.3-1c-0.2-0.2-0.5-0.4-0.9-0.4s-0.8,0.1-1,0.4c-0.3,0.3-0.4,0.7-0.4,1.2v2.9H505v-5.9h1.6v0.7
		c0.2-0.2,0.5-0.4,0.8-0.6C507.9,200.6,508.2,200.5,508.6,200.5z M518.5,203.6c0,0,0,0.2,0,0.5H514c0.1,0.4,0.3,0.7,0.6,0.9
		s0.7,0.3,1.1,0.3c0.3,0,0.6,0,0.8-0.1s0.5-0.2,0.7-0.4l0.9,1c-0.6,0.6-1.4,1-2.4,1c-0.7,0-1.3-0.1-1.8-0.4
		c-0.5-0.3-0.9-0.6-1.2-1.1s-0.4-1-0.4-1.6s0.1-1.1,0.4-1.6c0.3-0.5,0.7-0.8,1.1-1.1c0.5-0.3,1-0.4,1.6-0.4s1.1,0.1,1.6,0.4
		c0.5,0.2,0.8,0.6,1.1,1.1C518.4,202.4,518.5,203,518.5,203.6z M515.4,201.8c-0.4,0-0.7,0.1-1,0.3s-0.4,0.5-0.5,0.9h2.9
		c-0.1-0.4-0.2-0.7-0.5-0.9C516.1,201.9,515.8,201.8,515.4,201.8z M526.2,198.8c0.7,0,1.3,0.1,1.8,0.3s0.9,0.5,1.2,1
		c0.3,0.4,0.4,0.9,0.4,1.5s-0.1,1.1-0.4,1.5c-0.3,0.4-0.7,0.7-1.2,1c-0.5,0.2-1.1,0.3-1.8,0.3h-1.6v2.1h-1.8v-7.7L526.2,198.8
		L526.2,198.8z M526.1,202.9c0.5,0,0.9-0.1,1.2-0.3s0.4-0.6,0.4-1s-0.1-0.8-0.4-1c-0.3-0.2-0.7-0.4-1.2-0.4h-1.5v2.7H526.1z
		 M536.5,198.8v7.7h-1.8v-6.3h-1.5v-1.4H536.5z M544.9,204.9h-1.3v1.6h-1.7v-1.6h-4.1v-1.2l3.6-4.9h1.9l-3.4,4.6h2.1V202h1.7v1.4
		h1.3L544.9,204.9L544.9,204.9z M550.8,202.5c0.4,0.2,0.7,0.4,0.9,0.7s0.3,0.7,0.3,1.1c0,0.5-0.1,0.9-0.4,1.3
		c-0.3,0.4-0.7,0.6-1.1,0.8c-0.5,0.2-1.1,0.3-1.7,0.3c-0.6,0-1.2-0.1-1.7-0.3s-0.9-0.5-1.1-0.8c-0.3-0.4-0.4-0.8-0.4-1.3
		c0-0.4,0.1-0.8,0.3-1.1s0.5-0.6,0.9-0.7c-0.3-0.2-0.5-0.4-0.7-0.7s-0.2-0.6-0.2-0.9c0-0.4,0.1-0.8,0.4-1.2c0.2-0.3,0.6-0.6,1-0.8
		s1-0.3,1.5-0.3c0.6,0,1.1,0.1,1.6,0.3s0.8,0.4,1.1,0.8c0.2,0.3,0.4,0.7,0.4,1.2c0,0.3-0.1,0.7-0.2,0.9
		C551.3,202.1,551.1,202.3,550.8,202.5z M548.7,200c-0.4,0-0.6,0.1-0.9,0.3c-0.2,0.2-0.3,0.4-0.3,0.7s0.1,0.5,0.3,0.7
		s0.5,0.3,0.9,0.3s0.7-0.1,0.9-0.3s0.3-0.4,0.3-0.7s-0.1-0.5-0.3-0.7S549.1,200,548.7,200z M548.7,205.3c0.4,0,0.8-0.1,1.1-0.3
		s0.4-0.5,0.4-0.8s-0.1-0.6-0.4-0.8c-0.3-0.2-0.6-0.3-1.1-0.3c-0.4,0-0.8,0.1-1,0.3c-0.3,0.2-0.4,0.5-0.4,0.8s0.1,0.6,0.4,0.8
		C548,205.2,548.3,205.3,548.7,205.3z M553,202.7h3.1v1.4H553V202.7z M560.4,201.9c0.7,0.1,1.2,0.4,1.6,0.8c0.4,0.4,0.5,0.9,0.5,1.5
		c0,0.4-0.1,0.9-0.4,1.2c-0.2,0.4-0.6,0.7-1.1,0.9s-1.1,0.3-1.8,0.3c-0.5,0-1.1-0.1-1.6-0.2c-0.5-0.1-1-0.4-1.3-0.6l0.7-1.4
		c0.3,0.2,0.6,0.4,1,0.5s0.8,0.2,1.2,0.2s0.8-0.1,1.1-0.3s0.4-0.4,0.4-0.7c0-0.6-0.5-0.9-1.4-0.9h-0.8V202l1.6-1.8h-3.3v-1.4h5.4
		v1.2L560.4,201.9z M567.3,206.6c-1.1,0-2-0.3-2.6-0.9c-0.6-0.6-0.9-1.5-0.9-2.6v-4.3h1.8v4.2c0,1.4,0.6,2.1,1.7,2.1
		c0.6,0,1-0.2,1.3-0.5s0.4-0.9,0.4-1.6v-4.2h1.8v4.3c0,1.1-0.3,2-0.9,2.6C569.2,206.3,568.4,206.6,567.3,206.6z"/>
</g>
<g>
	<path class="st7" d="M175.5,179.9c-0.8,0-1.5-0.2-2.1-0.5s-1.1-0.8-1.5-1.4c-0.4-0.6-0.5-1.3-0.5-2.1s0.2-1.4,0.5-2
		c0.4-0.6,0.9-1.1,1.5-1.4c0.6-0.3,1.4-0.5,2.1-0.5c0.7,0,1.3,0.1,1.8,0.4c0.5,0.2,1,0.6,1.4,1l-1.1,1.1c-0.5-0.6-1.2-0.9-1.9-0.9
		c-0.5,0-0.9,0.1-1.3,0.3c-0.4,0.2-0.7,0.5-0.9,0.9s-0.3,0.8-0.3,1.3s0.1,0.9,0.3,1.3c0.2,0.4,0.5,0.7,0.9,0.9s0.8,0.3,1.3,0.3
		c0.8,0,1.4-0.3,1.9-0.9l1.1,1.1c-0.4,0.4-0.8,0.8-1.4,1C176.7,179.8,176.1,179.9,175.5,179.9z M180.3,176c-0.3,0-0.6-0.1-0.8-0.3
		s-0.3-0.5-0.3-0.8s0.1-0.6,0.3-0.8s0.5-0.3,0.8-0.3s0.6,0.1,0.8,0.3s0.3,0.4,0.3,0.8c0,0.3-0.1,0.6-0.3,0.8S180.6,176,180.3,176z
		 M180.3,179.9c-0.3,0-0.6-0.1-0.8-0.3s-0.3-0.5-0.3-0.8s0.1-0.6,0.3-0.8s0.5-0.3,0.8-0.3s0.6,0.1,0.8,0.3s0.3,0.4,0.3,0.8
		c0,0.3-0.1,0.6-0.3,0.8S180.6,179.9,180.3,179.9z M187.4,175.8c0.4,0.2,0.7,0.4,0.9,0.7s0.3,0.7,0.3,1.1c0,0.5-0.1,0.9-0.4,1.3
		c-0.3,0.4-0.7,0.6-1.1,0.8c-0.5,0.2-1.1,0.3-1.7,0.3c-0.6,0-1.2-0.1-1.7-0.3s-0.9-0.5-1.1-0.8c-0.3-0.4-0.4-0.8-0.4-1.3
		c0-0.4,0.1-0.8,0.3-1.1s0.5-0.6,0.9-0.7c-0.3-0.2-0.5-0.4-0.7-0.7s-0.2-0.6-0.2-0.9c0-0.4,0.1-0.8,0.4-1.2c0.2-0.3,0.6-0.6,1-0.8
		s1-0.3,1.5-0.3c0.6,0,1.1,0.1,1.6,0.3s0.8,0.4,1.1,0.8c0.2,0.3,0.4,0.7,0.4,1.2c0,0.3-0.1,0.7-0.2,0.9
		C187.9,175.4,187.7,175.6,187.4,175.8z M185.3,173.3c-0.4,0-0.6,0.1-0.9,0.3c-0.2,0.2-0.3,0.4-0.3,0.7s0.1,0.5,0.3,0.7
		s0.5,0.3,0.9,0.3s0.7-0.1,0.9-0.3s0.3-0.4,0.3-0.7s-0.1-0.5-0.3-0.7C186,173.4,185.7,173.3,185.3,173.3z M185.3,178.6
		c0.4,0,0.8-0.1,1.1-0.3s0.4-0.5,0.4-0.8s-0.1-0.6-0.4-0.8c-0.3-0.2-0.6-0.3-1.1-0.3c-0.4,0-0.8,0.1-1,0.3c-0.3,0.2-0.4,0.5-0.4,0.8
		s0.1,0.6,0.4,0.8C184.6,178.5,184.9,178.6,185.3,178.6z M193.1,175c0.5,0,0.9,0.1,1.3,0.3c0.4,0.2,0.7,0.5,1,0.8
		c0.2,0.4,0.4,0.8,0.4,1.3s-0.1,1-0.4,1.4c-0.3,0.4-0.6,0.7-1.1,0.9c-0.4,0.2-0.9,0.3-1.5,0.3c-1.1,0-1.9-0.3-2.5-1
		s-0.9-1.6-0.9-2.8c0-0.9,0.2-1.6,0.5-2.2c0.3-0.6,0.8-1.1,1.4-1.4c0.6-0.3,1.3-0.5,2.1-0.5c0.4,0,0.8,0,1.2,0.1s0.7,0.2,1,0.4
		l-0.7,1.3c-0.4-0.3-0.9-0.4-1.4-0.4c-0.7,0-1.2,0.2-1.6,0.6c-0.4,0.4-0.6,0.9-0.6,1.7C191.7,175.2,192.3,175,193.1,175z
		 M192.8,178.6c0.4,0,0.7-0.1,0.9-0.3s0.4-0.5,0.4-0.8c0-0.4-0.1-0.6-0.4-0.8c-0.2-0.2-0.5-0.3-0.9-0.3s-0.7,0.1-1,0.3
		c-0.2,0.2-0.4,0.5-0.4,0.8s0.1,0.6,0.4,0.8C192,178.5,192.3,178.6,192.8,178.6z M207,179.8v-4.6l-2.3,3.8h-0.8l-2.3-3.7v4.5H200
		v-7.7h1.5l2.9,4.8l2.8-4.8h1.5v7.7H207z M211,176c-0.3,0-0.6-0.1-0.8-0.3s-0.3-0.5-0.3-0.8s0.1-0.6,0.3-0.8s0.5-0.3,0.8-0.3
		s0.6,0.1,0.8,0.3s0.3,0.4,0.3,0.8c0,0.3-0.1,0.6-0.3,0.8C211.6,175.8,211.3,176,211,176z M211,179.9c-0.3,0-0.6-0.1-0.8-0.3
		s-0.3-0.5-0.3-0.8s0.1-0.6,0.3-0.8s0.5-0.3,0.8-0.3s0.6,0.1,0.8,0.3s0.3,0.4,0.3,0.8c0,0.3-0.1,0.6-0.3,0.8
		C211.6,179.8,211.3,179.9,211,179.9z M216.2,179.9c-0.6,0-1.2-0.2-1.7-0.5s-0.9-0.8-1.2-1.4c-0.3-0.6-0.4-1.3-0.4-2.1
		s0.1-1.5,0.4-2.1c0.3-0.6,0.7-1.1,1.2-1.4c0.5-0.3,1.1-0.5,1.7-0.5c0.6,0,1.2,0.2,1.7,0.5s0.9,0.8,1.2,1.4c0.3,0.6,0.4,1.3,0.4,2.1
		s-0.1,1.5-0.4,2.1c-0.3,0.6-0.7,1-1.2,1.4C217.4,179.8,216.8,179.9,216.2,179.9z M216.2,178.4c0.5,0,0.8-0.2,1.1-0.6
		c0.3-0.4,0.4-1,0.4-1.9c0-0.8-0.1-1.5-0.4-1.9c-0.3-0.4-0.6-0.6-1.1-0.6s-0.8,0.2-1.1,0.6c-0.3,0.4-0.4,1-0.4,1.9
		c0,0.8,0.1,1.5,0.4,1.9C215.4,178.2,215.7,178.4,216.2,178.4z M227.7,177.1v2.7h-1.8v-2.7l-3-4.9h1.9l2.1,3.4l2.1-3.4h1.7
		L227.7,177.1z M231.5,176c-0.3,0-0.6-0.1-0.8-0.3s-0.3-0.5-0.3-0.8s0.1-0.6,0.3-0.8s0.5-0.3,0.8-0.3s0.6,0.1,0.8,0.3
		s0.3,0.4,0.3,0.8c0,0.3-0.1,0.6-0.3,0.8C232.1,175.8,231.8,176,231.5,176z M231.5,179.9c-0.3,0-0.6-0.1-0.8-0.3s-0.3-0.5-0.3-0.8
		s0.1-0.6,0.3-0.8s0.5-0.3,0.8-0.3s0.6,0.1,0.8,0.3s0.3,0.4,0.3,0.8c0,0.3-0.1,0.6-0.3,0.8C232.1,179.8,231.8,179.9,231.5,179.9z
		 M236.3,172.1v7.7h-1.8v-6.3H233v-1.4H236.3z M241.3,175.2c0.7,0.1,1.2,0.4,1.6,0.8c0.4,0.4,0.5,0.9,0.5,1.5c0,0.4-0.1,0.9-0.4,1.2
		c-0.2,0.4-0.6,0.7-1.1,0.9s-1.1,0.3-1.8,0.3c-0.5,0-1.1-0.1-1.6-0.2c-0.5-0.1-1-0.4-1.3-0.6l0.7-1.4c0.3,0.2,0.6,0.4,1,0.5
		s0.8,0.2,1.2,0.2s0.8-0.1,1.1-0.3s0.4-0.4,0.4-0.7c0-0.6-0.5-0.9-1.4-0.9h-0.8v-1.2l1.6-1.8h-3.3v-1.4h5.4v1.2L241.3,175.2z
		 M250.6,176.8l-1,1.1v1.9h-1.8v-7.7h1.8v3.6l3.4-3.6h2l-3.2,3.4l3.4,4.3H253L250.6,176.8z M256.4,176c-0.3,0-0.6-0.1-0.8-0.3
		s-0.3-0.5-0.3-0.8s0.1-0.6,0.3-0.8s0.5-0.3,0.8-0.3c0.3,0,0.6,0.1,0.8,0.3c0.2,0.2,0.3,0.4,0.3,0.8c0,0.3-0.1,0.6-0.3,0.8
		C257,175.8,256.7,176,256.4,176z M256.4,179.9c-0.3,0-0.6-0.1-0.8-0.3s-0.3-0.5-0.3-0.8s0.1-0.6,0.3-0.8s0.5-0.3,0.8-0.3
		c0.3,0,0.6,0.1,0.8,0.3c0.2,0.2,0.3,0.4,0.3,0.8c0,0.3-0.1,0.6-0.3,0.8C257,179.8,256.7,179.9,256.4,179.9z M260.9,175
		c1.1,0,1.9,0.2,2.4,0.6c0.5,0.4,0.8,1,0.8,1.7c0,0.5-0.1,0.9-0.4,1.3c-0.2,0.4-0.6,0.7-1.1,0.9s-1.1,0.3-1.8,0.3
		c-0.5,0-1.1-0.1-1.6-0.2c-0.5-0.1-1-0.4-1.3-0.6l0.7-1.4c0.3,0.2,0.6,0.4,1,0.5s0.8,0.2,1.2,0.2c0.4,0,0.8-0.1,1.1-0.3
		s0.4-0.4,0.4-0.7s-0.1-0.6-0.4-0.7c-0.3-0.2-0.7-0.3-1.4-0.3h-2l0.4-4.3h4.7v1.4h-3.2l-0.1,1.5h0.6V175z M270.5,178.4v1.5h-5.8
		v-1.2l3-2.8c0.3-0.3,0.5-0.6,0.6-0.8s0.2-0.4,0.2-0.6c0-0.3-0.1-0.5-0.3-0.7c-0.2-0.2-0.5-0.3-0.9-0.3c-0.3,0-0.6,0.1-0.9,0.2
		c-0.3,0.1-0.5,0.3-0.7,0.6l-1.3-0.8c0.3-0.4,0.7-0.8,1.2-1c0.5-0.3,1.1-0.4,1.8-0.4c0.6,0,1.1,0.1,1.5,0.3s0.8,0.4,1,0.8
		c0.2,0.3,0.4,0.7,0.4,1.2c0,0.4-0.1,0.8-0.3,1.2c-0.2,0.4-0.5,0.8-1,1.3l-1.8,1.7h3.3V178.4z M183.4,185.5l-2.5,7.7H179l-1.7-5.2
		l-1.7,5.2h-1.9l-2.5-7.7h1.8l1.7,5.4l1.8-5.4h1.6l1.8,5.5l1.8-5.5H183.4z M189.6,190.2c0,0,0,0.2,0,0.5h-4.5
		c0.1,0.4,0.3,0.7,0.6,0.9s0.7,0.3,1.1,0.3c0.3,0,0.6,0,0.8-0.1s0.5-0.2,0.7-0.4l0.9,1c-0.6,0.6-1.4,1-2.4,1c-0.7,0-1.3-0.1-1.8-0.4
		c-0.5-0.3-0.9-0.6-1.2-1.1s-0.4-1-0.4-1.6s0.1-1.1,0.4-1.6c0.3-0.5,0.7-0.8,1.1-1.1c0.5-0.3,1-0.4,1.6-0.4s1.1,0.1,1.6,0.4
		c0.5,0.2,0.8,0.6,1.1,1.1C189.5,189.1,189.6,189.6,189.6,190.2z M186.6,188.5c-0.4,0-0.7,0.1-1,0.3s-0.4,0.5-0.5,0.9h2.9
		c-0.1-0.4-0.2-0.7-0.5-0.9C187.3,188.6,187,188.5,186.6,188.5z M194.3,187.2c0.5,0,1,0.1,1.5,0.4c0.5,0.2,0.8,0.6,1.1,1.1
		s0.4,1,0.4,1.6s-0.1,1.1-0.4,1.6c-0.3,0.5-0.6,0.8-1.1,1.1c-0.4,0.2-0.9,0.4-1.5,0.4c-0.8,0-1.4-0.3-1.9-0.8v0.7h-1.6V185h1.7v2.9
		C192.9,187.4,193.5,187.2,194.3,187.2z M194,191.8c0.4,0,0.8-0.1,1.1-0.4c0.3-0.3,0.4-0.7,0.4-1.2s-0.1-0.9-0.4-1.2
		c-0.3-0.3-0.6-0.5-1.1-0.5c-0.4,0-0.8,0.2-1.1,0.5s-0.4,0.7-0.4,1.2s0.1,0.9,0.4,1.2C193.2,191.7,193.5,191.8,194,191.8z
		 M206.6,190.2h1.4v1.2h-1.6l-0.2,1.8H205l0.2-1.8h-1.6l-0.2,1.8h-1.2l0.2-1.8H201v-1.2h1.6l0.2-1.8h-1.4v-1.2h1.6l0.2-1.8h1.2
		l-0.2,1.8h1.6l0.2-1.8h1.2l-0.2,1.8h1.4v1.2h-1.6L206.6,190.2z M205.3,190.2l0.2-1.8H204l-0.2,1.8H205.3z M212.3,193.3
		c-0.6,0-1.2-0.2-1.7-0.5s-0.9-0.8-1.2-1.4c-0.3-0.6-0.4-1.3-0.4-2.1s0.1-1.5,0.4-2.1c0.3-0.6,0.7-1.1,1.2-1.4
		c0.5-0.3,1.1-0.5,1.7-0.5c0.6,0,1.2,0.2,1.7,0.5s0.9,0.8,1.2,1.4c0.3,0.6,0.4,1.3,0.4,2.1s-0.1,1.5-0.4,2.1c-0.3,0.6-0.7,1-1.2,1.4
		C213.5,193.1,213,193.3,212.3,193.3z M212.3,191.8c0.5,0,0.8-0.2,1.1-0.6c0.3-0.4,0.4-1,0.4-1.9c0-0.8-0.1-1.5-0.4-1.9
		c-0.3-0.4-0.6-0.6-1.1-0.6s-0.8,0.2-1.1,0.6c-0.3,0.4-0.4,1-0.4,1.9c0,0.8,0.1,1.5,0.4,1.9C211.5,191.6,211.9,191.8,212.3,191.8z
		 M219.8,193.3c-0.6,0-1.2-0.2-1.7-0.5s-0.9-0.8-1.2-1.4c-0.3-0.6-0.4-1.3-0.4-2.1s0.1-1.5,0.4-2.1c0.3-0.6,0.7-1.1,1.2-1.4
		c0.5-0.3,1.1-0.5,1.7-0.5c0.6,0,1.2,0.2,1.7,0.5s0.9,0.8,1.2,1.4c0.3,0.6,0.4,1.3,0.4,2.1s-0.1,1.5-0.4,2.1c-0.3,0.6-0.7,1-1.2,1.4
		S220.4,193.3,219.8,193.3z M219.8,191.8c0.5,0,0.8-0.2,1.1-0.6c0.3-0.4,0.4-1,0.4-1.9c0-0.8-0.1-1.5-0.4-1.9
		c-0.3-0.4-0.6-0.6-1.1-0.6s-0.8,0.2-1.1,0.6c-0.3,0.4-0.4,1-0.4,1.9c0,0.8,0.1,1.5,0.4,1.9C219,191.6,219.3,191.8,219.8,191.8z
		 M227.7,188.3c0.5,0,0.9,0.1,1.3,0.3c0.4,0.2,0.7,0.5,1,0.8c0.2,0.4,0.4,0.8,0.4,1.3s-0.1,1-0.4,1.4c-0.3,0.4-0.6,0.7-1.1,0.9
		c-0.4,0.2-0.9,0.3-1.5,0.3c-1.1,0-1.9-0.3-2.5-1s-0.9-1.6-0.9-2.8c0-0.9,0.2-1.6,0.5-2.2c0.3-0.6,0.8-1.1,1.4-1.4
		c0.6-0.3,1.3-0.5,2.1-0.5c0.4,0,0.8,0,1.2,0.1s0.7,0.2,1,0.4l-0.7,1.3c-0.4-0.3-0.9-0.4-1.4-0.4c-0.7,0-1.2,0.2-1.6,0.6
		c-0.4,0.4-0.6,0.9-0.6,1.7C226.2,188.6,226.9,188.3,227.7,188.3z M227.3,192c0.4,0,0.7-0.1,0.9-0.3s0.4-0.5,0.4-0.8
		s-0.1-0.6-0.4-0.8c-0.2-0.2-0.5-0.3-0.9-0.3s-0.7,0.1-1,0.3c-0.2,0.2-0.4,0.5-0.4,0.8s0.1,0.6,0.4,0.8
		C226.6,191.9,226.9,192,227.3,192z M234.7,188.3c0.5,0,0.9,0.1,1.3,0.3c0.4,0.2,0.7,0.5,1,0.8c0.2,0.4,0.4,0.8,0.4,1.3
		s-0.1,1-0.4,1.4c-0.3,0.4-0.6,0.7-1.1,0.9c-0.4,0.2-0.9,0.3-1.5,0.3c-1.1,0-1.9-0.3-2.5-1s-0.9-1.6-0.9-2.8c0-0.9,0.2-1.6,0.5-2.2
		c0.3-0.6,0.8-1.1,1.4-1.4c0.6-0.3,1.3-0.5,2.1-0.5c0.4,0,0.8,0,1.2,0.1s0.7,0.2,1,0.4l-0.7,1.3c-0.4-0.3-0.9-0.4-1.4-0.4
		c-0.7,0-1.2,0.2-1.6,0.6s-0.6,0.9-0.6,1.7C233.2,188.6,233.9,188.3,234.7,188.3z M234.3,192c0.4,0,0.7-0.1,0.9-0.3s0.4-0.5,0.4-0.8
		s-0.1-0.6-0.4-0.8c-0.2-0.2-0.5-0.3-0.9-0.3s-0.7,0.1-1,0.3c-0.2,0.2-0.4,0.5-0.4,0.8s0.1,0.6,0.4,0.8
		C233.6,191.9,233.9,192,234.3,192z M243.9,185.5v1.2l-2.9,6.5h-1.9l2.8-6.2h-2.6v1.3h-1.6v-2.7h6.2V185.5z M251.2,191.7v1.4h-6
		v-7.7h5.8v1.4h-4v1.7h3.6v1.4H247v1.8L251.2,191.7L251.2,191.7z M175.1,198.8c0.7,0,1.3,0.1,1.8,0.3s0.9,0.5,1.2,1
		c0.3,0.4,0.4,0.9,0.4,1.5s-0.1,1.1-0.4,1.5c-0.3,0.4-0.7,0.7-1.2,1c-0.5,0.2-1.1,0.3-1.8,0.3h-1.6v2.1h-1.8v-7.7L175.1,198.8
		L175.1,198.8z M175,202.9c0.5,0,0.9-0.1,1.2-0.3s0.4-0.6,0.4-1s-0.1-0.8-0.4-1c-0.3-0.2-0.7-0.4-1.2-0.4h-1.5v2.7H175z
		 M181.9,200.5c0.9,0,1.6,0.2,2.1,0.7c0.5,0.4,0.7,1.1,0.7,2v3.4h-1.6v-0.7c-0.3,0.5-0.9,0.8-1.8,0.8c-0.5,0-0.9-0.1-1.2-0.2
		c-0.3-0.2-0.6-0.4-0.8-0.6c-0.2-0.3-0.3-0.6-0.3-0.9c0-0.5,0.2-1,0.6-1.3c0.4-0.3,1.1-0.5,1.9-0.5h1.4c0-0.4-0.1-0.7-0.3-0.9
		s-0.6-0.3-1-0.3c-0.3,0-0.6,0.1-0.9,0.2c-0.3,0.1-0.6,0.2-0.8,0.4l-0.6-1.2c0.3-0.2,0.7-0.4,1.2-0.5
		C181,200.6,181.5,200.5,181.9,200.5z M181.8,205.4c0.3,0,0.6-0.1,0.8-0.2c0.2-0.1,0.4-0.3,0.5-0.6V204h-1.2c-0.7,0-1.1,0.2-1.1,0.7
		c0,0.2,0.1,0.4,0.3,0.5C181.3,205.4,181.5,205.4,181.8,205.4z M189.9,200.5c0.7,0,1.3,0.2,1.8,0.7c0.5,0.4,0.7,1.1,0.7,2v3.4h-1.7
		v-3.1c0-0.5-0.1-0.8-0.3-1s-0.5-0.4-0.9-0.4s-0.8,0.1-1,0.4c-0.3,0.3-0.4,0.7-0.4,1.2v2.9h-1.7v-5.9h1.6v0.7
		c0.2-0.2,0.5-0.4,0.8-0.6C189.2,200.6,189.5,200.5,189.9,200.5z M197.8,206.2c-0.2,0.1-0.4,0.2-0.6,0.3c-0.2,0.1-0.5,0.1-0.8,0.1
		c-0.7,0-1.2-0.2-1.6-0.5c-0.4-0.4-0.6-0.9-0.6-1.6V202h-0.9v-1.3h0.9v-1.4h1.7v1.4h1.5v1.3h-1.5v2.4c0,0.2,0.1,0.4,0.2,0.6
		c0.1,0.1,0.3,0.2,0.5,0.2c0.3,0,0.5-0.1,0.7-0.2L197.8,206.2z M201.3,206.6c-0.6,0-1.2-0.1-1.7-0.4c-0.5-0.3-0.9-0.6-1.2-1.1
		s-0.4-1-0.4-1.6s0.1-1.1,0.4-1.6c0.3-0.5,0.7-0.8,1.2-1.1s1.1-0.4,1.7-0.4s1.2,0.1,1.7,0.4c0.5,0.3,0.9,0.6,1.2,1.1s0.4,1,0.4,1.6
		s-0.1,1.1-0.4,1.6c-0.3,0.5-0.7,0.8-1.2,1.1C202.5,206.5,202,206.6,201.3,206.6z M201.3,205.2c0.4,0,0.8-0.1,1.1-0.4
		c0.3-0.3,0.4-0.7,0.4-1.2s-0.1-0.9-0.4-1.2c-0.3-0.3-0.6-0.5-1.1-0.5c-0.4,0-0.8,0.2-1.1,0.5s-0.4,0.7-0.4,1.2s0.1,0.9,0.4,1.2
		C200.5,205,200.9,205.2,201.3,205.2z M209.3,200.5c0.7,0,1.3,0.2,1.8,0.7c0.5,0.4,0.7,1.1,0.7,2v3.4h-1.7v-3.1c0-0.5-0.1-0.8-0.3-1
		s-0.5-0.4-0.9-0.4s-0.8,0.1-1,0.4c-0.3,0.3-0.4,0.7-0.4,1.2v2.9h-1.7v-5.9h1.6v0.7c0.2-0.2,0.5-0.4,0.8-0.6
		C208.6,200.6,208.9,200.5,209.3,200.5z M219.2,203.6c0,0,0,0.2,0,0.5h-4.5c0.1,0.4,0.3,0.7,0.6,0.9s0.7,0.3,1.1,0.3
		c0.3,0,0.6,0,0.8-0.1s0.5-0.2,0.7-0.4l0.9,1c-0.6,0.6-1.4,1-2.4,1c-0.7,0-1.3-0.1-1.8-0.4c-0.5-0.3-0.9-0.6-1.2-1.1s-0.4-1-0.4-1.6
		s0.1-1.1,0.4-1.6c0.3-0.5,0.7-0.8,1.1-1.1c0.5-0.3,1-0.4,1.6-0.4s1.1,0.1,1.6,0.4c0.5,0.2,0.8,0.6,1.1,1.1
		C219.1,202.4,219.2,203,219.2,203.6z M216.1,201.8c-0.4,0-0.7,0.1-1,0.3s-0.4,0.5-0.5,0.9h2.9c-0.1-0.4-0.2-0.7-0.5-0.9
		C216.8,201.9,216.5,201.8,216.1,201.8z M226.9,198.8c0.7,0,1.3,0.1,1.8,0.3s0.9,0.5,1.2,1c0.3,0.4,0.4,0.9,0.4,1.5
		s-0.1,1.1-0.4,1.5c-0.3,0.4-0.7,0.7-1.2,1c-0.5,0.2-1.1,0.3-1.8,0.3h-1.6v2.1h-1.8v-7.7L226.9,198.8L226.9,198.8z M226.8,202.9
		c0.5,0,0.9-0.1,1.2-0.3s0.4-0.6,0.4-1s-0.1-0.8-0.4-1c-0.3-0.2-0.7-0.4-1.2-0.4h-1.5v2.7H226.8z M237.2,198.8v7.7h-1.8v-6.3h-1.5
		v-1.4H237.2z M244.3,205.1v1.5h-5.8v-1.2l3-2.8c0.3-0.3,0.5-0.6,0.6-0.8s0.2-0.4,0.2-0.6c0-0.3-0.1-0.5-0.3-0.7s-0.5-0.3-0.9-0.3
		c-0.3,0-0.6,0.1-0.9,0.2c-0.3,0.1-0.5,0.3-0.7,0.6l-1.3-0.8c0.3-0.4,0.7-0.8,1.2-1c0.5-0.3,1.1-0.4,1.8-0.4c0.6,0,1.1,0.1,1.5,0.3
		s0.8,0.4,1,0.8c0.2,0.3,0.4,0.7,0.4,1.2c0,0.4-0.1,0.8-0.3,1.2s-0.5,0.8-1,1.3l-1.8,1.7h3.3V205.1z M248.3,206.6
		c-0.6,0-1.2-0.2-1.7-0.5s-0.9-0.8-1.2-1.4c-0.3-0.6-0.4-1.3-0.4-2.1s0.1-1.5,0.4-2.1c0.3-0.6,0.7-1.1,1.2-1.4
		c0.5-0.3,1.1-0.5,1.7-0.5c0.6,0,1.2,0.2,1.7,0.5s0.9,0.8,1.2,1.4c0.3,0.6,0.4,1.3,0.4,2.1s-0.1,1.5-0.4,2.1c-0.3,0.6-0.7,1-1.2,1.4
		S249,206.6,248.3,206.6z M248.3,205.1c0.5,0,0.8-0.2,1.1-0.6c0.3-0.4,0.4-1,0.4-1.9s-0.1-1.5-0.4-1.9c-0.3-0.4-0.6-0.6-1.1-0.6
		s-0.8,0.2-1.1,0.6c-0.3,0.4-0.4,1-0.4,1.9s0.1,1.5,0.4,1.9C247.5,204.9,247.9,205.1,248.3,205.1z M252.7,202.7h3.1v1.4h-3.1V202.7z
		 M259.5,198.8v7.7h-1.8v-6.3h-1.5v-1.4H259.5z M263.5,201.7c1.1,0,1.9,0.2,2.4,0.6c0.5,0.4,0.8,1,0.8,1.7c0,0.5-0.1,0.9-0.4,1.3
		c-0.2,0.4-0.6,0.7-1.1,0.9s-1.1,0.3-1.8,0.3c-0.5,0-1.1-0.1-1.6-0.2c-0.5-0.1-1-0.4-1.3-0.6l0.7-1.4c0.3,0.2,0.6,0.4,1,0.5
		s0.8,0.2,1.2,0.2c0.4,0,0.8-0.1,1.1-0.3c0.3-0.2,0.4-0.4,0.4-0.7s-0.1-0.6-0.4-0.7c-0.3-0.2-0.7-0.3-1.4-0.3h-2l0.4-4.3h4.7v1.4
		H263l-0.1,1.5h0.6V201.7z M271.3,206.6c-1.1,0-2-0.3-2.6-0.9c-0.6-0.6-0.9-1.5-0.9-2.6v-4.3h1.8v4.2c0,1.4,0.6,2.1,1.7,2.1
		c0.6,0,1-0.2,1.3-0.5s0.4-0.9,0.4-1.6v-4.2h1.8v4.3c0,1.1-0.3,2-0.9,2.6C273.2,206.3,272.4,206.6,271.3,206.6z"/>
</g>
<g>
	<path class="st7" d="M324.3,179.9c-0.8,0-1.5-0.2-2.1-0.5s-1.1-0.8-1.5-1.4c-0.4-0.6-0.5-1.3-0.5-2.1s0.2-1.4,0.5-2
		c0.4-0.6,0.9-1.1,1.5-1.4c0.6-0.3,1.4-0.5,2.1-0.5s1.3,0.1,1.8,0.4c0.5,0.2,1,0.6,1.4,1l-1.1,1.1c-0.5-0.6-1.2-0.9-1.9-0.9
		c-0.5,0-0.9,0.1-1.3,0.3s-0.7,0.5-0.9,0.9c-0.2,0.4-0.3,0.8-0.3,1.3s0.1,0.9,0.3,1.3c0.2,0.4,0.5,0.7,0.9,0.9s0.8,0.3,1.3,0.3
		c0.8,0,1.4-0.3,1.9-0.9l1.1,1.1c-0.4,0.4-0.8,0.8-1.4,1C325.5,179.8,324.9,179.9,324.3,179.9z M329.1,176c-0.3,0-0.6-0.1-0.8-0.3
		s-0.3-0.5-0.3-0.8s0.1-0.6,0.3-0.8c0.2-0.2,0.5-0.3,0.8-0.3s0.6,0.1,0.8,0.3c0.2,0.2,0.3,0.4,0.3,0.8c0,0.3-0.1,0.6-0.3,0.8
		S329.4,176,329.1,176z M329.1,179.9c-0.3,0-0.6-0.1-0.8-0.3s-0.3-0.5-0.3-0.8s0.1-0.6,0.3-0.8c0.2-0.2,0.5-0.3,0.8-0.3
		s0.6,0.1,0.8,0.3c0.2,0.2,0.3,0.4,0.3,0.8c0,0.3-0.1,0.6-0.3,0.8S329.4,179.9,329.1,179.9z M333.7,172c1.1,0,1.9,0.3,2.5,1
		s0.9,1.6,0.9,2.8c0,0.9-0.2,1.6-0.5,2.2c-0.3,0.6-0.8,1.1-1.4,1.4c-0.6,0.3-1.3,0.5-2.1,0.5c-0.4,0-0.8,0-1.2-0.1
		c-0.4-0.1-0.7-0.2-1-0.4l0.7-1.3c0.4,0.3,0.9,0.4,1.4,0.4c0.7,0,1.2-0.2,1.6-0.6c0.4-0.4,0.6-0.9,0.6-1.7c-0.5,0.5-1.1,0.7-1.9,0.7
		c-0.5,0-0.9-0.1-1.3-0.3s-0.7-0.5-1-0.8c-0.2-0.4-0.4-0.8-0.4-1.3s0.1-1,0.4-1.4s0.6-0.7,1-0.9C332.6,172.1,333.1,172,333.7,172z
		 M333.8,175.6c0.4,0,0.7-0.1,0.9-0.3c0.2-0.2,0.4-0.5,0.4-0.8s-0.1-0.6-0.4-0.8c-0.2-0.2-0.6-0.3-1-0.3s-0.7,0.1-0.9,0.3
		c-0.2,0.2-0.4,0.5-0.4,0.8c0,0.4,0.1,0.6,0.4,0.8C333.1,175.5,333.4,175.6,333.8,175.6z M343.6,178.4v1.5h-5.8v-1.2l3-2.8
		c0.3-0.3,0.5-0.6,0.6-0.8s0.2-0.4,0.2-0.6c0-0.3-0.1-0.5-0.3-0.7c-0.2-0.2-0.5-0.3-0.9-0.3c-0.3,0-0.6,0.1-0.9,0.2
		c-0.3,0.1-0.5,0.3-0.7,0.6l-1.3-0.8c0.3-0.4,0.7-0.8,1.2-1c0.5-0.3,1.1-0.4,1.8-0.4c0.6,0,1.1,0.1,1.5,0.3s0.8,0.4,1,0.8
		c0.2,0.3,0.4,0.7,0.4,1.2c0,0.4-0.1,0.8-0.3,1.2s-0.5,0.8-1,1.3l-1.8,1.7h3.3V178.4z M355,179.8v-4.6l-2.3,3.8h-0.8l-2.3-3.7v4.5
		H348v-7.7h1.5l2.9,4.8l2.8-4.8h1.5v7.7H355z M359,176c-0.3,0-0.6-0.1-0.8-0.3c-0.2-0.2-0.3-0.5-0.3-0.8s0.1-0.6,0.3-0.8
		c0.2-0.2,0.5-0.3,0.8-0.3s0.6,0.1,0.8,0.3c0.2,0.2,0.3,0.4,0.3,0.8c0,0.3-0.1,0.6-0.3,0.8C359.6,175.8,359.3,176,359,176z
		 M359,179.9c-0.3,0-0.6-0.1-0.8-0.3c-0.2-0.2-0.3-0.5-0.3-0.8s0.1-0.6,0.3-0.8c0.2-0.2,0.5-0.3,0.8-0.3s0.6,0.1,0.8,0.3
		c0.2,0.2,0.3,0.4,0.3,0.8c0,0.3-0.1,0.6-0.3,0.8C359.6,179.8,359.3,179.9,359,179.9z M364.2,179.9c-0.6,0-1.2-0.2-1.7-0.5
		s-0.9-0.8-1.2-1.4c-0.3-0.6-0.4-1.3-0.4-2.1s0.1-1.5,0.4-2.1s0.7-1.1,1.2-1.4c0.5-0.3,1.1-0.5,1.7-0.5s1.2,0.2,1.7,0.5
		s0.9,0.8,1.2,1.4c0.3,0.6,0.4,1.3,0.4,2.1s-0.1,1.5-0.4,2.1s-0.7,1-1.2,1.4C365.4,179.8,364.8,179.9,364.2,179.9z M364.2,178.4
		c0.5,0,0.8-0.2,1.1-0.6c0.3-0.4,0.4-1,0.4-1.9c0-0.8-0.1-1.5-0.4-1.9s-0.6-0.6-1.1-0.6s-0.8,0.2-1.1,0.6c-0.3,0.4-0.4,1-0.4,1.9
		c0,0.8,0.1,1.5,0.4,1.9C363.3,178.2,363.7,178.4,364.2,178.4z M375.6,177.1v2.7h-1.8v-2.7l-3-4.9h1.9l2.1,3.4l2.1-3.4h1.7
		L375.6,177.1z M379.5,176c-0.3,0-0.6-0.1-0.8-0.3c-0.2-0.2-0.3-0.5-0.3-0.8s0.1-0.6,0.3-0.8c0.2-0.2,0.5-0.3,0.8-0.3
		s0.6,0.1,0.8,0.3c0.2,0.2,0.3,0.4,0.3,0.8c0,0.3-0.1,0.6-0.3,0.8C380,175.8,379.8,176,379.5,176z M379.5,179.9
		c-0.3,0-0.6-0.1-0.8-0.3c-0.2-0.2-0.3-0.5-0.3-0.8s0.1-0.6,0.3-0.8c0.2-0.2,0.5-0.3,0.8-0.3s0.6,0.1,0.8,0.3
		c0.2,0.2,0.3,0.4,0.3,0.8c0,0.3-0.1,0.6-0.3,0.8C380,179.8,379.8,179.9,379.5,179.9z M384,175c1.1,0,1.9,0.2,2.4,0.6
		c0.5,0.4,0.8,1,0.8,1.7c0,0.5-0.1,0.9-0.4,1.3c-0.2,0.4-0.6,0.7-1.1,0.9s-1.1,0.3-1.8,0.3c-0.5,0-1.1-0.1-1.6-0.2
		c-0.5-0.1-1-0.4-1.3-0.6l0.7-1.4c0.3,0.2,0.6,0.4,1,0.5s0.8,0.2,1.2,0.2c0.4,0,0.8-0.1,1.1-0.3c0.3-0.2,0.4-0.4,0.4-0.7
		s-0.1-0.6-0.4-0.7c-0.3-0.2-0.7-0.3-1.4-0.3h-2l0.4-4.3h4.7v1.4h-3.2l-0.1,1.5h0.6V175z M390.5,175c1.1,0,1.9,0.2,2.4,0.6
		c0.5,0.4,0.8,1,0.8,1.7c0,0.5-0.1,0.9-0.4,1.3c-0.2,0.4-0.6,0.7-1.1,0.9s-1.1,0.3-1.8,0.3c-0.5,0-1.1-0.1-1.6-0.2
		c-0.5-0.1-1-0.4-1.3-0.6l0.7-1.4c0.3,0.2,0.6,0.4,1,0.5s0.8,0.2,1.2,0.2c0.4,0,0.8-0.1,1.1-0.3s0.4-0.4,0.4-0.7s-0.1-0.6-0.4-0.7
		c-0.3-0.2-0.7-0.3-1.4-0.3h-2l0.4-4.3h4.7v1.4H390l-0.1,1.5h0.6V175z M400.8,176.8l-1,1.1v1.9H398v-7.7h1.8v3.6l3.4-3.6h2l-3.2,3.4
		l3.4,4.3h-2.1L400.8,176.8z M406.6,176c-0.3,0-0.6-0.1-0.8-0.3c-0.2-0.2-0.3-0.5-0.3-0.8s0.1-0.6,0.3-0.8c0.2-0.2,0.5-0.3,0.8-0.3
		s0.6,0.1,0.8,0.3c0.2,0.2,0.3,0.4,0.3,0.8c0,0.3-0.1,0.6-0.3,0.8C407.2,175.8,406.9,176,406.6,176z M406.6,179.9
		c-0.3,0-0.6-0.1-0.8-0.3c-0.2-0.2-0.3-0.5-0.3-0.8s0.1-0.6,0.3-0.8c0.2-0.2,0.5-0.3,0.8-0.3s0.6,0.1,0.8,0.3
		c0.2,0.2,0.3,0.4,0.3,0.8c0,0.3-0.1,0.6-0.3,0.8C407.2,179.8,406.9,179.9,406.6,179.9z M411.5,172.1v7.7h-1.8v-6.3h-1.5v-1.4H411.5
		z M418.5,178.4v1.5h-5.8v-1.2l3-2.8c0.3-0.3,0.5-0.6,0.6-0.8s0.2-0.4,0.2-0.6c0-0.3-0.1-0.5-0.3-0.7c-0.2-0.2-0.5-0.3-0.9-0.3
		c-0.3,0-0.6,0.1-0.9,0.2c-0.3,0.1-0.5,0.3-0.7,0.6l-1.3-0.8c0.3-0.4,0.7-0.8,1.2-1c0.5-0.3,1.1-0.4,1.8-0.4c0.6,0,1.1,0.1,1.5,0.3
		s0.8,0.4,1,0.8c0.2,0.3,0.4,0.7,0.4,1.2c0,0.4-0.1,0.8-0.3,1.2c-0.2,0.4-0.5,0.8-1,1.3l-1.8,1.7h3.3V178.4z M332.2,185.5l-2.5,7.7
		h-1.9l-1.7-5.2l-1.7,5.2h-1.9l-2.5-7.7h1.8l1.7,5.4l1.8-5.4h1.6l1.8,5.5l1.8-5.5H332.2z M338.4,190.2c0,0,0,0.2,0,0.5h-4.5
		c0.1,0.4,0.3,0.7,0.6,0.9c0.3,0.2,0.7,0.3,1.1,0.3c0.3,0,0.6,0,0.8-0.1c0.2-0.1,0.5-0.2,0.7-0.4l0.9,1c-0.6,0.6-1.4,1-2.4,1
		c-0.7,0-1.3-0.1-1.8-0.4c-0.5-0.3-0.9-0.6-1.2-1.1c-0.3-0.5-0.4-1-0.4-1.6s0.1-1.1,0.4-1.6s0.7-0.8,1.1-1.1c0.5-0.3,1-0.4,1.6-0.4
		s1.1,0.1,1.6,0.4c0.5,0.2,0.8,0.6,1.1,1.1C338.3,189.1,338.4,189.6,338.4,190.2z M335.4,188.5c-0.4,0-0.7,0.1-1,0.3
		s-0.4,0.5-0.5,0.9h2.9c-0.1-0.4-0.2-0.7-0.5-0.9C336.1,188.6,335.8,188.5,335.4,188.5z M343.1,187.2c0.5,0,1,0.1,1.5,0.4
		c0.5,0.2,0.8,0.6,1.1,1.1c0.3,0.5,0.4,1,0.4,1.6s-0.1,1.1-0.4,1.6s-0.6,0.8-1.1,1.1c-0.4,0.2-0.9,0.4-1.5,0.4
		c-0.8,0-1.4-0.3-1.9-0.8v0.7h-1.6V185h1.7v2.9C341.7,187.4,342.3,187.2,343.1,187.2z M342.8,191.8c0.4,0,0.8-0.1,1.1-0.4
		c0.3-0.3,0.4-0.7,0.4-1.2s-0.1-0.9-0.4-1.2s-0.6-0.5-1.1-0.5s-0.8,0.2-1.1,0.5c-0.3,0.3-0.4,0.7-0.4,1.2s0.1,0.9,0.4,1.2
		C342,191.7,342.3,191.8,342.8,191.8z M355.4,190.2h1.4v1.2h-1.6l-0.2,1.8h-1.2l0.2-1.8h-1.6l-0.2,1.8H351l0.2-1.8h-1.4v-1.2h1.6
		l0.2-1.8h-1.4v-1.2h1.6l0.2-1.8h1.2l-0.2,1.8h1.6l0.2-1.8h1.2l-0.2,1.8h1.4v1.2h-1.6L355.4,190.2z M354.1,190.2l0.2-1.8h-1.6
		l-0.2,1.8H354.1z M361.1,193.3c-0.6,0-1.2-0.2-1.7-0.5s-0.9-0.8-1.2-1.4c-0.3-0.6-0.4-1.3-0.4-2.1s0.1-1.5,0.4-2.1s0.7-1.1,1.2-1.4
		c0.5-0.3,1.1-0.5,1.7-0.5s1.2,0.2,1.7,0.5s0.9,0.8,1.2,1.4c0.3,0.6,0.4,1.3,0.4,2.1s-0.1,1.5-0.4,2.1s-0.7,1-1.2,1.4
		C362.3,193.1,361.8,193.3,361.1,193.3z M361.1,191.8c0.5,0,0.8-0.2,1.1-0.6c0.3-0.4,0.4-1,0.4-1.9c0-0.8-0.1-1.5-0.4-1.9
		s-0.6-0.6-1.1-0.6s-0.8,0.2-1.1,0.6c-0.3,0.4-0.4,1-0.4,1.9c0,0.8,0.1,1.5,0.4,1.9C360.3,191.6,360.7,191.8,361.1,191.8z
		 M368.6,193.3c-0.6,0-1.2-0.2-1.7-0.5s-0.9-0.8-1.2-1.4c-0.3-0.6-0.4-1.3-0.4-2.1s0.1-1.5,0.4-2.1s0.7-1.1,1.2-1.4
		c0.5-0.3,1.1-0.5,1.7-0.5s1.2,0.2,1.7,0.5s0.9,0.8,1.2,1.4c0.3,0.6,0.4,1.3,0.4,2.1s-0.1,1.5-0.4,2.1s-0.7,1-1.2,1.4
		S369.2,193.3,368.6,193.3z M368.6,191.8c0.5,0,0.8-0.2,1.1-0.6c0.3-0.4,0.4-1,0.4-1.9c0-0.8-0.1-1.5-0.4-1.9s-0.6-0.6-1.1-0.6
		s-0.8,0.2-1.1,0.6c-0.3,0.4-0.4,1-0.4,1.9c0,0.8,0.1,1.5,0.4,1.9C367.8,191.6,368.1,191.8,368.6,191.8z M375.5,185.3
		c1.1,0,1.9,0.3,2.5,1s0.9,1.6,0.9,2.8c0,0.9-0.2,1.6-0.5,2.2c-0.3,0.6-0.8,1.1-1.4,1.4c-0.6,0.3-1.3,0.5-2.1,0.5
		c-0.4,0-0.8,0-1.2-0.1c-0.4-0.1-0.7-0.2-1-0.4l0.7-1.3c0.4,0.3,0.9,0.4,1.4,0.4c0.7,0,1.2-0.2,1.6-0.6c0.4-0.4,0.6-0.9,0.6-1.7
		c-0.5,0.5-1.1,0.7-1.9,0.7c-0.5,0-0.9-0.1-1.3-0.3s-0.7-0.5-1-0.8c-0.2-0.4-0.4-0.8-0.4-1.3s0.1-1,0.4-1.4s0.6-0.7,1-0.9
		C374.4,185.4,374.9,185.3,375.5,185.3z M375.6,189c0.4,0,0.7-0.1,0.9-0.3c0.2-0.2,0.4-0.5,0.4-0.8s-0.1-0.6-0.4-0.8
		c-0.2-0.2-0.6-0.3-1-0.3s-0.7,0.1-0.9,0.3c-0.2,0.2-0.4,0.5-0.4,0.8s0.1,0.6,0.4,0.8S375.2,189,375.6,189z M385.4,191.7v1.5h-5.8
		V192l3-2.8c0.3-0.3,0.5-0.6,0.6-0.8s0.2-0.4,0.2-0.6c0-0.3-0.1-0.5-0.3-0.7c-0.2-0.2-0.5-0.3-0.9-0.3c-0.3,0-0.6,0.1-0.9,0.2
		c-0.3,0.1-0.5,0.3-0.7,0.6l-1.3-0.8c0.3-0.4,0.7-0.8,1.2-1c0.5-0.3,1.1-0.4,1.8-0.4c0.6,0,1.1,0.1,1.5,0.3s0.8,0.4,1,0.8
		c0.2,0.3,0.4,0.7,0.4,1.2c0,0.4-0.1,0.8-0.3,1.2c-0.2,0.4-0.5,0.8-1,1.3l-1.8,1.7h3.3V191.7z M391.4,189.1c0.4,0.2,0.7,0.4,0.9,0.7
		c0.2,0.3,0.3,0.7,0.3,1.1c0,0.5-0.1,0.9-0.4,1.3c-0.3,0.4-0.7,0.6-1.1,0.8c-0.5,0.2-1.1,0.3-1.7,0.3s-1.2-0.1-1.7-0.3
		s-0.9-0.5-1.1-0.8c-0.3-0.4-0.4-0.8-0.4-1.3c0-0.4,0.1-0.8,0.3-1.1c0.2-0.3,0.5-0.6,0.9-0.7c-0.3-0.2-0.5-0.4-0.7-0.7
		s-0.2-0.6-0.2-0.9c0-0.4,0.1-0.8,0.4-1.2s0.6-0.6,1-0.8s1-0.3,1.5-0.3c0.6,0,1.1,0.1,1.6,0.3s0.8,0.4,1.1,0.8
		c0.2,0.3,0.4,0.7,0.4,1.2c0,0.3-0.1,0.7-0.2,0.9C392,188.7,391.7,188.9,391.4,189.1z M389.4,186.6c-0.4,0-0.6,0.1-0.9,0.3
		c-0.2,0.2-0.3,0.4-0.3,0.7s0.1,0.5,0.3,0.7c0.2,0.2,0.5,0.3,0.9,0.3s0.7-0.1,0.9-0.3c0.2-0.2,0.3-0.4,0.3-0.7s-0.1-0.5-0.3-0.7
		C390,186.7,389.7,186.6,389.4,186.6z M389.4,192c0.4,0,0.8-0.1,1.1-0.3c0.3-0.2,0.4-0.5,0.4-0.8s-0.1-0.6-0.4-0.8s-0.6-0.3-1.1-0.3
		c-0.4,0-0.8,0.1-1,0.3s-0.4,0.5-0.4,0.8s0.1,0.6,0.4,0.8S388.9,192,389.4,192z M396.7,193.3c-0.6,0-1.2-0.2-1.7-0.5
		s-0.9-0.8-1.2-1.4c-0.3-0.6-0.4-1.3-0.4-2.1s0.1-1.5,0.4-2.1s0.7-1.1,1.2-1.4c0.5-0.3,1.1-0.5,1.7-0.5s1.2,0.2,1.7,0.5
		s0.9,0.8,1.2,1.4c0.3,0.6,0.4,1.3,0.4,2.1s-0.1,1.5-0.4,2.1s-0.7,1-1.2,1.4C397.9,193.1,397.4,193.3,396.7,193.3z M396.7,191.8
		c0.5,0,0.8-0.2,1.1-0.6c0.3-0.4,0.4-1,0.4-1.9c0-0.8-0.1-1.5-0.4-1.9s-0.6-0.6-1.1-0.6s-0.8,0.2-1.1,0.6c-0.3,0.4-0.4,1-0.4,1.9
		c0,0.8,0.1,1.5,0.4,1.9C395.9,191.6,396.3,191.8,396.7,191.8z M323.9,198.8c0.7,0,1.3,0.1,1.8,0.3s0.9,0.5,1.2,1
		c0.3,0.4,0.4,0.9,0.4,1.5s-0.1,1.1-0.4,1.5s-0.7,0.7-1.2,1c-0.5,0.2-1.1,0.3-1.8,0.3h-1.6v2.1h-1.8v-7.7L323.9,198.8L323.9,198.8z
		 M323.8,202.9c0.5,0,0.9-0.1,1.2-0.3c0.3-0.2,0.4-0.6,0.4-1s-0.1-0.8-0.4-1s-0.7-0.4-1.2-0.4h-1.5v2.7H323.8z M330.7,200.5
		c0.9,0,1.6,0.2,2.1,0.7c0.5,0.4,0.7,1.1,0.7,2v3.4H332v-0.7c-0.3,0.5-0.9,0.8-1.8,0.8c-0.5,0-0.9-0.1-1.2-0.2
		c-0.3-0.2-0.6-0.4-0.8-0.6c-0.2-0.3-0.3-0.6-0.3-0.9c0-0.5,0.2-1,0.6-1.3s1.1-0.5,1.9-0.5h1.4c0-0.4-0.1-0.7-0.3-0.9
		c-0.2-0.2-0.6-0.3-1-0.3c-0.3,0-0.6,0.1-0.9,0.2c-0.3,0.1-0.6,0.2-0.8,0.4l-0.6-1.2c0.3-0.2,0.7-0.4,1.2-0.5
		C329.8,200.6,330.3,200.5,330.7,200.5z M330.6,205.4c0.3,0,0.6-0.1,0.8-0.2c0.2-0.1,0.4-0.3,0.5-0.6V204h-1.2
		c-0.7,0-1.1,0.2-1.1,0.7c0,0.2,0.1,0.4,0.3,0.5C330.1,205.4,330.3,205.4,330.6,205.4z M338.7,200.5c0.7,0,1.3,0.2,1.8,0.7
		c0.5,0.4,0.7,1.1,0.7,2v3.4h-1.7v-3.1c0-0.5-0.1-0.8-0.3-1c-0.2-0.2-0.5-0.4-0.9-0.4s-0.8,0.1-1,0.4c-0.3,0.3-0.4,0.7-0.4,1.2v2.9
		h-1.7v-5.9h1.6v0.7c0.2-0.2,0.5-0.4,0.8-0.6C338,200.6,338.3,200.5,338.7,200.5z M346.6,206.2c-0.2,0.1-0.4,0.2-0.6,0.3
		s-0.5,0.1-0.8,0.1c-0.7,0-1.2-0.2-1.6-0.5c-0.4-0.4-0.6-0.9-0.6-1.6V202h-1v-1.3h0.9v-1.4h1.7v1.4h1.5v1.3h-1.5v2.4
		c0,0.2,0.1,0.4,0.2,0.6c0.1,0.1,0.3,0.2,0.5,0.2c0.3,0,0.5-0.1,0.7-0.2L346.6,206.2z M350.1,206.6c-0.6,0-1.2-0.1-1.7-0.4
		c-0.5-0.3-0.9-0.6-1.2-1.1c-0.3-0.5-0.4-1-0.4-1.6s0.1-1.1,0.4-1.6s0.7-0.8,1.2-1.1s1.1-0.4,1.7-0.4s1.2,0.1,1.7,0.4
		c0.5,0.3,0.9,0.6,1.2,1.1s0.4,1,0.4,1.6s-0.1,1.1-0.4,1.6s-0.7,0.8-1.2,1.1C351.3,206.5,350.8,206.6,350.1,206.6z M350.1,205.2
		c0.4,0,0.8-0.1,1.1-0.4c0.3-0.3,0.4-0.7,0.4-1.2s-0.1-0.9-0.4-1.2s-0.6-0.5-1.1-0.5c-0.4,0-0.8,0.2-1.1,0.5
		c-0.3,0.3-0.4,0.7-0.4,1.2s0.1,0.9,0.4,1.2C349.3,205,349.7,205.2,350.1,205.2z M358.1,200.5c0.7,0,1.3,0.2,1.8,0.7
		c0.5,0.4,0.7,1.1,0.7,2v3.4h-1.7v-3.1c0-0.5-0.1-0.8-0.3-1c-0.2-0.2-0.5-0.4-0.9-0.4s-0.8,0.1-1,0.4c-0.3,0.3-0.4,0.7-0.4,1.2v2.9
		h-1.7v-5.9h1.6v0.7c0.2-0.2,0.5-0.4,0.8-0.6C357.4,200.6,357.7,200.5,358.1,200.5z M368,203.6c0,0,0,0.2,0,0.5h-4.5
		c0.1,0.4,0.3,0.7,0.6,0.9c0.3,0.2,0.7,0.3,1.1,0.3c0.3,0,0.6,0,0.8-0.1c0.2-0.1,0.5-0.2,0.7-0.4l0.9,1c-0.6,0.6-1.4,1-2.4,1
		c-0.7,0-1.3-0.1-1.8-0.4c-0.5-0.3-0.9-0.6-1.2-1.1c-0.3-0.5-0.4-1-0.4-1.6s0.1-1.1,0.4-1.6s0.7-0.8,1.1-1.1c0.5-0.3,1-0.4,1.6-0.4
		s1.1,0.1,1.6,0.4c0.5,0.2,0.8,0.6,1.1,1.1C367.9,202.4,368,203,368,203.6z M364.9,201.8c-0.4,0-0.7,0.1-1,0.3s-0.4,0.5-0.5,0.9h2.9
		c-0.1-0.4-0.2-0.7-0.5-0.9C365.6,201.9,365.3,201.8,364.9,201.8z M375.7,198.8c0.7,0,1.3,0.1,1.8,0.3s0.9,0.5,1.2,1
		c0.3,0.4,0.4,0.9,0.4,1.5s-0.1,1.1-0.4,1.5s-0.7,0.7-1.2,1c-0.5,0.2-1.1,0.3-1.8,0.3h-1.6v2.1h-1.8v-7.7L375.7,198.8L375.7,198.8z
		 M375.6,202.9c0.5,0,0.9-0.1,1.2-0.3c0.3-0.2,0.4-0.6,0.4-1s-0.1-0.8-0.4-1s-0.7-0.4-1.2-0.4h-1.5v2.7H375.6z M386,198.8v7.7h-1.8
		v-6.3h-1.5v-1.4H386z M391,201.9c0.7,0.1,1.2,0.4,1.6,0.8c0.4,0.4,0.5,0.9,0.5,1.5c0,0.4-0.1,0.9-0.4,1.2c-0.2,0.4-0.6,0.7-1.1,0.9
		s-1.1,0.3-1.8,0.3c-0.5,0-1.1-0.1-1.6-0.2c-0.5-0.1-1-0.4-1.3-0.6l0.7-1.4c0.3,0.2,0.6,0.4,1,0.5s0.8,0.2,1.2,0.2
		c0.4,0,0.8-0.1,1.1-0.3c0.3-0.2,0.4-0.4,0.4-0.7c0-0.6-0.5-0.9-1.4-0.9H389V202l1.6-1.8h-3.3v-1.4h5.4v1.2L391,201.9z M397.2,206.6
		c-0.6,0-1.2-0.2-1.7-0.5s-0.9-0.8-1.2-1.4c-0.3-0.6-0.4-1.3-0.4-2.1s0.1-1.5,0.4-2.1s0.7-1.1,1.2-1.4c0.5-0.3,1.1-0.5,1.7-0.5
		s1.2,0.2,1.7,0.5s0.9,0.8,1.2,1.4c0.3,0.6,0.4,1.3,0.4,2.1s-0.1,1.5-0.4,2.1s-0.7,1-1.2,1.4C398.4,206.5,397.8,206.6,397.2,206.6z
		 M397.2,205.1c0.5,0,0.8-0.2,1.1-0.6c0.3-0.4,0.4-1,0.4-1.9s-0.1-1.5-0.4-1.9s-0.6-0.6-1.1-0.6s-0.8,0.2-1.1,0.6
		c-0.3,0.4-0.4,1-0.4,1.9s0.1,1.5,0.4,1.9C396.3,204.9,396.7,205.1,397.2,205.1z M401.5,202.7h3.1v1.4h-3.1V202.7z M408.3,198.8v7.7
		h-1.8v-6.3H405v-1.4H408.3z M412.3,201.7c1.1,0,1.9,0.2,2.4,0.6c0.5,0.4,0.8,1,0.8,1.7c0,0.5-0.1,0.9-0.4,1.3
		c-0.2,0.4-0.6,0.7-1.1,0.9s-1.1,0.3-1.8,0.3c-0.5,0-1.1-0.1-1.6-0.2c-0.5-0.1-1-0.4-1.3-0.6l0.7-1.4c0.3,0.2,0.6,0.4,1,0.5
		s0.8,0.2,1.2,0.2c0.4,0,0.8-0.1,1.1-0.3c0.3-0.2,0.4-0.4,0.4-0.7s-0.1-0.6-0.4-0.7c-0.3-0.2-0.7-0.3-1.4-0.3h-2l0.4-4.3h4.7v1.4
		h-3.2l-0.1,1.5h0.6V201.7z M420.1,206.6c-1.1,0-2-0.3-2.6-0.9c-0.6-0.6-0.9-1.5-0.9-2.6v-4.3h1.8v4.2c0,1.4,0.6,2.1,1.7,2.1
		c0.6,0,1-0.2,1.3-0.5s0.4-0.9,0.4-1.6v-4.2h1.8v4.3c0,1.1-0.3,2-0.9,2.6C422.1,206.3,421.2,206.6,420.1,206.6z"/>
</g>
<g>
	<path class="st7" d="M24.5,179.9c-0.8,0-1.5-0.2-2.1-0.5s-1.1-0.8-1.5-1.4c-0.4-0.6-0.5-1.3-0.5-2.1s0.2-1.4,0.5-2
		c0.4-0.6,0.9-1.1,1.5-1.4c0.6-0.3,1.4-0.5,2.1-0.5s1.3,0.1,1.8,0.4c0.5,0.2,1,0.6,1.4,1l-1.1,1.1c-0.5-0.6-1.2-0.9-1.9-0.9
		c-0.5,0-0.9,0.1-1.3,0.3s-0.7,0.5-0.9,0.9c-0.2,0.4-0.3,0.8-0.3,1.3s0.1,0.9,0.3,1.3c0.2,0.4,0.5,0.7,0.9,0.9s0.8,0.3,1.3,0.3
		c0.8,0,1.4-0.3,1.9-0.9l1.1,1.1c-0.4,0.4-0.8,0.8-1.4,1C25.8,179.8,25.2,179.9,24.5,179.9z M29.3,176c-0.3,0-0.6-0.1-0.8-0.3
		c-0.2-0.2-0.3-0.5-0.3-0.8s0.1-0.6,0.3-0.8c0.2-0.2,0.5-0.3,0.8-0.3s0.6,0.1,0.8,0.3c0.2,0.2,0.3,0.4,0.3,0.8
		c0,0.3-0.1,0.6-0.3,0.8S29.6,176,29.3,176z M29.3,179.9c-0.3,0-0.6-0.1-0.8-0.3c-0.2-0.2-0.3-0.5-0.3-0.8s0.1-0.6,0.3-0.8
		c0.2-0.2,0.5-0.3,0.8-0.3s0.6,0.1,0.8,0.3c0.2,0.2,0.3,0.4,0.3,0.8c0,0.3-0.1,0.6-0.3,0.8S29.6,179.9,29.3,179.9z M34.2,172.1v7.7
		h-1.8v-6.3h-1.5v-1.4H34.2z M38.8,179.9c-0.6,0-1.2-0.2-1.7-0.5s-0.9-0.8-1.2-1.4c-0.3-0.6-0.4-1.3-0.4-2.1s0.1-1.5,0.4-2.1
		c0.3-0.6,0.7-1.1,1.2-1.4c0.5-0.3,1.1-0.5,1.7-0.5c0.6,0,1.2,0.2,1.7,0.5s0.9,0.8,1.2,1.4c0.3,0.6,0.4,1.3,0.4,2.1
		s-0.1,1.5-0.4,2.1c-0.3,0.6-0.7,1-1.2,1.4C40,179.8,39.5,179.9,38.8,179.9z M38.8,178.4c0.5,0,0.8-0.2,1.1-0.6
		c0.3-0.4,0.4-1,0.4-1.9c0-0.8-0.1-1.5-0.4-1.9c-0.3-0.4-0.6-0.6-1.1-0.6s-0.8,0.2-1.1,0.6c-0.3,0.4-0.4,1-0.4,1.9
		c0,0.8,0.1,1.5,0.4,1.9C38,178.2,38.4,178.4,38.8,178.4z M46.3,179.9c-0.6,0-1.2-0.2-1.7-0.5s-0.9-0.8-1.2-1.4
		c-0.3-0.6-0.4-1.3-0.4-2.1s0.1-1.5,0.4-2.1c0.3-0.6,0.7-1.1,1.2-1.4c0.5-0.3,1.1-0.5,1.7-0.5s1.2,0.2,1.7,0.5s0.9,0.8,1.2,1.4
		c0.3,0.6,0.4,1.3,0.4,2.1s-0.1,1.5-0.4,2.1c-0.3,0.6-0.7,1-1.2,1.4C47.5,179.8,46.9,179.9,46.3,179.9z M46.3,178.4
		c0.5,0,0.8-0.2,1.1-0.6c0.3-0.4,0.4-1,0.4-1.9c0-0.8-0.1-1.5-0.4-1.9c-0.3-0.4-0.6-0.6-1.1-0.6s-0.8,0.2-1.1,0.6
		c-0.3,0.4-0.4,1-0.4,1.9c0,0.8,0.1,1.5,0.4,1.9C45.5,178.2,45.8,178.4,46.3,178.4z M61,179.8v-4.6l-2.3,3.8H58l-2.3-3.7v4.5H54
		v-7.7h1.5l2.9,4.8l2.8-4.8h1.5v7.7H61z M65.1,176c-0.3,0-0.6-0.1-0.8-0.3c-0.2-0.2-0.3-0.5-0.3-0.8s0.1-0.6,0.3-0.8
		s0.5-0.3,0.8-0.3s0.6,0.1,0.8,0.3c0.2,0.2,0.3,0.4,0.3,0.8c0,0.3-0.1,0.6-0.3,0.8C65.6,175.8,65.4,176,65.1,176z M65.1,179.9
		c-0.3,0-0.6-0.1-0.8-0.3c-0.2-0.2-0.3-0.5-0.3-0.8s0.1-0.6,0.3-0.8s0.5-0.3,0.8-0.3s0.6,0.1,0.8,0.3c0.2,0.2,0.3,0.4,0.3,0.8
		c0,0.3-0.1,0.6-0.3,0.8C65.6,179.8,65.4,179.9,65.1,179.9z M70.5,175.2c0.7,0.1,1.2,0.4,1.6,0.8c0.4,0.4,0.5,0.9,0.5,1.5
		c0,0.4-0.1,0.9-0.4,1.2c-0.2,0.4-0.6,0.7-1.1,0.9s-1.1,0.3-1.8,0.3c-0.5,0-1.1-0.1-1.6-0.2c-0.5-0.1-1-0.4-1.3-0.6l0.7-1.4
		c0.3,0.2,0.6,0.4,1,0.5s0.8,0.2,1.2,0.2c0.4,0,0.8-0.1,1.1-0.3c0.3-0.2,0.4-0.4,0.4-0.7c0-0.6-0.5-0.9-1.4-0.9h-0.8v-1.2l1.6-1.8
		h-3.3v-1.4h5.4v1.2L70.5,175.2z M76,175c1.1,0,1.9,0.2,2.4,0.6c0.5,0.4,0.8,1,0.8,1.7c0,0.5-0.1,0.9-0.4,1.3
		c-0.2,0.4-0.6,0.7-1.1,0.9s-1.1,0.3-1.8,0.3c-0.5,0-1.1-0.1-1.6-0.2c-0.5-0.1-1-0.4-1.3-0.6l0.7-1.4c0.3,0.2,0.6,0.4,1,0.5
		s0.8,0.2,1.2,0.2c0.4,0,0.8-0.1,1.1-0.3c0.3-0.2,0.4-0.4,0.4-0.7s-0.1-0.6-0.4-0.7c-0.3-0.2-0.7-0.3-1.4-0.3h-2L74,172h4.7v1.4
		h-3.2l-0.1,1.5H76V175z M87.2,177.1v2.7h-1.8v-2.7l-3-4.9h1.9l2.1,3.4l2.1-3.4h1.7L87.2,177.1z M91,176c-0.3,0-0.6-0.1-0.8-0.3
		c-0.2-0.2-0.3-0.5-0.3-0.8s0.1-0.6,0.3-0.8c0.2-0.2,0.5-0.3,0.8-0.3s0.6,0.1,0.8,0.3c0.2,0.2,0.3,0.4,0.3,0.8
		c0,0.3-0.1,0.6-0.3,0.8C91.6,175.8,91.3,176,91,176z M91,179.9c-0.3,0-0.6-0.1-0.8-0.3c-0.2-0.2-0.3-0.5-0.3-0.8s0.1-0.6,0.3-0.8
		c0.2-0.2,0.5-0.3,0.8-0.3s0.6,0.1,0.8,0.3c0.2,0.2,0.3,0.4,0.3,0.8c0,0.3-0.1,0.6-0.3,0.8C91.6,179.8,91.3,179.9,91,179.9z
		 M96.2,179.9c-0.6,0-1.2-0.2-1.7-0.5s-0.9-0.8-1.2-1.4c-0.3-0.6-0.4-1.3-0.4-2.1s0.1-1.5,0.4-2.1s0.7-1.1,1.2-1.4
		c0.5-0.3,1.1-0.5,1.7-0.5s1.2,0.2,1.7,0.5s0.9,0.8,1.2,1.4c0.3,0.6,0.4,1.3,0.4,2.1s-0.1,1.5-0.4,2.1s-0.7,1-1.2,1.4
		C97.4,179.8,96.8,179.9,96.2,179.9z M96.2,178.4c0.5,0,0.8-0.2,1.1-0.6c0.3-0.4,0.4-1,0.4-1.9c0-0.8-0.1-1.5-0.4-1.9
		s-0.6-0.6-1.1-0.6s-0.8,0.2-1.1,0.6c-0.3,0.4-0.4,1-0.4,1.9c0,0.8,0.1,1.5,0.4,1.9C95.3,178.2,95.7,178.4,96.2,178.4z M106.7,176.8
		l-1,1.1v1.9h-1.8v-7.7h1.8v3.6l3.4-3.6h2l-3.2,3.4l3.4,4.3h-2.1L106.7,176.8z M112.6,176c-0.3,0-0.6-0.1-0.8-0.3s-0.3-0.5-0.3-0.8
		s0.1-0.6,0.3-0.8c0.2-0.2,0.5-0.3,0.8-0.3s0.6,0.1,0.8,0.3c0.2,0.2,0.3,0.4,0.3,0.8c0,0.3-0.1,0.6-0.3,0.8S112.9,176,112.6,176z
		 M112.6,179.9c-0.3,0-0.6-0.1-0.8-0.3s-0.3-0.5-0.3-0.8s0.1-0.6,0.3-0.8c0.2-0.2,0.5-0.3,0.8-0.3s0.6,0.1,0.8,0.3
		c0.2,0.2,0.3,0.4,0.3,0.8c0,0.3-0.1,0.6-0.3,0.8S112.9,179.9,112.6,179.9z M118.2,175c0.5,0,0.9,0.1,1.3,0.3s0.7,0.5,1,0.8
		c0.2,0.4,0.4,0.8,0.4,1.3s-0.1,1-0.4,1.4s-0.6,0.7-1.1,0.9c-0.4,0.2-0.9,0.3-1.5,0.3c-1.1,0-1.9-0.3-2.5-1s-0.9-1.6-0.9-2.8
		c0-0.9,0.2-1.6,0.5-2.2c0.3-0.6,0.8-1.1,1.4-1.4c0.6-0.3,1.3-0.5,2.1-0.5c0.4,0,0.8,0,1.2,0.1c0.4,0.1,0.7,0.2,1,0.4l-0.7,1.3
		c-0.4-0.3-0.9-0.4-1.4-0.4c-0.7,0-1.2,0.2-1.6,0.6c-0.4,0.4-0.6,0.9-0.6,1.7C116.7,175.2,117.4,175,118.2,175z M117.8,178.6
		c0.4,0,0.7-0.1,0.9-0.3c0.2-0.2,0.4-0.5,0.4-0.8c0-0.4-0.1-0.6-0.4-0.8c-0.2-0.2-0.5-0.3-0.9-0.3s-0.7,0.1-1,0.3
		c-0.2,0.2-0.4,0.5-0.4,0.8s0.1,0.6,0.4,0.8C117.1,178.5,117.4,178.6,117.8,178.6z M124.8,179.9c-0.6,0-1.2-0.2-1.7-0.5
		s-0.9-0.8-1.2-1.4c-0.3-0.6-0.4-1.3-0.4-2.1s0.1-1.5,0.4-2.1s0.7-1.1,1.2-1.4c0.5-0.3,1.1-0.5,1.7-0.5s1.2,0.2,1.7,0.5
		s0.9,0.8,1.2,1.4c0.3,0.6,0.4,1.3,0.4,2.1s-0.1,1.5-0.4,2.1s-0.7,1-1.2,1.4C126,179.8,125.4,179.9,124.8,179.9z M124.8,178.4
		c0.5,0,0.8-0.2,1.1-0.6c0.3-0.4,0.4-1,0.4-1.9c0-0.8-0.1-1.5-0.4-1.9s-0.6-0.6-1.1-0.6s-0.8,0.2-1.1,0.6c-0.3,0.4-0.4,1-0.4,1.9
		c0,0.8,0.1,1.5,0.4,1.9C123.9,178.2,124.3,178.4,124.8,178.4z M32.5,185.5l-2.5,7.7h-2l-1.7-5.2l-1.7,5.2h-1.9l-2.5-7.7H22l1.7,5.4
		l1.8-5.4h1.6l1.8,5.5l1.8-5.5H32.5z M38.7,190.2c0,0,0,0.2,0,0.5h-4.5c0.1,0.4,0.3,0.7,0.6,0.9s0.7,0.3,1.1,0.3
		c0.3,0,0.6,0,0.8-0.1s0.5-0.2,0.7-0.4l0.9,1c-0.6,0.6-1.4,1-2.4,1c-0.7,0-1.3-0.1-1.8-0.4c-0.5-0.3-0.9-0.6-1.2-1.1s-0.4-1-0.4-1.6
		s0.1-1.1,0.4-1.6c0.3-0.5,0.7-0.8,1.1-1.1c0.5-0.3,1-0.4,1.6-0.4s1.1,0.1,1.6,0.4c0.5,0.2,0.8,0.6,1.1,1.1
		C38.6,189.1,38.7,189.6,38.7,190.2z M35.6,188.5c-0.4,0-0.7,0.1-1,0.3s-0.4,0.5-0.5,0.9H37c-0.1-0.4-0.2-0.7-0.5-0.9
		C36.3,188.6,36,188.5,35.6,188.5z M43.3,187.2c0.5,0,1,0.1,1.5,0.4c0.5,0.2,0.8,0.6,1.1,1.1s0.4,1,0.4,1.6s-0.1,1.1-0.4,1.6
		c-0.3,0.5-0.6,0.8-1.1,1.1c-0.4,0.2-0.9,0.4-1.5,0.4c-0.8,0-1.4-0.3-1.9-0.8v0.7h-1.6V185h1.7v2.9C42,187.4,42.6,187.2,43.3,187.2z
		 M43,191.8c0.4,0,0.8-0.1,1.1-0.4c0.3-0.3,0.4-0.7,0.4-1.2s-0.1-0.9-0.4-1.2c-0.3-0.3-0.6-0.5-1.1-0.5s-0.8,0.2-1.1,0.5
		s-0.4,0.7-0.4,1.2s0.1,0.9,0.4,1.2C42.2,191.7,42.6,191.8,43,191.8z M55.7,190.2h1.4v1.2h-1.6l-0.2,1.8H54l0.2-1.8h-1.6l-0.2,1.8
		h-1.2l0.2-1.8H50v-1.2h1.6l0.2-1.8h-1.4v-1.2H52l0.2-1.8h1.2l-0.2,1.8h1.6l0.2-1.8h1.2l-0.2,1.8h1.4v1.2h-1.6L55.7,190.2z
		 M54.4,190.2l0.2-1.8H53l-0.2,1.8H54.4z M61.4,193.3c-0.6,0-1.2-0.2-1.7-0.5s-0.9-0.8-1.2-1.4c-0.3-0.6-0.4-1.3-0.4-2.1
		s0.1-1.5,0.4-2.1c0.3-0.6,0.7-1.1,1.2-1.4c0.5-0.3,1.1-0.5,1.7-0.5s1.2,0.2,1.7,0.5s0.9,0.8,1.2,1.4c0.3,0.6,0.4,1.3,0.4,2.1
		s-0.1,1.5-0.4,2.1s-0.7,1-1.2,1.4C62.6,193.1,62,193.3,61.4,193.3z M61.4,191.8c0.5,0,0.8-0.2,1.1-0.6c0.3-0.4,0.4-1,0.4-1.9
		c0-0.8-0.1-1.5-0.4-1.9c-0.3-0.4-0.6-0.6-1.1-0.6s-0.8,0.2-1.1,0.6c-0.3,0.4-0.4,1-0.4,1.9c0,0.8,0.1,1.5,0.4,1.9
		C60.6,191.6,60.9,191.8,61.4,191.8z M68.9,193.3c-0.6,0-1.2-0.2-1.7-0.5s-0.9-0.8-1.2-1.4c-0.3-0.6-0.4-1.3-0.4-2.1
		s0.1-1.5,0.4-2.1s0.7-1.1,1.2-1.4c0.5-0.3,1.1-0.5,1.7-0.5s1.2,0.2,1.7,0.5s0.9,0.8,1.2,1.4c0.3,0.6,0.4,1.3,0.4,2.1
		s-0.1,1.5-0.4,2.1s-0.7,1-1.2,1.4S69.5,193.3,68.9,193.3z M68.9,191.8c0.5,0,0.8-0.2,1.1-0.6c0.3-0.4,0.4-1,0.4-1.9
		c0-0.8-0.1-1.5-0.4-1.9s-0.6-0.6-1.1-0.6s-0.8,0.2-1.1,0.6c-0.3,0.4-0.4,1-0.4,1.9c0,0.8,0.1,1.5,0.4,1.9
		C68,191.6,68.4,191.8,68.9,191.8z M80.1,191.5h-1.3v1.6h-1.7v-1.6H73v-1.2l3.6-4.9h1.9l-3.4,4.6h2.1v-1.4h1.7v1.4h1.3L80.1,191.5
		L80.1,191.5z M83.3,185.5v7.7h-1.8v-6.3H80v-1.4H83.3z M88.3,188.3c0.5,0,0.9,0.1,1.3,0.3s0.7,0.5,1,0.8c0.2,0.4,0.4,0.8,0.4,1.3
		s-0.1,1-0.4,1.4s-0.6,0.7-1.1,0.9c-0.4,0.2-0.9,0.3-1.5,0.3c-1.1,0-1.9-0.3-2.5-1s-0.9-1.6-0.9-2.8c0-0.9,0.2-1.6,0.5-2.2
		c0.3-0.6,0.8-1.1,1.4-1.4c0.6-0.3,1.3-0.5,2.1-0.5c0.4,0,0.8,0,1.2,0.1c0.4,0.1,0.7,0.2,1,0.4l-0.7,1.3c-0.4-0.3-0.9-0.4-1.4-0.4
		c-0.7,0-1.2,0.2-1.6,0.6c-0.4,0.4-0.6,0.9-0.6,1.7C86.9,188.6,87.5,188.3,88.3,188.3z M88,192c0.4,0,0.7-0.1,0.9-0.3
		c0.2-0.2,0.4-0.5,0.4-0.8s-0.1-0.6-0.4-0.8c-0.2-0.2-0.5-0.3-0.9-0.3s-0.7,0.1-1,0.3c-0.2,0.2-0.4,0.5-0.4,0.8s0.1,0.6,0.4,0.8
		C87.2,191.9,87.6,192,88,192z M94.3,185.3c1.1,0,1.9,0.3,2.5,1s0.9,1.6,0.9,2.8c0,0.9-0.2,1.6-0.5,2.2c-0.3,0.6-0.8,1.1-1.4,1.4
		c-0.6,0.3-1.3,0.5-2.1,0.5c-0.4,0-0.8,0-1.2-0.1c-0.4-0.1-0.7-0.2-1-0.4l0.7-1.3c0.4,0.3,0.9,0.4,1.4,0.4c0.7,0,1.2-0.2,1.6-0.6
		c0.4-0.4,0.6-0.9,0.6-1.7c-0.5,0.5-1.1,0.7-1.9,0.7c-0.5,0-0.9-0.1-1.3-0.3s-0.7-0.5-1-0.8c-0.2-0.4-0.4-0.8-0.4-1.3s0.1-1,0.4-1.4
		s0.6-0.7,1-0.9C93.3,185.4,93.8,185.3,94.3,185.3z M94.5,189c0.4,0,0.7-0.1,0.9-0.3c0.2-0.2,0.4-0.5,0.4-0.8s-0.1-0.6-0.4-0.8
		c-0.2-0.2-0.6-0.3-1-0.3s-0.7,0.1-0.9,0.3c-0.2,0.2-0.4,0.5-0.4,0.8s0.1,0.6,0.4,0.8S94.1,189,94.5,189z M24.2,198.8
		c0.7,0,1.3,0.1,1.8,0.3s0.9,0.5,1.2,1c0.3,0.4,0.4,0.9,0.4,1.5s-0.1,1.1-0.4,1.5s-0.7,0.7-1.2,1c-0.5,0.2-1.1,0.3-1.8,0.3h-1.6v2.1
		h-1.8v-7.7L24.2,198.8L24.2,198.8z M24.1,202.9c0.5,0,0.9-0.1,1.2-0.3c0.3-0.2,0.4-0.6,0.4-1s-0.1-0.8-0.4-1s-0.7-0.4-1.2-0.4h-1.5
		v2.7H24.1z M31,200.5c0.9,0,1.6,0.2,2.1,0.7c0.5,0.4,0.7,1.1,0.7,2v3.4h-1.6v-0.7c-0.3,0.5-0.9,0.8-1.8,0.8c-0.5,0-0.9-0.1-1.2-0.2
		c-0.3-0.2-0.6-0.4-0.8-0.6c-0.2-0.3-0.3-0.6-0.3-0.9c0-0.5,0.2-1,0.6-1.3s1.1-0.5,1.9-0.5H32c0-0.4-0.1-0.7-0.3-0.9
		c-0.2-0.2-0.6-0.3-1-0.3c-0.3,0-0.6,0.1-0.9,0.2c-0.3,0.1-0.6,0.2-0.8,0.4l-0.6-1.2c0.3-0.2,0.7-0.4,1.2-0.5
		C30.1,200.6,30.5,200.5,31,200.5z M30.9,205.4c0.3,0,0.6-0.1,0.8-0.2c0.2-0.1,0.4-0.3,0.5-0.6V204H31c-0.7,0-1.1,0.2-1.1,0.7
		c0,0.2,0.1,0.4,0.3,0.5C30.3,205.4,30.6,205.4,30.9,205.4z M39,200.5c0.7,0,1.3,0.2,1.8,0.7c0.5,0.4,0.7,1.1,0.7,2v3.4h-1.7v-3.1
		c0-0.5-0.1-0.8-0.3-1s-0.5-0.4-0.9-0.4s-0.8,0.1-1,0.4c-0.3,0.3-0.4,0.7-0.4,1.2v2.9h-1.7v-5.9H37v0.7c0.2-0.2,0.5-0.4,0.8-0.6
		C38.2,200.6,38.6,200.5,39,200.5z M46.8,206.2c-0.2,0.1-0.4,0.2-0.6,0.3c-0.2,0.1-0.5,0.1-0.8,0.1c-0.7,0-1.2-0.2-1.6-0.5
		c-0.4-0.4-0.6-0.9-0.6-1.6V202h-0.9v-1.3h0.9v-1.4h1.7v1.4h1.5v1.3h-1.5v2.4c0,0.2,0.1,0.4,0.2,0.6c0.1,0.1,0.3,0.2,0.5,0.2
		c0.3,0,0.5-0.1,0.7-0.2L46.8,206.2z M50.4,206.6c-0.6,0-1.2-0.1-1.7-0.4c-0.5-0.3-0.9-0.6-1.2-1.1s-0.4-1-0.4-1.6s0.1-1.1,0.4-1.6
		c0.3-0.5,0.7-0.8,1.2-1.1s1.1-0.4,1.7-0.4s1.2,0.1,1.7,0.4c0.5,0.3,0.9,0.6,1.2,1.1s0.4,1,0.4,1.6s-0.1,1.1-0.4,1.6
		s-0.7,0.8-1.2,1.1C51.6,206.5,51,206.6,50.4,206.6z M50.4,205.2c0.4,0,0.8-0.1,1.1-0.4c0.3-0.3,0.4-0.7,0.4-1.2s-0.1-0.9-0.4-1.2
		c-0.3-0.3-0.6-0.5-1.1-0.5s-0.8,0.2-1.1,0.5s-0.4,0.7-0.4,1.2s0.1,0.9,0.4,1.2C49.6,205,50,205.2,50.4,205.2z M58.4,200.5
		c0.7,0,1.3,0.2,1.8,0.7c0.5,0.4,0.7,1.1,0.7,2v3.4h-1.7v-3.1c0-0.5-0.1-0.8-0.3-1s-0.5-0.4-0.9-0.4s-0.8,0.1-1,0.4
		c-0.3,0.3-0.4,0.7-0.4,1.2v2.9h-1.7v-5.9h1.6v0.7c0.2-0.2,0.5-0.4,0.8-0.6C57.6,200.6,58,200.5,58.4,200.5z M68.3,203.6
		c0,0,0,0.2,0,0.5h-4.5c0.1,0.4,0.3,0.7,0.6,0.9c0.3,0.2,0.7,0.3,1.1,0.3c0.3,0,0.6,0,0.8-0.1c0.2-0.1,0.5-0.2,0.7-0.4l0.9,1
		c-0.6,0.6-1.4,1-2.4,1c-0.7,0-1.3-0.1-1.8-0.4c-0.5-0.3-0.9-0.6-1.2-1.1s-0.4-1-0.4-1.6s0.1-1.1,0.4-1.6c0.3-0.5,0.7-0.8,1.1-1.1
		c0.5-0.3,1-0.4,1.6-0.4s1.1,0.1,1.6,0.4c0.5,0.2,0.8,0.6,1.1,1.1C68.1,202.4,68.3,203,68.3,203.6z M65.2,201.8
		c-0.4,0-0.7,0.1-1,0.3c-0.3,0.2-0.4,0.5-0.5,0.9h2.9c-0.1-0.4-0.2-0.7-0.5-0.9C65.9,201.9,65.6,201.8,65.2,201.8z M76,198.8
		c0.7,0,1.3,0.1,1.8,0.3s0.9,0.5,1.2,1c0.3,0.4,0.4,0.9,0.4,1.5s-0.1,1.1-0.4,1.5s-0.7,0.7-1.2,1c-0.5,0.2-1.1,0.3-1.8,0.3h-1.6v2.1
		h-1.8v-7.7L76,198.8L76,198.8z M75.9,202.9c0.5,0,0.9-0.1,1.2-0.3c0.3-0.2,0.4-0.6,0.4-1s-0.1-0.8-0.4-1s-0.7-0.4-1.2-0.4h-1.5v2.7
		H75.9z M86.3,198.8v7.7h-1.8v-6.3H83v-1.4H86.3z M90.6,198.8v7.7h-1.8v-6.3h-1.5v-1.4H90.6z M94.9,198.8v7.7h-1.8v-6.3h-1.5v-1.4
		H94.9z M96.4,202.7h3.1v1.4h-3.1V202.7z M103.2,198.8v7.7h-1.8v-6.3h-1.5v-1.4H103.2z M108.3,201.7c0.5,0,0.9,0.1,1.3,0.3
		s0.7,0.5,1,0.8c0.2,0.4,0.4,0.8,0.4,1.3s-0.1,1-0.4,1.4s-0.6,0.7-1.1,0.9c-0.4,0.2-0.9,0.3-1.5,0.3c-1.1,0-1.9-0.3-2.5-1
		s-0.9-1.6-0.9-2.8c0-0.9,0.2-1.6,0.5-2.2c0.3-0.6,0.8-1.1,1.4-1.4c0.6-0.3,1.3-0.5,2.1-0.5c0.4,0,0.8,0,1.2,0.1
		c0.4,0.1,0.7,0.2,1,0.4l-0.7,1.3c-0.4-0.3-0.9-0.4-1.4-0.4c-0.7,0-1.2,0.2-1.6,0.6c-0.4,0.4-0.6,0.9-0.6,1.7
		C106.8,201.9,107.4,201.7,108.3,201.7z M107.9,205.3c0.4,0,0.7-0.1,0.9-0.3c0.2-0.2,0.4-0.5,0.4-0.8c0-0.4-0.1-0.6-0.4-0.8
		c-0.2-0.2-0.5-0.3-0.9-0.3s-0.7,0.1-1,0.3c-0.2,0.2-0.4,0.5-0.4,0.8s0.1,0.6,0.4,0.8C107.1,205.2,107.5,205.3,107.9,205.3z
		 M115.5,206.6c-1.1,0-2-0.3-2.6-0.9c-0.6-0.6-0.9-1.5-0.9-2.6v-4.3h1.8v4.2c0,1.4,0.6,2.1,1.7,2.1c0.6,0,1-0.2,1.3-0.5
		s0.4-0.9,0.4-1.6v-4.2h1.8v4.3c0,1.1-0.3,2-0.9,2.6C117.4,206.3,116.6,206.6,115.5,206.6z"/>
</g>
</svg>
