<?xml version="1.0" encoding="utf-8"?>
<!-- Generator: Adobe Illustrator 26.3.1, SVG Export Plug-In . SVG Version: 6.00 Build 0)  -->
<svg version="1.1" id="Layer_2_00000060718948923440127140000000148914767971310226_"
	 xmlns="http://www.w3.org/2000/svg" xmlns:xlink="http://www.w3.org/1999/xlink" x="0px" y="0px" viewBox="0 0 3401.6 2405.4"
	 style="enable-background:new 0 0 3401.6 2405.4;" xml:space="preserve">
<style type="text/css">
	.st0{fill:url(#SVGID_1_);}
	.st1{fill:url(#SVGID_00000065036992793781391930000006290836254669520550_);}
	.st2{fill:url(#SVGID_00000051374136294731260780000006551251425747141541_);}
	.st3{fill:url(#SVGID_00000084527618145378922260000004716754934645122443_);}
	.st4{fill:url(#SVGID_00000025438594516715996750000013124016754201652415_);}
	.st5{fill:url(#SVGID_00000125572344582660566630000015154764552405380250_);}
	.st6{fill:url(#SVGID_00000139989697978644404050000014833154026707901836_);}
	.st7{fill:url(#SVGID_00000029727916035551708590000009814616333142947742_);}
	.st8{fill:#003C5B;}
	.st9{fill:url(#SVGID_00000171683428009371905290000018172213248604113063_);}
	.st10{fill:url(#SVGID_00000139275204676941692250000011719387766668331183_);}
	.st11{fill:url(#SVGID_00000098184338174942736580000011260486522131057571_);}
	.st12{fill:url(#SVGID_00000177457703323915261910000014192513801379516824_);}
	.st13{fill:url(#SVGID_00000028287214658491891760000005665806181622585246_);}
	.st14{fill:url(#SVGID_00000092429642982520441250000002458619405352393401_);}
	.st15{fill:url(#SVGID_00000038373756253793650640000012580900504597577372_);}
	.st16{fill:url(#SVGID_00000139262255098649549680000002831978434747712697_);}
	.st17{fill:url(#SVGID_00000041991196990079731300000010124494872699604130_);}
	.st18{fill:url(#SVGID_00000029761158352309728780000013018811432867294610_);}
	.st19{fill:url(#SVGID_00000119086947843196678620000008531685831944986803_);}
	.st20{fill:url(#SVGID_00000093891720840029999040000012240719072337681051_);}
	.st21{fill:url(#SVGID_00000166658062534868053600000001391841638488830105_);}
	.st22{fill:url(#SVGID_00000109723448987290628800000006705804605738210694_);}
	.st23{fill:url(#SVGID_00000073708972136344735180000013420367289608283021_);}
	.st24{fill:url(#SVGID_00000120549696018082639460000014381414497170887580_);}
	.st25{fill:url(#SVGID_00000014612919626709263130000005566492241708752284_);}
	.st26{fill:url(#SVGID_00000150787642267701732090000008586069699180790159_);}
	.st27{fill:url(#SVGID_00000164513075767729335190000008115552176078992048_);}
	.st28{fill:url(#SVGID_00000041283765112753242460000010145756544086067893_);}
	.st29{fill:url(#SVGID_00000060026936423036257730000007208950133274032802_);}
	.st30{fill:url(#SVGID_00000162326878937786808250000010582670789579855019_);}
	.st31{fill:url(#SVGID_00000026153720185851173370000005102432871662981036_);}
	.st32{fill:url(#SVGID_00000115494230386430782930000016255008450170293137_);}
	.st33{fill:url(#SVGID_00000084521445390709002670000013105855422884173188_);}
	.st34{fill:url(#SVGID_00000155829031437602265970000004788236627685087648_);}
	.st35{fill:url(#SVGID_00000072277368511880146350000015770040101583101067_);}
	.st36{fill:url(#SVGID_00000145772328361933506550000012465768064019637896_);}
	.st37{fill:url(#SVGID_00000092431799899623360400000005912853713657079435_);}
	.st38{fill:url(#SVGID_00000142856141408194112930000006145711990612968632_);}
	.st39{fill:url(#SVGID_00000111884078967920325170000009543720172255403919_);}
	.st40{fill:url(#SVGID_00000065060647280301181720000014950482589914137241_);}
	.st41{fill:url(#SVGID_00000011021104551066397530000000802904041784809136_);}
	.st42{fill:url(#SVGID_00000137113115343695642040000007327663861175177386_);}
	.st43{fill:url(#SVGID_00000061450748718380144330000008618940753009883532_);}
	.st44{fill:url(#SVGID_00000090263578473567714510000013495035979361619390_);}
	.st45{fill:url(#SVGID_00000075121508542716732690000010361567291640548512_);}
	.st46{fill:url(#SVGID_00000103947322475455475550000016593466725585576840_);}
	.st47{fill:url(#SVGID_00000004545526857715304540000004036416812660167356_);}
	.st48{fill:url(#SVGID_00000045594998036869316350000005867138068427259554_);}
	.st49{fill:url(#SVGID_00000180334630340684380670000007673323585685105595_);}
	.st50{fill:url(#SVGID_00000081626151308013577360000006088590559993904566_);}
	.st51{fill:url(#SVGID_00000142893583158955557970000014164061967195099551_);}
	.st52{fill:url(#SVGID_00000025429783905592548680000017639905979825700243_);}
	.st53{fill:url(#SVGID_00000159440558867895738260000017851993120188448136_);}
	.st54{fill:url(#SVGID_00000083078045308095148950000011317901399542153635_);}
	.st55{fill:url(#SVGID_00000026148298634246417080000012249974087226195367_);}
	.st56{fill:url(#SVGID_00000035505691912101941120000015909362135483782570_);}
	.st57{fill:url(#SVGID_00000100367646210387135430000016321256678564869782_);}
	.st58{fill:url(#SVGID_00000094598392656394257880000018073034158853545623_);}
	.st59{fill:url(#SVGID_00000101813528449888287100000004856502574179408256_);}
	.st60{fill:url(#SVGID_00000145059575380856000160000008846860994696535694_);}
	.st61{fill:url(#SVGID_00000080190497948164606900000008834728748501586364_);}
</style>
<linearGradient id="SVGID_1_" gradientUnits="userSpaceOnUse" x1="2143.0461" y1="584.5261" x2="2367.6416" y2="470.9944">
	<stop  offset="0" style="stop-color:#004169"/>
	<stop  offset="0.33" style="stop-color:#00657E"/>
	<stop  offset="0.7" style="stop-color:#009180"/>
	<stop  offset="0.9987" style="stop-color:#B2D5A2"/>
</linearGradient>
<path class="st0" d="M2280.8,482c0.5-0.5,0.9-1.3,0.9-2.1c0-1.7-1.4-3.1-3.1-3.1c-1.7,0-3.1,1.4-3.1,3.1c0,0.8,0.3,1.6,0.9,2.1
	h-47.7c-18.2,0-34.9,9.6-44.1,25.2h31.7c7.7-11.7,22.5-20.7,34.5-20.7h70.2c-8.3,1.4-15.3,7.1-19.4,14.4l-4.2,7.8
	c-4.1,7.6-13.6,13.7-21.1,13.7h-39.7l-2.5,4.5h30.9c12,0.7,16.3,10.9,9.5,23.5l-4.5,8.2c-7,13-23.2,23.5-36.2,23.5h-35
	c-12.5,0.1-18.1-10.2-10.5-23.8l2.8-5.1c3-5.5,7.8-10.7,13.1-14.7h-33.6c-4.1,3.7-7.7,8.2-10.4,13.2l-1.2,2.2
	c-8.1,14.7,2.6,32.6,19.3,32.6h77.8c18.4,0,35.3-9.9,44.4-25.9l1.5-2.8c6.6-12,0.7-26.2-10.8-31h4.6c13,0,29.2-10.5,36.2-23.5
	l9.3-17h4.1l2.5-4.5H2280.8z"/>
<linearGradient id="SVGID_00000008114003498961611640000013200032523956326282_" gradientUnits="userSpaceOnUse" x1="2156.5911" y1="976.8716" x2="2346.6333" y2="883.0845">
	<stop  offset="0" style="stop-color:#004169"/>
	<stop  offset="0.33" style="stop-color:#00657E"/>
	<stop  offset="0.7" style="stop-color:#009180"/>
	<stop  offset="0.9987" style="stop-color:#B2D5A2"/>
</linearGradient>
<path style="fill:url(#SVGID_00000008114003498961611640000013200032523956326282_);" d="M2275.1,891.7c0.4-0.4,0.7-1,0.7-1.7
	c0-1.4-1.1-2.5-2.5-2.5s-2.5,1.1-2.5,2.5c0,0.6,0.3,1.2,0.7,1.7h-38.1c-14.5,0-27.9,7.7-35.3,20.2h25.4c6.2-9.3,18-16.5,27.6-16.5
	h56.2c-6.6,1.1-12.3,5.7-15.5,11.5l-3.4,6.2c-3.3,6.1-10.9,11-16.9,11h-31.7l-2,3.6h24.7c9.6,0.5,13,8.7,7.6,18.8l-3.6,6.5
	c-5.6,10.4-18.6,18.8-29,18.8h-28c-10,0.1-14.5-8.1-8.4-19l2.2-4.1c2.4-4.4,6.2-8.5,10.5-11.7h-26.9c-3.3,3-6.2,6.6-8.3,10.6l-1,1.8
	c-6.5,11.7,2.1,26.1,15.5,26.1h62.3c14.7,0,28.3-7.9,35.5-20.7l1.2-2.2c5.3-9.6,0.5-21-8.7-24.8h3.7c10.4,0,23.3-8.4,29-18.8
	l7.4-13.6h3.3l2-3.6H2275.1z"/>
<linearGradient id="SVGID_00000139986884143366902090000009476256676268662970_" gradientUnits="userSpaceOnUse" x1="914.6154" y1="1311.4597" x2="1455.1254" y2="1241.1194">
	<stop  offset="0" style="stop-color:#003C5B"/>
	<stop  offset="0.33" style="stop-color:#006980"/>
	<stop  offset="0.7" style="stop-color:#009C86"/>
	<stop  offset="1" style="stop-color:#A7D6A3"/>
</linearGradient>
<path style="fill:url(#SVGID_00000139986884143366902090000009476256676268662970_);" d="M1001.3,1271.8c0.3-0.3,0.5-0.7,0.5-1.2
	c0-1-0.8-1.9-1.9-1.9c-1,0-1.9,0.8-1.9,1.9c0,0.5,0.2,0.9,0.5,1.2H970c-10.9,0-21,5.8-26.5,15.1h19c4.6-7,13.5-12.4,20.7-12.4h42.1
	c-5,0.9-9.2,4.2-11.6,8.6l-2.5,4.7c-2.5,4.5-8.1,8.2-12.7,8.2h-23.8l-1.5,2.7h18.5c7.2,0.4,9.8,6.6,5.7,14.1l-2.7,4.9
	c-4.2,7.8-13.9,14.1-21.7,14.1h-21c-7.5,0.1-10.9-6.1-6.3-14.3l1.7-3.1c1.8-3.3,4.7-6.4,7.9-8.8h-20.1c-2.4,2.2-4.6,4.9-6.3,7.9
	l-0.7,1.3c-4.8,8.8,1.5,19.6,11.6,19.6h46.7c11,0,21.2-5.9,26.7-15.5l0.9-1.7c4-7.2,0.4-15.7-6.5-18.6h2.8c7.8,0,17.5-6.3,21.7-14.1
	l5.6-10.2h2.5l1.5-2.7H1001.3z"/>
<linearGradient id="SVGID_00000105398994913669044910000000369371173717357471_" gradientUnits="userSpaceOnUse" x1="2185.5735" y1="1334.6536" x2="2318.8499" y2="1265.5474">
	<stop  offset="0" style="stop-color:#004169"/>
	<stop  offset="0.33" style="stop-color:#00657E"/>
	<stop  offset="0.7" style="stop-color:#009180"/>
	<stop  offset="0.9987" style="stop-color:#B2D5A2"/>
</linearGradient>
<path style="fill:url(#SVGID_00000105398994913669044910000000369371173717357471_);" d="M2269.4,1271.8c0.3-0.3,0.5-0.7,0.5-1.2
	c0-1-0.8-1.9-1.9-1.9s-1.9,0.8-1.9,1.9c0,0.5,0.2,0.9,0.5,1.2h-28.5c-10.9,0-21,5.8-26.5,15.1h19c4.6-7,13.5-12.4,20.7-12.4h42.1
	c-5,0.9-9.2,4.2-11.6,8.6l-2.5,4.7c-2.5,4.5-8.1,8.2-12.7,8.2h-23.8l-1.5,2.7h18.5c7.2,0.4,9.8,6.6,5.7,14.1l-2.7,4.9
	c-4.2,7.8-13.9,14.1-21.7,14.1h-21c-7.5,0.1-10.9-6.1-6.3-14.3l1.7-3.1c1.8-3.3,4.7-6.4,7.9-8.8h-20.1c-2.4,2.2-4.6,4.9-6.3,7.9
	l-0.7,1.3c-4.8,8.8,1.5,19.6,11.6,19.6h46.7c11,0,21.2-5.9,26.7-15.5l0.9-1.7c4-7.2,0.4-15.7-6.5-18.6h2.8c7.8,0,17.5-6.3,21.7-14.1
	l5.6-10.2h2.5l1.5-2.7H2269.4z"/>
<linearGradient id="SVGID_00000181085600682486368660000005892768751282281616_" gradientUnits="userSpaceOnUse" x1="920.5333" y1="1653.6116" x2="1311.1072" y2="1603.6329">
	<stop  offset="0" style="stop-color:#043C5A"/>
	<stop  offset="0.33" style="stop-color:#006980"/>
	<stop  offset="0.7" style="stop-color:#009C86"/>
	<stop  offset="1" style="stop-color:#A7D6A3"/>
</linearGradient>
<path style="fill:url(#SVGID_00000181085600682486368660000005892768751282281616_);" d="M982.6,1624.2c0.2-0.2,0.4-0.6,0.4-0.9
	c0-0.8-0.6-1.4-1.4-1.4c-0.8,0-1.4,0.6-1.4,1.4c0,0.3,0.1,0.7,0.4,0.9h-21.3c-8.2,0-15.8,4.5-20,11.5h14.3
	c3.5-5.2,10.1-9.3,15.5-9.3h31.6c-3.7,0.6-6.9,3.2-8.7,6.5l-1.8,3.3c-1.8,3.4-6.1,6.2-9.5,6.2h-17.8l-1.2,2.2h13.9
	c5.4,0.3,7.3,4.9,4.3,10.6l-1.9,3.5c-3.2,5.8-10.5,10.6-16.3,10.6h-15.7c-5.6,0-8.2-4.6-4.7-10.7l1.1-2.1c1.3-2.5,3.5-4.8,5.9-6.6
	H933c-1.8,1.7-3.5,3.7-4.7,6l-0.5,1c-3.6,6.6,1.2,14.7,8.7,14.7h35c8.3,0,15.9-4.5,20-11.6l0.7-1.3c3-5.4,0.3-11.8-4.9-13.9h2.1
	c5.8,0,13.1-4.7,16.3-10.6l4.2-7.6h1.8l1.2-2.2H982.6z"/>
<linearGradient id="SVGID_00000059997382738773224110000010544271474392648850_" gradientUnits="userSpaceOnUse" x1="2200.3706" y1="1671.5758" x2="2306.4983" y2="1618.5121">
	<stop  offset="0" style="stop-color:#004169"/>
	<stop  offset="0.33" style="stop-color:#00657E"/>
	<stop  offset="0.7" style="stop-color:#009180"/>
	<stop  offset="0.9987" style="stop-color:#B2D5A2"/>
</linearGradient>
<path style="fill:url(#SVGID_00000059997382738773224110000010544271474392648850_);" d="M2265,1624.2c0.2-0.2,0.4-0.6,0.4-0.9
	c0-0.8-0.6-1.4-1.4-1.4s-1.4,0.6-1.4,1.4c0,0.3,0.1,0.7,0.4,0.9h-21.3c-8.2,0-15.8,4.5-20,11.5h14.3c3.5-5.2,10.1-9.3,15.5-9.3h31.6
	c-3.7,0.6-6.9,3.2-8.7,6.5l-1.8,3.3c-1.8,3.4-6.1,6.2-9.5,6.2h-17.8l-1.2,2.2h13.9c5.4,0.3,7.3,4.9,4.3,10.6l-1.9,3.5
	c-3.2,5.8-10.5,10.6-16.3,10.6h-15.7c-5.6,0-8.2-4.6-4.7-10.7l1.1-2.1c1.3-2.5,3.5-4.8,5.9-6.6h-15.1c-1.8,1.7-3.5,3.7-4.7,6l-0.5,1
	c-3.6,6.6,1.2,14.7,8.7,14.7h35c8.3,0,15.9-4.5,20-11.6l0.7-1.3c3-5.4,0.3-11.8-4.9-13.9h2.1c5.8,0,13.1-4.7,16.3-10.6l4.2-7.6h1.8
	l1.2-2.2H2265z"/>
<linearGradient id="SVGID_00000064319669536951094070000012456317253289963693_" gradientUnits="userSpaceOnUse" x1="921.5899" y1="2296.7688" x2="1104.5026" y2="2272.6279">
	<stop  offset="0" style="stop-color:#043C5A"/>
	<stop  offset="0.33" style="stop-color:#006980"/>
	<stop  offset="0.7" style="stop-color:#009C86"/>
	<stop  offset="1" style="stop-color:#A7D6A3"/>
</linearGradient>
<path style="fill:url(#SVGID_00000064319669536951094070000012456317253289963693_);" d="M965.2,2283.1h-13.3
	c0.1-0.1,0.2-0.3,0.2-0.5c0-0.4-0.3-0.8-0.8-0.8c-0.4,0-0.8,0.3-0.8,0.8c0,0.2,0.1,0.4,0.2,0.5h-9.4c-3.6,0-7.1,2.1-8.9,5.2l6.1,0.4
	c1.5-2.3,4.5-4.1,6.9-4.1h14c-1.7,0.3-3.1,1.4-3.9,2.9l-0.5,1c-0.8,1.5-2.7,2.7-4.2,2.7h-7.9l-0.8,1.5h6.2c2.4,0.1,3.3,2.2,1.9,4.7
	l-0.6,1.1c-1.4,2.6-4.6,4.7-7.2,4.7h-7c-2.5,0-3.6-2-2.1-4.8l0.3-0.5c0.6-1.1,1.6-2.1,2.6-2.9h-6.7c-0.8,0.7-1.5,1.6-2.1,2.6
	l-0.2,0.4c-1.6,2.9,0.5,6.5,3.9,6.5h15.6c3.7,0,7.1-2,8.9-5.2l0.3-0.6c1.3-2.4,0.1-5.2-2.2-6.2h0.9c2.6,0,5.8-2.1,7.2-4.7l1.9-3.4
	h0.8L965.2,2283.1z"/>
<linearGradient id="SVGID_00000178178758327520718670000016679350708599574696_" gradientUnits="userSpaceOnUse" x1="2231.7881" y1="2303.8892" x2="2273.6685" y2="2280.9824">
	<stop  offset="0" style="stop-color:#004169"/>
	<stop  offset="0.33" style="stop-color:#00657E"/>
	<stop  offset="0.7" style="stop-color:#009180"/>
	<stop  offset="0.9987" style="stop-color:#B2D5A2"/>
</linearGradient>
<path style="fill:url(#SVGID_00000178178758327520718670000016679350708599574696_);" d="M2271.4,2283.1h-13.3
	c0.1-0.1,0.2-0.3,0.2-0.5c0-0.4-0.3-0.8-0.8-0.8s-0.8,0.3-0.8,0.8c0,0.2,0.1,0.4,0.2,0.5h-9.4c-3.6,0-7.1,2.1-8.9,5.2l6.1,0.4
	c1.5-2.3,4.5-4.1,6.9-4.1h14c-1.7,0.3-3.1,1.4-3.9,2.9l-0.5,1c-0.8,1.5-2.7,2.7-4.2,2.7h-7.9l-0.8,1.5h6.2c2.4,0.1,3.3,2.2,1.9,4.7
	l-0.6,1.1c-1.4,2.6-4.6,4.7-7.2,4.7h-7c-2.5,0-3.6-2-2.1-4.8l0.3-0.5c0.6-1.1,1.6-2.1,2.6-2.9h-6.7c-0.8,0.7-1.5,1.6-2.1,2.6
	l-0.2,0.4c-1.6,2.9,0.5,6.5,3.9,6.5h15.6c3.7,0,7.1-2,8.9-5.2l0.3-0.6c1.3-2.4,0.1-5.2-2.2-6.2h0.9c2.6,0,5.8-2.1,7.2-4.7l1.9-3.4
	h0.8L2271.4,2283.1z"/>
<g>
	<g>
		<path class="st8" d="M2899.8,1973.9c-2.6,0-4.9-0.7-6.9-2c-2-1.4-3.6-3.3-4.7-5.8c-1.1-2.5-1.7-5.6-1.7-9.2c0-3.6,0.6-6.6,1.7-9.2
			c1.1-2.5,2.7-4.5,4.7-5.8c2-1.4,4.3-2,6.9-2c2.6,0,4.9,0.7,6.9,2c2,1.4,3.6,3.3,4.8,5.8c1.2,2.5,1.7,5.6,1.7,9.2
			c0,3.6-0.6,6.6-1.7,9.2c-1.2,2.5-2.8,4.5-4.8,5.8C2904.7,1973.3,2902.4,1973.9,2899.8,1973.9z M2899.8,1970.8c2,0,3.7-0.5,5.2-1.6
			c1.5-1.1,2.6-2.6,3.4-4.7c0.8-2.1,1.2-4.6,1.2-7.6c0-3-0.4-5.5-1.2-7.6c-0.8-2.1-2-3.6-3.4-4.7c-1.5-1.1-3.2-1.6-5.2-1.6
			c-1.9,0-3.6,0.5-5.1,1.6c-1.5,1.1-2.7,2.6-3.5,4.7c-0.8,2.1-1.2,4.6-1.2,7.6c0,3,0.4,5.5,1.2,7.6c0.8,2.1,2,3.6,3.5,4.7
			C2896.2,1970.2,2897.9,1970.8,2899.8,1970.8z"/>
		<path class="st8" d="M2917.8,1980.6l2.1-8.8l0.4,2.1c-0.7,0-1.3-0.2-1.8-0.7c-0.5-0.5-0.7-1.1-0.7-1.9c0-0.8,0.2-1.4,0.7-1.9
			c0.5-0.5,1.1-0.7,1.8-0.7c0.7,0,1.3,0.3,1.8,0.8c0.5,0.5,0.7,1.1,0.7,1.8c0,0.3,0,0.5,0,0.8c0,0.3-0.1,0.5-0.2,0.9
			c-0.1,0.3-0.2,0.7-0.4,1.1l-2,6.6H2917.8z"/>
		<path class="st8" d="M2938.3,1973.9c-2.4,0-4.7-0.4-6.8-1.2c-2.2-0.8-3.9-1.8-5.2-3.1l1.7-2.7c1.1,1.1,2.5,2,4.3,2.8
			c1.8,0.7,3.8,1.1,6,1.1c2.8,0,5-0.6,6.5-1.9c1.5-1.3,2.2-2.9,2.2-4.9c0-1.4-0.3-2.7-1-3.7c-0.7-1-1.8-1.8-3.5-2.4
			c-1.6-0.6-3.9-0.9-6.7-0.9h-7.1l1.7-16.8h18.3v3.1h-16.9l1.8-1.7l-1.5,14.1l-1.8-1.7h6.3c3.4,0,6.1,0.4,8.1,1.2
			c2,0.8,3.5,2,4.4,3.5s1.4,3.2,1.4,5.2c0,1.9-0.4,3.6-1.3,5.1c-0.9,1.5-2.2,2.8-4,3.7C2943.3,1973.5,2941,1973.9,2938.3,1973.9z"/>
		<path class="st8" d="M2969.6,1982.9v-34.4h3.3v7.6l-0.3,5l0.5,5.1v16.7H2969.6z M2982.5,1973.9c-2.2,0-4.1-0.5-5.9-1.5
			c-1.8-1-3.1-2.5-4.2-4.4c-1-1.9-1.6-4.2-1.6-7s0.5-5.1,1.5-7c1-1.9,2.4-3.3,4.2-4.3c1.7-1,3.7-1.5,5.9-1.5c2.4,0,4.5,0.5,6.4,1.6
			c1.9,1.1,3.4,2.6,4.5,4.5c1.1,1.9,1.6,4.2,1.6,6.7c0,2.5-0.5,4.8-1.6,6.7c-1.1,1.9-2.6,3.4-4.5,4.5
			C2987.1,1973.3,2984.9,1973.9,2982.5,1973.9z M2982.3,1970.9c1.8,0,3.4-0.4,4.8-1.2s2.5-2,3.3-3.4c0.8-1.5,1.2-3.2,1.2-5.1
			s-0.4-3.7-1.2-5.1c-0.8-1.5-1.9-2.6-3.3-3.4c-1.4-0.8-3-1.2-4.8-1.2c-1.8,0-3.4,0.4-4.8,1.2c-1.4,0.8-2.5,2-3.3,3.4
			c-0.8,1.5-1.2,3.2-1.2,5.1s0.4,3.7,1.2,5.1c0.8,1.5,1.9,2.6,3.3,3.4C2978.9,1970.5,2980.5,1970.9,2982.3,1970.9z"/>
		<path class="st8" d="M2998.1,1951.4v-2.8h15.5v2.8H2998.1z M3009.9,1973.9c-2.4,0-4.2-0.6-5.4-1.9c-1.3-1.3-1.9-3.1-1.9-5.4V1943
			h3.4v23.4c0,1.5,0.4,2.6,1.1,3.4c0.7,0.8,1.8,1.2,3.2,1.2c1.5,0,2.7-0.4,3.7-1.3l1.2,2.4c-0.7,0.6-1.5,1.1-2.4,1.3
			C3011.9,1973.7,3010.9,1973.9,3009.9,1973.9z"/>
	</g>
</g>
<g>
	<g>
		<path class="st8" d="M2899.8,1639.7c-2.6,0-4.9-0.7-6.9-2c-2-1.4-3.6-3.3-4.7-5.8c-1.1-2.5-1.7-5.6-1.7-9.2c0-3.6,0.6-6.6,1.7-9.2
			c1.1-2.5,2.7-4.5,4.7-5.8c2-1.4,4.3-2,6.9-2c2.6,0,4.9,0.7,6.9,2c2,1.4,3.6,3.3,4.8,5.8c1.2,2.5,1.7,5.6,1.7,9.2
			c0,3.6-0.6,6.6-1.7,9.2c-1.2,2.5-2.8,4.5-4.8,5.8C2904.7,1639,2902.4,1639.7,2899.8,1639.7z M2899.8,1636.5c2,0,3.7-0.5,5.2-1.6
			c1.5-1.1,2.6-2.6,3.4-4.7c0.8-2.1,1.2-4.6,1.2-7.6c0-3-0.4-5.5-1.2-7.6c-0.8-2.1-2-3.6-3.4-4.7c-1.5-1.1-3.2-1.6-5.2-1.6
			c-1.9,0-3.6,0.5-5.1,1.6c-1.5,1.1-2.7,2.6-3.5,4.7c-0.8,2.1-1.2,4.6-1.2,7.6c0,3,0.4,5.5,1.2,7.6c0.8,2.1,2,3.6,3.5,4.7
			C2896.2,1636,2897.9,1636.5,2899.8,1636.5z"/>
		<path class="st8" d="M2917.8,1646.4l2.1-8.8l0.4,2.1c-0.7,0-1.3-0.2-1.8-0.7c-0.5-0.5-0.7-1.1-0.7-1.9c0-0.8,0.2-1.4,0.7-1.9
			c0.5-0.5,1.1-0.7,1.8-0.7c0.7,0,1.3,0.3,1.8,0.8c0.5,0.5,0.7,1.1,0.7,1.8c0,0.3,0,0.5,0,0.8c0,0.3-0.1,0.5-0.2,0.9
			c-0.1,0.3-0.2,0.7-0.4,1.1l-2,6.6H2917.8z"/>
		<path class="st8" d="M2940.9,1639.7c-3,0-5.5-0.7-7.5-2c-2-1.3-3.6-3.2-4.6-5.7c-1.1-2.5-1.6-5.5-1.6-9c0-3.8,0.6-7,1.9-9.5
			c1.3-2.6,3.1-4.5,5.4-5.8c2.3-1.3,5-2,8-2c1.5,0,2.9,0.1,4.3,0.4c1.4,0.3,2.6,0.7,3.6,1.4l-1.4,2.8c-0.9-0.6-1.8-1-3-1.2
			c-1.1-0.2-2.3-0.4-3.5-0.4c-3.6,0-6.5,1.1-8.6,3.4c-2.2,2.3-3.2,5.7-3.2,10.3c0,0.7,0,1.6,0.1,2.6c0.1,1,0.3,2.1,0.5,3.1l-1.2-0.9
			c0.4-1.7,1-3.1,2.1-4.2c1-1.2,2.3-2,3.8-2.7s3.2-0.9,5-0.9c2.2,0,4.2,0.4,5.9,1.2c1.7,0.8,3,2,4,3.5c1,1.5,1.4,3.3,1.4,5.3
			c0,2.1-0.5,3.9-1.5,5.4s-2.3,2.7-4.1,3.6C2945,1639.3,2943.1,1639.7,2940.9,1639.7z M2940.8,1636.8c1.6,0,3-0.3,4.2-0.9
			c1.2-0.6,2.2-1.4,2.9-2.5c0.7-1.1,1.1-2.4,1.1-3.9c0-2.2-0.8-4-2.3-5.3c-1.5-1.3-3.6-2-6.1-2c-1.7,0-3.2,0.3-4.5,1
			c-1.3,0.6-2.3,1.5-3,2.6c-0.7,1.1-1.1,2.3-1.1,3.8c0,1.2,0.3,2.4,1,3.5c0.7,1.1,1.7,2,3,2.7
			C2937.3,1636.4,2938.9,1636.8,2940.8,1636.8z"/>
		<path class="st8" d="M2971.1,1648.7v-34.4h3.3v7.6l-0.3,5l0.5,5.1v16.7H2971.1z M2984.1,1639.6c-2.2,0-4.1-0.5-5.9-1.5
			c-1.8-1-3.1-2.5-4.2-4.4c-1-1.9-1.6-4.2-1.6-7c0-2.7,0.5-5.1,1.5-7c1-1.9,2.4-3.3,4.2-4.3c1.8-1,3.7-1.5,5.9-1.5
			c2.4,0,4.5,0.5,6.4,1.6c1.9,1.1,3.4,2.6,4.5,4.5c1.1,1.9,1.6,4.2,1.6,6.7c0,2.5-0.5,4.8-1.6,6.7c-1.1,1.9-2.6,3.4-4.5,4.5
			C2988.6,1639.1,2986.4,1639.6,2984.1,1639.6z M2983.8,1636.6c1.8,0,3.4-0.4,4.8-1.2c1.4-0.8,2.5-2,3.3-3.4
			c0.8-1.5,1.2-3.2,1.2-5.1s-0.4-3.7-1.2-5.1c-0.8-1.5-1.9-2.6-3.3-3.4c-1.4-0.8-3-1.2-4.8-1.2c-1.8,0-3.4,0.4-4.8,1.2
			c-1.4,0.8-2.5,2-3.3,3.4c-0.8,1.5-1.2,3.2-1.2,5.1s0.4,3.7,1.2,5.1s1.9,2.6,3.3,3.4C2980.4,1636.2,2982,1636.6,2983.8,1636.6z"/>
		<path class="st8" d="M2999.6,1617.1v-2.8h15.5v2.8H2999.6z M3011.5,1639.6c-2.4,0-4.2-0.6-5.5-1.9c-1.3-1.3-1.9-3.1-1.9-5.4v-23.6
			h3.4v23.4c0,1.5,0.4,2.6,1.1,3.4c0.7,0.8,1.8,1.2,3.2,1.2c1.5,0,2.7-0.4,3.7-1.3l1.2,2.4c-0.7,0.6-1.5,1.1-2.4,1.3
			S3012.4,1639.6,3011.5,1639.6z"/>
	</g>
</g>
<g>
	<g>
		<path class="st8" d="M2899.8,2298.3c-2.6,0-4.9-0.7-6.9-2c-2-1.4-3.6-3.3-4.7-5.8c-1.1-2.5-1.7-5.6-1.7-9.2c0-3.6,0.6-6.6,1.7-9.2
			c1.1-2.5,2.7-4.5,4.7-5.8c2-1.4,4.3-2,6.9-2c2.6,0,4.9,0.7,6.9,2c2,1.4,3.6,3.3,4.8,5.8c1.2,2.5,1.7,5.6,1.7,9.2
			c0,3.6-0.6,6.6-1.7,9.2c-1.2,2.5-2.8,4.5-4.8,5.8C2904.7,2297.6,2902.4,2298.3,2899.8,2298.3z M2899.8,2295.2c2,0,3.7-0.5,5.2-1.6
			c1.5-1.1,2.6-2.6,3.4-4.7c0.8-2.1,1.2-4.6,1.2-7.6c0-3-0.4-5.5-1.2-7.6c-0.8-2.1-2-3.6-3.4-4.7c-1.5-1.1-3.2-1.6-5.2-1.6
			c-1.9,0-3.6,0.5-5.1,1.6c-1.5,1.1-2.7,2.6-3.5,4.7c-0.8,2.1-1.2,4.6-1.2,7.6c0,3,0.4,5.5,1.2,7.6c0.8,2.1,2,3.6,3.5,4.7
			C2896.2,2294.6,2897.9,2295.2,2899.8,2295.2z"/>
		<path class="st8" d="M2917.8,2305l2.1-8.8l0.4,2.1c-0.7,0-1.3-0.2-1.8-0.7c-0.5-0.5-0.7-1.1-0.7-1.9c0-0.8,0.2-1.4,0.7-1.9
			c0.5-0.5,1.1-0.7,1.8-0.7c0.7,0,1.3,0.3,1.8,0.8c0.5,0.5,0.7,1.1,0.7,1.8c0,0.3,0,0.5,0,0.8c0,0.3-0.1,0.5-0.2,0.9
			c-0.1,0.3-0.2,0.7-0.4,1.1l-2,6.6H2917.8z"/>
		<path class="st8" d="M2926.5,2289.2v-2.5l17.7-22.2h3.8l-17.6,22.2l-1.9-0.6h26.9v3.1H2926.5z M2945.4,2298v-8.8l0.1-3.1v-7.7h3.3
			v19.6H2945.4z"/>
		<path class="st8" d="M2973.5,2307.3v-34.4h3.3v7.6l-0.3,5l0.5,5.1v16.7H2973.5z M2986.4,2298.3c-2.2,0-4.1-0.5-5.9-1.5
			c-1.8-1-3.1-2.5-4.2-4.4c-1-1.9-1.6-4.2-1.6-7s0.5-5.1,1.5-7c1-1.9,2.4-3.3,4.2-4.3c1.7-1,3.7-1.5,5.9-1.5c2.4,0,4.5,0.5,6.4,1.6
			c1.9,1.1,3.4,2.6,4.5,4.5c1.1,1.9,1.6,4.2,1.6,6.7c0,2.5-0.5,4.8-1.6,6.7c-1.1,1.9-2.6,3.4-4.5,4.5
			C2991,2297.7,2988.8,2298.3,2986.4,2298.3z M2986.2,2295.3c1.8,0,3.4-0.4,4.8-1.2s2.5-2,3.3-3.4c0.8-1.5,1.2-3.2,1.2-5.1
			s-0.4-3.7-1.2-5.1c-0.8-1.5-1.9-2.6-3.3-3.4c-1.4-0.8-3-1.2-4.8-1.2c-1.8,0-3.4,0.4-4.8,1.2c-1.4,0.8-2.5,2-3.3,3.4
			c-0.8,1.5-1.2,3.2-1.2,5.1s0.4,3.7,1.2,5.1c0.8,1.5,1.9,2.6,3.3,3.4C2982.8,2294.9,2984.4,2295.3,2986.2,2295.3z"/>
		<path class="st8" d="M3002,2275.8v-2.8h15.5v2.8H3002z M3013.8,2298.3c-2.4,0-4.2-0.6-5.4-1.9c-1.3-1.3-1.9-3.1-1.9-5.4v-23.6h3.4
			v23.4c0,1.5,0.4,2.6,1.1,3.4c0.7,0.8,1.8,1.2,3.2,1.2c1.5,0,2.7-0.4,3.7-1.3l1.2,2.4c-0.7,0.6-1.5,1.1-2.4,1.3
			C3015.8,2298.1,3014.8,2298.3,3013.8,2298.3z"/>
	</g>
</g>
<g>
	<g>
		<path class="st8" d="M297.4,523.6v-2.5l17.7-22.2h3.8l-17.6,22.2l-1.9-0.6h26.9v3.1H297.4z M316.3,532.4v-8.8l0.1-3.1v-7.7h3.3
			v19.6H316.3z"/>
		<path class="st8" d="M343,532.7c-2.6,0-4.9-0.7-6.9-2c-2-1.4-3.6-3.3-4.7-5.8c-1.1-2.5-1.7-5.6-1.7-9.2c0-3.6,0.6-6.6,1.7-9.2
			c1.1-2.5,2.7-4.5,4.7-5.8c2-1.4,4.3-2,6.9-2c2.6,0,4.9,0.7,6.9,2c2,1.4,3.6,3.3,4.8,5.8c1.2,2.5,1.7,5.6,1.7,9.2
			c0,3.6-0.6,6.6-1.7,9.2c-1.2,2.5-2.7,4.5-4.8,5.8C347.8,532,345.5,532.7,343,532.7z M343,529.5c2,0,3.7-0.5,5.2-1.6
			c1.5-1.1,2.6-2.6,3.4-4.7c0.8-2.1,1.2-4.6,1.2-7.6c0-3-0.4-5.5-1.2-7.6c-0.8-2.1-2-3.6-3.4-4.7c-1.5-1.1-3.2-1.6-5.2-1.6
			c-1.9,0-3.6,0.5-5.1,1.6s-2.7,2.6-3.5,4.7c-0.8,2.1-1.2,4.6-1.2,7.6c0,3,0.4,5.5,1.2,7.6c0.8,2.1,2,3.6,3.5,4.7
			C339.4,529,341.1,529.5,343,529.5z"/>
		<path class="st8" d="M376.1,541.7v-34.4h3.3v7.6l-0.3,5l0.5,5.1v16.7H376.1z M389,532.7c-2.2,0-4.1-0.5-5.9-1.5
			c-1.8-1-3.1-2.5-4.2-4.4c-1-1.9-1.6-4.2-1.6-7c0-2.7,0.5-5.1,1.5-7c1-1.9,2.4-3.3,4.2-4.3c1.8-1,3.7-1.5,5.9-1.5
			c2.4,0,4.5,0.5,6.4,1.6c1.9,1.1,3.4,2.6,4.5,4.5c1.1,1.9,1.6,4.2,1.6,6.7c0,2.5-0.5,4.8-1.6,6.7c-1.1,1.9-2.6,3.4-4.5,4.5
			C393.5,532.1,391.4,532.7,389,532.7z M388.8,529.6c1.8,0,3.4-0.4,4.8-1.2c1.4-0.8,2.5-2,3.3-3.4c0.8-1.5,1.2-3.2,1.2-5.1
			s-0.4-3.7-1.2-5.1c-0.8-1.5-1.9-2.6-3.3-3.4c-1.4-0.8-3-1.2-4.8-1.2c-1.8,0-3.4,0.4-4.8,1.2c-1.4,0.8-2.5,2-3.3,3.4
			c-0.8,1.5-1.2,3.2-1.2,5.1s0.4,3.7,1.2,5.1c0.8,1.5,1.9,2.6,3.3,3.4C385.4,529.2,387,529.6,388.8,529.6z"/>
		<path class="st8" d="M404.6,510.1v-2.8h15.5v2.8H404.6z M416.4,532.7c-2.4,0-4.2-0.6-5.5-1.9c-1.3-1.3-1.9-3.1-1.9-5.4v-23.6h3.4
			v23.4c0,1.5,0.4,2.6,1.1,3.4c0.7,0.8,1.8,1.2,3.2,1.2c1.5,0,2.7-0.4,3.7-1.3l1.2,2.4c-0.7,0.6-1.5,1.1-2.4,1.3
			C418.4,532.5,417.4,532.7,416.4,532.7z"/>
		<path class="st8" d="M450.6,532.4l-14.8-33.5h3.8l13.9,31.5h-2.1l14-31.5h3.6l-14.8,33.5H450.6z"/>
		<path class="st8" d="M481.8,532.7c-2.6,0-4.9-0.5-6.9-1.6s-3.5-2.6-4.6-4.5c-1.1-1.9-1.7-4.1-1.7-6.6c0-2.5,0.5-4.7,1.6-6.6
			c1.1-1.9,2.5-3.4,4.4-4.5c1.9-1.1,4-1.6,6.3-1.6c2.4,0,4.5,0.5,6.3,1.6c1.8,1.1,3.3,2.6,4.3,4.5c1.1,1.9,1.6,4.2,1.6,6.7
			c0,0.2,0,0.3,0,0.5c0,0.2,0,0.4,0,0.5h-21.9v-2.5h20l-1.3,1c0-1.8-0.4-3.4-1.2-4.9c-0.8-1.4-1.8-2.5-3.2-3.3
			c-1.3-0.8-2.9-1.2-4.6-1.2c-1.7,0-3.3,0.4-4.6,1.2c-1.4,0.8-2.4,1.9-3.2,3.3c-0.8,1.4-1.1,3.1-1.1,4.9v0.5c0,1.9,0.4,3.6,1.3,5
			c0.8,1.4,2,2.6,3.5,3.4c1.5,0.8,3.2,1.2,5.2,1.2c1.5,0,3-0.3,4.3-0.8c1.3-0.5,2.5-1.4,3.4-2.5l1.9,2.2c-1.1,1.3-2.5,2.4-4.2,3.1
			C485.7,532.3,483.8,532.7,481.8,532.7z"/>
		<path class="st8" d="M500,532.4v-25.1h3.3v6.8L503,513c0.7-1.9,1.9-3.4,3.5-4.4c1.7-1,3.7-1.5,6.2-1.5v3.3c-0.1,0-0.3,0-0.4,0
			c-0.1,0-0.3,0-0.4,0c-2.6,0-4.7,0.8-6.2,2.4c-1.5,1.6-2.2,3.9-2.2,6.9v12.8H500z"/>
		<path class="st8" d="M516,510.1v-2.8h15.5v2.8H516z M527.9,532.7c-2.4,0-4.2-0.6-5.5-1.9c-1.3-1.3-1.9-3.1-1.9-5.4v-23.6h3.4v23.4
			c0,1.5,0.4,2.6,1.1,3.4c0.7,0.8,1.8,1.2,3.2,1.2c1.5,0,2.7-0.4,3.7-1.3l1.2,2.4c-0.7,0.6-1.5,1.1-2.4,1.3
			C529.8,532.5,528.8,532.7,527.9,532.7z"/>
		<path class="st8" d="M541.1,501.8c-0.7,0-1.3-0.2-1.8-0.7c-0.5-0.5-0.7-1.1-0.7-1.7c0-0.7,0.2-1.2,0.7-1.7
			c0.5-0.5,1.1-0.7,1.8-0.7c0.7,0,1.3,0.2,1.8,0.7c0.5,0.4,0.7,1,0.7,1.7c0,0.7-0.2,1.3-0.7,1.8
			C542.4,501.5,541.8,501.8,541.1,501.8z M539.3,532.4v-25.1h3.4v25.1H539.3z"/>
		<path class="st8" d="M562.6,532.7c-2.5,0-4.7-0.5-6.7-1.6c-2-1.1-3.5-2.6-4.6-4.5c-1.1-1.9-1.7-4.1-1.7-6.6c0-2.5,0.6-4.7,1.7-6.6
			c1.1-1.9,2.7-3.4,4.6-4.5c2-1.1,4.2-1.6,6.7-1.6c2.1,0,4.1,0.4,5.8,1.2c1.7,0.8,3.1,2.1,4.1,3.7l-2.5,1.7
			c-0.9-1.3-1.9-2.2-3.2-2.8c-1.3-0.6-2.7-0.9-4.2-0.9c-1.8,0-3.4,0.4-4.8,1.2c-1.4,0.8-2.6,2-3.4,3.4c-0.8,1.5-1.2,3.2-1.2,5.2
			s0.4,3.7,1.2,5.2c0.8,1.5,2,2.6,3.4,3.4c1.4,0.8,3,1.2,4.8,1.2c1.5,0,2.9-0.3,4.2-0.9c1.3-0.6,2.3-1.5,3.2-2.8l2.5,1.7
			c-1,1.6-2.3,2.9-4.1,3.7C566.7,532.2,564.8,532.7,562.6,532.7z"/>
		<path class="st8" d="M586.2,532.7c-1.9,0-3.5-0.3-4.9-0.9s-2.4-1.5-3.2-2.6c-0.7-1.1-1.1-2.4-1.1-3.8c0-1.3,0.3-2.5,0.9-3.6
			c0.6-1.1,1.6-1.9,3.1-2.6c1.4-0.7,3.3-1,5.7-1h8.7v2.5h-8.6c-2.4,0-4.1,0.4-5,1.3c-0.9,0.9-1.4,1.9-1.4,3.2c0,1.4,0.6,2.6,1.7,3.4
			c1.1,0.9,2.7,1.3,4.7,1.3c1.9,0,3.6-0.4,4.9-1.3c1.4-0.9,2.4-2.1,3-3.8l0.8,2.3c-0.6,1.7-1.7,3-3.3,4
			C590.6,532.2,588.6,532.7,586.2,532.7z M594.8,532.4v-5.5l-0.1-0.9v-9.3c0-2.1-0.6-3.8-1.8-4.9c-1.2-1.1-3-1.7-5.3-1.7
			c-1.6,0-3.2,0.3-4.6,0.8c-1.5,0.5-2.7,1.3-3.7,2.2l-1.5-2.5c1.3-1.1,2.8-1.9,4.6-2.5c1.8-0.6,3.7-0.9,5.6-0.9
			c3.3,0,5.8,0.8,7.5,2.4c1.8,1.6,2.7,4.1,2.7,7.3v15.6H594.8z"/>
		<path class="st8" d="M607.3,532.4v-35.5h3.4v35.5H607.3z"/>
	</g>
</g>
<g>
	<g>
		<path class="st8" d="M308,937.2c-2.4,0-4.7-0.4-6.9-1.2c-2.2-0.8-3.9-1.8-5.2-3.1l1.7-2.7c1.1,1.1,2.5,2,4.4,2.8
			c1.8,0.7,3.8,1.1,6,1.1c2.8,0,4.9-0.6,6.4-1.8c1.5-1.2,2.2-2.8,2.2-4.9s-0.7-3.7-2.2-4.9c-1.4-1.2-3.7-1.8-6.9-1.8h-2.4v-2.5
			l10.3-13l0.5,1.3h-18.6v-3.1h21.5v2.4l-10.3,13l-1.7-1.1h1.3c4,0,7,0.9,9,2.7c2,1.8,3,4.1,3,6.9c0,1.9-0.4,3.6-1.3,5.1
			c-0.9,1.5-2.2,2.7-4,3.5S310.7,937.2,308,937.2z"/>
		<path class="st8" d="M324.1,937v-2.4l13.9-13.6c1.3-1.2,2.2-2.3,2.9-3.3c0.6-0.9,1.1-1.8,1.3-2.7c0.2-0.8,0.3-1.6,0.3-2.3
			c0-1.9-0.7-3.5-2-4.6c-1.3-1.1-3.3-1.7-5.9-1.7c-2,0-3.7,0.3-5.2,0.9c-1.5,0.6-2.8,1.5-3.9,2.8l-2.4-2.1c1.3-1.5,3-2.7,5-3.5
			c2-0.8,4.3-1.2,6.8-1.2c2.3,0,4.2,0.4,5.9,1.1c1.7,0.7,2.9,1.8,3.8,3.1c0.9,1.4,1.4,3,1.4,4.8c0,1.1-0.2,2.2-0.5,3.2
			c-0.3,1.1-0.8,2.2-1.6,3.3c-0.8,1.2-1.9,2.5-3.4,3.9l-12.8,12.5l-1-1.3h20.8v3.1H324.1z"/>
		<path class="st8" d="M366.7,946.2v-34.4h3.3v7.6l-0.3,5l0.5,5.1v16.7H366.7z M379.6,937.2c-2.2,0-4.1-0.5-5.9-1.5
			c-1.8-1-3.1-2.5-4.2-4.4c-1-1.9-1.6-4.2-1.6-7c0-2.7,0.5-5.1,1.5-7c1-1.9,2.4-3.3,4.2-4.3c1.8-1,3.7-1.5,5.9-1.5
			c2.4,0,4.5,0.5,6.4,1.6c1.9,1.1,3.4,2.6,4.5,4.5c1.1,1.9,1.6,4.2,1.6,6.7c0,2.5-0.5,4.8-1.6,6.7c-1.1,1.9-2.6,3.4-4.5,4.5
			C384.2,936.7,382,937.2,379.6,937.2z M379.4,934.2c1.8,0,3.4-0.4,4.8-1.2c1.4-0.8,2.5-2,3.3-3.4c0.8-1.5,1.2-3.2,1.2-5.1
			s-0.4-3.7-1.2-5.1c-0.8-1.5-1.9-2.6-3.3-3.4c-1.4-0.8-3-1.2-4.8-1.2c-1.8,0-3.4,0.4-4.8,1.2c-1.4,0.8-2.5,2-3.3,3.4
			c-0.8,1.5-1.2,3.2-1.2,5.1s0.4,3.7,1.2,5.1c0.8,1.5,1.9,2.6,3.3,3.4C376,933.8,377.6,934.2,379.4,934.2z"/>
		<path class="st8" d="M395.2,914.7v-2.8h15.5v2.8H395.2z M407,937.2c-2.4,0-4.2-0.6-5.5-1.9c-1.3-1.3-1.9-3.1-1.9-5.4v-23.6h3.4
			v23.4c0,1.5,0.4,2.6,1.1,3.4c0.7,0.8,1.8,1.2,3.2,1.2c1.5,0,2.7-0.4,3.7-1.3l1.2,2.4c-0.7,0.6-1.5,1.1-2.4,1.3
			C409,937,408,937.2,407,937.2z"/>
		<path class="st8" d="M441.3,937l-14.8-33.5h3.8l13.9,31.5H442l14-31.5h3.6L444.8,937H441.3z"/>
		<path class="st8" d="M472.4,937.2c-2.6,0-4.9-0.5-6.9-1.6c-2-1.1-3.5-2.6-4.6-4.5c-1.1-1.9-1.7-4.1-1.7-6.6c0-2.5,0.5-4.7,1.6-6.6
			c1.1-1.9,2.5-3.4,4.4-4.5c1.9-1.1,4-1.6,6.3-1.6c2.4,0,4.5,0.5,6.3,1.6c1.8,1.1,3.3,2.6,4.3,4.5c1.1,1.9,1.6,4.2,1.6,6.7
			c0,0.2,0,0.3,0,0.5c0,0.2,0,0.4,0,0.5h-21.9v-2.5h20l-1.3,1c0-1.8-0.4-3.4-1.2-4.9c-0.8-1.4-1.8-2.5-3.2-3.3
			c-1.3-0.8-2.9-1.2-4.6-1.2c-1.7,0-3.3,0.4-4.6,1.2c-1.4,0.8-2.4,1.9-3.2,3.3c-0.8,1.4-1.1,3.1-1.1,4.9v0.5c0,1.9,0.4,3.6,1.3,5
			c0.8,1.4,2,2.6,3.5,3.4c1.5,0.8,3.2,1.2,5.2,1.2c1.5,0,3-0.3,4.3-0.8c1.3-0.5,2.5-1.4,3.4-2.5l1.9,2.2c-1.1,1.3-2.5,2.4-4.2,3.1
			C476.3,936.8,474.5,937.2,472.4,937.2z"/>
		<path class="st8" d="M490.7,937v-25.1h3.3v6.8l-0.3-1.2c0.7-1.9,1.9-3.4,3.5-4.4c1.7-1,3.7-1.5,6.2-1.5v3.3c-0.1,0-0.3,0-0.4,0
			c-0.1,0-0.3,0-0.4,0c-2.6,0-4.7,0.8-6.2,2.4c-1.5,1.6-2.2,3.9-2.2,6.9V937H490.7z"/>
		<path class="st8" d="M506.6,914.7v-2.8h15.5v2.8H506.6z M518.5,937.2c-2.4,0-4.2-0.6-5.5-1.9c-1.3-1.3-1.9-3.1-1.9-5.4v-23.6h3.4
			v23.4c0,1.5,0.4,2.6,1.1,3.4c0.7,0.8,1.8,1.2,3.2,1.2c1.5,0,2.7-0.4,3.7-1.3l1.2,2.4c-0.7,0.6-1.5,1.1-2.4,1.3
			C520.4,937,519.5,937.2,518.5,937.2z"/>
		<path class="st8" d="M531.7,906.3c-0.7,0-1.3-0.2-1.8-0.7c-0.5-0.5-0.7-1.1-0.7-1.7c0-0.7,0.2-1.2,0.7-1.7
			c0.5-0.5,1.1-0.7,1.8-0.7c0.7,0,1.3,0.2,1.8,0.7c0.5,0.4,0.7,1,0.7,1.7c0,0.7-0.2,1.3-0.7,1.8C533,906.1,532.4,906.3,531.7,906.3z
			 M530,937v-25.1h3.4V937H530z"/>
		<path class="st8" d="M553.2,937.2c-2.5,0-4.7-0.5-6.7-1.6c-2-1.1-3.5-2.6-4.6-4.5c-1.1-1.9-1.7-4.1-1.7-6.6c0-2.5,0.6-4.7,1.7-6.6
			c1.1-1.9,2.7-3.4,4.6-4.5c2-1.1,4.2-1.6,6.7-1.6c2.1,0,4.1,0.4,5.8,1.2c1.7,0.8,3.1,2.1,4.1,3.7l-2.5,1.7
			c-0.9-1.3-1.9-2.2-3.2-2.8c-1.3-0.6-2.7-0.9-4.2-0.9c-1.8,0-3.4,0.4-4.8,1.2c-1.4,0.8-2.6,2-3.4,3.4c-0.8,1.5-1.2,3.2-1.2,5.2
			s0.4,3.7,1.2,5.2c0.8,1.5,2,2.6,3.4,3.4c1.4,0.8,3,1.2,4.8,1.2c1.5,0,2.9-0.3,4.2-0.9c1.3-0.6,2.3-1.5,3.2-2.8l2.5,1.7
			c-1,1.6-2.3,2.9-4.1,3.7C557.3,936.8,555.4,937.2,553.2,937.2z"/>
		<path class="st8" d="M576.8,937.2c-1.9,0-3.5-0.3-4.9-0.9c-1.4-0.6-2.4-1.5-3.2-2.6c-0.7-1.1-1.1-2.4-1.1-3.8
			c0-1.3,0.3-2.5,0.9-3.6c0.6-1.1,1.6-1.9,3.1-2.6c1.4-0.7,3.3-1,5.7-1h8.7v2.5h-8.6c-2.4,0-4.1,0.4-5,1.3c-0.9,0.9-1.4,1.9-1.4,3.2
			c0,1.4,0.6,2.6,1.7,3.4c1.1,0.9,2.7,1.3,4.7,1.3c1.9,0,3.6-0.4,4.9-1.3c1.4-0.9,2.4-2.1,3-3.8l0.8,2.3c-0.6,1.7-1.7,3-3.3,4
			C581.2,936.7,579.2,937.2,576.8,937.2z M585.5,937v-5.5l-0.1-0.9v-9.3c0-2.1-0.6-3.8-1.8-4.9c-1.2-1.1-3-1.7-5.3-1.7
			c-1.6,0-3.2,0.3-4.6,0.8c-1.5,0.5-2.7,1.3-3.7,2.2l-1.5-2.5c1.3-1.1,2.8-1.9,4.6-2.5c1.8-0.6,3.7-0.9,5.6-0.9
			c3.3,0,5.8,0.8,7.5,2.4c1.8,1.6,2.7,4.1,2.7,7.3V937H585.5z"/>
		<path class="st8" d="M598,937v-35.5h3.4V937H598z"/>
	</g>
</g>
<g>
	<g>
		<path class="st8" d="M297.4,1308.4v-2.4l13.9-13.6c1.3-1.2,2.2-2.3,2.9-3.3c0.6-0.9,1.1-1.8,1.3-2.7c0.2-0.8,0.3-1.6,0.3-2.3
			c0-1.9-0.7-3.5-2-4.6c-1.3-1.1-3.3-1.7-5.9-1.7c-2,0-3.7,0.3-5.2,0.9c-1.5,0.6-2.8,1.5-3.9,2.8l-2.4-2.1c1.3-1.5,3-2.7,5-3.5
			c2-0.8,4.3-1.2,6.8-1.2c2.3,0,4.2,0.4,5.9,1.1c1.7,0.7,2.9,1.8,3.8,3.1c0.9,1.4,1.4,3,1.4,4.8c0,1.1-0.2,2.2-0.5,3.2
			c-0.3,1.1-0.8,2.2-1.6,3.3c-0.8,1.2-1.9,2.5-3.4,3.9l-12.8,12.5l-1-1.3h20.8v3.1H297.4z"/>
		<path class="st8" d="M323.5,1299.6v-2.5l17.7-22.2h3.8l-17.6,22.2l-1.9-0.6h26.9v3.1H323.5z M342.4,1308.4v-8.8l0.1-3.1v-7.7h3.3
			v19.6H342.4z"/>
		<path class="st8" d="M370.5,1317.7v-34.4h3.3v7.6l-0.3,5l0.5,5.1v16.7H370.5z M383.4,1308.7c-2.2,0-4.1-0.5-5.9-1.5
			c-1.8-1-3.1-2.5-4.2-4.4c-1-1.9-1.6-4.2-1.6-7s0.5-5.1,1.5-7c1-1.9,2.4-3.3,4.2-4.3c1.8-1,3.7-1.5,5.9-1.5c2.4,0,4.5,0.5,6.4,1.6
			c1.9,1.1,3.4,2.6,4.5,4.5c1.1,1.9,1.6,4.2,1.6,6.7c0,2.5-0.5,4.8-1.6,6.7c-1.1,1.9-2.6,3.4-4.5,4.5
			C388,1308.1,385.8,1308.7,383.4,1308.7z M383.2,1305.7c1.8,0,3.4-0.4,4.8-1.2c1.4-0.8,2.5-2,3.3-3.4c0.8-1.5,1.2-3.2,1.2-5.1
			s-0.4-3.7-1.2-5.1c-0.8-1.5-1.9-2.6-3.3-3.4c-1.4-0.8-3-1.2-4.8-1.2c-1.8,0-3.4,0.4-4.8,1.2c-1.4,0.8-2.5,2-3.3,3.4
			c-0.8,1.5-1.2,3.2-1.2,5.1s0.4,3.7,1.2,5.1c0.8,1.5,1.9,2.6,3.3,3.4C379.8,1305.3,381.4,1305.7,383.2,1305.7z"/>
		<path class="st8" d="M399,1286.2v-2.8h15.5v2.8H399z M410.8,1308.7c-2.4,0-4.2-0.6-5.5-1.9c-1.3-1.3-1.9-3.1-1.9-5.4v-23.6h3.4
			v23.4c0,1.5,0.4,2.6,1.1,3.4c0.7,0.8,1.8,1.2,3.2,1.2c1.5,0,2.7-0.4,3.7-1.3l1.2,2.4c-0.7,0.6-1.5,1.1-2.4,1.3
			C412.8,1308.5,411.8,1308.7,410.8,1308.7z"/>
		<path class="st8" d="M445,1308.4l-14.8-33.5h3.8l13.9,31.5h-2.1l14-31.5h3.6l-14.8,33.5H445z"/>
		<path class="st8" d="M476.2,1308.7c-2.6,0-4.9-0.5-6.9-1.6c-2-1.1-3.5-2.6-4.6-4.5c-1.1-1.9-1.7-4.1-1.7-6.6
			c0-2.5,0.5-4.7,1.6-6.6c1.1-1.9,2.5-3.4,4.4-4.5c1.9-1.1,4-1.6,6.3-1.6c2.4,0,4.5,0.5,6.3,1.6c1.8,1.1,3.3,2.6,4.3,4.5
			c1.1,1.9,1.6,4.2,1.6,6.7c0,0.2,0,0.3,0,0.5c0,0.2,0,0.4,0,0.5h-21.9v-2.5h20l-1.3,1c0-1.8-0.4-3.4-1.2-4.9
			c-0.8-1.4-1.8-2.5-3.2-3.3c-1.3-0.8-2.9-1.2-4.6-1.2c-1.7,0-3.3,0.4-4.6,1.2c-1.4,0.8-2.4,1.9-3.2,3.3c-0.8,1.4-1.1,3.1-1.1,4.9
			v0.5c0,1.9,0.4,3.6,1.3,5c0.8,1.4,2,2.6,3.5,3.4c1.5,0.8,3.2,1.2,5.2,1.2c1.5,0,3-0.3,4.3-0.8c1.3-0.5,2.5-1.4,3.4-2.5l1.9,2.2
			c-1.1,1.3-2.5,2.4-4.2,3.1S478.2,1308.7,476.2,1308.7z"/>
		<path class="st8" d="M494.4,1308.4v-25.1h3.3v6.8l-0.3-1.2c0.7-1.9,1.9-3.4,3.5-4.4c1.7-1,3.7-1.5,6.2-1.5v3.3c-0.1,0-0.3,0-0.4,0
			c-0.1,0-0.3,0-0.4,0c-2.6,0-4.7,0.8-6.2,2.4c-1.5,1.6-2.2,3.9-2.2,6.9v12.8H494.4z"/>
		<path class="st8" d="M510.4,1286.2v-2.8h15.5v2.8H510.4z M522.3,1308.7c-2.4,0-4.2-0.6-5.5-1.9c-1.3-1.3-1.9-3.1-1.9-5.4v-23.6
			h3.4v23.4c0,1.5,0.4,2.6,1.1,3.4c0.7,0.8,1.8,1.2,3.2,1.2c1.5,0,2.7-0.4,3.7-1.3l1.2,2.4c-0.7,0.6-1.5,1.1-2.4,1.3
			C524.2,1308.5,523.3,1308.7,522.3,1308.7z"/>
		<path class="st8" d="M535.5,1277.8c-0.7,0-1.3-0.2-1.8-0.7c-0.5-0.5-0.7-1.1-0.7-1.7s0.2-1.2,0.7-1.7c0.5-0.5,1.1-0.7,1.8-0.7
			c0.7,0,1.3,0.2,1.8,0.7c0.5,0.4,0.7,1,0.7,1.7c0,0.7-0.2,1.3-0.7,1.8C536.8,1277.5,536.2,1277.8,535.5,1277.8z M533.7,1308.4
			v-25.1h3.4v25.1H533.7z"/>
		<path class="st8" d="M557,1308.7c-2.5,0-4.7-0.5-6.7-1.6c-2-1.1-3.5-2.6-4.6-4.5c-1.1-1.9-1.7-4.1-1.7-6.6c0-2.5,0.6-4.7,1.7-6.6
			c1.1-1.9,2.7-3.4,4.6-4.5c2-1.1,4.2-1.6,6.7-1.6c2.1,0,4.1,0.4,5.8,1.2c1.7,0.8,3.1,2.1,4.1,3.7l-2.5,1.7
			c-0.9-1.3-1.9-2.2-3.2-2.8c-1.3-0.6-2.7-0.9-4.2-0.9c-1.8,0-3.4,0.4-4.8,1.2c-1.4,0.8-2.6,2-3.4,3.4c-0.8,1.5-1.2,3.2-1.2,5.2
			s0.4,3.7,1.2,5.2c0.8,1.5,2,2.6,3.4,3.4c1.4,0.8,3,1.2,4.8,1.2c1.5,0,2.9-0.3,4.2-0.9c1.3-0.6,2.3-1.5,3.2-2.8l2.5,1.7
			c-1,1.6-2.3,2.9-4.1,3.7C561.1,1308.3,559.2,1308.7,557,1308.7z"/>
		<path class="st8" d="M580.6,1308.7c-1.9,0-3.5-0.3-4.9-0.9c-1.4-0.6-2.4-1.5-3.2-2.6c-0.7-1.1-1.1-2.4-1.1-3.8
			c0-1.3,0.3-2.5,0.9-3.6c0.6-1.1,1.6-1.9,3.1-2.6c1.4-0.7,3.3-1,5.7-1h8.7v2.5h-8.6c-2.4,0-4.1,0.4-5,1.3c-0.9,0.9-1.4,1.9-1.4,3.2
			c0,1.4,0.6,2.6,1.7,3.4c1.1,0.9,2.7,1.3,4.7,1.3c1.9,0,3.6-0.4,4.9-1.3c1.4-0.9,2.4-2.1,3-3.8l0.8,2.3c-0.6,1.7-1.7,3-3.3,4
			C585,1308.2,583,1308.7,580.6,1308.7z M589.3,1308.4v-5.5l-0.1-0.9v-9.3c0-2.1-0.6-3.8-1.8-4.9c-1.2-1.1-3-1.7-5.3-1.7
			c-1.6,0-3.2,0.3-4.6,0.8c-1.5,0.5-2.7,1.3-3.7,2.2l-1.5-2.5c1.3-1.1,2.8-1.9,4.6-2.5c1.8-0.6,3.7-0.9,5.6-0.9
			c3.3,0,5.8,0.8,7.5,2.4c1.8,1.6,2.7,4.1,2.7,7.3v15.6H589.3z"/>
		<path class="st8" d="M601.7,1308.4V1273h3.4v35.5H601.7z"/>
	</g>
</g>
<g>
	<g>
		<path class="st8" d="M303.9,1647.1v-32l1.5,1.6H296v-3.1h11.3v33.5H303.9z"/>
		<path class="st8" d="M328,1647.4c-2.7,0-5-0.4-6.9-1.1c-1.9-0.8-3.4-1.9-4.4-3.3c-1-1.4-1.6-3.2-1.6-5.1c0-1.9,0.5-3.5,1.5-4.9
			c1-1.4,2.5-2.4,4.4-3.1c1.9-0.7,4.3-1.1,7-1.1c2.7,0,5,0.4,7,1.1c1.9,0.7,3.4,1.8,4.5,3.1c1,1.4,1.6,3,1.6,4.9
			c0,2-0.5,3.7-1.6,5.1c-1.1,1.4-2.6,2.6-4.5,3.3C333,1647,330.7,1647.4,328,1647.4z M328,1630.6c-2.5,0-4.6-0.3-6.3-1
			c-1.7-0.7-3.1-1.6-4-2.9c-0.9-1.3-1.4-2.8-1.4-4.5c0-1.9,0.5-3.4,1.5-4.8c1-1.3,2.3-2.3,4.1-3s3.8-1.1,6.2-1.1
			c2.4,0,4.4,0.4,6.2,1.1c1.8,0.7,3.1,1.7,4.1,3c1,1.3,1.5,2.9,1.5,4.8c0,1.8-0.5,3.3-1.4,4.5c-0.9,1.3-2.3,2.2-4,2.9
			C332.6,1630.3,330.5,1630.6,328,1630.6z M328,1644.5c3,0,5.3-0.6,7-1.8c1.7-1.2,2.5-2.9,2.5-4.9c0-2.1-0.8-3.7-2.5-4.9
			c-1.7-1.2-4-1.8-7-1.8c-3,0-5.3,0.6-6.9,1.8c-1.7,1.2-2.5,2.8-2.5,4.9c0,2.1,0.8,3.7,2.5,4.9C322.7,1643.9,325,1644.5,328,1644.5z
			 M328,1628.3c2.6,0,4.7-0.5,6.1-1.6c1.5-1.1,2.2-2.5,2.2-4.4c0-1.9-0.8-3.4-2.3-4.5c-1.5-1.1-3.5-1.6-6-1.6s-4.5,0.5-6,1.6
			c-1.5,1.1-2.2,2.5-2.2,4.4c0,1.9,0.7,3.3,2.2,4.4C323.4,1627.8,325.4,1628.3,328,1628.3z"/>
		<path class="st8" d="M360.6,1656.4V1622h3.3v7.6l-0.3,5l0.5,5.1v16.7H360.6z M373.5,1647.4c-2.2,0-4.1-0.5-5.9-1.5
			c-1.8-1-3.1-2.5-4.2-4.4c-1-1.9-1.6-4.2-1.6-7c0-2.7,0.5-5.1,1.5-7c1-1.9,2.4-3.3,4.2-4.3c1.8-1,3.7-1.5,5.9-1.5
			c2.4,0,4.5,0.5,6.4,1.6c1.9,1.1,3.4,2.6,4.5,4.5c1.1,1.9,1.6,4.2,1.6,6.7c0,2.5-0.5,4.8-1.6,6.7c-1.1,1.9-2.6,3.4-4.5,4.5
			C378.1,1646.8,375.9,1647.4,373.5,1647.4z M373.3,1644.3c1.8,0,3.4-0.4,4.8-1.2c1.4-0.8,2.5-2,3.3-3.4c0.8-1.5,1.2-3.2,1.2-5.1
			c0-1.9-0.4-3.7-1.2-5.1c-0.8-1.5-1.9-2.6-3.3-3.4c-1.4-0.8-3-1.2-4.8-1.2c-1.8,0-3.4,0.4-4.8,1.2c-1.4,0.8-2.5,2-3.3,3.4
			c-0.8,1.5-1.2,3.2-1.2,5.1c0,1.9,0.4,3.7,1.2,5.1c0.8,1.5,1.9,2.6,3.3,3.4C369.9,1643.9,371.5,1644.3,373.3,1644.3z"/>
		<path class="st8" d="M389.1,1624.8v-2.8h15.5v2.8H389.1z M400.9,1647.4c-2.4,0-4.2-0.6-5.5-1.9c-1.3-1.3-1.9-3.1-1.9-5.4v-23.6
			h3.4v23.4c0,1.5,0.4,2.6,1.1,3.4c0.7,0.8,1.8,1.2,3.2,1.2c1.5,0,2.7-0.4,3.7-1.3l1.2,2.4c-0.7,0.6-1.5,1.1-2.4,1.3
			C402.9,1647.2,401.9,1647.4,400.9,1647.4z"/>
		<path class="st8" d="M435.1,1647.1l-14.8-33.5h3.8l13.9,31.5h-2.1l14-31.5h3.6l-14.8,33.5H435.1z"/>
		<path class="st8" d="M466.3,1647.4c-2.6,0-4.9-0.5-6.9-1.6c-2-1.1-3.5-2.6-4.6-4.5c-1.1-1.9-1.7-4.1-1.7-6.6
			c0-2.5,0.5-4.7,1.6-6.6c1.1-1.9,2.5-3.4,4.4-4.5c1.9-1.1,4-1.6,6.3-1.6c2.4,0,4.5,0.5,6.3,1.6c1.8,1.1,3.3,2.6,4.3,4.5
			c1.1,1.9,1.6,4.2,1.6,6.7c0,0.2,0,0.3,0,0.5c0,0.2,0,0.4,0,0.5h-21.9v-2.5h20l-1.3,1c0-1.8-0.4-3.4-1.2-4.9
			c-0.8-1.4-1.8-2.5-3.2-3.3c-1.3-0.8-2.9-1.2-4.6-1.2c-1.7,0-3.3,0.4-4.6,1.2c-1.4,0.8-2.4,1.9-3.2,3.3c-0.8,1.4-1.1,3.1-1.1,4.9
			v0.5c0,1.9,0.4,3.6,1.3,5c0.8,1.4,2,2.6,3.5,3.4c1.5,0.8,3.2,1.2,5.2,1.2c1.5,0,3-0.3,4.3-0.8c1.3-0.5,2.5-1.4,3.4-2.5l1.9,2.2
			c-1.1,1.3-2.5,2.4-4.2,3.1C470.2,1647,468.3,1647.4,466.3,1647.4z"/>
		<path class="st8" d="M484.5,1647.1V1622h3.3v6.8l-0.3-1.2c0.7-1.9,1.9-3.4,3.5-4.4c1.7-1,3.7-1.5,6.2-1.5v3.3c-0.1,0-0.3,0-0.4,0
			c-0.1,0-0.3,0-0.4,0c-2.6,0-4.7,0.8-6.2,2.4c-1.5,1.6-2.2,3.9-2.2,6.9v12.8H484.5z"/>
		<path class="st8" d="M500.5,1624.8v-2.8h15.5v2.8H500.5z M512.4,1647.4c-2.4,0-4.2-0.6-5.5-1.9c-1.3-1.3-1.9-3.1-1.9-5.4v-23.6
			h3.4v23.4c0,1.5,0.4,2.6,1.1,3.4c0.7,0.8,1.8,1.2,3.2,1.2c1.5,0,2.7-0.4,3.7-1.3l1.2,2.4c-0.7,0.6-1.5,1.1-2.4,1.3
			C514.3,1647.2,513.4,1647.4,512.4,1647.4z"/>
		<path class="st8" d="M525.6,1616.5c-0.7,0-1.3-0.2-1.8-0.7c-0.5-0.5-0.7-1.1-0.7-1.7s0.2-1.2,0.7-1.7c0.5-0.5,1.1-0.7,1.8-0.7
			c0.7,0,1.3,0.2,1.8,0.7c0.5,0.4,0.7,1,0.7,1.7c0,0.7-0.2,1.3-0.7,1.8C526.9,1616.2,526.3,1616.5,525.6,1616.5z M523.8,1647.1V1622
			h3.4v25.1H523.8z"/>
		<path class="st8" d="M547.1,1647.4c-2.5,0-4.7-0.5-6.7-1.6c-2-1.1-3.5-2.6-4.6-4.5c-1.1-1.9-1.7-4.1-1.7-6.6
			c0-2.5,0.6-4.7,1.7-6.6c1.1-1.9,2.7-3.4,4.6-4.5c2-1.1,4.2-1.6,6.7-1.6c2.1,0,4.1,0.4,5.8,1.2c1.7,0.8,3.1,2.1,4.1,3.7l-2.5,1.7
			c-0.9-1.3-1.9-2.2-3.2-2.8c-1.3-0.6-2.7-0.9-4.2-0.9c-1.8,0-3.4,0.4-4.8,1.2c-1.4,0.8-2.6,2-3.4,3.4c-0.8,1.5-1.2,3.2-1.2,5.2
			c0,2,0.4,3.7,1.2,5.2c0.8,1.5,2,2.6,3.4,3.4c1.4,0.8,3,1.2,4.8,1.2c1.5,0,2.9-0.3,4.2-0.9c1.3-0.6,2.3-1.5,3.2-2.8l2.5,1.7
			c-1,1.6-2.3,2.9-4.1,3.7C551.2,1646.9,549.3,1647.4,547.1,1647.4z"/>
		<path class="st8" d="M570.7,1647.4c-1.9,0-3.5-0.3-4.9-0.9c-1.4-0.6-2.4-1.5-3.2-2.6c-0.7-1.1-1.1-2.4-1.1-3.8
			c0-1.3,0.3-2.5,0.9-3.6c0.6-1.1,1.6-1.9,3.1-2.6c1.4-0.7,3.3-1,5.7-1h8.7v2.5h-8.6c-2.4,0-4.1,0.4-5,1.3c-0.9,0.9-1.4,1.9-1.4,3.2
			c0,1.4,0.6,2.6,1.7,3.4c1.1,0.9,2.7,1.3,4.7,1.3c1.9,0,3.6-0.4,4.9-1.3c1.4-0.9,2.4-2.1,3-3.8l0.8,2.3c-0.6,1.7-1.7,3-3.3,4
			C575.1,1646.9,573.1,1647.4,570.7,1647.4z M579.4,1647.1v-5.5l-0.1-0.9v-9.3c0-2.1-0.6-3.8-1.8-4.9c-1.2-1.1-3-1.7-5.3-1.7
			c-1.6,0-3.2,0.3-4.6,0.8c-1.5,0.5-2.7,1.3-3.7,2.2l-1.5-2.5c1.3-1.1,2.8-1.9,4.6-2.5c1.8-0.6,3.7-0.9,5.6-0.9
			c3.3,0,5.8,0.8,7.5,2.4c1.8,1.6,2.7,4.1,2.7,7.3v15.6H579.4z"/>
		<path class="st8" d="M591.8,1647.1v-35.5h3.4v35.5H591.8z"/>
	</g>
</g>
<g>
	<g>
		<path class="st8" d="M303.9,1975.7v-32l1.5,1.6H296v-3.1h11.3v33.5H303.9z"/>
		<path class="st8" d="M314.7,1975.7v-2.4l13.9-13.6c1.3-1.2,2.2-2.3,2.9-3.3c0.6-0.9,1.1-1.8,1.3-2.7c0.2-0.8,0.3-1.6,0.3-2.3
			c0-1.9-0.7-3.5-2-4.6c-1.3-1.1-3.3-1.7-5.9-1.7c-2,0-3.7,0.3-5.2,0.9c-1.5,0.6-2.8,1.5-3.9,2.8l-2.4-2.1c1.3-1.5,3-2.7,5-3.5
			c2-0.8,4.3-1.2,6.8-1.2c2.3,0,4.2,0.4,5.9,1.1c1.7,0.7,2.9,1.8,3.8,3.1c0.9,1.4,1.4,3,1.4,4.8c0,1.1-0.2,2.2-0.5,3.2
			c-0.3,1.1-0.8,2.2-1.6,3.3c-0.8,1.2-1.9,2.5-3.4,3.9l-12.8,12.5l-1-1.3h20.8v3.1H314.7z"/>
		<path class="st8" d="M357.2,1985v-34.4h3.3v7.6l-0.3,5l0.5,5.1v16.7H357.2z M370.2,1975.9c-2.2,0-4.1-0.5-5.9-1.5
			c-1.8-1-3.1-2.5-4.2-4.4c-1-1.9-1.6-4.2-1.6-7s0.5-5.1,1.5-7c1-1.9,2.4-3.3,4.2-4.3c1.8-1,3.7-1.5,5.9-1.5c2.4,0,4.5,0.5,6.4,1.6
			c1.9,1.1,3.4,2.6,4.5,4.5c1.1,1.9,1.6,4.2,1.6,6.7c0,2.5-0.5,4.8-1.6,6.7c-1.1,1.9-2.6,3.4-4.5,4.5
			C374.7,1975.4,372.6,1975.9,370.2,1975.9z M369.9,1972.9c1.8,0,3.4-0.4,4.8-1.2c1.4-0.8,2.5-2,3.3-3.4c0.8-1.5,1.2-3.2,1.2-5.1
			s-0.4-3.7-1.2-5.1c-0.8-1.5-1.9-2.6-3.3-3.4c-1.4-0.8-3-1.2-4.8-1.2c-1.8,0-3.4,0.4-4.8,1.2c-1.4,0.8-2.5,2-3.3,3.4
			c-0.8,1.5-1.2,3.2-1.2,5.1s0.4,3.7,1.2,5.1c0.8,1.5,1.9,2.6,3.3,3.4C366.5,1972.5,368.1,1972.9,369.9,1972.9z"/>
		<path class="st8" d="M385.7,1953.4v-2.8h15.5v2.8H385.7z M397.6,1975.9c-2.4,0-4.2-0.6-5.5-1.9c-1.3-1.3-1.9-3.1-1.9-5.4V1945h3.4
			v23.4c0,1.5,0.4,2.6,1.1,3.4c0.7,0.8,1.8,1.2,3.2,1.2c1.5,0,2.7-0.4,3.7-1.3l1.2,2.4c-0.7,0.6-1.5,1.1-2.4,1.3
			C399.5,1975.8,398.6,1975.9,397.6,1975.9z"/>
		<path class="st8" d="M431.8,1975.7l-14.8-33.5h3.8l13.9,31.5h-2.1l14-31.5h3.6l-14.8,33.5H431.8z"/>
		<path class="st8" d="M463,1975.9c-2.6,0-4.9-0.5-6.9-1.6c-2-1.1-3.5-2.6-4.6-4.5c-1.1-1.9-1.7-4.1-1.7-6.6c0-2.5,0.5-4.7,1.6-6.6
			c1.1-1.9,2.5-3.4,4.4-4.5c1.9-1.1,4-1.6,6.3-1.6c2.4,0,4.5,0.5,6.3,1.6c1.8,1.1,3.3,2.6,4.3,4.5c1.1,1.9,1.6,4.2,1.6,6.7
			c0,0.2,0,0.3,0,0.5c0,0.2,0,0.4,0,0.5h-21.9v-2.5h20l-1.3,1c0-1.8-0.4-3.4-1.2-4.9c-0.8-1.4-1.8-2.5-3.2-3.3
			c-1.3-0.8-2.9-1.2-4.6-1.2c-1.7,0-3.3,0.4-4.6,1.2c-1.4,0.8-2.4,1.9-3.2,3.3c-0.8,1.4-1.1,3.1-1.1,4.9v0.5c0,1.9,0.4,3.6,1.3,5
			c0.8,1.4,2,2.6,3.5,3.4c1.5,0.8,3.2,1.2,5.2,1.2c1.5,0,3-0.3,4.3-0.8s2.5-1.4,3.4-2.5l1.9,2.2c-1.1,1.3-2.5,2.4-4.2,3.1
			C466.8,1975.6,465,1975.9,463,1975.9z"/>
		<path class="st8" d="M481.2,1975.7v-25.1h3.3v6.8l-0.3-1.2c0.7-1.9,1.9-3.4,3.5-4.4c1.7-1,3.7-1.5,6.2-1.5v3.3c-0.1,0-0.3,0-0.4,0
			c-0.1,0-0.3,0-0.4,0c-2.6,0-4.7,0.8-6.2,2.4c-1.5,1.6-2.2,3.9-2.2,6.9v12.8H481.2z"/>
		<path class="st8" d="M497.2,1953.4v-2.8h15.5v2.8H497.2z M509,1975.9c-2.4,0-4.2-0.6-5.5-1.9c-1.3-1.3-1.9-3.1-1.9-5.4V1945h3.4
			v23.4c0,1.5,0.4,2.6,1.1,3.4c0.7,0.8,1.8,1.2,3.2,1.2c1.5,0,2.7-0.4,3.7-1.3l1.2,2.4c-0.7,0.6-1.5,1.1-2.4,1.3
			C511,1975.8,510,1975.9,509,1975.9z"/>
		<path class="st8" d="M522.2,1945c-0.7,0-1.3-0.2-1.8-0.7c-0.5-0.5-0.7-1.1-0.7-1.7c0-0.7,0.2-1.2,0.7-1.7c0.5-0.5,1.1-0.7,1.8-0.7
			c0.7,0,1.3,0.2,1.8,0.7c0.5,0.4,0.7,1,0.7,1.7c0,0.7-0.2,1.3-0.7,1.8C523.5,1944.8,523,1945,522.2,1945z M520.5,1975.7v-25.1h3.4
			v25.1H520.5z"/>
		<path class="st8" d="M543.8,1975.9c-2.5,0-4.7-0.5-6.7-1.6c-2-1.1-3.5-2.6-4.6-4.5c-1.1-1.9-1.7-4.1-1.7-6.6
			c0-2.5,0.6-4.7,1.7-6.6c1.1-1.9,2.7-3.4,4.6-4.5c2-1.1,4.2-1.6,6.7-1.6c2.1,0,4.1,0.4,5.8,1.2c1.7,0.8,3.1,2.1,4.1,3.7l-2.5,1.7
			c-0.9-1.3-1.9-2.2-3.2-2.8c-1.3-0.6-2.7-0.9-4.2-0.9c-1.8,0-3.4,0.4-4.8,1.2c-1.4,0.8-2.6,2-3.4,3.4c-0.8,1.5-1.2,3.2-1.2,5.2
			c0,2,0.4,3.7,1.2,5.2c0.8,1.5,2,2.6,3.4,3.4c1.4,0.8,3,1.2,4.8,1.2c1.5,0,2.9-0.3,4.2-0.9c1.3-0.6,2.3-1.5,3.2-2.8l2.5,1.7
			c-1,1.6-2.3,2.9-4.1,3.7C547.8,1975.5,545.9,1975.9,543.8,1975.9z"/>
		<path class="st8" d="M567.4,1975.9c-1.9,0-3.5-0.3-4.9-0.9c-1.4-0.6-2.4-1.5-3.2-2.6c-0.7-1.1-1.1-2.4-1.1-3.8
			c0-1.3,0.3-2.5,0.9-3.6c0.6-1.1,1.6-1.9,3.1-2.6c1.4-0.7,3.3-1,5.7-1h8.7v2.5H568c-2.4,0-4.1,0.4-5,1.3c-0.9,0.9-1.4,1.9-1.4,3.2
			c0,1.4,0.6,2.6,1.7,3.4c1.1,0.9,2.7,1.3,4.7,1.3c1.9,0,3.6-0.4,4.9-1.3c1.4-0.9,2.4-2.1,3-3.8l0.8,2.3c-0.6,1.7-1.7,3-3.3,4
			C571.7,1975.4,569.7,1975.9,567.4,1975.9z M576,1975.7v-5.5l-0.1-0.9v-9.3c0-2.1-0.6-3.8-1.8-4.9c-1.2-1.1-3-1.7-5.3-1.7
			c-1.6,0-3.2,0.3-4.6,0.8c-1.5,0.5-2.7,1.3-3.7,2.2l-1.5-2.5c1.3-1.1,2.8-1.9,4.6-2.5c1.8-0.6,3.7-0.9,5.6-0.9
			c3.3,0,5.8,0.8,7.5,2.4c1.8,1.6,2.7,4.1,2.7,7.3v15.6H576z"/>
		<path class="st8" d="M588.5,1975.7v-35.5h3.4v35.5H588.5z"/>
	</g>
</g>
<g>
	<g>
		<path class="st8" d="M310.7,2296.1c-2.7,0-5-0.4-6.9-1.1s-3.4-1.9-4.4-3.3s-1.6-3.2-1.6-5.1c0-1.9,0.5-3.5,1.5-4.9
			c1-1.4,2.5-2.4,4.4-3.1c1.9-0.7,4.3-1.1,7-1.1c2.7,0,5,0.4,7,1.1c1.9,0.7,3.4,1.8,4.5,3.1c1,1.4,1.6,3,1.6,4.9
			c0,2-0.5,3.7-1.6,5.1c-1.1,1.4-2.6,2.6-4.5,3.3C315.7,2295.8,313.4,2296.1,310.7,2296.1z M310.7,2279.4c-2.5,0-4.6-0.3-6.3-1
			c-1.7-0.7-3.1-1.6-4-2.9c-0.9-1.3-1.4-2.8-1.4-4.5c0-1.9,0.5-3.4,1.5-4.8c1-1.3,2.3-2.3,4.1-3s3.8-1.1,6.2-1.1
			c2.4,0,4.4,0.4,6.2,1.1c1.8,0.7,3.1,1.7,4.1,3c1,1.3,1.5,2.9,1.5,4.8c0,1.8-0.5,3.3-1.4,4.5c-0.9,1.3-2.3,2.2-4,2.9
			C315.4,2279,313.2,2279.4,310.7,2279.4z M310.7,2293.2c3,0,5.3-0.6,7-1.8s2.5-2.9,2.5-4.9s-0.8-3.7-2.5-4.9c-1.7-1.2-4-1.8-7-1.8
			c-3,0-5.3,0.6-6.9,1.8c-1.7,1.2-2.5,2.8-2.5,4.9s0.8,3.7,2.5,4.9C305.5,2292.6,307.8,2293.2,310.7,2293.2z M310.7,2277.1
			c2.6,0,4.7-0.5,6.1-1.6c1.5-1.1,2.2-2.5,2.2-4.4c0-1.9-0.8-3.4-2.3-4.5c-1.5-1.1-3.5-1.6-6-1.6s-4.5,0.5-6,1.6
			c-1.5,1.1-2.2,2.5-2.2,4.4c0,1.9,0.7,3.3,2.2,4.4C306.1,2276.5,308.1,2277.1,310.7,2277.1z"/>
		<path class="st8" d="M343.3,2305.1v-34.4h3.3v7.6l-0.3,5l0.5,5.1v16.7H343.3z M356.3,2296.1c-2.2,0-4.1-0.5-5.9-1.5
			c-1.8-1-3.1-2.5-4.2-4.4c-1-1.9-1.6-4.2-1.6-7c0-2.7,0.5-5.1,1.5-7c1-1.9,2.4-3.3,4.2-4.3c1.8-1,3.7-1.5,5.9-1.5
			c2.4,0,4.5,0.5,6.4,1.6c1.9,1.1,3.4,2.6,4.5,4.5c1.1,1.9,1.6,4.2,1.6,6.7c0,2.5-0.5,4.8-1.6,6.7c-1.1,1.9-2.6,3.4-4.5,4.5
			C360.8,2295.5,358.6,2296.1,356.3,2296.1z M356,2293.1c1.8,0,3.4-0.4,4.8-1.2c1.4-0.8,2.5-2,3.3-3.4c0.8-1.5,1.2-3.2,1.2-5.1
			c0-1.9-0.4-3.7-1.2-5.1c-0.8-1.5-1.9-2.6-3.3-3.4c-1.4-0.8-3-1.2-4.8-1.2c-1.8,0-3.4,0.4-4.8,1.2c-1.4,0.8-2.5,2-3.3,3.4
			c-0.8,1.5-1.2,3.2-1.2,5.1c0,1.9,0.4,3.7,1.2,5.1c0.8,1.5,1.9,2.6,3.3,3.4C352.6,2292.7,354.2,2293.1,356,2293.1z"/>
		<path class="st8" d="M371.8,2273.6v-2.8h15.5v2.8H371.8z M383.7,2296.1c-2.4,0-4.2-0.6-5.5-1.9c-1.3-1.3-1.9-3.1-1.9-5.4v-23.6
			h3.4v23.4c0,1.5,0.4,2.6,1.1,3.4c0.7,0.8,1.8,1.2,3.2,1.2c1.5,0,2.7-0.4,3.7-1.3l1.2,2.4c-0.7,0.6-1.5,1.1-2.4,1.3
			C385.6,2295.9,384.6,2296.1,383.7,2296.1z"/>
		<path class="st8" d="M417.9,2295.9l-14.8-33.5h3.8l13.9,31.5h-2.1l14-31.5h3.6l-14.8,33.5H417.9z"/>
		<path class="st8" d="M449.1,2296.1c-2.6,0-4.9-0.5-6.9-1.6s-3.5-2.6-4.6-4.5c-1.1-1.9-1.7-4.1-1.7-6.6c0-2.5,0.5-4.7,1.6-6.6
			c1.1-1.9,2.5-3.4,4.4-4.5c1.9-1.1,4-1.6,6.3-1.6c2.4,0,4.5,0.5,6.3,1.6c1.8,1.1,3.3,2.6,4.3,4.5c1.1,1.9,1.6,4.2,1.6,6.7
			c0,0.2,0,0.3,0,0.5c0,0.2,0,0.4,0,0.5h-21.9v-2.5h20l-1.3,1c0-1.8-0.4-3.4-1.2-4.9c-0.8-1.4-1.8-2.5-3.2-3.3
			c-1.3-0.8-2.9-1.2-4.6-1.2c-1.7,0-3.3,0.4-4.6,1.2c-1.4,0.8-2.4,1.9-3.2,3.3c-0.8,1.4-1.1,3.1-1.1,4.9v0.5c0,1.9,0.4,3.6,1.3,5
			c0.8,1.4,2,2.6,3.5,3.4c1.5,0.8,3.2,1.2,5.2,1.2c1.5,0,3-0.3,4.3-0.8c1.3-0.5,2.5-1.4,3.4-2.5l1.9,2.2c-1.1,1.3-2.5,2.4-4.2,3.1
			C452.9,2295.7,451.1,2296.1,449.1,2296.1z"/>
		<path class="st8" d="M467.3,2295.9v-25.1h3.3v6.8l-0.3-1.2c0.7-1.9,1.9-3.4,3.5-4.4c1.7-1,3.7-1.5,6.2-1.5v3.3c-0.1,0-0.3,0-0.4,0
			c-0.1,0-0.3,0-0.4,0c-2.6,0-4.7,0.8-6.2,2.4c-1.5,1.6-2.2,3.9-2.2,6.9v12.8H467.3z"/>
		<path class="st8" d="M483.3,2273.6v-2.8h15.5v2.8H483.3z M495.1,2296.1c-2.4,0-4.2-0.6-5.5-1.9c-1.3-1.3-1.9-3.1-1.9-5.4v-23.6
			h3.4v23.4c0,1.5,0.4,2.6,1.1,3.4c0.7,0.8,1.8,1.2,3.2,1.2c1.5,0,2.7-0.4,3.7-1.3l1.2,2.4c-0.7,0.6-1.5,1.1-2.4,1.3
			C497.1,2295.9,496.1,2296.1,495.1,2296.1z"/>
		<path class="st8" d="M508.3,2265.2c-0.7,0-1.3-0.2-1.8-0.7c-0.5-0.5-0.7-1.1-0.7-1.7c0-0.7,0.2-1.2,0.7-1.7
			c0.5-0.5,1.1-0.7,1.8-0.7c0.7,0,1.3,0.2,1.8,0.7c0.5,0.4,0.7,1,0.7,1.7c0,0.7-0.2,1.3-0.7,1.8C509.6,2265,509,2265.2,508.3,2265.2
			z M506.6,2295.9v-25.1h3.4v25.1H506.6z"/>
		<path class="st8" d="M529.9,2296.1c-2.5,0-4.7-0.5-6.7-1.6c-2-1.1-3.5-2.6-4.6-4.5c-1.1-1.9-1.7-4.1-1.7-6.6
			c0-2.5,0.6-4.7,1.7-6.6c1.1-1.9,2.7-3.4,4.6-4.5c2-1.1,4.2-1.6,6.7-1.6c2.1,0,4.1,0.4,5.8,1.2c1.7,0.8,3.1,2.1,4.1,3.7l-2.5,1.7
			c-0.9-1.3-1.9-2.2-3.2-2.8c-1.3-0.6-2.7-0.9-4.2-0.9c-1.8,0-3.4,0.4-4.8,1.2c-1.4,0.8-2.6,2-3.4,3.4c-0.8,1.5-1.2,3.2-1.2,5.2
			c0,2,0.4,3.7,1.2,5.2c0.8,1.5,2,2.6,3.4,3.4c1.4,0.8,3,1.2,4.8,1.2c1.5,0,2.9-0.3,4.2-0.9c1.3-0.6,2.3-1.5,3.2-2.8l2.5,1.7
			c-1,1.6-2.3,2.9-4.1,3.7C533.9,2295.7,532,2296.1,529.9,2296.1z"/>
		<path class="st8" d="M553.4,2296.1c-1.9,0-3.5-0.3-4.9-0.9s-2.4-1.5-3.2-2.6c-0.7-1.1-1.1-2.4-1.1-3.8c0-1.3,0.3-2.5,0.9-3.6
			c0.6-1.1,1.6-1.9,3.1-2.6c1.4-0.7,3.3-1,5.7-1h8.7v2.5h-8.6c-2.4,0-4.1,0.4-5,1.3c-0.9,0.9-1.4,1.9-1.4,3.2c0,1.4,0.6,2.6,1.7,3.4
			s2.7,1.3,4.7,1.3c1.9,0,3.6-0.4,4.9-1.3c1.4-0.9,2.4-2.1,3-3.8l0.8,2.3c-0.6,1.7-1.7,3-3.3,4
			C557.8,2295.6,555.8,2296.1,553.4,2296.1z M562.1,2295.9v-5.5l-0.1-0.9v-9.3c0-2.1-0.6-3.8-1.8-4.9c-1.2-1.1-3-1.7-5.3-1.7
			c-1.6,0-3.2,0.3-4.6,0.8c-1.5,0.5-2.7,1.3-3.7,2.2l-1.5-2.5c1.3-1.1,2.8-1.9,4.6-2.5c1.8-0.6,3.7-0.9,5.6-0.9
			c3.3,0,5.8,0.8,7.5,2.4c1.8,1.6,2.7,4.1,2.7,7.3v15.6H562.1z"/>
		<path class="st8" d="M574.6,2295.9v-35.5h3.4v35.5H574.6z"/>
	</g>
</g>
<g>
	
		<linearGradient id="SVGID_00000067195007089155425250000010128687484405716136_" gradientUnits="userSpaceOnUse" x1="919.3589" y1="2311.6172" x2="1111.8693" y2="2285.7021">
		<stop  offset="0" style="stop-color:#004169"/>
		<stop  offset="0.33" style="stop-color:#00657E"/>
		<stop  offset="0.7" style="stop-color:#009180"/>
		<stop  offset="0.9987" style="stop-color:#B2D5A2"/>
	</linearGradient>
	<path style="fill:url(#SVGID_00000067195007089155425250000010128687484405716136_);" d="M1082.5,2283.1c-3.7,0-7.2,2-9,5.3
		l-0.5,0.9c-1.6,2.9,0.5,6.5,3.9,6.5h4h4.4c3.7,0,7.2-2,9-5.3l3.3-6h0.8l0.8-1.5H1082.5z M1089.8,2287.4l-1.3,2.4
		c-1.4,2.5-4.7,4.6-7.2,4.6c-2.6,0-3.5-2.1-2.1-4.7l0.3-0.4c1.4-2.6,4.6-4.7,7.2-4.7h7C1092,2284.8,1090.6,2286,1089.8,2287.4z"/>
	
		<linearGradient id="SVGID_00000038402110627030049670000015803317396905319553_" gradientUnits="userSpaceOnUse" x1="918.4669" y1="2304.9905" x2="1110.9773" y2="2279.0757">
		<stop  offset="0" style="stop-color:#004169"/>
		<stop  offset="0.33" style="stop-color:#00657E"/>
		<stop  offset="0.7" style="stop-color:#009180"/>
		<stop  offset="0.9987" style="stop-color:#B2D5A2"/>
	</linearGradient>
	<path style="fill:url(#SVGID_00000038402110627030049670000015803317396905319553_);" d="M1043.5,2284.5l0.8,0l0.8-1.5h-16.7
		c-3.7,0-7.2,2-9,5.3l-0.5,0.9c-1.6,2.9,0.5,6.5,3.9,6.5h4c1.7,0,3.7-0.8,5.3-2l-1.1,2l8.9,0l0.8-1.5h-1.3c-0.7,0-0.9-0.5-0.6-1.2
		L1043.5,2284.5z M1035.7,2287.4l-1.2,2.2c-1.4,2.6-4.7,4.7-7.3,4.7c-2.6,0-3.5-2.1-2.1-4.7l0.3-0.4c1.4-2.6,4.6-4.7,7.2-4.7h7
		C1038,2284.8,1036.4,2286,1035.7,2287.4z"/>
	
		<linearGradient id="SVGID_00000008117719814011659210000007611057530002653374_" gradientUnits="userSpaceOnUse" x1="917.0735" y1="2294.6401" x2="1109.5758" y2="2268.7263">
		<stop  offset="0" style="stop-color:#004169"/>
		<stop  offset="0.33" style="stop-color:#00657E"/>
		<stop  offset="0.7" style="stop-color:#009180"/>
		<stop  offset="0.9987" style="stop-color:#B2D5A2"/>
	</linearGradient>
	<path style="fill:url(#SVGID_00000008117719814011659210000007611057530002653374_);" d="M989.4,2284.5l0.8,0l0.8-1.5h-0.8l4.5-8.1
		h-8.9l-0.8,1.5h1.3c0.7,0,0.9,0.6,0.6,1.2l-3,5.4h-9.6c-3.7,0-7.2,2-9,5.3l-0.5,0.9c-1.6,2.9,0.5,6.5,3.9,6.5h4
		c1.7,0,3.7-0.8,5.3-2l-1.1,2l8.9,0l0.8-1.5h-1.3c-0.7,0-0.9-0.5-0.6-1.2L989.4,2284.5z M981.5,2287.4l-1.2,2.2
		c-1.4,2.6-4.7,4.7-7.3,4.7c-2.6,0-3.5-2.1-2.1-4.7l0.3-0.4c1.4-2.6,4.6-4.7,7.2-4.7h7C983.8,2284.8,982.2,2286,981.5,2287.4z"/>
	
		<linearGradient id="SVGID_00000070089103740606054530000014263440443020056749_" gradientUnits="userSpaceOnUse" x1="918.8286" y1="2307.6777" x2="1111.339" y2="2281.7627">
		<stop  offset="0" style="stop-color:#004169"/>
		<stop  offset="0.33" style="stop-color:#00657E"/>
		<stop  offset="0.7" style="stop-color:#009180"/>
		<stop  offset="0.9987" style="stop-color:#B2D5A2"/>
	</linearGradient>
	<path style="fill:url(#SVGID_00000070089103740606054530000014263440443020056749_);" d="M1064.6,2283.1l-0.8,1.5h4
		c-1.7,0.3-3.1,1.4-3.9,2.9l-1.3,2.3c-1.4,2.6-4.7,4.7-7.2,4.7h-7c1.6-0.3,3.1-1.4,3.9-2.9l4.6-8.4h-8.9l-0.8,1.5h1.3
		c0.7,0,0.9,0.5,0.6,1.2l-5.5,10.1h15.9c3.7,0,7.1-2,8.9-5.1l4.2-7.6H1064.6z"/>
	
		<linearGradient id="SVGID_00000023283232014275700450000006491513566403848093_" gradientUnits="userSpaceOnUse" x1="917.4432" y1="2297.386" x2="1109.9536" y2="2271.4712">
		<stop  offset="0" style="stop-color:#004169"/>
		<stop  offset="0.33" style="stop-color:#00657E"/>
		<stop  offset="0.7" style="stop-color:#009180"/>
		<stop  offset="0.9987" style="stop-color:#B2D5A2"/>
	</linearGradient>
	<path style="fill:url(#SVGID_00000023283232014275700450000006491513566403848093_);" d="M965.2,2283.1h-13.3
		c0.1-0.1,0.2-0.3,0.2-0.5c0-0.4-0.3-0.8-0.8-0.8c-0.4,0-0.8,0.3-0.8,0.8c0,0.2,0.1,0.4,0.2,0.5h-9.4c-3.6,0-7.1,2.1-8.9,5.2
		l6.1,0.4c1.5-2.3,4.5-4.1,6.9-4.1h14c-1.7,0.3-3.1,1.4-3.9,2.9l-0.5,1c-0.8,1.5-2.7,2.7-4.2,2.7h-7.9l-0.8,1.5h6.2
		c2.4,0.1,3.3,2.2,1.9,4.7l-0.6,1.1c-1.4,2.6-4.6,4.7-7.2,4.7h-7c-2.5,0-3.6-2-2.1-4.8l0.3-0.5c0.6-1.1,1.6-2.1,2.6-2.9h-6.7
		c-0.8,0.7-1.5,1.6-2.1,2.6l-0.2,0.4c-1.6,2.9,0.5,6.5,3.9,6.5h15.6c3.7,0,7.1-2,8.9-5.2l0.3-0.6c1.3-2.4,0.1-5.2-2.2-6.2h0.9
		c2.6,0,5.8-2.1,7.2-4.7l1.9-3.4h0.8L965.2,2283.1z"/>
	
		<linearGradient id="SVGID_00000050630998175061966870000015811470486599143088_" gradientUnits="userSpaceOnUse" x1="917.7961" y1="2300.0076" x2="1110.3065" y2="2274.0928">
		<stop  offset="0" style="stop-color:#004169"/>
		<stop  offset="0.33" style="stop-color:#00657E"/>
		<stop  offset="0.7" style="stop-color:#009180"/>
		<stop  offset="0.9987" style="stop-color:#B2D5A2"/>
	</linearGradient>
	<path style="fill:url(#SVGID_00000050630998175061966870000015811470486599143088_);" d="M1019.4,2283.1H1007c-1.7,0-3.7,0.8-5.3,2
		l1.1-2h-8.9l-0.8,1.5h1.3c0.7,0,0.9,0.5,0.6,1.2l-5.5,10.1h8.9l0.8-1.5h-1.3c-0.7,0-0.9-0.6-0.6-1.2l2.2-3.9
		c1.4-2.6,4.7-4.7,7.3-4.7h7c-1.7,0.3-3.1,1.4-3.9,2.9l-0.9,1.6c-0.4,0.7-1.2,1.3-1.9,1.3h-1.3l-0.8,1.5h8.8l3.9-7.2h1
		L1019.4,2283.1z"/>
</g>
<g>
	
		<linearGradient id="SVGID_00000165224605316540662040000006698263236289688761_" gradientUnits="userSpaceOnUse" x1="910.4484" y1="1999.7142" x2="1193.6608" y2="1962.693">
		<stop  offset="0" style="stop-color:#004169"/>
		<stop  offset="0.33" style="stop-color:#00657E"/>
		<stop  offset="0.7" style="stop-color:#009180"/>
		<stop  offset="0.9987" style="stop-color:#B2D5A2"/>
	</linearGradient>
	<path style="fill:url(#SVGID_00000165224605316540662040000006698263236289688761_);" d="M1153.8,1958.2c-5.6,0-10.8,3.1-13.5,8
		l-0.6,1.1c-2.4,4.4,0.8,9.8,5.8,9.8h6.1h6.6c5.6,0,10.8-3.1,13.5-8l4.9-9h1.2l1-1.9H1153.8z M1164.8,1964.4l-2.2,3.9
		c-2.2,3.8-6.9,6.8-10.8,6.8c-3.9,0-5.4-3.2-3.2-7l0.6-1c2.1-3.9,7-7,10.9-7h10.6C1168.1,1960.5,1166,1962.2,1164.8,1964.4z"/>
	
		<linearGradient id="SVGID_00000108271390903930347210000014998913976030820258_" gradientUnits="userSpaceOnUse" x1="909.2296" y1="1990.3906" x2="1192.442" y2="1953.3694">
		<stop  offset="0" style="stop-color:#004169"/>
		<stop  offset="0.33" style="stop-color:#00657E"/>
		<stop  offset="0.7" style="stop-color:#009180"/>
		<stop  offset="0.9987" style="stop-color:#B2D5A2"/>
	</linearGradient>
	<path style="fill:url(#SVGID_00000108271390903930347210000014998913976030820258_);" d="M1075.2,1958.2c-5.6,0-10.8,3.1-13.5,8
		l-0.6,1.1c-2.4,4.4,0.8,9.8,5.8,9.8h6.1c2.6,0,5.5-1.2,8-3.1l-1.7,3.1l13.3,0l1-1.9h-2c-1,0-1.4-0.8-0.9-1.8l7.3-13.3l1.2,0l1-1.9
		H1075.2z M1086.3,1964.4l-2,3.7c-2.1,3.9-7,7.1-10.9,7.1c-3.9,0-5.3-3.2-3.2-7l0.6-1c2.1-3.9,7-7,10.9-7h10.6
		C1089.8,1960.5,1087.4,1962.2,1086.3,1964.4z"/>
	
		<linearGradient id="SVGID_00000147941625341438982110000006019812304347110804_" gradientUnits="userSpaceOnUse" x1="907.2581" y1="1975.3086" x2="1190.4705" y2="1938.2874">
		<stop  offset="0" style="stop-color:#004169"/>
		<stop  offset="0.33" style="stop-color:#00657E"/>
		<stop  offset="0.7" style="stop-color:#009180"/>
		<stop  offset="0.9987" style="stop-color:#B2D5A2"/>
	</linearGradient>
	<path style="fill:url(#SVGID_00000147941625341438982110000006019812304347110804_);" d="M1027.4,1945.7h-13.3l-1,1.9h2
		c1,0,1.4,0.8,0.9,1.9l-4.9,8.8h-14.4c-5.6,0-10.8,3.1-13.5,8l-0.6,1.1c-2.4,4.4,0.8,9.8,5.8,9.8h6.1c2.6,0,5.5-1.2,8-3.1l-1.7,3.1
		l13.3,0l1-1.9h-2c-1,0-1.4-0.8-0.9-1.8l7.3-13.3l1.2,0l1-1.9h-1.2L1027.4,1945.7z M1007.7,1964.4l-2,3.7c-2.1,3.9-7,7.1-10.9,7.1
		c-3.9,0-5.3-3.2-3.2-7l0.6-1c2.1-3.9,7-7,10.9-7h10.6C1011.1,1960.5,1008.8,1962.2,1007.7,1964.4z"/>
	
		<linearGradient id="SVGID_00000155846820992788625460000018109017636168578958_" gradientUnits="userSpaceOnUse" x1="909.7194" y1="1994.1368" x2="1192.9318" y2="1957.1156">
		<stop  offset="0" style="stop-color:#004169"/>
		<stop  offset="0.33" style="stop-color:#00657E"/>
		<stop  offset="0.7" style="stop-color:#009180"/>
		<stop  offset="0.9987" style="stop-color:#B2D5A2"/>
	</linearGradient>
	<path style="fill:url(#SVGID_00000155846820992788625460000018109017636168578958_);" d="M1134.1,1969.3l6.1-11.1h-12l-1,1.9l6,0
		c-2.5,0.4-4.6,2.1-5.8,4.3l-2.1,3.7c-2.1,3.9-7,7-10.9,7h-10.5c2.5-0.4,4.6-2.1,5.8-4.3l6.9-12.6h-13.3l-1,1.9h2
		c1,0,1.4,0.8,0.9,1.8l-8.3,15.1h23.8C1126.3,1977,1131.4,1974.1,1134.1,1969.3"/>
	
		<linearGradient id="SVGID_00000020364103473494485080000006698102004457579648_" gradientUnits="userSpaceOnUse" x1="908.3018" y1="1983.2924" x2="1191.5142" y2="1946.2712">
		<stop  offset="0" style="stop-color:#004169"/>
		<stop  offset="0.33" style="stop-color:#00657E"/>
		<stop  offset="0.7" style="stop-color:#009180"/>
		<stop  offset="0.9987" style="stop-color:#B2D5A2"/>
	</linearGradient>
	<path style="fill:url(#SVGID_00000020364103473494485080000006698102004457579648_);" d="M1047.3,1967.1c-0.6,1-1.9,1.9-2.9,1.9h-2
		l-1,1.9h13.3l5.9-10.8h1.5l1-1.9l-18.7,0c-2.6,0-5.5,1.2-8,3.1l1.7-3.1l-13.3,0l-1,1.9h2c1,0,1.4,0.8,0.9,1.8l-8.3,15.1h13.3l1-1.9
		h-2c-1,0-1.4-0.8-0.9-1.9l3.4-6.2c2.2-3.9,7-7,10.9-7l10.5,0c-2.5,0.4-4.6,2.1-5.8,4.3L1047.3,1967.1z"/>
	
		<linearGradient id="SVGID_00000165949764142390325280000000410315010937092542_" gradientUnits="userSpaceOnUse" x1="907.8696" y1="1979.986" x2="1191.0819" y2="1942.9647">
		<stop  offset="0" style="stop-color:#004169"/>
		<stop  offset="0.33" style="stop-color:#00657E"/>
		<stop  offset="0.7" style="stop-color:#009180"/>
		<stop  offset="0.9987" style="stop-color:#B2D5A2"/>
	</linearGradient>
	<path style="fill:url(#SVGID_00000165949764142390325280000000410315010937092542_);" d="M964.3,1958.2c0.2-0.2,0.3-0.4,0.3-0.7
		c0-0.6-0.5-1.1-1.1-1.1c-0.6,0-1.1,0.5-1.1,1.1c0,0.3,0.1,0.5,0.3,0.7h-14.1c-6.1,0-10.7,3.4-13.5,8.1h9.5
		c2.3-3.5,6.8-6.2,10.4-6.2H976c-2.5,0.4-4.6,2.1-5.8,4.3l-1,1.8c-1.2,2.3-4.1,4.1-6.3,4.1h-11.9l-1,1.9h9.3c3.6,0.2,4.9,3.3,2.8,7
		l-1.1,1.9c-2.1,3.9-7,7-10.9,7h-10.5c-3.7,0-5.4-3-3.2-7.1l0.6-1c0.9-1.7,2.3-3.2,3.9-4.4h-10.1c-1.2,1.1-2.3,2.5-3.1,4l-0.4,0.7
		c-2.4,4.4,0.8,9.8,5.8,9.8h23.3c5.5,0,10.6-3,13.3-7.8l0.5-0.8c2-3.6,0.2-7.9-3.3-9.3h1.4c3.9,0,8.7-3.1,10.9-7l2.8-5.1h1.2l1-1.9
		H964.3z"/>
</g>
<linearGradient id="SVGID_00000151511483522372856710000014015320232381651391_" gradientUnits="userSpaceOnUse" x1="2213.3662" y1="1990.0671" x2="2291.1108" y2="1955.514">
	<stop  offset="0" style="stop-color:#004169"/>
	<stop  offset="0.33" style="stop-color:#00657E"/>
	<stop  offset="0.7" style="stop-color:#009180"/>
	<stop  offset="0.9987" style="stop-color:#B2D5A2"/>
</linearGradient>
<path style="fill:url(#SVGID_00000151511483522372856710000014015320232381651391_);" d="M2260.9,1958.2c0.2-0.2,0.3-0.4,0.3-0.7
	c0-0.6-0.5-1.1-1.1-1.1c-0.6,0-1.1,0.5-1.1,1.1c0,0.3,0.1,0.5,0.3,0.7h-14.1c-6.1,0-10.7,3.4-13.5,8.1h9.5c2.3-3.5,6.8-6.2,10.4-6.2
	h21.1c-2.5,0.4-4.6,2.1-5.8,4.3l-1,1.8c-1.2,2.3-4.1,4.1-6.3,4.1h-11.9l-1,1.9h9.3c3.6,0.2,4.9,3.3,2.8,7l-1.1,1.9
	c-2.1,3.9-7,7-10.9,7h-10.5c-3.7,0-5.4-3-3.2-7.1l0.6-1c0.9-1.7,2.3-3.2,3.9-4.4h-10.1c-1.2,1.1-2.3,2.5-3.1,4l-0.4,0.7
	c-2.4,4.4,0.8,9.8,5.8,9.8h23.3c5.5,0,10.6-3,13.3-7.8l0.5-0.8c2-3.6,0.2-7.9-3.3-9.3h1.4c3.9,0,8.7-3.1,10.9-7l2.8-5.1h1.2l1-1.9
	H2260.9z"/>
<linearGradient id="SVGID_00000180366815662154849030000018277069782292583340_" gradientUnits="userSpaceOnUse" x1="2780.3489" y1="2289.0037" x2="2855.9116" y2="2278.6321">
	<stop  offset="0" style="stop-color:#043C5A"/>
	<stop  offset="0.33" style="stop-color:#006980"/>
	<stop  offset="0.7" style="stop-color:#009C86"/>
	<stop  offset="1" style="stop-color:#A7D6A3"/>
</linearGradient>
<rect x="2779.7" y="2283.1" style="fill:url(#SVGID_00000180366815662154849030000018277069782292583340_);" width="76.8" height="1.5"/>
<linearGradient id="SVGID_00000154393604742170069740000014082992539985821865_" gradientUnits="userSpaceOnUse" x1="2780.324" y1="1964.3186" x2="2855.9365" y2="1953.9404">
	<stop  offset="0" style="stop-color:#043C5A"/>
	<stop  offset="0.33" style="stop-color:#006980"/>
	<stop  offset="0.7" style="stop-color:#009C86"/>
	<stop  offset="1" style="stop-color:#A7D6A3"/>
</linearGradient>
<rect x="2779.7" y="1958.2" style="fill:url(#SVGID_00000154393604742170069740000014082992539985821865_);" width="76.8" height="1.9"/>
<linearGradient id="SVGID_00000145030962470537841360000017806816870579842709_" gradientUnits="userSpaceOnUse" x1="2780.2993" y1="1630.5531" x2="2855.9614" y2="1620.1681">
	<stop  offset="0" style="stop-color:#043C5A"/>
	<stop  offset="0.33" style="stop-color:#006980"/>
	<stop  offset="0.7" style="stop-color:#009C86"/>
	<stop  offset="1" style="stop-color:#A7D6A3"/>
</linearGradient>
<rect x="2779.7" y="1624.3" style="fill:url(#SVGID_00000145030962470537841360000017806816870579842709_);" width="76.8" height="2.2"/>
<g>
	
		<linearGradient id="SVGID_00000119090034521039115860000000568243431911935381_" gradientUnits="userSpaceOnUse" x1="914.6008" y1="1683.1187" x2="1318.1321" y2="1631.2889">
		<stop  offset="0" style="stop-color:#004169"/>
		<stop  offset="0.33" style="stop-color:#00657E"/>
		<stop  offset="0.7" style="stop-color:#009180"/>
		<stop  offset="0.9987" style="stop-color:#B2D5A2"/>
	</linearGradient>
	<path style="fill:url(#SVGID_00000119090034521039115860000000568243431911935381_);" d="M1261.8,1624.2c-8.4,0-16.1,4.6-20.2,12
		l-0.6,1c-3.6,6.6,1.2,14.7,8.7,14.7h9.1l0,0h9.9c8.4,0,16.1-4.6,20.2-12l7.4-13.5h1.9l1.2-2.2H1261.8z M1278.7,1633l-3.5,6.5
		c-3.2,5.7-10.4,10.3-16.2,10.3c-5.8,0-8-4.7-4.8-10.6l1.1-2.1c3.2-5.8,10.5-10.6,16.3-10.6h15.8
		C1283.7,1627.1,1280.5,1629.7,1278.7,1633z"/>
	
		<linearGradient id="SVGID_00000129914537099065189940000018400372301726000044_" gradientUnits="userSpaceOnUse" x1="912.869" y1="1669.6356" x2="1316.4004" y2="1617.8058">
		<stop  offset="0" style="stop-color:#004169"/>
		<stop  offset="0.33" style="stop-color:#00657E"/>
		<stop  offset="0.7" style="stop-color:#009180"/>
		<stop  offset="0.9987" style="stop-color:#B2D5A2"/>
	</linearGradient>
	<path style="fill:url(#SVGID_00000129914537099065189940000018400372301726000044_);" d="M1146.1,1624.2c-8.4,0-16.1,4.6-20.2,11.9
		l-0.6,1c-3.6,6.6,1.2,14.7,8.7,14.7h9.1c3.9,0,8.3-1.8,12-4.6l-2.5,4.6l19.9,0l1.2-2.2h-3c-1.5,0-2.1-1.2-1.3-2.7l11.2-20.5l1.9,0
		l1.2-2.2H1146.1z M1163,1633l-3.3,6.1c-3.2,5.9-10.5,10.6-16.4,10.6c-5.8,0-8-4.7-4.8-10.6l1.1-2.1c3.2-5.8,10.5-10.6,16.3-10.6
		l15.8,0C1168.2,1627,1164.7,1629.7,1163,1633z"/>
	
		<linearGradient id="SVGID_00000026157168576458587510000004487363974363881859_" gradientUnits="userSpaceOnUse" x1="909.9913" y1="1647.2305" x2="1313.5226" y2="1595.4008">
		<stop  offset="0" style="stop-color:#004169"/>
		<stop  offset="0.33" style="stop-color:#00657E"/>
		<stop  offset="0.7" style="stop-color:#009180"/>
		<stop  offset="0.9987" style="stop-color:#B2D5A2"/>
	</linearGradient>
	<path style="fill:url(#SVGID_00000026157168576458587510000004487363974363881859_);" d="M1076.7,1604.9h-19.9l-1.2,2.2h3
		c1.5,0,2.1,1.2,1.3,2.8l-7.9,14.4h-21.7c-8.4,0-16.1,4.6-20.2,11.9l-0.6,1c-3.6,6.6,1.2,14.7,8.7,14.7h9.1c3.9,0,8.3-1.8,12-4.6
		l-2.5,4.6l19.9,0l1.2-2.2h-3c-1.5,0-2.1-1.2-1.3-2.7l11.2-20.5l1.9,0l1.2-2.2h-1.8L1076.7,1604.9z M1047.2,1633l-3.3,6.1
		c-3.2,5.9-10.5,10.6-16.4,10.6c-5.8,0-8-4.7-4.8-10.6l1.1-2.1c3.2-5.8,10.5-10.6,16.3-10.6h15.8
		C1052.4,1627,1048.8,1629.7,1047.2,1633z"/>
	
		<linearGradient id="SVGID_00000180332950726941578080000002320518842435079815_" gradientUnits="userSpaceOnUse" x1="913.5611" y1="1675.0242" x2="1317.0925" y2="1623.1945">
		<stop  offset="0" style="stop-color:#004169"/>
		<stop  offset="0.33" style="stop-color:#00657E"/>
		<stop  offset="0.7" style="stop-color:#009180"/>
		<stop  offset="0.9987" style="stop-color:#B2D5A2"/>
	</linearGradient>
	<path style="fill:url(#SVGID_00000180332950726941578080000002320518842435079815_);" d="M1233.7,1640.3l8.8-16.1h-18l-1.2,2.2l9,0
		c-3.7,0.6-6.9,3.2-8.7,6.5l-3.4,6.2c-3.2,5.8-10.5,10.5-16.3,10.5h-15.8c3.7-0.6,6.9-3.2,8.7-6.5l10.4-18.9h-19.9l-1.2,2.2h3
		c1.5,0,2.1,1.2,1.3,2.7l-12.5,22.7h35.8C1221.9,1651.9,1229.6,1647.5,1233.7,1640.3"/>
	
		<linearGradient id="SVGID_00000102540916494123355610000010935076067165243546_" gradientUnits="userSpaceOnUse" x1="911.5413" y1="1659.2987" x2="1315.0726" y2="1607.469">
		<stop  offset="0" style="stop-color:#004169"/>
		<stop  offset="0.33" style="stop-color:#00657E"/>
		<stop  offset="0.7" style="stop-color:#009180"/>
		<stop  offset="0.9987" style="stop-color:#B2D5A2"/>
	</linearGradient>
	<path style="fill:url(#SVGID_00000102540916494123355610000010935076067165243546_);" d="M1105.3,1637.6c-0.8,1.6-2.8,2.8-4.4,2.8
		h-3l-1.2,2.2h19.9l8.8-16.1h2.2l1.2-2.2l-28,0c-3.9,0-8.3,1.8-12,4.6l2.5-4.6l-19.9,0l-1.2,2.2h3c1.5,0,2.1,1.2,1.3,2.7l-12.5,22.7
		h19.9l1.2-2.2h-3c-1.5,0-2.1-1.2-1.3-2.8l5.4-9.9c3.2-5.8,10.5-10.5,16.3-10.5l15.8,0c-3.7,0.6-6.9,3.2-8.7,6.5L1105.3,1637.6z"/>
	
		<linearGradient id="SVGID_00000049214943962677160870000017385043762532036481_" gradientUnits="userSpaceOnUse" x1="910.9714" y1="1654.8612" x2="1314.5027" y2="1603.0315">
		<stop  offset="0" style="stop-color:#004169"/>
		<stop  offset="0.33" style="stop-color:#00657E"/>
		<stop  offset="0.7" style="stop-color:#009180"/>
		<stop  offset="0.9987" style="stop-color:#B2D5A2"/>
	</linearGradient>
	<path style="fill:url(#SVGID_00000049214943962677160870000017385043762532036481_);" d="M982.6,1624.2c0.2-0.2,0.4-0.6,0.4-0.9
		c0-0.8-0.6-1.4-1.4-1.4c-0.8,0-1.4,0.6-1.4,1.4c0,0.3,0.1,0.7,0.4,0.9h-21.3c-8.2,0-15.8,4.5-20,11.5h14.3
		c3.5-5.2,10.1-9.3,15.5-9.3h31.6c-3.7,0.6-6.9,3.2-8.7,6.5l-1.8,3.3c-1.8,3.4-6.1,6.2-9.5,6.2h-17.8l-1.2,2.2h13.9
		c5.4,0.3,7.3,4.9,4.3,10.6l-1.9,3.5c-3.2,5.8-10.5,10.6-16.3,10.6h-15.7c-5.6,0-8.2-4.6-4.7-10.7l1.1-2.1c1.3-2.5,3.5-4.8,5.9-6.6
		H933c-1.8,1.7-3.5,3.7-4.7,6l-0.5,1c-3.6,6.6,1.2,14.7,8.7,14.7h35c8.3,0,15.9-4.5,20-11.6l0.7-1.3c3-5.4,0.3-11.8-4.9-13.9h2.1
		c5.8,0,13.1-4.7,16.3-10.6l4.2-7.6h1.8l1.2-2.2H982.6z"/>
</g>
<g>
	
		<linearGradient id="SVGID_00000181800634551083704690000000577746171262630064_" gradientUnits="userSpaceOnUse" x1="914.8702" y1="1346.9813" x2="1438.7206" y2="1282.1941">
		<stop  offset="0" style="stop-color:#004169"/>
		<stop  offset="0.33" style="stop-color:#00657E"/>
		<stop  offset="0.7" style="stop-color:#009180"/>
		<stop  offset="0.9987" style="stop-color:#B2D5A2"/>
	</linearGradient>
	<path style="fill:url(#SVGID_00000181800634551083704690000000577746171262630064_);" d="M1369.9,1271.8
		c-11.2,0-21.5,6.1-26.9,15.9l-0.6,1.1c-4.8,8.8,1.5,19.6,11.6,19.6h12.1h13.2c11.2,0,21.5-6.1,26.9-15.9l9.9-18h2.5l1.5-2.7H1369.9
		z M1392.5,1283.2l-4.9,8.9c-4.3,7.6-13.9,13.7-21.6,13.7c-7.8,0-10.7-6.3-6.5-14.1l1.7-3c4.2-7.8,13.9-14.1,21.7-14.1h21.1
		C1399.2,1275.4,1395,1278.8,1392.5,1283.2z"/>
	
		<linearGradient id="SVGID_00000137093786213232551480000014217194380087664828_" gradientUnits="userSpaceOnUse" x1="912.7485" y1="1329.8252" x2="1436.5988" y2="1265.0381">
		<stop  offset="0" style="stop-color:#004169"/>
		<stop  offset="0.33" style="stop-color:#00657E"/>
		<stop  offset="0.7" style="stop-color:#009180"/>
		<stop  offset="0.9987" style="stop-color:#B2D5A2"/>
	</linearGradient>
	<path style="fill:url(#SVGID_00000137093786213232551480000014217194380087664828_);" d="M1248.1,1302.1l15.1-27.5l2.5,0l1.5-2.7
		H1217c-11.2,0-21.5,6.1-26.9,15.9l-0.6,1.1c-4.8,8.8,1.5,19.6,11.6,19.6h12.1c5.2,0,11.1-2.4,16-6.1l-3.4,6.1l26.6,0l1.5-2.7h-4
		C1247.9,1305.7,1247.1,1304.1,1248.1,1302.1z M1239.7,1283.2l-4.6,8.3c-4.3,7.8-14.1,14.2-21.9,14.2c-7.8,0-10.6-6.3-6.4-14.1
		l1.7-3c4.2-7.8,13.9-14.1,21.7-14.1h21.1C1246.6,1275.3,1241.9,1278.8,1239.7,1283.2z"/>
	
		<linearGradient id="SVGID_00000026161871685522136100000004564839450452585899_" gradientUnits="userSpaceOnUse" x1="909.1346" y1="1300.6046" x2="1432.985" y2="1235.8175">
		<stop  offset="0" style="stop-color:#004169"/>
		<stop  offset="0.33" style="stop-color:#00657E"/>
		<stop  offset="0.7" style="stop-color:#009180"/>
		<stop  offset="0.9987" style="stop-color:#B2D5A2"/>
	</linearGradient>
	<path style="fill:url(#SVGID_00000026161871685522136100000004564839450452585899_);" d="M1095.1,1302.1l15.1-27.5l2.5,0l1.5-2.7
		h-2.5l14.3-26.1h-26.6l-1.5,2.7h4c2.1,0,2.8,1.7,1.7,3.7l-10.8,19.7H1064c-11.2,0-21.5,6.1-26.9,15.9l-0.6,1.1
		c-4.8,8.8,1.5,19.6,11.6,19.6h12.1c5.2,0,11.1-2.4,16-6.1l-3.4,6.1l26.6,0l1.5-2.7h-4C1094.9,1305.7,1094.1,1304.1,1095.1,1302.1z
		 M1086.7,1283.2l-4.6,8.3c-4.3,7.8-14.1,14.2-21.9,14.2c-7.8,0-10.6-6.3-6.4-14.1l1.7-3c4.2-7.8,13.9-14.1,21.7-14.1h21.1
		C1093.6,1275.3,1088.9,1278.8,1086.7,1283.2z"/>
	
		<linearGradient id="SVGID_00000164513299890574189010000010330519350634291338_" gradientUnits="userSpaceOnUse" x1="913.5934" y1="1336.6575" x2="1437.4437" y2="1271.8702">
		<stop  offset="0" style="stop-color:#004169"/>
		<stop  offset="0.33" style="stop-color:#00657E"/>
		<stop  offset="0.7" style="stop-color:#009180"/>
		<stop  offset="0.9987" style="stop-color:#B2D5A2"/>
	</linearGradient>
	<path style="fill:url(#SVGID_00000164513299890574189010000010330519350634291338_);" d="M1320.9,1271.8l-1.5,2.7l12,0
		c-5,0.9-9.2,4.2-11.6,8.7l-4.7,8.5c-4.2,7.8-14,14.1-21.7,14.1h-21.1c4.9-0.9,9.2-4.3,11.6-8.7l13.9-25.3h-26.6l-1.5,2.7h4
		c2,0,2.8,1.6,1.8,3.7l-16.6,30.3h47.7c11,0,21.2-5.9,26.7-15.4l11.6-21.2H1320.9z"/>
	
		<linearGradient id="SVGID_00000040550692826424147800000005482644328490310285_" gradientUnits="userSpaceOnUse" x1="911.1152" y1="1316.6191" x2="1434.9656" y2="1251.832">
		<stop  offset="0" style="stop-color:#004169"/>
		<stop  offset="0.33" style="stop-color:#00657E"/>
		<stop  offset="0.7" style="stop-color:#009180"/>
		<stop  offset="0.9987" style="stop-color:#B2D5A2"/>
	</linearGradient>
	<path style="fill:url(#SVGID_00000040550692826424147800000005482644328490310285_);" d="M1193.3,1274.5l1.5-2.7h-37.4
		c-5.2,0-11.1,2.4-16,6.1l3.4-6.1l-26.6,0l-1.5,2.7h4c2,0,2.8,1.6,1.8,3.7l-16.6,30.3h26.6l1.5-2.7h-4c-2.1,0-2.8-1.7-1.7-3.7
		l7.4-13.5c4.3-7.7,14-14,21.8-14l21,0c-5,0.9-9.2,4.3-11.6,8.7l-3.5,6.4c-1.1,2.1-3.7,3.8-5.8,3.8h-4l-1.5,2.7h26.5l11.8-21.5
		H1193.3z"/>
	
		<linearGradient id="SVGID_00000004526964178603243490000006084604532979691705_" gradientUnits="userSpaceOnUse" x1="910.4893" y1="1311.5588" x2="1434.3397" y2="1246.7717">
		<stop  offset="0" style="stop-color:#004169"/>
		<stop  offset="0.33" style="stop-color:#00657E"/>
		<stop  offset="0.7" style="stop-color:#009180"/>
		<stop  offset="0.9987" style="stop-color:#B2D5A2"/>
	</linearGradient>
	<path style="fill:url(#SVGID_00000004526964178603243490000006084604532979691705_);" d="M1001.3,1271.8c0.3-0.3,0.5-0.7,0.5-1.2
		c0-1-0.8-1.9-1.9-1.9c-1,0-1.9,0.8-1.9,1.9c0,0.5,0.2,0.9,0.5,1.2H970c-10.9,0-21,5.8-26.5,15.1h19c4.6-7,13.5-12.4,20.7-12.4h42.1
		c-5,0.9-9.2,4.2-11.6,8.6l-2.5,4.7c-2.5,4.5-8.1,8.2-12.7,8.2h-23.8l-1.5,2.7h18.5c7.2,0.4,9.8,6.6,5.7,14.1l-2.7,4.9
		c-4.2,7.8-13.9,14.1-21.7,14.1h-21c-7.5,0.1-10.9-6.1-6.3-14.3l1.7-3.1c1.8-3.3,4.7-6.4,7.9-8.8h-20.1c-2.4,2.2-4.6,4.9-6.3,7.9
		l-0.7,1.3c-4.8,8.8,1.5,19.6,11.6,19.6h46.7c11,0,21.2-5.9,26.7-15.5l0.9-1.7c4-7.2,0.4-15.7-6.5-18.6h2.8
		c7.8,0,17.5-6.3,21.7-14.1l5.6-10.2h2.5l1.5-2.7H1001.3z"/>
</g>
<g>
	
		<linearGradient id="SVGID_00000144305446532163201640000011527906338941397182_" gradientUnits="userSpaceOnUse" x1="919.8862" y1="964.4974" x2="1621.4385" y2="883.0507">
		<stop  offset="0" style="stop-color:#004169"/>
		<stop  offset="0.33" style="stop-color:#00657E"/>
		<stop  offset="0.7" style="stop-color:#009180"/>
		<stop  offset="0.9987" style="stop-color:#B2D5A2"/>
	</linearGradient>
	<path style="fill:url(#SVGID_00000144305446532163201640000011527906338941397182_);" d="M1313.9,891.7c-14.9,0-28.7,8.1-35.9,21.2
		l-0.8,1.5c-6.5,11.8,2.1,26.1,15.5,26.1h16.1c7,0,14.8-3.2,21.3-8.2l-4.5,8.2l35.4,0l2-3.6h-5.3c-2.7,0-3.7-2.2-2.3-4.9l20.2-36.7
		l3.3,0l2-3.6H1313.9z M1344.1,906.9L1338,918c-5.7,10.4-18.7,18.9-29.2,18.9c-10.4,0-14.2-8.4-8.5-18.8l2.2-4
		c5.6-10.4,18.6-18.8,29-18.8l28.2,0C1353.3,896.4,1347,901.1,1344.1,906.9z"/>
	
		<linearGradient id="SVGID_00000064336646284154439590000012552972265437265575_" gradientUnits="userSpaceOnUse" x1="915.5094" y1="926.7972" x2="1617.0616" y2="845.3505">
		<stop  offset="0" style="stop-color:#004169"/>
		<stop  offset="0.33" style="stop-color:#00657E"/>
		<stop  offset="0.7" style="stop-color:#009180"/>
		<stop  offset="0.9987" style="stop-color:#B2D5A2"/>
	</linearGradient>
	<path style="fill:url(#SVGID_00000064336646284154439590000012552972265437265575_);" d="M1192.6,856.9h-35.4l-2,3.6h5.3
		c2.8,0,3.8,2.2,2.3,5l-14.4,26.2h-38.5c-14.9,0-28.7,8.1-35.9,21.2l-0.8,1.5c-6.5,11.8,2.1,26.1,15.5,26.1h16.1
		c7,0,14.8-3.2,21.3-8.2l-4.5,8.2l35.4,0l2-3.6h-5.3c-2.7,0-3.7-2.2-2.3-4.9l20.2-36.7l3.3,0l2-3.6h-3.3L1192.6,856.9z
		 M1140.1,906.9L1134,918c-5.7,10.4-18.7,18.9-29.2,18.9c-10.4,0-14.2-8.4-8.5-18.8l2.2-4c5.6-10.4,18.6-18.8,29-18.8h28.2
		C1149.3,896.4,1143,901.1,1140.1,906.9z"/>
	
		<linearGradient id="SVGID_00000089540843287741328970000010484708007789393062_" gradientUnits="userSpaceOnUse" x1="920.8787" y1="973.0464" x2="1622.4309" y2="891.5997">
		<stop  offset="0" style="stop-color:#004169"/>
		<stop  offset="0.33" style="stop-color:#00657E"/>
		<stop  offset="0.7" style="stop-color:#009180"/>
		<stop  offset="0.9987" style="stop-color:#B2D5A2"/>
	</linearGradient>
	<path style="fill:url(#SVGID_00000089540843287741328970000010484708007789393062_);" d="M1468.8,920l15.5-28.3h-32l-2,3.6l16.1,0
		c-6.6,1.1-12.3,5.7-15.5,11.5l-6.2,11.3c-5.6,10.4-18.6,18.7-29,18.7h-28.1c6.6-1.1,12.3-5.7,15.5-11.5l18.5-33.7h-35.4l-2,3.6h5.3
		c2.7,0,3.7,2.2,2.3,4.9l-22.1,40.3h63.6C1448,940.6,1461.6,932.7,1468.8,920"/>
	
		<linearGradient id="SVGID_00000039832195465309392450000009270350377646987672_" gradientUnits="userSpaceOnUse" x1="917.9628" y1="947.9302" x2="1619.5151" y2="866.4835">
		<stop  offset="0" style="stop-color:#004169"/>
		<stop  offset="0.33" style="stop-color:#00657E"/>
		<stop  offset="0.7" style="stop-color:#009180"/>
		<stop  offset="0.9987" style="stop-color:#B2D5A2"/>
	</linearGradient>
	<path style="fill:url(#SVGID_00000039832195465309392450000009270350377646987672_);" d="M1242.3,915.4c-1.5,2.8-5,5-7.7,5h-5.3
		l-2,3.6h35.4l15.7-28.7h3.9l2-3.6l-49.8,0c-7,0-14.8,3.2-21.3,8.2l4.5-8.2l-35.4,0l-2,3.6h5.3c2.7,0,3.7,2.2,2.3,4.9l-22.1,40.3
		h35.4l2-3.6h-5.3c-2.7,0-3.8-2.2-2.3-5l9.8-18c5.7-10.3,18.7-18.7,29-18.7l28,0c-6.6,1.1-12.3,5.7-15.5,11.5L1242.3,915.4z"/>
	
		<linearGradient id="SVGID_00000122695365779221100500000009451386250055758520_" gradientUnits="userSpaceOnUse" x1="922.3803" y1="985.9808" x2="1623.9326" y2="904.5341">
		<stop  offset="0" style="stop-color:#004169"/>
		<stop  offset="0.33" style="stop-color:#00657E"/>
		<stop  offset="0.7" style="stop-color:#009180"/>
		<stop  offset="0.9987" style="stop-color:#B2D5A2"/>
	</linearGradient>
	<path style="fill:url(#SVGID_00000122695365779221100500000009451386250055758520_);" d="M1584.6,891.7h-66.8
		c-14.9,0-28.7,8.1-35.9,21.2l-0.8,1.5c-1.6,2.9-2.3,6-2.2,9c0.3,9,7.6,17.1,17.6,17.1h16.1v0h17.6c14.9,0,28.7-8.1,35.9-21.2
		l13.2-24h3.3L1584.6,891.7L1584.6,891.7L1584.6,891.7z M1501.4,927.1c0-2.7,0.8-5.7,2.6-8.9l2.2-4c5.6-10.4,18.6-18.8,29-18.8h28
		c-6.5,1.2-12.2,5.7-15.4,11.5l-6.5,11.8c-5.8,10.1-18.6,18.3-28.8,18.3C1505.5,936.9,1501.5,933,1501.4,927.1z"/>
	
		<linearGradient id="SVGID_00000136402766774742434330000002487968237642261408_" gradientUnits="userSpaceOnUse" x1="919.882" y1="964.4605" x2="1621.4342" y2="883.0138">
		<stop  offset="0" style="stop-color:#004169"/>
		<stop  offset="0.33" style="stop-color:#00657E"/>
		<stop  offset="0.7" style="stop-color:#009180"/>
		<stop  offset="0.9987" style="stop-color:#B2D5A2"/>
	</linearGradient>
	<path style="fill:url(#SVGID_00000136402766774742434330000002487968237642261408_);" d="M1355.3,932l20.2-36.7l3.3,0l2-3.6h-66.9
		c-14.9,0-28.7,8.1-35.9,21.2l-0.8,1.5c-6.5,11.8,2.1,26.1,15.5,26.1h16.1c7,0,14.8-3.2,21.3-8.2l-4.5,8.2l35.4,0l2-3.6h-5.3
		C1355,936.9,1353.9,934.7,1355.3,932z M1344.1,906.9L1338,918c-5.7,10.4-18.7,18.9-29.2,18.9c-10.4,0-14.2-8.4-8.5-18.8l2.2-4
		c5.6-10.4,18.6-18.8,29-18.8h28.2C1353.3,896.3,1347,901.1,1344.1,906.9z"/>
	
		<linearGradient id="SVGID_00000068671298882343498990000003274572908416572839_" gradientUnits="userSpaceOnUse" x1="915.5051" y1="926.7605" x2="1617.0574" y2="845.3138">
		<stop  offset="0" style="stop-color:#004169"/>
		<stop  offset="0.33" style="stop-color:#00657E"/>
		<stop  offset="0.7" style="stop-color:#009180"/>
		<stop  offset="0.9987" style="stop-color:#B2D5A2"/>
	</linearGradient>
	<path style="fill:url(#SVGID_00000068671298882343498990000003274572908416572839_);" d="M1151.3,932l20.2-36.7l3.3,0l2-3.6h-3.3
		l19.1-34.8h-35.4l-2,3.6h5.3c2.8,0,3.8,2.2,2.3,5l-14.4,26.2h-38.5c-14.9,0-28.7,8.1-35.9,21.2l-0.8,1.5
		c-6.5,11.8,2.1,26.1,15.5,26.1h16.1c7,0,14.8-3.2,21.3-8.2l-4.5,8.2l35.4,0l2-3.6h-5.3C1151,936.9,1149.9,934.7,1151.3,932z
		 M1140.1,906.9L1134,918c-5.7,10.4-18.7,18.9-29.2,18.9c-10.4,0-14.2-8.4-8.5-18.8l2.2-4c5.6-10.4,18.6-18.8,29-18.8h28.2
		C1149.3,896.3,1143,901.1,1140.1,906.9z"/>
	
		<linearGradient id="SVGID_00000082367332022035642460000005307172948402865828_" gradientUnits="userSpaceOnUse" x1="920.8744" y1="973.0092" x2="1622.4266" y2="891.5625">
		<stop  offset="0" style="stop-color:#004169"/>
		<stop  offset="0.33" style="stop-color:#00657E"/>
		<stop  offset="0.7" style="stop-color:#009180"/>
		<stop  offset="0.9987" style="stop-color:#B2D5A2"/>
	</linearGradient>
	<path style="fill:url(#SVGID_00000082367332022035642460000005307172948402865828_);" d="M1452.4,891.7l-2,3.6l16.1,0
		c-6.6,1.1-12.3,5.7-15.5,11.5l-6.2,11.3c-5.6,10.4-18.6,18.7-29,18.7h-28.1c6.6-1.1,12.3-5.7,15.5-11.5l18.5-33.7h-35.4l-2,3.6h5.3
		c2.7,0,3.7,2.2,2.3,4.9l-22.1,40.3h63.6c14.7,0,28.3-7.9,35.6-20.6l15.5-28.3H1452.4z"/>
	
		<linearGradient id="SVGID_00000132070849255410512240000014422306018871781259_" gradientUnits="userSpaceOnUse" x1="917.9586" y1="947.8931" x2="1619.5107" y2="866.4465">
		<stop  offset="0" style="stop-color:#004169"/>
		<stop  offset="0.33" style="stop-color:#00657E"/>
		<stop  offset="0.7" style="stop-color:#009180"/>
		<stop  offset="0.9987" style="stop-color:#B2D5A2"/>
	</linearGradient>
	<path style="fill:url(#SVGID_00000132070849255410512240000014422306018871781259_);" d="M1282.2,895.3l2-3.6h-49.8
		c-7,0-14.8,3.2-21.3,8.2l4.5-8.2l-35.4,0l-2,3.6h5.3c2.7,0,3.7,2.2,2.3,4.9l-22.1,40.3h35.4l2-3.6h-5.3c-2.7,0-3.8-2.2-2.3-5
		l9.8-18c5.7-10.3,18.7-18.7,29-18.7l28,0c-6.6,1.1-12.3,5.7-15.5,11.5l-4.7,8.5c-1.5,2.8-5,5-7.7,5h-5.3l-2,3.6h35.4l15.7-28.7
		H1282.2z"/>
	
		<linearGradient id="SVGID_00000055697186514343779630000009985281576570793892_" gradientUnits="userSpaceOnUse" x1="917.3483" y1="942.637" x2="1618.9005" y2="861.1904">
		<stop  offset="0" style="stop-color:#004169"/>
		<stop  offset="0.33" style="stop-color:#00657E"/>
		<stop  offset="0.7" style="stop-color:#009180"/>
		<stop  offset="0.9987" style="stop-color:#B2D5A2"/>
	</linearGradient>
	<path style="fill:url(#SVGID_00000055697186514343779630000009985281576570793892_);" d="M1026.2,891.7c0.4-0.4,0.7-1,0.7-1.7
		c0-1.4-1.1-2.5-2.5-2.5c-1.4,0-2.5,1.1-2.5,2.5c0,0.6,0.3,1.2,0.7,1.7h-38.1c-14.5,0-27.9,7.7-35.3,20.2h25.4
		c6.2-9.3,18-16.5,27.6-16.5h56.2c-6.6,1.1-12.3,5.7-15.5,11.5l-3.4,6.2c-3.3,6.1-10.9,11-16.9,11h-31.7l-2,3.6h24.7
		c9.6,0.5,13,8.7,7.6,18.8l-3.6,6.5c-5.6,10.4-18.6,18.8-29,18.8h-28c-10,0.1-14.5-8.1-8.4-19l2.2-4.1c2.4-4.4,6.2-8.5,10.5-11.7
		h-26.9c-3.3,3-6.2,6.6-8.3,10.6l-1,1.8c-6.5,11.7,2.1,26.1,15.5,26.1h62.3c14.7,0,28.3-7.9,35.5-20.7l1.2-2.2
		c5.3-9.6,0.5-21-8.7-24.8h3.7c10.4,0,23.3-8.4,29-18.8l7.4-13.6h3.3l2-3.6H1026.2z"/>
</g>
<g>
	
		<linearGradient id="SVGID_00000070830566940180632480000007677826353641479052_" gradientUnits="userSpaceOnUse" x1="919.062" y1="618.0092" x2="1792.7629" y2="495.8391">
		<stop  offset="0" style="stop-color:#004169"/>
		<stop  offset="0.33" style="stop-color:#00657E"/>
		<stop  offset="0.7" style="stop-color:#009180"/>
		<stop  offset="0.9987" style="stop-color:#B2D5A2"/>
	</linearGradient>
	<path style="fill:url(#SVGID_00000070830566940180632480000007677826353641479052_);" d="M1665.5,482c-18.7,0-35.9,10.2-44.9,26.6
		l-1,1.8c-8.1,14.7,2.6,32.6,19.3,32.6h20.2l0,0h22c18.7,0,35.9-10.2,44.9-26.6l16.5-30h4.1l2.5-4.5H1665.5z M1703.2,501l-8.1,14.8
		c-7.2,12.7-23.2,22.8-35.9,22.8c-13,0-17.8-10.5-10.8-23.5l2.8-5.1c7-13,23.2-23.5,36.2-23.5h35.2
		C1714.3,488,1707.2,493.6,1703.2,501z"/>
	
		<linearGradient id="SVGID_00000011020286491428284220000011805075867190152110_" gradientUnits="userSpaceOnUse" x1="914.5563" y1="585.7871" x2="1788.2573" y2="463.6171">
		<stop  offset="0" style="stop-color:#004169"/>
		<stop  offset="0.33" style="stop-color:#00657E"/>
		<stop  offset="0.7" style="stop-color:#009180"/>
		<stop  offset="0.9987" style="stop-color:#B2D5A2"/>
	</linearGradient>
	<path style="fill:url(#SVGID_00000011020286491428284220000011805075867190152110_);" d="M1410.7,482c-18.7,0-35.9,10.2-44.9,26.6
		l-1,1.8c-8.1,14.7,2.6,32.6,19.3,32.6h20.2c8.7,0,18.4-4,26.6-10.2l-5.6,10.2l44.3,0l2.5-4.5h-6.6c-3.4,0-4.7-2.7-2.9-6.1
		l25.2-45.9l4.1,0l2.5-4.5H1410.7z M1448.4,501l-7.6,13.9c-7.1,13.1-23.4,23.7-36.5,23.7c-13,0-17.7-10.5-10.7-23.5l2.8-5.1
		c7-13,23.2-23.5,36.2-23.5l35.2,0C1460,487.8,1452.2,493.7,1448.4,501z"/>
	
		<linearGradient id="SVGID_00000167378231761219600190000004698505872692237207_" gradientUnits="userSpaceOnUse" x1="907.2827" y1="533.7698" x2="1780.9836" y2="411.5998">
		<stop  offset="0" style="stop-color:#004169"/>
		<stop  offset="0.33" style="stop-color:#00657E"/>
		<stop  offset="0.7" style="stop-color:#009180"/>
		<stop  offset="0.9987" style="stop-color:#B2D5A2"/>
	</linearGradient>
	<path style="fill:url(#SVGID_00000167378231761219600190000004698505872692237207_);" d="M1259.1,438.5h-44.3l-2.5,4.5h6.6
		c3.4,0,4.7,2.8,2.9,6.2l-18,32.8h-48.1c-18.7,0-35.9,10.2-44.9,26.6l-1,1.8c-8.1,14.7,2.6,32.6,19.3,32.6h20.2
		c8.7,0,18.4-4,26.6-10.2l-5.6,10.2l44.3,0l2.5-4.5h-6.6c-3.4,0-4.7-2.7-2.9-6.1l25.2-45.9l4.1,0l2.5-4.5h-4.1L1259.1,438.5z
		 M1193.4,501l-7.6,13.9c-7.1,13.1-23.4,23.7-36.5,23.7c-13,0-17.7-10.5-10.7-23.5l2.8-5.1c7-13,23.2-23.5,36.2-23.5h35.2
		C1205,487.8,1197.2,493.7,1193.4,501z"/>
	
		<linearGradient id="SVGID_00000016044020624209076970000014959404157252989114_" gradientUnits="userSpaceOnUse" x1="916.357" y1="598.6648" x2="1790.058" y2="476.4948">
		<stop  offset="0" style="stop-color:#004169"/>
		<stop  offset="0.33" style="stop-color:#00657E"/>
		<stop  offset="0.7" style="stop-color:#009180"/>
		<stop  offset="0.9987" style="stop-color:#B2D5A2"/>
	</linearGradient>
	<path style="fill:url(#SVGID_00000016044020624209076970000014959404157252989114_);" d="M1604.4,517.4l19.4-35.3h-40l-2.5,4.5
		l20.1,0c-8.3,1.4-15.3,7.1-19.4,14.4l-7.8,14.2c-7,13-23.3,23.4-36.2,23.4h-35.1c8.2-1.4,15.3-7.1,19.4-14.4l23.1-42.1h-44.3
		l-2.5,4.5h6.6c3.4,0,4.7,2.7,2.9,6.1l-27.7,50.4h79.5C1578.3,543.1,1595.3,533.2,1604.4,517.4"/>
	
		<linearGradient id="SVGID_00000071530768529003877470000008331524794899627190_" gradientUnits="userSpaceOnUse" x1="911.095" y1="561.0338" x2="1784.796" y2="438.8637">
		<stop  offset="0" style="stop-color:#004169"/>
		<stop  offset="0.33" style="stop-color:#00657E"/>
		<stop  offset="0.7" style="stop-color:#009180"/>
		<stop  offset="0.9987" style="stop-color:#B2D5A2"/>
	</linearGradient>
	<path style="fill:url(#SVGID_00000071530768529003877470000008331524794899627190_);" d="M1321.2,511.6c-1.9,3.5-6.2,6.3-9.7,6.3
		h-6.6l-2.5,4.5h44.2l19.7-35.8h4.9l2.5-4.5l-62.3,0c-8.7,0-18.4,4-26.6,10.2l5.6-10.2l-44.3,0l-2.5,4.5h6.6c3.4,0,4.7,2.7,2.9,6.1
		l-27.7,50.4h44.3l2.5-4.5h-6.6c-3.4,0-4.7-2.8-2.9-6.2l12.3-22.5c7.2-12.9,23.4-23.4,36.3-23.4l35,0c-8.3,1.4-15.4,7.1-19.4,14.4
		L1321.2,511.6z"/>
	
		<linearGradient id="SVGID_00000168106157014406248700000002888190282697508779_" gradientUnits="userSpaceOnUse" x1="914.5591" y1="585.8068" x2="1788.26" y2="463.6367">
		<stop  offset="0" style="stop-color:#004169"/>
		<stop  offset="0.33" style="stop-color:#00657E"/>
		<stop  offset="0.7" style="stop-color:#009180"/>
		<stop  offset="0.9987" style="stop-color:#B2D5A2"/>
	</linearGradient>
	<path style="fill:url(#SVGID_00000168106157014406248700000002888190282697508779_);" d="M1410.7,482c-18.7,0-35.9,10.2-44.9,26.6
		l-1,1.8c-8.1,14.7,2.6,32.6,19.3,32.6h20.2c8.7,0,18.4-4,26.6-10.2l-5.6,10.2l44.3,0l2.5-4.5h-6.6c-3.4,0-4.7-2.7-2.9-6.1
		l25.2-45.9l4.1,0l2.5-4.5H1410.7z M1448.4,501l-7.6,13.9c-7.1,13.1-23.4,23.7-36.5,23.7c-13,0-17.7-10.5-10.7-23.5l2.8-5.1
		c7-13,23.2-23.5,36.2-23.5l35.2,0C1460,487.8,1452.2,493.7,1448.4,501z"/>
	
		<linearGradient id="SVGID_00000145773522402660176920000011520827963233014969_" gradientUnits="userSpaceOnUse" x1="907.2855" y1="533.7894" x2="1780.9865" y2="411.6194">
		<stop  offset="0" style="stop-color:#004169"/>
		<stop  offset="0.33" style="stop-color:#00657E"/>
		<stop  offset="0.7" style="stop-color:#009180"/>
		<stop  offset="0.9987" style="stop-color:#B2D5A2"/>
	</linearGradient>
	<path style="fill:url(#SVGID_00000145773522402660176920000011520827963233014969_);" d="M1259.1,438.5h-44.3l-2.5,4.5h6.6
		c3.4,0,4.7,2.8,2.9,6.2l-18,32.8h-48.1c-18.7,0-35.9,10.2-44.9,26.6l-1,1.8c-8.1,14.7,2.6,32.6,19.3,32.6h20.2
		c8.7,0,18.4-4,26.6-10.2l-5.6,10.2l44.3,0l2.5-4.5h-6.6c-3.4,0-4.7-2.7-2.9-6.1l25.2-45.9l4.1,0l2.5-4.5h-4.1L1259.1,438.5z
		 M1193.4,501l-7.6,13.9c-7.1,13.1-23.4,23.7-36.5,23.7c-13,0-17.7-10.5-10.7-23.5l2.8-5.1c7-13,23.2-23.5,36.2-23.5h35.2
		C1205,487.8,1197.2,493.7,1193.4,501z"/>
	
		<linearGradient id="SVGID_00000001632149042798097570000000024475165947670913_" gradientUnits="userSpaceOnUse" x1="916.3597" y1="598.6844" x2="1790.0607" y2="476.5143">
		<stop  offset="0" style="stop-color:#004169"/>
		<stop  offset="0.33" style="stop-color:#00657E"/>
		<stop  offset="0.7" style="stop-color:#009180"/>
		<stop  offset="0.9987" style="stop-color:#B2D5A2"/>
	</linearGradient>
	<path style="fill:url(#SVGID_00000001632149042798097570000000024475165947670913_);" d="M1604.4,517.4l19.4-35.3h-40l-2.5,4.5
		l20.1,0c-8.3,1.4-15.3,7.1-19.4,14.4l-7.8,14.2c-7,13-23.3,23.4-36.2,23.4h-35.1c8.2-1.4,15.3-7.1,19.4-14.4l23.1-42.1h-44.3
		l-2.5,4.5h6.6c3.4,0,4.7,2.7,2.9,6.1l-27.7,50.4h79.5C1578.3,543.1,1595.3,533.2,1604.4,517.4"/>
	
		<linearGradient id="SVGID_00000059999119530329105310000017881592880886637238_" gradientUnits="userSpaceOnUse" x1="911.0978" y1="561.0533" x2="1784.7987" y2="438.8833">
		<stop  offset="0" style="stop-color:#004169"/>
		<stop  offset="0.33" style="stop-color:#00657E"/>
		<stop  offset="0.7" style="stop-color:#009180"/>
		<stop  offset="0.9987" style="stop-color:#B2D5A2"/>
	</linearGradient>
	<path style="fill:url(#SVGID_00000059999119530329105310000017881592880886637238_);" d="M1321.2,511.6c-1.9,3.5-6.2,6.3-9.7,6.3
		h-6.6l-2.5,4.5h44.2l19.7-35.8h4.9l2.5-4.5l-62.3,0c-8.7,0-18.4,4-26.6,10.2l5.6-10.2l-44.3,0l-2.5,4.5h6.6c3.4,0,4.7,2.7,2.9,6.1
		l-27.7,50.4h44.3l2.5-4.5h-6.6c-3.4,0-4.7-2.8-2.9-6.2l12.3-22.5c7.2-12.9,23.4-23.4,36.3-23.4l35,0c-8.3,1.4-15.4,7.1-19.4,14.4
		L1321.2,511.6z"/>
	
		<linearGradient id="SVGID_00000155847186673604717310000015578087177374525610_" gradientUnits="userSpaceOnUse" x1="919.0614" y1="618.0052" x2="1792.7623" y2="495.8352">
		<stop  offset="0" style="stop-color:#004169"/>
		<stop  offset="0.33" style="stop-color:#00657E"/>
		<stop  offset="0.7" style="stop-color:#009180"/>
		<stop  offset="0.9987" style="stop-color:#B2D5A2"/>
	</linearGradient>
	<path style="fill:url(#SVGID_00000155847186673604717310000015578087177374525610_);" d="M1749.1,482h-83.5
		c-18.7,0-35.9,10.2-44.9,26.6l-1,1.8c-2,3.7-2.9,7.6-2.7,11.3c0.4,11.3,9.5,21.4,22.1,21.4h20.2v0h22c18.7,0,35.9-10.2,44.9-26.6
		l16.5-30h4.1L1749.1,482L1749.1,482L1749.1,482z M1645.2,526.2c0-3.3,1-7.1,3.2-11.2l2.8-5.1c7-13,23.2-23.5,36.2-23.5h35
		c-8.2,1.5-15.2,7.1-19.2,14.4l-8.1,14.8c-7.2,12.7-23.2,22.8-35.9,22.8C1650.3,538.5,1645.2,533.6,1645.2,526.2z"/>
	
		<linearGradient id="SVGID_00000020387871372868064430000000965852457830708358_" gradientUnits="userSpaceOnUse" x1="914.5527" y1="585.7609" x2="1788.2535" y2="463.5908">
		<stop  offset="0" style="stop-color:#004169"/>
		<stop  offset="0.33" style="stop-color:#00657E"/>
		<stop  offset="0.7" style="stop-color:#009180"/>
		<stop  offset="0.9987" style="stop-color:#B2D5A2"/>
	</linearGradient>
	<path style="fill:url(#SVGID_00000020387871372868064430000000965852457830708358_);" d="M1462.5,532.4l25.2-45.9l4.1,0l2.5-4.5
		h-83.6c-18.7,0-35.9,10.2-44.9,26.6l-1,1.8c-8.1,14.7,2.6,32.6,19.3,32.6h20.2c8.7,0,18.4-4,26.6-10.2l-5.6,10.2l44.3,0l2.5-4.5
		h-6.6C1462.1,538.5,1460.8,535.8,1462.5,532.4z M1448.4,500.9l-7.6,13.9c-7.1,13.1-23.4,23.7-36.5,23.7c-13,0-17.7-10.5-10.7-23.5
		l2.8-5.1c7-13,23.2-23.5,36.2-23.5h35.2C1460,487.8,1452.2,493.7,1448.4,500.9z"/>
	
		<linearGradient id="SVGID_00000042738913990918475220000005085989918219789468_" gradientUnits="userSpaceOnUse" x1="907.2791" y1="533.7438" x2="1780.98" y2="411.5738">
		<stop  offset="0" style="stop-color:#004169"/>
		<stop  offset="0.33" style="stop-color:#00657E"/>
		<stop  offset="0.7" style="stop-color:#009180"/>
		<stop  offset="0.9987" style="stop-color:#B2D5A2"/>
	</linearGradient>
	<path style="fill:url(#SVGID_00000042738913990918475220000005085989918219789468_);" d="M1207.5,532.4l25.2-45.9l4.1,0l2.5-4.5
		h-4.1l23.9-43.5h-44.3l-2.5,4.5h6.6c3.4,0,4.7,2.8,2.9,6.2l-18,32.8h-48.1c-18.7,0-35.9,10.2-44.9,26.6l-1,1.8
		c-8.1,14.7,2.6,32.6,19.3,32.6h20.2c8.7,0,18.4-4,26.6-10.2l-5.6,10.2l44.3,0l2.5-4.5h-6.6C1207.1,538.5,1205.8,535.8,1207.5,532.4
		z M1193.4,500.9l-7.6,13.9c-7.1,13.1-23.4,23.7-36.5,23.7c-13,0-17.7-10.5-10.7-23.5l2.8-5.1c7-13,23.2-23.5,36.2-23.5h35.2
		C1205,487.8,1197.2,493.7,1193.4,500.9z"/>
	
		<linearGradient id="SVGID_00000152945300457193689280000000123413730568076167_" gradientUnits="userSpaceOnUse" x1="916.3533" y1="598.6382" x2="1790.0542" y2="476.4682">
		<stop  offset="0" style="stop-color:#004169"/>
		<stop  offset="0.33" style="stop-color:#00657E"/>
		<stop  offset="0.7" style="stop-color:#009180"/>
		<stop  offset="0.9987" style="stop-color:#B2D5A2"/>
	</linearGradient>
	<path style="fill:url(#SVGID_00000152945300457193689280000000123413730568076167_);" d="M1583.8,482l-2.5,4.5l20.1,0
		c-8.3,1.4-15.3,7.1-19.4,14.4l-7.8,14.2c-7,13-23.3,23.4-36.2,23.4h-35.1c8.2-1.4,15.3-7.1,19.4-14.4l23.1-42.1h-44.3l-2.5,4.5h6.6
		c3.4,0,4.7,2.7,2.9,6.1l-27.7,50.4h79.5c18.4,0,35.3-9.8,44.5-25.7l19.4-35.3H1583.8z"/>
	
		<linearGradient id="SVGID_00000041982569931848820690000015848811355488755619_" gradientUnits="userSpaceOnUse" x1="911.0914" y1="561.0074" x2="1784.7924" y2="438.8373">
		<stop  offset="0" style="stop-color:#004169"/>
		<stop  offset="0.33" style="stop-color:#00657E"/>
		<stop  offset="0.7" style="stop-color:#009180"/>
		<stop  offset="0.9987" style="stop-color:#B2D5A2"/>
	</linearGradient>
	<path style="fill:url(#SVGID_00000041982569931848820690000015848811355488755619_);" d="M1371.1,486.5l2.5-4.5h-62.3
		c-8.7,0-18.4,4-26.6,10.2l5.6-10.2l-44.3,0l-2.5,4.5h6.6c3.4,0,4.7,2.7,2.9,6.1l-27.7,50.4h44.3l2.5-4.5h-6.6
		c-3.4,0-4.7-2.8-2.9-6.2l12.3-22.5c7.2-12.9,23.4-23.4,36.3-23.4l35,0c-8.3,1.4-15.4,7.1-19.4,14.4l-5.8,10.6
		c-1.9,3.5-6.2,6.3-9.7,6.3h-6.6l-2.5,4.5h44.2l19.7-35.8H1371.1z"/>
	
		<linearGradient id="SVGID_00000005247811348130075040000014297151667596977325_" gradientUnits="userSpaceOnUse" x1="909.3774" y1="548.7497" x2="1783.0782" y2="426.5797">
		<stop  offset="0" style="stop-color:#004169"/>
		<stop  offset="0.33" style="stop-color:#00657E"/>
		<stop  offset="0.7" style="stop-color:#009180"/>
		<stop  offset="0.9987" style="stop-color:#B2D5A2"/>
	</linearGradient>
	<path style="fill:url(#SVGID_00000005247811348130075040000014297151667596977325_);" d="M1051.1,482c0.5-0.5,0.9-1.3,0.9-2.1
		c0-1.7-1.4-3.1-3.1-3.1c-1.7,0-3.1,1.4-3.1,3.1c0,0.8,0.3,1.6,0.9,2.1H999c-18.2,0-34.9,9.6-44.1,25.2h31.7
		c7.7-11.7,22.5-20.7,34.5-20.7h70.2c-8.3,1.4-15.3,7.1-19.4,14.4l-4.2,7.8c-4.1,7.6-13.6,13.7-21.1,13.7h-39.7l-2.5,4.5h30.9
		c12,0.7,16.3,10.9,9.5,23.5l-4.5,8.2c-7,13-23.2,23.5-36.2,23.5h-35c-12.5,0.1-18.1-10.2-10.5-23.8l2.8-5.1
		c3-5.5,7.8-10.7,13.1-14.7h-33.6c-4.1,3.7-7.7,8.2-10.4,13.2l-1.2,2.2c-8.1,14.7,2.6,32.6,19.3,32.6h77.8
		c18.4,0,35.3-9.9,44.4-25.9l1.5-2.8c6.6-12,0.7-26.2-10.8-31h4.6c13,0,29.2-10.5,36.2-23.5l9.3-17h4.1l2.5-4.5H1051.1z"/>
</g>
</svg>
