<?xml version="1.0" encoding="utf-8"?>
<!-- Generator: Adobe Illustrator 26.3.1, SVG Export Plug-In . SVG Version: 6.00 Build 0)  -->
<svg version="1.1" id="Layer_1" xmlns="http://www.w3.org/2000/svg" xmlns:xlink="http://www.w3.org/1999/xlink" x="0px" y="0px"
	 viewBox="0 0 3401.6 322.5" style="enable-background:new 0 0 3401.6 322.5;" xml:space="preserve">
<style type="text/css">
	.st0{fill:#003855;}
	.st1{fill:#FFFFFF;}
</style>
<rect x="1672.7" y="0" class="st0" width="1728.9" height="322.5"/>
<rect y="0" class="st1" width="1672.7" height="322.5"/>
<path class="st0" d="M1638.8,0c-56.1,0-108.6,30-137,78.3l-0.2,0.3l-0.2,0.4l-53.3,97.3c-17,30.9-16.4,67.4,1.6,97.8
	c18,30.3,49.7,48.4,85,48.4h160.9c56.9,0,109.8-30.8,138.1-80.3l3.6-6.5c10.2-18.5,14.1-39,11.6-59.2c21.2-13.7,39.1-32.5,50.5-53.5
	l66.5-123L1638.8,0L1638.8,0z M1880.2,62.5v-0.2h-8.3l-19.2,35.1c-14.6,26.8-48.1,48.5-74.9,48.5h-9.5c23.8,9.9,36,39.3,22.4,64.1
	l-3.2,5.8c-18.8,33-53.8,53.5-91.9,53.5h-160.9c-34.7,0-56.7-37.1-40-67.5l2.5-4.5c5.7-10.4,13.2-19.7,21.6-27.4h69.4
	c-11.1,8.3-20.9,18.9-27.1,30.3l-5.7,10.5c-15.7,28.2-4,49.4,21.8,49.2h72.3c26.8,0,60.3-21.7,74.9-48.5l9.3-16.9
	c14-25.9,5.2-47.1-19.6-48.5h-63.9l5.1-9.4h82c15.6,0,35.2-12.7,43.7-28.3l8.7-16.1c8.4-15.2,23-26.9,40.1-29.8h-145.2
	c-13.1,0-27.9,5.2-41.3,13.8c-11.9,7.6-22.6,17.7-30.1,29h-65.6c19-32.2,53.6-52.1,91.2-52.1h99.3c-0.7-0.8-1.2-1.9-1.2-3.1
	c0-2.6,2.1-4.7,4.7-4.7s4.7,2.1,4.7,4.7c0,1.2-0.5,2.3-1.2,3.1h140.2L1880.2,62.5z"/>
<path class="st1" d="M1880.2,62.5v-0.2h-8.3l-19.2,35.1c-14.6,26.8-48.1,48.5-74.9,48.5h-9.5c23.8,9.9,36,39.3,22.4,64.1l-3.2,5.8
	c-18.8,33-53.8,53.5-91.9,53.5h-160.9c-34.7,0-56.7-37.1-40-67.5l2.5-4.5c5.7-10.4,13.2-19.7,21.6-27.4h69.4
	c-11.1,8.3-20.9,18.9-27.1,30.3l-5.7,10.5c-15.7,28.2-4,49.4,21.8,49.2h72.3c26.8,0,60.3-21.7,74.9-48.5l9.3-16.9
	c14-25.9,5.2-47.1-19.6-48.5h-63.9l5.1-9.4h82c15.6,0,35.2-12.7,43.7-28.3l8.7-16.1c8.4-15.2,23-26.9,40.1-29.8h-145.2
	c-13.1,0-27.9,5.2-41.3,13.8c-11.9,7.6-22.6,17.7-30.1,29h-65.6c19-32.2,53.6-52.1,91.2-52.1h99.3c-0.7-0.8-1.2-1.9-1.2-3.1
	c0-2.6,2.1-4.7,4.7-4.7s4.7,2.1,4.7,4.7c0,1.2-0.5,2.3-1.2,3.1h140.2L1880.2,62.5z"/>
</svg>
