<?xml version="1.0" encoding="utf-8"?>
<!-- Generator: Adobe Illustrator 26.3.1, SVG Export Plug-In . SVG Version: 6.00 Build 0)  -->
<svg version="1.1" id="Layer_2_00000090992022004234320990000014095112261598090427_"
	 xmlns="http://www.w3.org/2000/svg" xmlns:xlink="http://www.w3.org/1999/xlink" x="0px" y="0px" viewBox="0 0 3401.6 1351.9"
	 style="enable-background:new 0 0 3401.6 1351.9;" xml:space="preserve">
<style type="text/css">
	.st0{fill:#003855;}
	.st1{fill:#FFFFFF;}
</style>
<rect x="1700.8" class="st0" width="1700.8" height="1351.9"/>
<rect class="st1" width="1700.8" height="1351.9"/>
<path class="st0" d="M1024.7,590.3l4.6-8.5H902.7c0.7-0.7,1.1-1.7,1.1-2.8c0-2.3-1.9-4.2-4.2-4.2s-4.2,1.9-4.2,4.2
	c0,1.1,0.4,2,1.1,2.8h-89.7c-33.9,0-65.2,17.9-82.3,47.1h59.2c14.4-21.8,42-38.6,64.5-38.6h131c-15.4,2.7-28.6,13.2-36.2,26.9
	l-7.9,14.5c-7.7,14.1-25.3,25.6-39.4,25.6h-74l-4.6,8.5h57.7c22.4,1.2,30.3,20.4,17.6,43.8l-8.4,15.3
	c-13.1,24.2-43.4,43.8-67.6,43.8h-65.3c-23.3,0.2-33.8-18.9-19.7-44.4l5.2-9.5c5.6-10.3,14.5-19.9,24.5-27.4h-62.7
	c-7.6,7-14.4,15.4-19.5,24.7l-2.2,4.1c-15,27.4,4.8,60.9,36.1,60.9H858c34.4,0,66-18.5,82.9-48.3l2.8-5.2
	c12.3-22.4,1.3-48.9-20.2-57.8h8.6c24.2,0,54.4-19.6,67.6-43.8l17.3-31.7L1024.7,590.3L1024.7,590.3z"/>
<path class="st1" d="M2725.5,590.3l4.6-8.5h-126.5c0.7-0.7,1.1-1.7,1.1-2.8c0-2.3-1.9-4.2-4.2-4.2s-4.2,1.9-4.2,4.2
	c0,1.1,0.4,2,1.1,2.8h-89.7c-33.9,0-65.2,17.9-82.3,47.1h59.2c14.4-21.8,42-38.6,64.5-38.6h131c-15.4,2.7-28.6,13.2-36.2,26.9
	l-7.9,14.5c-7.7,14.1-25.3,25.6-39.4,25.6h-74l-4.6,8.5h57.7c22.4,1.2,30.3,20.4,17.6,43.8l-8.4,15.3
	c-13.1,24.2-43.4,43.8-67.6,43.8H2452c-23.3,0.2-33.8-18.9-19.7-44.4l5.2-9.5c5.6-10.3,14.5-19.9,24.5-27.4h-62.7
	c-7.6,7-14.4,15.4-19.5,24.7l-2.2,4.1c-15,27.4,4.8,60.9,36.1,60.9H2559c34.4,0,66-18.5,82.9-48.3l2.8-5.2
	c12.3-22.4,1.3-48.9-20.2-57.8h8.6c24.2,0,54.4-19.6,67.6-43.8l17.3-31.7L2725.5,590.3L2725.5,590.3z"/>
</svg>
