<?xml version="1.0" encoding="utf-8"?>
<!-- Generator: Adobe Illustrator 26.3.1, SVG Export Plug-In . SVG Version: 6.00 Build 0)  -->
<svg version="1.1" id="Layer_1" xmlns="http://www.w3.org/2000/svg" xmlns:xlink="http://www.w3.org/1999/xlink" x="0px" y="0px"
	 viewBox="0 0 3401.6 1351.9" style="enable-background:new 0 0 3401.6 1351.9;" xml:space="preserve">
<style type="text/css">
	.st0{fill:#FFFFFF;}
</style>
<g id="Layer_1_00000044892663164548290590000002846480355241029042_">
</g>
<g id="Layer_2_00000165213610337005790020000000300633428600464052_">
	<g>
		<g>
			<g>
				<path class="st0" d="M2373.5,543.4c-38.2,0-73.4,20.8-91.7,54.3l-2.1,3.8c-16.5,30,5.2,66.7,39.5,66.7h41.3l0,0h45
					c38.2,0,73.4-20.8,91.7-54.3l33.6-61.3h8.4l5-9.2H2373.5z M2450.5,582.2l-16.6,30.2c-14.8,25.9-47.3,46.7-73.3,46.7h-0.3
					c-26.5,0-36.2-21.5-21.8-48l5.7-10.3c14.4-26.5,47.5-48,74-48h72C2473.3,555.6,2458.8,567.2,2450.5,582.2z"/>
				<path class="st0" d="M1852.5,543.4c-38.2,0-73.4,20.8-91.7,54.3l-2.1,3.8c-16.5,30,5.2,66.7,39.5,66.7h41.3
					c17.8,0,37.7-8.1,54.4-20.9l-11.4,20.9h90.6l5.1-9.3h-13.6c-7,0-9.6-5.6-6-12.5l51.5-93.8h8.4l5-9.2H1852.5z M1929.6,582.2
					l-15.6,28.4c-14.5,26.7-47.9,48.4-74.6,48.4c-26.5,0-36.2-21.5-21.8-48l5.7-10.3c14.4-26.5,47.5-48,74-48h72
					C1953.4,555.3,1937.2,567.4,1929.6,582.2z"/>
				<path class="st0" d="M1542.5,454.5H1452l-5.1,9.2h13.5c7,0,9.7,5.7,5.9,12.7l-36.8,67h-98.4c-38.2,0-73.4,20.8-91.7,54.3
					l-2.1,3.8c-16.5,30,5.2,66.7,39.5,66.7h41.3c17.8,0,37.7-8.1,54.4-20.9l-11.4,20.9h90.6l5.1-9.3h-13.6c-7,0-9.6-5.6-6-12.5
					l51.5-93.8h8.4l5-9.2h-8.4L1542.5,454.5z M1408.2,582.2l-15.6,28.4c-14.5,26.7-47.9,48.4-74.6,48.4c-26.5,0-36.2-21.5-21.8-48
					l5.7-10.3c14.4-26.5,47.5-48,74-48h72C1432,555.3,1415.8,567.4,1408.2,582.2z"/>
				<path class="st0" d="M2248.5,615.7l39.7-72.3h-81.8l-5.1,9.2h41c-16.9,2.9-31.3,14.5-39.6,29.5l-15.9,28.9
					c-14.4,26.5-47.6,47.9-74.1,47.9H2041c16.8-2.9,31.4-14.5,39.6-29.5l47.3-86.1h-90.6l-5.1,9.3h13.6c7,0,9.6,5.6,6,12.5
					l-56.6,103.1h162.5C2195.2,668.3,2229.9,648.2,2248.5,615.7"/>
			</g>
			<path class="st0" d="M1108.7,626.1H1027l-5.1,9.3h63.2c24.5,1.4,33.2,22.3,19.3,47.9l-9.2,16.7c-14.4,26.5-47.5,48-74,48h-71.5
				c-25.5,0.2-37.1-20.8-21.5-48.6l5.7-10.4c6.1-11.3,15.9-21.8,26.8-30H892c-8.3,7.6-15.7,16.8-21.3,27.1l-2.5,4.5
				c-16.5,30,5.2,66.7,39.5,66.7h159.1c37.6,0,72.3-20.2,90.8-52.9l3.1-5.7c13.5-24.6,1.4-53.6-22.2-63.3h9.4
				c26.5,0,59.6-21.5,74-48l19-34.7h8.4l5-9.3h-138.6c0.7-0.8,1.2-1.9,1.2-3.1c0-2.6-2.1-4.6-4.6-4.6c-2.6,0-4.6,2.1-4.6,4.6
				c0,1.2,0.5,2.2,1.2,3.1h-98.2c-37.2,0-71.4,19.6-90.2,51.5h64.8c15.7-23.8,46-42.3,70.6-42.3h143.5
				c-16.9,2.9-31.4,14.4-39.6,29.5l-8.6,15.9c-8.4,15.5-27.7,28-43.2,28"/>
		</g>
		<path class="st0" d="M1669.4,603.9c-3.8,7.1-12.7,12.8-19.8,12.8h-13.5l-5.1,9.3h90.4l40.2-73.3h9.9l5.1-9.2h-127.3
			c-17.8,0-37.7,8.1-54.4,20.9l11.4-20.9h-90.6l-5.1,9.3h13.6c7,0,9.6,5.6,6,12.5l-56.6,103.1h90.5l5.1-9.3h-13.5
			c-7,0-9.6-5.7-5.9-12.7l25.2-45.9c14.7-26.4,47.7-47.7,74.2-47.7h71.6c-16.9,2.9-31.4,14.5-39.6,29.5L1669.4,603.9z"/>
	</g>
</g>
</svg>
