<?xml version="1.0" encoding="utf-8"?>
<!-- Generator: Adobe Illustrator 26.3.1, SVG Export Plug-In . SVG Version: 6.00 Build 0)  -->
<svg version="1.1" id="Layer_1" xmlns="http://www.w3.org/2000/svg" xmlns:xlink="http://www.w3.org/1999/xlink" x="0px" y="0px"
	 viewBox="0 0 3401.6 322.5" style="enable-background:new 0 0 3401.6 322.5;" xml:space="preserve">
<style type="text/css">
	.st0{fill:#F2F2F2;}
	.st1{fill:#FFFFFF;}
	.st2{fill:#B4D6A3;}
	.st3{fill:#009280;}
	.st4{fill:#00667E;}
	.st5{fill:#003855;}
</style>
<rect x="1780.1" class="st0" width="1621.5" height="322.5"/>
<rect y="0" class="st1" width="1730.8" height="322.5"/>
<path class="st2" d="M2045,26.6l-45.4,83.7c-12.4,22.8-34,41.9-57.7,52.8c0.2,0.5,0.3,0.9,0.5,1.4c6.9,19.5,5.2,40.3-4.9,58.5
	l-3.4,6.2c-23.5,41.3-67.6,66.9-115.1,66.9h-160.9c-25.8,0-49-13.3-62.1-35.4c-13.1-22.2-13.5-48.9-1.2-71.5l53.3-97.3
	c23.7-40.3,67.4-65.2,114.2-65.2L2045,26.6L2045,26.6z M2124.8,0.1h-362.4c-56.1,0-108.7,30-137.1,78.3l-0.3,0.3l-0.2,0.3
	l-53.3,97.3c-16.9,30.9-16.3,67.5,1.6,97.8c17.9,30.4,49.8,48.5,85,48.5h196.2c57,0,109.9-30.8,138.2-80.4l3.6-6.5
	c10.2-18.5,14-39,11.6-59.2c21.2-13.7,39.1-32.5,50.5-53.5L2124.8,0.1z"/>
<path class="st3" d="M1983.1,26.6l-45.4,83.7c-12.4,22.8-34,41.9-57.7,52.8c0.2,0.5,0.3,0.9,0.5,1.4c6.9,19.5,5.2,40.3-4.9,58.5
	l-3.4,6.2c-23.5,41.3-67.6,66.9-115.1,66.9h-160.9c-25.8,0-49-13.3-62.1-35.4c-13.1-22.2-13.5-48.9-1.2-71.5l53.3-97.3
	c23.7-40.3,67.4-65.2,114.2-65.2L1983.1,26.6L1983.1,26.6L1983.1,26.6z M2062.9,0h-362.4c-56.1,0-108.7,30-137.1,78.3l-0.3,0.3
	l-0.2,0.3l-53.3,97.3c-16.9,30.9-16.3,67.5,1.6,97.8c17.9,30.4,49.8,48.5,85,48.5h196.2c57,0,109.9-30.8,138.2-80.4l3.6-6.5
	c10.2-18.5,14-39,11.6-59.2c21.2-13.7,39.1-32.5,50.5-53.5L2062.9,0z"/>
<path class="st4" d="M1638.9,0c-56.1,0-108.7,30-137.1,78.3l-0.3,0.3l-0.2,0.3l-53.3,97.3c-16.9,30.9-16.3,67.5,1.6,97.8
	c17.9,30.4,49.8,48.5,85,48.5h196.2c57,0,109.9-30.8,138.2-80.4l3.6-6.5c10.2-18.5,14-39,11.6-59.2c21.2-13.7,39.1-32.5,50.5-53.5
	L2001.3,0H1638.9z M1921.5,26.7L1921.5,26.7v-0.1V26.7z"/>
<path class="st5" d="M1638.8,26.6c-46.7,0-90.4,25-114.1,65.2l-53.3,97.3c-12.4,22.6-12,49.3,1.2,71.5
	c13.1,22.2,36.3,35.4,62.1,35.4h160.9c47.4,0,91.5-25.6,115-66.9l3.4-6.1c10-18.2,11.7-39,4.9-58.5c-0.2-0.5-0.3-0.9-0.5-1.4
	c23.6-10.9,45.3-30,57.6-52.7l45.4-83.7h-282.6V26.6z"/>
<path class="st1" d="M1880.2,62.5l5.1-9.4h-140.2c0.7-0.8,1.2-1.9,1.2-3.1c0-2.6-2.1-4.7-4.7-4.7s-4.7,2.1-4.7,4.7
	c0,1.2,0.5,2.3,1.2,3.1h-99.3c-37.6,0-72.2,19.9-91.2,52.1h65.6c15.9-24.1,46.6-42.8,71.4-42.8h145.2c-17.1,2.9-31.7,14.6-40.1,29.8
	l-8.7,16.1c-8.5,15.6-28.1,28.3-43.7,28.3h-82l-5.1,9.4h63.9c24.8,1.4,33.6,22.6,19.6,48.5l-9.3,16.9
	c-14.6,26.8-48.1,48.5-74.9,48.5h-72.3c-25.8,0.2-37.5-21-21.8-49.2l5.7-10.5c6.2-11.4,16-22,27.1-30.3h-69.4
	c-8.4,7.7-15.9,17-21.6,27.4l-2.5,4.5c-16.7,30.4,5.3,67.5,40,67.5h160.9c38.1,0,73.1-20.5,91.9-53.5l3.2-5.8
	c13.6-24.8,1.4-54.2-22.4-64.1h9.5c26.8,0,60.3-21.7,74.9-48.5l19.2-35.1h8.3L1880.2,62.5L1880.2,62.5z"/>
</svg>
