<?xml version="1.0" encoding="utf-8"?>
<!-- Generator: Adobe Illustrator 26.3.1, SVG Export Plug-In . SVG Version: 6.00 Build 0)  -->
<svg version="1.1" id="Layer_1" xmlns="http://www.w3.org/2000/svg" xmlns:xlink="http://www.w3.org/1999/xlink" x="0px" y="0px"
	 viewBox="0 0 3401.6 676" style="enable-background:new 0 0 3401.6 676;" xml:space="preserve">
<style type="text/css">
	.st0{display:none;}
	.st1{display:inline;}
	.st2{fill:#FFFFFF;}
	.st3{fill:#B2D5A2;}
	.st4{fill:#00416B;}
	.st5{fill:#004169;}
	.st6{fill:#00657E;}
	.st7{fill:#009180;}
</style>
<g id="Layer_1_00000014597934040683641030000010441965024752029361_" class="st0">
	<g id="Layer_1_00000044892663164548290590000002846480355241029042_" class="st1">
	</g>
	<g id="Layer_2_00000165213610337005790020000000300633428600464052_" class="st1">
		<g>
			<g>
				<g>
					<path class="st2" d="M2373.5,543.4c-38.2,0-73.4,20.8-91.7,54.3l-2.1,3.8c-16.5,30,5.2,66.7,39.5,66.7h41.3l0,0h45
						c38.2,0,73.4-20.8,91.7-54.3l33.6-61.3h8.4l5-9.2H2373.5z M2450.5,582.2l-16.6,30.2c-14.8,25.9-47.3,46.7-73.3,46.7h-0.3
						c-26.5,0-36.2-21.5-21.8-48l5.7-10.3c14.4-26.5,47.5-48,74-48h72C2473.3,555.6,2458.8,567.2,2450.5,582.2z"/>
					<path class="st2" d="M1852.5,543.4c-38.2,0-73.4,20.8-91.7,54.3l-2.1,3.8c-16.5,30,5.2,66.7,39.5,66.7h41.3
						c17.8,0,37.7-8.1,54.4-20.9l-11.4,20.9h90.6l5.1-9.3h-13.6c-7,0-9.6-5.6-6-12.5l51.5-93.8h8.4l5-9.2H1852.5z M1929.6,582.2
						l-15.6,28.4c-14.5,26.7-47.9,48.4-74.6,48.4c-26.5,0-36.2-21.5-21.8-48l5.7-10.3c14.4-26.5,47.5-48,74-48h72
						C1953.4,555.3,1937.2,567.4,1929.6,582.2z"/>
					<path class="st2" d="M1542.5,454.5H1452l-5.1,9.2h13.5c7,0,9.7,5.7,5.9,12.7l-36.8,67h-98.4c-38.2,0-73.4,20.8-91.7,54.3
						l-2.1,3.8c-16.5,30,5.2,66.7,39.5,66.7h41.3c17.8,0,37.7-8.1,54.4-20.9l-11.4,20.9h90.6l5.1-9.3h-13.6c-7,0-9.6-5.6-6-12.5
						l51.5-93.8h8.4l5-9.2h-8.4L1542.5,454.5z M1408.2,582.2l-15.6,28.4c-14.5,26.7-47.9,48.4-74.6,48.4c-26.5,0-36.2-21.5-21.8-48
						l5.7-10.3c14.4-26.5,47.5-48,74-48h72C1432,555.3,1415.8,567.4,1408.2,582.2z"/>
					<path class="st2" d="M2248.5,615.7l39.7-72.3h-81.8l-5.1,9.2h41c-16.9,2.9-31.3,14.5-39.6,29.5l-15.9,28.9
						c-14.4,26.5-47.6,47.9-74.1,47.9H2041c16.8-2.9,31.4-14.5,39.6-29.5l47.3-86.1h-90.6l-5.1,9.3h13.6c7,0,9.6,5.6,6,12.5
						l-56.6,103.1h162.5C2195.2,668.3,2229.9,648.2,2248.5,615.7"/>
				</g>
				<path class="st2" d="M1108.7,626.1H1027l-5.1,9.3h63.2c24.5,1.4,33.2,22.3,19.3,47.9l-9.2,16.7c-14.4,26.5-47.5,48-74,48h-71.5
					c-25.5,0.2-37.1-20.8-21.5-48.6l5.7-10.4c6.1-11.3,15.9-21.8,26.8-30H892c-8.3,7.6-15.7,16.8-21.3,27.1l-2.5,4.5
					c-16.5,30,5.2,66.7,39.5,66.7h159.1c37.6,0,72.3-20.2,90.8-52.9l3.1-5.7c13.5-24.6,1.4-53.6-22.2-63.3h9.4
					c26.5,0,59.6-21.5,74-48l19-34.7h8.4l5-9.3h-138.6c0.7-0.8,1.2-1.9,1.2-3.1c0-2.6-2.1-4.6-4.6-4.6c-2.6,0-4.6,2.1-4.6,4.6
					c0,1.2,0.5,2.2,1.2,3.1h-98.2c-37.2,0-71.4,19.6-90.2,51.5h64.8c15.7-23.8,46-42.3,70.6-42.3h143.5
					c-16.9,2.9-31.4,14.4-39.6,29.5l-8.6,15.9c-8.4,15.5-27.7,28-43.2,28"/>
			</g>
			<path class="st2" d="M1669.4,603.9c-3.8,7.1-12.7,12.8-19.8,12.8h-13.5l-5.1,9.3h90.4l40.2-73.3h9.9l5.1-9.2h-127.3
				c-17.8,0-37.7,8.1-54.4,20.9l11.4-20.9h-90.6l-5.1,9.3h13.6c7,0,9.6,5.6,6,12.5l-56.6,103.1h90.5l5.1-9.3h-13.5
				c-7,0-9.6-5.7-5.9-12.7l25.2-45.9c14.7-26.4,47.7-47.7,74.2-47.7h71.6c-16.9,2.9-31.4,14.5-39.6,29.5L1669.4,603.9z"/>
		</g>
	</g>
</g>
<g id="Layer_2_00000086674260663564199300000003751334760848223141_">
	<g>
		<g>
			<path class="st3" d="M2732,88.6l-15.6,28.5l0,0L2655,229.6c-0.3,0.5-0.5,0.9-0.8,1.4l-6.7,12.4c-28.3,51.6-82.5,83.7-141.4,83.7
				h64.9c58.9,0,113.1-32.1,141.4-83.7l84.4-154.8L2732,88.6z"/>
		</g>
		<g>
			<path class="st4" d="M2347.9,202.6l-5.7,10.3c-14.3,26.4-4.6,47.8,21.7,47.8h0.3c25.9,0,58.3-20.7,73-46.5l16.5-30
				c8.2-14.9,22.7-26.5,39.5-29.4h-71.7C2395.3,154.9,2362.3,176.3,2347.9,202.6z"/>
			<path class="st4" d="M1383.8,154.9c-26.4,0-59.4,21.4-73.7,47.7l-5.7,10.3c-14.3,26.4-4.6,47.8,21.7,47.8
				c26.6,0,59.8-21.6,74.3-48.2l15.5-28.3c7.6-14.8,23.6-26.8,39.5-29.4h-71.6V154.9z"/>
			<path class="st4" d="M1903,154.9c-26.4,0-59.4,21.4-73.7,47.7l-5.7,10.3c-14.3,26.4-4.6,47.8,21.7,47.8
				c26.6,0,59.8-21.6,74.3-48.2l15.5-28.3c7.6-14.8,23.6-26.8,39.5-29.4H1903V154.9z"/>
			<path class="st5" d="M1549.3,117.1l48.6-88.6h-155.2l-36.4,66.3h26.2l-12.2,22.3h-400.1c-46.8,0-90.7,25.1-114.4,65.4l-52.5,95.8
				c-12.6,23-12.2,50.2,1.2,72.7c13.4,22.6,37,36,63.2,36h158.4c47.5,0,91.7-25.7,115.3-67.1l3.3-6.1c2.7-5,4.8-10.2,6.4-15.5h84.1
				h1123.9c48.5,0,93.1-26.4,116.4-68.9l61.4-112.5L1549.3,117.1z M1156.9,237.2h-9.4c23.5,9.7,35.5,38.6,22.1,63.1l-3.1,5.7
				c-18.5,32.5-53,52.6-90.5,52.6H917.6c-34.1,0-55.7-36.6-39.3-66.5l2.4-4.5c5.6-10.2,12.9-19.4,21.2-26.9h68.3
				c-10.9,8.1-20.6,18.6-26.7,29.8l-5.7,10.4c-15.5,27.8-3.9,48.6,21.5,48.4h71.2c26.4,0,59.4-21.4,73.7-47.8l9.1-16.7
				c13.9-25.5,5.2-46.4-19.2-47.7h-62.9l5.1-9.2h80.7c15.4,0,34.7-12.5,43-27.9l8.6-15.9c8.2-14.9,22.6-26.4,39.4-29.3h-142.9
				c-24.5,0-54.7,18.4-70.3,42.1h-64.6c18.7-31.8,52.8-51.3,89.8-51.3h97.2c-1.1-1.1-1.8-2.6-1.8-4.3c0-3.4,2.8-6.2,6.2-6.2
				s6.2,2.8,6.2,6.2c0,1.7-0.7,3.2-1.8,4.3h136.7l-5,9.2h-8.4l-18.9,34.5C1216.3,215.8,1183.3,237.2,1156.9,237.2z M1459.1,270
				h-90.2l11.4-20.8c-16.6,12.7-36.5,20.8-54.2,20.8H1285c-34.1,0-55.7-36.6-39.3-66.5l2.1-3.8c18.3-33.3,53.3-54.1,91.4-54.1h98
				l36.6-66.8c3.7-7,1.1-12.6-5.9-12.6h-13.4l5.1-9.2h90.1l-48.7,88.7h8.4l-5,9.2h-8.4l-51.3,93.4c-3.6,6.9-1,12.4,6,12.4h13.5
				L1459.1,270z M1637.9,227.9l5.1-9.2h13.4c7.1,0,15.9-5.7,19.7-12.8l11.8-21.6c8.2-14.9,22.7-26.5,39.5-29.4h-71.3
				c-26.4,0-59.3,21.3-73.9,47.5l-25.1,45.7c-3.7,7-1.1,12.6,5.9,12.6h13.4l-5.1,9.2h-90.2l56.3-102.6c3.6-6.9,1-12.4-6-12.4H1518
				l5.1-9.2h90.2l-11.4,20.8c16.6-12.7,36.5-20.8,54.2-20.8h126.8l-5.1,9.2h-9.9l-40,73H1637.9z M1978.3,270h-90.2l11.4-20.8
				c-16.6,12.7-36.5,20.8-54.2,20.8h-41.1c-34.1,0-55.7-36.6-39.3-66.5l2.1-3.8c18.3-33.3,53.3-54.1,91.4-54.1h170.2l-5,9.2h-8.4
				l-51.3,93.4c-3.6,6.9-1,12.4,6,12.4h13.5L1978.3,270z M2162.2,270h-161.8l56.3-102.6c3.6-6.9,1-12.4-6-12.4h-13.5l5.1-9.2h90.2
				l-47.1,85.7c-8.2,14.9-22.6,26.5-39.4,29.4h71.5c26.4,0,59.4-21.3,73.8-47.7l15.8-28.8c8.2-14.9,22.6-26.5,39.4-29.4h-40.9
				l5.1-9.2h81.4l-39.5,72C2234.2,249.9,2199.6,270,2162.2,270z M2533.8,154.9l-33.5,61c-18.3,33.3-53.3,54.1-91.4,54.1h-44.8l0,0
				H2323c-34.1,0-55.7-36.6-39.3-66.5l2.1-3.8c18.3-33.3,53.3-54.1,91.4-54.1h170.1l-5,9.2L2533.8,154.9L2533.8,154.9z"/>
		</g>
		<g>
			<path class="st2" d="M1963.9,248.3l51.3-93.4h8.4l5-9.2h-170.2c-38,0-73.1,20.7-91.4,54.1l-2.1,3.8
				c-16.4,29.9,5.2,66.5,39.3,66.5h41.1c17.7,0,37.6-8.1,54.2-20.8l-11.4,20.8h90.2l5.1-9.2h-13.5
				C1962.9,260.7,1960.3,255.2,1963.9,248.3z M1935.2,184.3l-15.5,28.3c-14.4,26.6-47.7,48.2-74.3,48.2c-26.4,0-36.1-21.4-21.7-47.8
				l5.7-10.3c14.3-26.4,47.3-47.7,73.7-47.7h71.7C1958.8,157.5,1942.8,169.5,1935.2,184.3z"/>
			<g>
				<path class="st2" d="M2377.2,145.7c-38,0-73.1,20.7-91.4,54.1l-2.1,3.8c-16.4,29.9,5.2,66.5,39.3,66.5h41.1h44.8
					c38,0,73.1-20.7,91.4-54.1l33.5-61h8.4l5-9.2L2377.2,145.7L2377.2,145.7z M2453.8,184.2l-16.5,30
					c-14.7,25.8-47.2,46.5-73.2,46.5c-26.4,0-36.2-21.4-21.9-47.8l5.7-10.3c14.3-26.4,47.3-47.8,73.7-47.8h71.7
					C2476.5,157.8,2462,169.3,2453.8,184.2z"/>
				<path class="st2" d="M1444.7,248.3l51.3-93.4h8.4l5-9.2h-8.4l48.6-88.6h-90.1l-5.1,9.2h13.4c7,0,9.6,5.6,5.9,12.6l-36.6,66.8
					h-98c-38,0-73.1,20.7-91.4,54.1l-2.1,3.8c-16.4,29.9,5.2,66.5,39.3,66.5h41.1c17.7,0,37.6-8.1,54.2-20.8l-11.4,20.8h90.2
					l5.1-9.2h-13.5C1443.8,260.7,1441.1,255.2,1444.7,248.3z M1416,184.3l-15.5,28.3c-14.4,26.6-47.7,48.2-74.3,48.2
					c-26.4,0-36.1-21.4-21.7-47.8l5.7-10.3c14.3-26.4,47.3-47.7,73.7-47.7h71.7C1439.6,157.5,1423.6,169.5,1416,184.3z"/>
				<path class="st2" d="M2210.8,145.7l-5.1,9.2h40.9c-16.8,2.9-31.2,14.4-39.4,29.4l-15.8,28.8c-14.3,26.4-47.4,47.7-73.8,47.7
					h-71.5c16.8-2.9,31.2-14.4,39.4-29.4l47.1-85.7h-90.2l-5.1,9.2h13.5c6.9,0,9.5,5.5,6,12.4l-56.3,102.6h161.8
					c37.4,0,71.9-20,90.5-52.3l39.5-72L2210.8,145.7L2210.8,145.7z"/>
				<path class="st2" d="M1257.9,154.9l5-9.2h-136.7c1.1-1.1,1.8-2.6,1.8-4.3c0-3.4-2.8-6.2-6.2-6.2s-6.2,2.8-6.2,6.2
					c0,1.7,0.7,3.2,1.8,4.3h-97.2c-37,0-71.1,19.6-89.8,51.3H995c15.7-23.7,45.8-42.1,70.3-42.1h142.9
					c-16.8,2.9-31.2,14.4-39.4,29.3l-8.6,15.9c-8.4,15.4-27.6,27.9-43,27.9h-80.7l-5.1,9.2h62.9c24.4,1.4,33.1,22.2,19.2,47.7
					l-9.1,16.7c-14.3,26.4-47.3,47.8-73.7,47.8h-71.2c-25.4,0.2-36.9-20.7-21.5-48.4l5.7-10.4c6.1-11.2,15.8-21.7,26.7-29.8H902
					c-8.3,7.6-15.7,16.8-21.2,26.9l-2.4,4.5c-16.4,29.9,5.2,66.5,39.3,66.5h158.4c37.5,0,71.9-20.2,90.5-52.6l3.1-5.7
					c13.4-24.5,1.4-53.3-22.1-63.1h9.4c26.4,0,59.4-21.4,73.7-47.8l18.9-34.5h8.3V154.9z"/>
				<path class="st2" d="M1601.9,166.5l11.4-20.8h-90.2l-5.1,9.2h13.5c6.9,0,9.5,5.5,6,12.4l-56.3,102.6h90.2l5.1-9.2H1563
					c-7,0-9.6-5.6-5.9-12.6l25.1-45.7c14.6-26.3,47.5-47.5,73.9-47.5h71.3c-16.8,2.9-31.3,14.4-39.5,29.4l-11.8,21.6
					c-3.8,7.1-12.7,12.8-19.7,12.8H1643l-5.1,9.2h90l40-73h9.9l5.1-9.2h-126.8C1638.4,145.7,1618.5,153.8,1601.9,166.5z"/>
			</g>
		</g>
		<path class="st6" d="M1597.9,28.5l-48.6,88.6h1037.4l-61.4,112.5c-23.3,42.5-67.9,68.9-116.4,68.9H1285h-84.1
			c-1.5,5.3-3.6,10.5-6.4,15.5l-3.3,6.1c-23.6,41.4-67.7,67.1-115.3,67.1H917.6c-26.2,0-49.8-13.5-63.2-36
			c-13.4-22.6-13.8-49.7-1.2-72.7l52.5-95.8c23.7-40.3,67.6-65.4,114.4-65.4h400.1l12.2-22.3h-26.2l36.4-66.3h155.3 M1425.8,0
			l-48.6,88.6h-357c-56.9,0-110.2,30.5-139,79.5l-0.2,0.4l-0.2,0.4l-52.5,95.8c-17.5,31.9-16.9,69.7,1.6,101s51.3,50,87.7,50h190.8
			c57.8,0,111.4-31.2,140.1-81.5c0,0,3.8-6.9,3.9-7.1h1188.9c58.9,0,113.1-32.1,141.4-83.7l84.4-154.8H1629.8L1678.4,0L1425.8,0
			L1425.8,0z"/>
		<g>
			<path class="st7" d="M2667.1,88.6l-15.6,28.5l0,0l-61.3,112.5c-0.3,0.6-0.6,1.1-0.9,1.6l-6.6,12.1
				c-28.3,51.6-82.5,83.7-141.4,83.7h64.9c58.9,0,113.1-32.1,141.4-83.7L2732,88.5L2667.1,88.6z"/>
			<polygon class="st7" points="1694.7,88.6 1743.3,0 1678.4,0 1629.8,88.6 			"/>
			<path class="st7" d="M1248.4,334.2c-28.6,50.2-82.3,81.5-140.1,81.5h64.9c57.8,0,111.4-31.2,140.1-81.5c0,0,3.8-6.9,3.9-7.1
				h-64.9C1252.3,327.3,1248.4,334.2,1248.4,334.2z"/>
		</g>
		<polygon class="st3" points="1759.6,88.6 1808.2,0 1743.3,0 1694.7,88.6 		"/>
		<path class="st3" d="M1313.3,334.2c-28.6,50.2-82.3,81.5-140.1,81.5h64.9c57.8,0,111.4-31.2,140.1-81.5c0,0,3.8-6.9,3.9-7.1h-64.9
			C1317.1,327.3,1313.3,334.2,1313.3,334.2z"/>
	</g>
</g>
</svg>
