<?xml version="1.0" encoding="utf-8"?>
<!-- Generator: Adobe Illustrator 26.3.1, SVG Export Plug-In . SVG Version: 6.00 Build 0)  -->
<svg version="1.1" id="Layer_1" xmlns="http://www.w3.org/2000/svg" xmlns:xlink="http://www.w3.org/1999/xlink" x="0px" y="0px"
	 viewBox="0 0 3401.6 651.6" style="enable-background:new 0 0 3401.6 651.6;" xml:space="preserve">
<style type="text/css">
	.st0{display:none;}
	.st1{display:inline;}
	.st2{fill:#B2D5A2;}
	.st3{fill:#00416B;}
	.st4{fill:#004169;}
	.st5{fill:#FFFFFF;}
	.st6{fill:#00657E;}
	.st7{fill:#009180;}
	.st8{fill:#F2F2F2;}
	.st9{fill:url(#SVGID_1_);}
</style>
<g id="Layer_1_00000165199051132477197160000011531418547275921051_">
</g>
<g id="Layer_2_00000075847483215931010410000004054352533341067433_" class="st0">
	<g class="st1">
		<g>
			<path class="st2" d="M2732,487.9l-15.6,28.5l0,0L2655,628.9c-0.3,0.5-0.5,0.9-0.8,1.4l-6.7,12.4c-28.3,51.6-82.5,83.7-141.4,83.7
				h64.9c58.9,0,113.1-32.1,141.4-83.7l84.4-154.8L2732,487.9z"/>
		</g>
		<g>
			<path class="st3" d="M2347.9,601.9l-5.7,10.3c-14.3,26.4-4.6,47.8,21.7,47.8h0.3c25.9,0,58.3-20.7,73-46.5l16.5-30
				c8.2-14.9,22.7-26.5,39.5-29.4h-71.7C2395.3,554.2,2362.3,575.6,2347.9,601.9z"/>
			<path class="st3" d="M1383.8,554.2c-26.4,0-59.4,21.4-73.7,47.7l-5.7,10.3c-14.3,26.4-4.6,47.8,21.7,47.8
				c26.6,0,59.8-21.6,74.3-48.2l15.5-28.3c7.6-14.8,23.6-26.8,39.5-29.4h-71.6V554.2z"/>
			<path class="st3" d="M1903,554.2c-26.4,0-59.4,21.4-73.7,47.7l-5.7,10.3c-14.3,26.4-4.6,47.8,21.7,47.8
				c26.6,0,59.8-21.6,74.3-48.2l15.5-28.3c7.6-14.8,23.6-26.8,39.5-29.4H1903V554.2z"/>
			<path class="st4" d="M1549.3,516.4l48.6-88.6h-155.2l-36.4,66.3h26.2l-12.2,22.3h-400.1c-46.8,0-90.7,25.1-114.4,65.4l-52.5,95.8
				c-12.6,23-12.2,50.2,1.2,72.7c13.4,22.6,37,36,63.2,36h158.4c47.5,0,91.7-25.7,115.3-67.1l3.3-6.1c2.7-5,4.8-10.2,6.4-15.5h84.1
				h1123.9c48.5,0,93.1-26.4,116.4-68.9l61.4-112.5L1549.3,516.4z M1156.9,636.5h-9.4c23.5,9.7,35.5,38.6,22.1,63.1l-3.1,5.7
				c-18.5,32.5-53,52.6-90.5,52.6H917.6c-34.1,0-55.7-36.6-39.3-66.5l2.4-4.5c5.6-10.2,12.9-19.4,21.2-26.9h68.3
				c-10.9,8.1-20.6,18.6-26.7,29.8l-5.7,10.4c-15.5,27.8-3.9,48.6,21.5,48.4h71.2c26.4,0,59.4-21.4,73.7-47.8l9.1-16.7
				c13.9-25.5,5.2-46.4-19.2-47.7h-62.9l5.1-9.2h80.7c15.4,0,34.7-12.5,43-27.9l8.6-15.9c8.2-14.9,22.6-26.4,39.4-29.3h-142.9
				c-24.5,0-54.7,18.4-70.3,42.1h-64.6c18.7-31.8,52.8-51.3,89.8-51.3h97.2c-1.1-1.1-1.8-2.6-1.8-4.3c0-3.4,2.8-6.2,6.2-6.2
				s6.2,2.8,6.2,6.2c0,1.7-0.7,3.2-1.8,4.3h136.7l-5,9.2h-8.4l-18.9,34.5C1216.3,615.1,1183.3,636.5,1156.9,636.5z M1459.1,669.3
				h-90.2l11.4-20.8c-16.6,12.7-36.5,20.8-54.2,20.8H1285c-34.1,0-55.7-36.6-39.3-66.5l2.1-3.8c18.3-33.3,53.3-54.1,91.4-54.1h98
				l36.6-66.8c3.7-7,1.1-12.6-5.9-12.6h-13.4l5.1-9.2h90.1L1501,545h8.4l-5,9.2h-8.4l-51.3,93.4c-3.6,6.9-1,12.4,6,12.4h13.5
				L1459.1,669.3z M1637.9,627.2l5.1-9.2h13.4c7.1,0,15.9-5.7,19.7-12.8l11.8-21.6c8.2-14.9,22.7-26.5,39.5-29.4h-71.3
				c-26.4,0-59.3,21.3-73.9,47.5l-25.1,45.7c-3.7,7-1.1,12.6,5.9,12.6h13.4l-5.1,9.2h-90.2l56.3-102.6c3.6-6.9,1-12.4-6-12.4H1518
				l5.1-9.2h90.2l-11.4,20.8c16.6-12.7,36.5-20.8,54.2-20.8h126.8l-5.1,9.2h-9.9l-40,73H1637.9z M1978.3,669.3h-90.2l11.4-20.8
				c-16.6,12.7-36.5,20.8-54.2,20.8h-41.1c-34.1,0-55.7-36.6-39.3-66.5l2.1-3.8c18.3-33.3,53.3-54.1,91.4-54.1h170.2l-5,9.2h-8.4
				l-51.3,93.4c-3.6,6.9-1,12.4,6,12.4h13.5L1978.3,669.3z M2162.2,669.3h-161.8l56.3-102.6c3.6-6.9,1-12.4-6-12.4h-13.5l5.1-9.2
				h90.2l-47.1,85.7c-8.2,14.9-22.6,26.5-39.4,29.4h71.5c26.4,0,59.4-21.3,73.8-47.7l15.8-28.8c8.2-14.9,22.6-26.5,39.4-29.4h-40.9
				l5.1-9.2h81.4l-39.5,72C2234.2,649.2,2199.6,669.3,2162.2,669.3z M2533.8,554.2l-33.5,61c-18.3,33.3-53.3,54.1-91.4,54.1h-44.8
				l0,0H2323c-34.1,0-55.7-36.6-39.3-66.5l2.1-3.8c18.3-33.3,53.3-54.1,91.4-54.1h170.1l-5,9.2L2533.8,554.2L2533.8,554.2z"/>
		</g>
		<g>
			<path class="st5" d="M1963.9,647.6l51.3-93.4h8.4l5-9.2h-170.2c-38,0-73.1,20.7-91.4,54.1l-2.1,3.8
				c-16.4,29.9,5.2,66.5,39.3,66.5h41.1c17.7,0,37.6-8.1,54.2-20.8l-11.4,20.8h90.2l5.1-9.2h-13.5
				C1962.9,660,1960.3,654.5,1963.9,647.6z M1935.2,583.6l-15.5,28.3c-14.4,26.6-47.7,48.2-74.3,48.2c-26.4,0-36.1-21.4-21.7-47.8
				l5.7-10.3c14.3-26.4,47.3-47.7,73.7-47.7h71.7C1958.8,556.8,1942.8,568.8,1935.2,583.6z"/>
			<g>
				<path class="st5" d="M2377.2,545c-38,0-73.1,20.7-91.4,54.1l-2.1,3.8c-16.4,29.9,5.2,66.5,39.3,66.5h41.1h44.8
					c38,0,73.1-20.7,91.4-54.1l33.5-61h8.4l5-9.2L2377.2,545L2377.2,545z M2453.8,583.5l-16.5,30c-14.7,25.8-47.2,46.5-73.2,46.5
					c-26.4,0-36.2-21.4-21.9-47.8l5.7-10.3c14.3-26.4,47.3-47.8,73.7-47.8h71.7C2476.5,557.1,2462,568.6,2453.8,583.5z"/>
				<path class="st5" d="M1444.7,647.6l51.3-93.4h8.4l5-9.2h-8.4l48.6-88.6h-90.1l-5.1,9.2h13.4c7,0,9.6,5.6,5.9,12.6l-36.6,66.8
					h-98c-38,0-73.1,20.7-91.4,54.1l-2.1,3.8c-16.4,29.9,5.2,66.5,39.3,66.5h41.1c17.7,0,37.6-8.1,54.2-20.8l-11.4,20.8h90.2
					l5.1-9.2h-13.5C1443.8,660,1441.1,654.5,1444.7,647.6z M1416,583.6l-15.5,28.3c-14.4,26.6-47.7,48.2-74.3,48.2
					c-26.4,0-36.1-21.4-21.7-47.8l5.7-10.3c14.3-26.4,47.3-47.7,73.7-47.7h71.7C1439.6,556.8,1423.6,568.8,1416,583.6z"/>
				<path class="st5" d="M2210.8,545l-5.1,9.2h40.9c-16.8,2.9-31.2,14.4-39.4,29.4l-15.8,28.8c-14.3,26.4-47.4,47.7-73.8,47.7h-71.5
					c16.8-2.9,31.2-14.4,39.4-29.4l47.1-85.7h-90.2l-5.1,9.2h13.5c6.9,0,9.5,5.5,6,12.4l-56.3,102.6h161.8c37.4,0,71.9-20,90.5-52.3
					l39.5-72L2210.8,545L2210.8,545z"/>
				<path class="st5" d="M1257.9,554.2l5-9.2h-136.7c1.1-1.1,1.8-2.6,1.8-4.3c0-3.4-2.8-6.2-6.2-6.2s-6.2,2.8-6.2,6.2
					c0,1.7,0.7,3.2,1.8,4.3h-97.2c-37,0-71.1,19.6-89.8,51.3H995c15.7-23.7,45.8-42.1,70.3-42.1h142.9
					c-16.8,2.9-31.2,14.4-39.4,29.3l-8.6,15.9c-8.4,15.4-27.6,27.9-43,27.9h-80.7l-5.1,9.2h62.9c24.4,1.4,33.1,22.2,19.2,47.7
					l-9.1,16.7c-14.3,26.4-47.3,47.8-73.7,47.8h-71.2c-25.4,0.2-36.9-20.7-21.5-48.4l5.7-10.4c6.1-11.2,15.8-21.7,26.7-29.8H902
					c-8.3,7.6-15.7,16.8-21.2,26.9l-2.4,4.5c-16.4,29.9,5.2,66.5,39.3,66.5h158.4c37.5,0,71.9-20.2,90.5-52.6l3.1-5.7
					c13.4-24.5,1.4-53.3-22.1-63.1h9.4c26.4,0,59.4-21.4,73.7-47.8l18.9-34.5h8.3V554.2z"/>
				<path class="st5" d="M1601.9,565.8l11.4-20.8h-90.2l-5.1,9.2h13.5c6.9,0,9.5,5.5,6,12.4l-56.3,102.6h90.2l5.1-9.2H1563
					c-7,0-9.6-5.6-5.9-12.6l25.1-45.7c14.6-26.3,47.5-47.5,73.9-47.5h71.3c-16.8,2.9-31.3,14.4-39.5,29.4l-11.8,21.6
					c-3.8,7.1-12.7,12.8-19.7,12.8H1643l-5.1,9.2h90l40-73h9.9l5.1-9.2h-126.8C1638.4,545,1618.5,553.1,1601.9,565.8z"/>
			</g>
		</g>
		<path class="st6" d="M1597.9,427.8l-48.6,88.6h1037.4l-61.4,112.5c-23.3,42.5-67.9,68.9-116.4,68.9H1285h-84.1
			c-1.5,5.3-3.6,10.5-6.4,15.5l-3.3,6.1c-23.6,41.4-67.7,67.1-115.3,67.1H917.6c-26.2,0-49.8-13.5-63.2-36
			c-13.4-22.6-13.8-49.7-1.2-72.7l52.5-95.8c23.7-40.3,67.6-65.4,114.4-65.4h400.1l12.2-22.3h-26.2l36.4-66.3h155.3 M1425.8,399.3
			l-48.6,88.6h-357c-56.9,0-110.2,30.5-139,79.5l-0.2,0.4l-0.2,0.4L828.3,664c-17.5,31.9-16.9,69.7,1.6,101s51.3,50,87.7,50h190.8
			c57.8,0,111.4-31.2,140.1-81.5c0,0,3.8-6.9,3.9-7.1h1188.9c58.9,0,113.1-32.1,141.4-83.7l84.4-154.8H1629.8l48.6-88.6
			L1425.8,399.3L1425.8,399.3z"/>
		<g>
			<path class="st7" d="M2667.1,487.9l-15.6,28.5l0,0l-61.3,112.5c-0.3,0.6-0.6,1.1-0.9,1.6l-6.6,12.1
				c-28.3,51.6-82.5,83.7-141.4,83.7h64.9c58.9,0,113.1-32.1,141.4-83.7l84.4-154.8L2667.1,487.9z"/>
			<polygon class="st7" points="1694.7,487.9 1743.3,399.3 1678.4,399.3 1629.8,487.9 			"/>
			<path class="st7" d="M1248.4,733.5c-28.6,50.2-82.3,81.5-140.1,81.5h64.9c57.8,0,111.4-31.2,140.1-81.5c0,0,3.8-6.9,3.9-7.1
				h-64.9C1252.3,726.6,1248.4,733.5,1248.4,733.5z"/>
		</g>
		<polygon class="st2" points="1759.6,487.9 1808.2,399.3 1743.3,399.3 1694.7,487.9 		"/>
		<path class="st2" d="M1313.3,733.5c-28.6,50.2-82.3,81.5-140.1,81.5h64.9c57.8,0,111.4-31.2,140.1-81.5c0,0,3.8-6.9,3.9-7.1h-64.9
			C1317.1,726.6,1313.3,733.5,1313.3,733.5z"/>
	</g>
</g>
<g id="Layer_3">
	<g>
		<g>
			<path class="st7" d="M2001-2l-67.6,124.7c-11.6,21.3-29.7,40.3-51.2,54.3c2.5,20.5-1.4,41.3-11.7,60l-3.6,6.6
				c-28.6,50.2-82.3,81.4-140,81.4h65.5c57.7,0,111.4-31.2,140-81.4l3.6-6.6c10.3-18.8,14.3-39.5,11.7-60
				c21.5-13.9,39.6-33,51.2-54.3L2066.5-2L2001-2L2001-2z"/>
		</g>
		<g>
			<path class="st8" d="M2132-2l-67.6,124.7c-11.6,21.3-29.7,40.3-51.2,54.3c2.5,20.5-1.4,41.3-11.7,60l-3.6,6.6
				c-28.6,50.2-82.3,81.4-140,81.4h1543.7V-2H2132z"/>
		</g>
		<path class="st6" d="M1920.2,25l-46,84.9c-12.5,23-34.5,42.5-58.4,53.5c0.2,0.5,0.4,1,0.5,1.4c6.9,19.8,5.2,40.8-4.9,59.3
			l-3.4,6.2c-23.8,41.8-68.5,67.8-116.6,67.8h-163.2c-26.1,0-49.7-13.4-63-35.9s-13.7-49.6-1.2-72.5l54.1-98.6
			c24-40.8,68.3-66.1,115.7-66.1H1920.2 M2001-2h-367.2c-56.9,0-110.1,30.4-138.9,79.4l-0.2,0.4l-0.2,0.4l-54.1,98.6
			c-17.2,31.3-16.6,68.4,1.6,99.2s50.4,49.1,86.2,49.1h198.7c57.7,0,111.4-31.2,140-81.4l3.6-6.6c10.3-18.8,14.3-39.5,11.7-60
			c21.5-13.9,39.6-33,51.2-54.3L2001-2L2001-2z"/>
		<g>
			<path class="st2" d="M2066.5-2l-67.6,124.7c-11.6,21.3-29.7,40.3-51.2,54.3c2.5,20.5-1.4,41.3-11.7,60l-3.6,6.6
				c-28.6,50.2-82.3,81.4-140,81.4h65.5c57.7,0,111.4-31.2,140-81.4l3.6-6.6c10.3-18.8,14.3-39.5,11.7-60
				c21.5-13.9,39.6-33,51.2-54.3L2132-2L2066.5-2L2066.5-2z"/>
		</g>
		<path class="st4" d="M1633.7,25c-47.4,0-91.7,25.3-115.7,66.1l-54.1,98.6c-12.6,22.9-12.1,50,1.2,72.5
			c13.3,22.5,36.8,35.9,63,35.9h163.2c48.1,0,92.7-26,116.6-67.8l3.4-6.2c10.1-18.5,11.9-39.5,4.9-59.3c-0.2-0.5-0.3-1-0.5-1.4
			c23.9-11,45.9-30.4,58.4-53.5l46-84.9H1633.7z M1869.9,61.4L1850.4,97c-14.8,27.2-48.8,49.3-76,49.3h-9.7
			c24.2,10,36.6,39.8,22.8,65l-3.2,5.8c-19.1,33.5-54.6,54.3-93.3,54.3h-163.4c-35.2,0-57.5-37.7-40.6-68.6l2.5-4.6
			c5.8-10.5,13.3-20,21.9-27.8h70.5c-11.2,8.4-21.2,19.2-27.5,30.8l-5.8,10.7c-15.9,28.6-4,50.1,22.1,50h73.4
			c27.2,0,61.2-22.1,76-49.3l9.4-17.2c14.3-26.3,5.3-47.8-19.9-49.2h-64.9l5.2-9.5h83.3c15.9,0,35.8-12.9,44.4-28.8l8.9-16.4
			c8.5-15.4,23.4-27.3,40.7-30.3h-147.4c-25.2,0-56.4,19-72.5,43.4h-66.6c19.3-32.8,54.5-52.9,92.6-52.9h100.2
			c-1.1-1.2-1.8-2.7-1.8-4.4c0-3.5,2.9-6.4,6.4-6.4s6.4,2.9,6.4,6.4c0,1.7-0.7,3.3-1.8,4.4h140.9l-5.2,9.5h-8.5V61.4z"/>
		<path class="st5" d="M1742.8,51.8c1.1-1.2,1.8-2.7,1.8-4.4c0-3.5-2.9-6.4-6.4-6.4s-6.4,2.9-6.4,6.4c0,1.7,0.7,3.3,1.8,4.4h-100.2
			c-38.2,0-73.3,20.2-92.6,52.9h66.6c16.2-24.5,47.3-43.4,72.5-43.4h147.4c-17.3,3-32.2,14.8-40.7,30.3l-8.9,16.4
			c-8.6,15.9-28.5,28.8-44.4,28.8H1650l-5.2,9.5h64.9c25.2,1.4,34.1,22.9,19.9,49.2l-9.4,17.2c-14.8,27.2-48.8,49.3-76,49.3h-73.4
			c-26.2,0.2-38.1-21.3-22.1-50l5.8-10.7c6.3-11.6,16.3-22.4,27.5-30.8h-70.5c-8.6,7.8-16.1,17.3-21.9,27.8l-2.5,4.6
			c-16.9,30.8,5.4,68.6,40.6,68.6H1691c38.7,0,74.2-20.8,93.3-54.3l3.2-5.8c13.8-25.2,1.4-55-22.8-65h9.7c27.2,0,61.2-22.1,76-49.3
			l19.5-35.6h8.6l5.2-9.5h-140.9V51.8z"/>
	</g>
	
		<linearGradient id="SVGID_1_" gradientUnits="userSpaceOnUse" x1="3143.0725" y1="-463.75" x2="3454.2974" y2="-463.75" gradientTransform="matrix(1 0 0 1 0 560)">
		<stop  offset="0.3239" style="stop-color:#FFFFFF;stop-opacity:0"/>
		<stop  offset="0.8351" style="stop-color:#FFFFFF"/>
	</linearGradient>
	<rect x="3224.8" y="-453.7" class="st9" width="176.8" height="1099.8"/>
</g>
</svg>
