<?xml version="1.0" encoding="utf-8"?>
<!-- Generator: Adobe Illustrator 26.3.1, SVG Export Plug-In . SVG Version: 6.00 Build 0)  -->
<svg version="1.1" id="Layer_1" xmlns="http://www.w3.org/2000/svg" xmlns:xlink="http://www.w3.org/1999/xlink" x="0px" y="0px"
	 viewBox="0 0 1204.9 807.1" style="enable-background:new 0 0 1204.9 807.1;" xml:space="preserve">
<style type="text/css">
	.st0{fill:#FFFFFB;}
	.st1{fill:#636362;}
	.st2{fill:none;stroke:#A7A6A6;stroke-width:0.9335;stroke-miterlimit:10;stroke-dasharray:2.8006,2.8006;}
	.st3{fill:#009180;}
	.st4{fill:#F2F2F2;}
	.st5{fill:#00657E;}
	.st6{fill:#B2D5A2;}
	.st7{fill:#004169;}
	.st8{fill:#FFFFFF;}
</style>
<g>
	<rect x="0" y="-0.5" class="st0" width="1205" height="808"/>
	<path class="st1" d="M1204.5,0v807.1H0.4V0H1204.5 M1205.4-0.9h-0.9H0.4h-0.9V0v807.1v0.9h0.9h1204h0.9v-0.9V0V-0.9L1205.4-0.9z"/>
</g>
<line class="st2" x1="609.1" y1="807.1" x2="609.1" y2="0"/>
<line class="st2" x1="595.8" y1="807.1" x2="595.8" y2="0"/>
<g>
	<g>
		<path class="st3" d="M883.6,677.9l-8.3,15.3c-1.4,2.6-3.6,5-6.3,6.7c0.3,2.5-0.2,5.1-1.4,7.4l-0.4,0.8c-3.5,6.2-10.1,10-17.2,10
			h8.1c7.1,0,13.7-3.8,17.2-10l0.4-0.8c1.3-2.3,1.8-4.9,1.4-7.4c2.6-1.7,4.9-4.1,6.3-6.7l8.3-15.3H883.6z"/>
	</g>
	<g>
		<path class="st4" d="M899.7,677.9l-8.3,15.3c-1.4,2.6-3.6,5-6.3,6.7c0.3,2.5-0.2,5.1-1.4,7.4l-0.4,0.8c-3.5,6.2-10.1,10-17.2,10
			h338.5v-40.2H899.7z"/>
	</g>
	<path class="st5" d="M873.6,681.3l-5.7,10.4c-1.5,2.8-4.2,5.2-7.2,6.6c0,0.1,0,0.1,0.1,0.2c0.9,2.4,0.6,5-0.6,7.3l-0.4,0.8
		c-2.9,5.1-8.4,8.3-14.3,8.3h-20.1c-3.2,0-6.1-1.6-7.7-4.4s-1.7-6.1-0.1-8.9l6.6-12.1c2.9-5,8.4-8.1,14.2-8.1H873.6 M883.6,677.9
		h-45.1c-7,0-13.5,3.7-17.1,9.8l0,0l0,0l-6.6,12.1c-2.1,3.8-2,8.4,0.2,12.2c2.2,3.8,6.2,6,10.6,6h24.4c7.1,0,13.7-3.8,17.2-10
		l0.4-0.8c1.3-2.3,1.8-4.9,1.4-7.4c2.6-1.7,4.9-4.1,6.3-6.7L883.6,677.9L883.6,677.9z"/>
	<g>
		<path class="st6" d="M891.6,677.9l-8.3,15.3c-1.4,2.6-3.6,5-6.3,6.7c0.3,2.5-0.2,5.1-1.4,7.4l-0.4,0.8c-3.5,6.2-10.1,10-17.2,10
			h8.1c7.1,0,13.7-3.8,17.2-10l0.4-0.8c1.3-2.3,1.8-4.9,1.4-7.4c2.6-1.7,4.9-4.1,6.3-6.7l8.3-15.3H891.6z"/>
	</g>
	<path class="st7" d="M838.4,681.3c-5.8,0-11.3,3.1-14.2,8.1l-6.6,12.1c-1.5,2.8-1.5,6.1,0.1,8.9c1.6,2.8,4.5,4.4,7.7,4.4h20.1
		c5.9,0,11.4-3.2,14.3-8.3l0.4-0.8c1.2-2.3,1.5-4.9,0.6-7.3c0-0.1,0-0.1-0.1-0.2c2.9-1.4,5.6-3.7,7.2-6.6l5.7-10.4H838.4z
		 M867.5,685.7l-2.4,4.4c-1.8,3.3-6,6.1-9.3,6.1h-1.2c3,1.2,4.5,4.9,2.8,8l-0.4,0.7c-2.3,4.1-6.7,6.7-11.5,6.7h-20.1
		c-4.3,0-7.1-4.6-5-8.4l0.3-0.6c0.7-1.3,1.6-2.5,2.7-3.4h8.7c-1.4,1-2.6,2.4-3.4,3.8l-0.7,1.3c-2,3.5-0.5,6.2,2.7,6.1h9
		c3.3,0,7.5-2.7,9.3-6.1l1.2-2.1c1.8-3.2,0.7-5.9-2.4-6.1h-8l0.6-1.2h10.2c2,0,4.4-1.6,5.5-3.5l1.1-2c1-1.9,2.9-3.4,5-3.7h-18.1
		c-3.1,0-6.9,2.3-8.9,5.3H827c2.4-4,6.7-6.5,11.4-6.5h12.3c-0.1-0.1-0.2-0.3-0.2-0.5c0-0.4,0.4-0.8,0.8-0.8c0.4,0,0.8,0.4,0.8,0.8
		c0,0.2-0.1,0.4-0.2,0.5h17.3l-0.6,1.2H867.5z"/>
	<path class="st8" d="M851.8,684.6c0.1-0.1,0.2-0.3,0.2-0.5c0-0.4-0.4-0.8-0.8-0.8c-0.4,0-0.8,0.4-0.8,0.8c0,0.2,0.1,0.4,0.2,0.5
		h-12.3c-4.7,0-9,2.5-11.4,6.5h8.2c2-3,5.8-5.3,8.9-5.3h18.1c-2.1,0.4-4,1.8-5,3.7l-1.1,2c-1.1,2-3.5,3.5-5.5,3.5h-10.2l-0.6,1.2h8
		c3.1,0.2,4.2,2.8,2.4,6.1l-1.2,2.1c-1.8,3.3-6,6.1-9.3,6.1h-9c-3.2,0-4.7-2.6-2.7-6.1l0.7-1.3c0.8-1.4,2-2.8,3.4-3.8h-8.7
		c-1.1,1-2,2.1-2.7,3.4l-0.3,0.6c-2.1,3.8,0.7,8.4,5,8.4h20.1c4.8,0,9.1-2.6,11.5-6.7l0.4-0.7c1.7-3.1,0.2-6.8-2.8-8h1.2
		c3.3,0,7.5-2.7,9.3-6.1l2.4-4.4h1.1l0.6-1.2H851.8z"/>
</g>
</svg>
