<?xml version="1.0" encoding="utf-8"?>
<!-- Generator: Adobe Illustrator 26.3.1, SVG Export Plug-In . SVG Version: 6.00 Build 0)  -->
<svg version="1.1" id="Layer_1" xmlns="http://www.w3.org/2000/svg" xmlns:xlink="http://www.w3.org/1999/xlink" x="0px" y="0px"
	 viewBox="0 0 1204.7 807" style="enable-background:new 0 0 1204.7 807;" xml:space="preserve">
<style type="text/css">
	.st0{fill:url(#SVGID_1_);}
	.st1{fill:#636362;}
	.st2{fill:#FFFFFF;}
	.st3{fill:none;stroke:#A7A6A6;stroke-width:0.9334;stroke-miterlimit:10;stroke-dasharray:2.8001,2.8001;}
	.st4{fill:url(#SVGID_00000167391611476009989360000018279786053347762857_);}
	.st5{fill:url(#SVGID_00000008849440542661969320000011279443998285962643_);}
	.st6{fill:url(#SVGID_00000148658950359921799590000006668395263238948784_);}
	.st7{fill:url(#SVGID_00000026159436746443825590000001158232171198525875_);}
	.st8{fill:url(#SVGID_00000137836070615815965900000013901731631415661995_);}
	.st9{fill:url(#SVGID_00000070099411042960533920000010110831620423250321_);}
	.st10{fill:url(#SVGID_00000033352434187584414450000008514211044417241498_);}
	.st11{fill:url(#SVGID_00000044882857160021607200000005565769453273366930_);}
	.st12{fill:url(#SVGID_00000177442339943486552080000011265616762012866450_);}
	.st13{fill:url(#SVGID_00000046306785588808538750000007179905015634575762_);}
	.st14{fill:url(#SVGID_00000078013054652253922360000012659072547117462691_);}
	.st15{fill:url(#SVGID_00000140707126016904411030000001434602038620449179_);}
	.st16{fill:url(#SVGID_00000166638145610398839110000012632641946820456626_);}
	.st17{fill:url(#SVGID_00000046334954308272256890000013457061013819287741_);}
	.st18{fill:url(#SVGID_00000106146953038321629530000013553483763127341970_);}
</style>
<g>
	<linearGradient id="SVGID_1_" gradientUnits="userSpaceOnUse" x1="-44.8411" y1="843.9006" x2="1282.0481" y2="-59.0448">
		<stop  offset="0" style="stop-color:#004169"/>
		<stop  offset="0.33" style="stop-color:#00657E"/>
		<stop  offset="0.7" style="stop-color:#009180"/>
		<stop  offset="1" style="stop-color:#B2D5A2"/>
	</linearGradient>
	<rect x="0" y="-0.5" class="st0" width="1204.8" height="807.9"/>
	<path class="st1" d="M1204.3,0v807H0.4V0H1204.3 M1205.2-0.9h-0.9H0.4h-0.9V0v807v0.9h0.9h1203.8h0.9V807V0V-0.9L1205.2-0.9z"/>
</g>
<path class="st2" d="M1204.3,595.3h-371c-19.4,0-37.5,10.4-47.3,27.1L675.2,807h529.1V595.3z"/>
<line class="st3" x1="609" y1="807" x2="609" y2="0"/>
<line class="st3" x1="595.7" y1="807" x2="595.8" y2="0"/>
<g>
	
		<linearGradient id="SVGID_00000098179422047247516430000007305254465249265071_" gradientUnits="userSpaceOnUse" x1="829.4953" y1="670.548" x2="1048.5946" y2="643.821">
		<stop  offset="0" style="stop-color:#004169"/>
		<stop  offset="0.33" style="stop-color:#00657E"/>
		<stop  offset="0.7" style="stop-color:#009180"/>
		<stop  offset="0.9987" style="stop-color:#B2D5A2"/>
	</linearGradient>
	<path style="fill:url(#SVGID_00000098179422047247516430000007305254465249265071_);" d="M1017.3,639.7c-4.7,0-9,2.6-11.3,6.7
		l-0.3,0.5c-2,3.7,0.6,8.2,4.9,8.2h5.1l0,0h5.5c4.7,0,9-2.6,11.3-6.7l4.1-7.5h1l0.6-1.1H1017.3z M1026.8,644.5l-2,3.7
		c-1.8,3.2-5.8,5.7-9.1,5.7c-3.3,0-4.5-2.7-2.7-5.9l0.7-1.3c1.8-3.3,5.9-5.9,9.1-5.9h8.9C1029.6,641.2,1027.8,642.6,1026.8,644.5z"
		/>
	
		<linearGradient id="SVGID_00000158014996781204745200000016174712986234539149_" gradientUnits="userSpaceOnUse" x1="828.6286" y1="663.4432" x2="1047.7279" y2="636.7161">
		<stop  offset="0" style="stop-color:#004169"/>
		<stop  offset="0.33" style="stop-color:#00657E"/>
		<stop  offset="0.7" style="stop-color:#009180"/>
		<stop  offset="0.9987" style="stop-color:#B2D5A2"/>
	</linearGradient>
	<path style="fill:url(#SVGID_00000158014996781204745200000016174712986234539149_);" d="M953.2,639.7c-4.7,0-9,2.6-11.3,6.7
		l-0.3,0.5c-2,3.7,0.6,8.2,4.9,8.2h5.1c2.2,0,4.6-1,6.7-2.6l-1.4,2.6l11.2,0l0.6-1.1h-1.7c-0.9,0-1.2-0.7-0.7-1.5l6.3-11.6l1,0
		l0.6-1.1H953.2z M962.7,644.5l-1.9,3.5c-1.8,3.3-5.9,6-9.2,6c-3.3,0-4.5-2.7-2.7-5.9l0.7-1.3c1.8-3.3,5.9-5.9,9.1-5.9h8.9
		C965.6,641.2,963.6,642.7,962.7,644.5z"/>
	
		<linearGradient id="SVGID_00000149374967703416267580000008484493462152858303_" gradientUnits="userSpaceOnUse" x1="827.1432" y1="651.2665" x2="1046.2426" y2="624.5394">
		<stop  offset="0" style="stop-color:#004169"/>
		<stop  offset="0.33" style="stop-color:#00657E"/>
		<stop  offset="0.7" style="stop-color:#009180"/>
		<stop  offset="0.9987" style="stop-color:#B2D5A2"/>
	</linearGradient>
	<path style="fill:url(#SVGID_00000149374967703416267580000008484493462152858303_);" d="M915,628.7h-11.1l-0.6,1.1h1.7
		c0.9,0,1.2,0.7,0.7,1.6l-4.5,8.3h-12.1c-4.7,0-9,2.6-11.3,6.7l-0.3,0.5c-2,3.7,0.6,8.2,4.9,8.2h5.1c2.2,0,4.6-1,6.7-2.6l-1.4,2.6
		l11.2,0l0.6-1.1h-1.7c-0.9,0-1.2-0.7-0.7-1.5l6.3-11.6l1,0l0.6-1.1h-1L915,628.7z M898.4,644.5l-1.9,3.5c-1.8,3.3-5.9,6-9.2,6
		c-3.3,0-4.5-2.7-2.7-5.9l0.7-1.3c1.8-3.3,5.9-5.9,9.1-5.9h8.9C901.4,641.2,899.4,642.7,898.4,644.5z"/>
	
		<linearGradient id="SVGID_00000165223350737782821430000002595524412586461835_" gradientUnits="userSpaceOnUse" x1="828.9736" y1="666.2716" x2="1048.073" y2="639.5446">
		<stop  offset="0" style="stop-color:#004169"/>
		<stop  offset="0.33" style="stop-color:#00657E"/>
		<stop  offset="0.7" style="stop-color:#009180"/>
		<stop  offset="0.9987" style="stop-color:#B2D5A2"/>
	</linearGradient>
	<path style="fill:url(#SVGID_00000165223350737782821430000002595524412586461835_);" d="M1001.9,648.6l4.9-8.9h-10.1l-0.6,1.1
		l5.1,0c-2.1,0.4-3.9,1.8-4.9,3.6l-2,3.6c-1.8,3.3-5.9,5.9-9.1,5.9h-8.8c2.1-0.4,3.9-1.8,4.9-3.6l5.8-10.6h-11.2l-0.6,1.1h1.7
		c0.9,0,1.2,0.7,0.7,1.5l-7,12.7h20C995.4,655.1,999.6,652.6,1001.9,648.6"/>
	
		<linearGradient id="SVGID_00000091004824192486264720000008126193862573195936_" gradientUnits="userSpaceOnUse" x1="827.9613" y1="657.973" x2="1047.0607" y2="631.246">
		<stop  offset="0" style="stop-color:#004169"/>
		<stop  offset="0.33" style="stop-color:#00657E"/>
		<stop  offset="0.7" style="stop-color:#009180"/>
		<stop  offset="0.9987" style="stop-color:#B2D5A2"/>
	</linearGradient>
	<path style="fill:url(#SVGID_00000091004824192486264720000008126193862573195936_);" d="M930.6,647.2c-0.5,0.9-1.6,1.6-2.4,1.6
		h-1.7l-0.6,1.1H937l5-9h1.2l0.6-1.1l-15.7,0c-2.2,0-4.6,1-6.7,2.6l1.4-2.6l-11.2,0l-0.6,1.1h1.7c0.9,0,1.2,0.7,0.7,1.5l-7,12.7
		h11.2l0.6-1.1h-1.7c-0.9,0-1.2-0.7-0.7-1.6l3.1-5.7c1.8-3.3,5.9-5.9,9.1-5.9l8.8,0c-2.1,0.4-3.9,1.8-4.9,3.6L930.6,647.2z"/>
	
		<linearGradient id="SVGID_00000133487302017821982790000001939219370267569850_" gradientUnits="userSpaceOnUse" x1="828.6292" y1="663.4481" x2="1047.7285" y2="636.7211">
		<stop  offset="0" style="stop-color:#004169"/>
		<stop  offset="0.33" style="stop-color:#00657E"/>
		<stop  offset="0.7" style="stop-color:#009180"/>
		<stop  offset="0.9987" style="stop-color:#B2D5A2"/>
	</linearGradient>
	<path style="fill:url(#SVGID_00000133487302017821982790000001939219370267569850_);" d="M953.2,639.7c-4.7,0-9,2.6-11.3,6.7
		l-0.3,0.5c-2,3.7,0.6,8.2,4.9,8.2h5.1c2.2,0,4.6-1,6.7-2.6l-1.4,2.6l11.2,0l0.6-1.1h-1.7c-0.9,0-1.2-0.7-0.7-1.5l6.3-11.6l1,0
		l0.6-1.1H953.2z M962.7,644.5l-1.9,3.5c-1.8,3.3-5.9,6-9.2,6c-3.3,0-4.5-2.7-2.7-5.9l0.7-1.3c1.8-3.3,5.9-5.9,9.1-5.9h8.9
		C965.6,641.2,963.6,642.7,962.7,644.5z"/>
	
		<linearGradient id="SVGID_00000142161095215830665490000014001865851095436453_" gradientUnits="userSpaceOnUse" x1="827.1438" y1="651.2714" x2="1046.2432" y2="624.5444">
		<stop  offset="0" style="stop-color:#004169"/>
		<stop  offset="0.33" style="stop-color:#00657E"/>
		<stop  offset="0.7" style="stop-color:#009180"/>
		<stop  offset="0.9987" style="stop-color:#B2D5A2"/>
	</linearGradient>
	<path style="fill:url(#SVGID_00000142161095215830665490000014001865851095436453_);" d="M915,628.8h-11.1l-0.6,1.1h1.7
		c0.9,0,1.2,0.7,0.7,1.6l-4.5,8.3h-12.1c-4.7,0-9,2.6-11.3,6.7l-0.3,0.5c-2,3.7,0.6,8.2,4.9,8.2h5.1c2.2,0,4.6-1,6.7-2.6l-1.4,2.6
		l11.2,0l0.6-1.1h-1.7c-0.9,0-1.2-0.7-0.7-1.5l6.3-11.6l1,0l0.6-1.1h-1L915,628.8z M898.4,644.5l-1.9,3.5c-1.8,3.3-5.9,6-9.2,6
		c-3.3,0-4.5-2.7-2.7-5.9l0.7-1.3c1.8-3.3,5.9-5.9,9.1-5.9h8.9C901.4,641.2,899.4,642.7,898.4,644.5z"/>
	
		<linearGradient id="SVGID_00000088824860984197963090000006610811879747954598_" gradientUnits="userSpaceOnUse" x1="828.9742" y1="666.2766" x2="1048.0736" y2="639.5496">
		<stop  offset="0" style="stop-color:#004169"/>
		<stop  offset="0.33" style="stop-color:#00657E"/>
		<stop  offset="0.7" style="stop-color:#009180"/>
		<stop  offset="0.9987" style="stop-color:#B2D5A2"/>
	</linearGradient>
	<path style="fill:url(#SVGID_00000088824860984197963090000006610811879747954598_);" d="M1001.9,648.6l4.9-8.9h-10.1l-0.6,1.1
		l5.1,0c-2.1,0.4-3.9,1.8-4.9,3.6l-2,3.6c-1.8,3.3-5.9,5.9-9.1,5.9h-8.8c2.1-0.4,3.9-1.8,4.9-3.6l5.8-10.6h-11.2l-0.6,1.1h1.7
		c0.9,0,1.2,0.7,0.7,1.5l-7,12.7h20C995.4,655.1,999.6,652.6,1001.9,648.6"/>
	
		<linearGradient id="SVGID_00000143605687666326795610000008503413722011060626_" gradientUnits="userSpaceOnUse" x1="827.9619" y1="657.978" x2="1047.0613" y2="631.251">
		<stop  offset="0" style="stop-color:#004169"/>
		<stop  offset="0.33" style="stop-color:#00657E"/>
		<stop  offset="0.7" style="stop-color:#009180"/>
		<stop  offset="0.9987" style="stop-color:#B2D5A2"/>
	</linearGradient>
	<path style="fill:url(#SVGID_00000143605687666326795610000008503413722011060626_);" d="M930.6,647.2c-0.5,0.9-1.6,1.6-2.4,1.6
		h-1.7l-0.6,1.1H937l5-9h1.2l0.6-1.1l-15.7,0c-2.2,0-4.6,1-6.7,2.6l1.4-2.6l-11.2,0l-0.6,1.1h1.7c0.9,0,1.2,0.7,0.7,1.5l-7,12.7
		h11.2l0.6-1.1h-1.7c-0.9,0-1.2-0.7-0.7-1.6l3.1-5.7c1.8-3.3,5.9-5.9,9.1-5.9l8.8,0c-2.1,0.4-3.9,1.8-4.9,3.6L930.6,647.2z"/>
	
		<linearGradient id="SVGID_00000145048052093919462700000003066882873469836449_" gradientUnits="userSpaceOnUse" x1="829.4952" y1="670.547" x2="1048.5945" y2="643.82">
		<stop  offset="0" style="stop-color:#004169"/>
		<stop  offset="0.33" style="stop-color:#00657E"/>
		<stop  offset="0.7" style="stop-color:#009180"/>
		<stop  offset="0.9987" style="stop-color:#B2D5A2"/>
	</linearGradient>
	<path style="fill:url(#SVGID_00000145048052093919462700000003066882873469836449_);" d="M1038.4,639.7h-21c-4.7,0-9,2.6-11.3,6.7
		l-0.3,0.5c-0.5,0.9-0.7,1.9-0.7,2.8c0.1,2.8,2.4,5.4,5.6,5.4h5.1v0h5.5c4.7,0,9-2.6,11.3-6.7l4.1-7.5h1L1038.4,639.7L1038.4,639.7
		L1038.4,639.7z M1012.2,650.8c0-0.8,0.3-1.8,0.8-2.8l0.7-1.3c1.8-3.3,5.9-5.9,9.1-5.9h8.8c-2.1,0.4-3.8,1.8-4.8,3.6l-2,3.7
		c-1.8,3.2-5.8,5.8-9.1,5.8C1013.5,653.9,1012.2,652.7,1012.2,650.8z"/>
	
		<linearGradient id="SVGID_00000011027441436316410710000017182700041083124874_" gradientUnits="userSpaceOnUse" x1="828.6278" y1="663.4365" x2="1047.7272" y2="636.7095">
		<stop  offset="0" style="stop-color:#004169"/>
		<stop  offset="0.33" style="stop-color:#00657E"/>
		<stop  offset="0.7" style="stop-color:#009180"/>
		<stop  offset="0.9987" style="stop-color:#B2D5A2"/>
	</linearGradient>
	<path style="fill:url(#SVGID_00000011027441436316410710000017182700041083124874_);" d="M966.2,652.4l6.3-11.6l1,0l0.6-1.1h-21.1
		c-4.7,0-9,2.6-11.3,6.7l-0.3,0.5c-2,3.7,0.6,8.2,4.9,8.2h5.1c2.2,0,4.6-1,6.7-2.6l-1.4,2.6l11.2,0l0.6-1.1h-1.7
		C966.1,653.9,965.8,653.3,966.2,652.4z M962.7,644.5l-1.9,3.5c-1.8,3.3-5.9,6-9.2,6c-3.3,0-4.5-2.7-2.7-5.9l0.7-1.3
		c1.8-3.3,5.9-5.9,9.1-5.9h8.9C965.6,641.2,963.6,642.6,962.7,644.5z"/>
	
		<linearGradient id="SVGID_00000084527144300045460080000007105474288583099063_" gradientUnits="userSpaceOnUse" x1="827.1424" y1="651.2599" x2="1046.2417" y2="624.5329">
		<stop  offset="0" style="stop-color:#004169"/>
		<stop  offset="0.33" style="stop-color:#00657E"/>
		<stop  offset="0.7" style="stop-color:#009180"/>
		<stop  offset="0.9987" style="stop-color:#B2D5A2"/>
	</linearGradient>
	<path style="fill:url(#SVGID_00000084527144300045460080000007105474288583099063_);" d="M902,652.4l6.3-11.6l1,0l0.6-1.1h-1l6-11
		h-11.1l-0.6,1.1h1.7c0.9,0,1.2,0.7,0.7,1.6l-4.5,8.3h-12.1c-4.7,0-9,2.6-11.3,6.7l-0.3,0.5c-2,3.7,0.6,8.2,4.9,8.2h5.1
		c2.2,0,4.6-1,6.7-2.6l-1.4,2.6l11.2,0l0.6-1.1h-1.7C901.9,653.9,901.5,653.3,902,652.4z M898.4,644.5l-1.9,3.5
		c-1.8,3.3-5.9,6-9.2,6c-3.3,0-4.5-2.7-2.7-5.9l0.7-1.3c1.8-3.3,5.9-5.9,9.1-5.9h8.9C901.4,641.2,899.4,642.6,898.4,644.5z"/>
	
		<linearGradient id="SVGID_00000007397627808999043860000004248791858688022719_" gradientUnits="userSpaceOnUse" x1="828.9728" y1="666.2649" x2="1048.0721" y2="639.5378">
		<stop  offset="0" style="stop-color:#004169"/>
		<stop  offset="0.33" style="stop-color:#00657E"/>
		<stop  offset="0.7" style="stop-color:#009180"/>
		<stop  offset="0.9987" style="stop-color:#B2D5A2"/>
	</linearGradient>
	<path style="fill:url(#SVGID_00000007397627808999043860000004248791858688022719_);" d="M996.8,639.7l-0.6,1.1l5.1,0
		c-2.1,0.4-3.9,1.8-4.9,3.6l-2,3.6c-1.8,3.3-5.9,5.9-9.1,5.9h-8.8c2.1-0.4,3.9-1.8,4.9-3.6l5.8-10.6h-11.2l-0.6,1.1h1.7
		c0.9,0,1.2,0.7,0.7,1.5l-7,12.7h20c4.6,0,8.9-2.5,11.2-6.5l4.9-8.9H996.8z"/>
	
		<linearGradient id="SVGID_00000090277276890008746330000002685295164716881840_" gradientUnits="userSpaceOnUse" x1="827.9605" y1="657.9663" x2="1047.0598" y2="631.2393">
		<stop  offset="0" style="stop-color:#004169"/>
		<stop  offset="0.33" style="stop-color:#00657E"/>
		<stop  offset="0.7" style="stop-color:#009180"/>
		<stop  offset="0.9987" style="stop-color:#B2D5A2"/>
	</linearGradient>
	<path style="fill:url(#SVGID_00000090277276890008746330000002685295164716881840_);" d="M943.2,640.8l0.6-1.1h-15.7
		c-2.2,0-4.6,1-6.7,2.6l1.4-2.6l-11.2,0l-0.6,1.1h1.7c0.9,0,1.2,0.7,0.7,1.5l-7,12.7h11.2l0.6-1.1h-1.7c-0.9,0-1.2-0.7-0.7-1.6
		l3.1-5.7c1.8-3.3,5.9-5.9,9.1-5.9l8.8,0c-2.1,0.4-3.9,1.8-4.9,3.6l-1.5,2.7c-0.5,0.9-1.6,1.6-2.4,1.6h-1.7l-0.6,1.1H937l5-9H943.2z
		"/>
	
		<linearGradient id="SVGID_00000133528332377215345390000003362784837475473327_" gradientUnits="userSpaceOnUse" x1="827.7147" y1="655.9508" x2="1046.814" y2="629.2238">
		<stop  offset="0" style="stop-color:#004169"/>
		<stop  offset="0.33" style="stop-color:#00657E"/>
		<stop  offset="0.7" style="stop-color:#009180"/>
		<stop  offset="0.9987" style="stop-color:#B2D5A2"/>
	</linearGradient>
	<path style="fill:url(#SVGID_00000133528332377215345390000003362784837475473327_);" d="M862.6,639.7c0.1-0.1,0.2-0.3,0.2-0.5
		c0-0.4-0.3-0.8-0.8-0.8s-0.8,0.3-0.8,0.8c0,0.2,0.1,0.4,0.2,0.5h-12c-4.6,0-8.8,2.4-11.1,6.3h8c1.9-2.9,5.7-5.2,8.7-5.2h17.7
		c-2.1,0.4-3.9,1.8-4.9,3.6l-1.1,2c-1,1.9-3.4,3.4-5.3,3.4h-10l-0.6,1.1h7.8c3,0.2,4.1,2.8,2.4,5.9l-1.1,2.1
		c-1.8,3.3-5.9,5.9-9.1,5.9H842c-3.1,0-4.6-2.6-2.7-6l0.7-1.3c0.8-1.4,2-2.7,3.3-3.7h-8.5c-1,0.9-1.9,2.1-2.6,3.3l-0.3,0.6
		c-2,3.7,0.6,8.2,4.9,8.2h19.6c4.6,0,8.9-2.5,11.2-6.5l0.4-0.7c1.7-3,0.2-6.6-2.7-7.8h1.2c3.3,0,7.3-2.6,9.1-5.9l2.3-4.3h1l0.6-1.1
		H862.6z"/>
</g>
</svg>
