<?xml version="1.0" encoding="utf-8"?>
<!-- Generator: Adobe Illustrator 26.3.1, SVG Export Plug-In . SVG Version: 6.00 Build 0)  -->
<svg version="1.1" id="Layer_1" xmlns="http://www.w3.org/2000/svg" xmlns:xlink="http://www.w3.org/1999/xlink" x="0px" y="0px"
	 viewBox="0 0 255.1 141.7" style="enable-background:new 0 0 255.1 141.7;" xml:space="preserve">
<style type="text/css">
	.st0{fill:#FFFFFC;}
	.st1{fill:url(#SVGID_1_);}
	.st2{fill:url(#SVGID_00000124863243243215986490000005100034809970444710_);}
	.st3{fill:url(#SVGID_00000048491198524910365320000005356160440832845208_);}
	.st4{fill:url(#SVGID_00000000915245646891764650000007093650384000795809_);}
	.st5{fill:url(#SVGID_00000024002835266518404530000013882763684889575815_);}
	.st6{fill:url(#SVGID_00000182516004102752954220000004926900794675843466_);}
</style>
<g id="Front_side">
	<rect x="-5.7" y="-5.7" class="st0" width="266.5" height="153.1"/>
	
		<linearGradient id="SVGID_1_" gradientUnits="userSpaceOnUse" x1="64.5094" y1="64.744" x2="194.7194" y2="82.894" gradientTransform="matrix(1 0 0 -1 0 144)">
		<stop  offset="0" style="stop-color:#003C5C"/>
		<stop  offset="0.33" style="stop-color:#00667E"/>
		<stop  offset="0.7" style="stop-color:#009280"/>
		<stop  offset="1" style="stop-color:#B4D6A3"/>
	</linearGradient>
	<path class="st1" d="M173.8,59.9c-2.7-0.1-5.2,1.2-6.7,3.4l-0.1,0.2c-1.2,1.9,0.4,4.2,2.9,4.2h6.3c2.7,0.1,5.2-1.2,6.7-3.4l2.4-3.9
		h0.6l0.4-0.6L173.8,59.9z M179.4,62.4l-1.2,1.9c-1.2,1.7-3.2,2.8-5.3,2.9l0,0c-1.9,0-2.6-1.3-1.6-3l0.4-0.7c1.2-1.8,3.2-2.9,5.4-3
		h5.2C181.1,60.7,180,61.4,179.4,62.4z"/>
	
		<linearGradient id="SVGID_00000090983774034502424530000018165554750793653667_" gradientUnits="userSpaceOnUse" x1="63.6284" y1="69.5115" x2="193.8384" y2="87.6615" gradientTransform="matrix(1 0 0 -1 0 144)">
		<stop  offset="0" style="stop-color:#003C5C"/>
		<stop  offset="0.33" style="stop-color:#00667E"/>
		<stop  offset="0.7" style="stop-color:#009280"/>
		<stop  offset="1" style="stop-color:#B4D6A3"/>
	</linearGradient>
	<path style="fill:url(#SVGID_00000090983774034502424530000018165554750793653667_);" d="M135.8,59.9c-2.7-0.1-5.2,1.2-6.7,3.4
		l-0.1,0.2c-1.2,1.9,0.4,4.2,2.9,4.2h3c1.4,0,2.8-0.5,4-1.3l-0.9,1.3h6.6l0.4-0.6h-1c-0.5,0-0.7-0.3-0.4-0.8l3.8-5.9h0.6l0.4-0.6
		L135.8,59.9z M141.4,62.4l-1.1,1.8c-1.3,1.8-3.3,2.9-5.4,3c-1.9,0-2.6-1.3-1.6-3l0.4-0.7c1.2-1.8,3.2-2.9,5.4-3h5.2
		C143.2,60.7,142.1,61.4,141.4,62.4z"/>
	
		<linearGradient id="SVGID_00000152968964793335654630000001479009606195165584_" gradientUnits="userSpaceOnUse" x1="62.5106" y1="76.7757" x2="192.1806" y2="94.8557" gradientTransform="matrix(1 0 0 -1 0 144)">
		<stop  offset="0" style="stop-color:#003C5C"/>
		<stop  offset="0.33" style="stop-color:#00667E"/>
		<stop  offset="0.7" style="stop-color:#009280"/>
		<stop  offset="1" style="stop-color:#B4D6A3"/>
	</linearGradient>
	<path style="fill:url(#SVGID_00000152968964793335654630000001479009606195165584_);" d="M113.3,54.3h-6.6l-0.4,0.6h1
		c0.5,0,0.7,0.4,0.4,0.8l-2.7,4.2h-7.2c-2.7-0.1-5.2,1.2-6.7,3.4L91,63.6c-1.2,1.9,0.4,4.2,2.9,4.2h3c1.4,0,2.8-0.5,4-1.3l-0.8,1.3
		h6.6l0.4-0.6h-1c-0.5,0-0.7-0.3-0.4-0.8l3.8-5.9h0.6l0.4-0.6h-0.6L113.3,54.3z M103.5,62.3l-1.1,1.8c-1.3,1.8-3.3,2.9-5.4,3
		c-1.9,0-2.6-1.3-1.6-3l0.4-0.7c1.2-1.8,3.2-2.9,5.4-3h5.2C105.2,60.7,104.1,61.4,103.5,62.3L103.5,62.3z"/>
	
		<linearGradient id="SVGID_00000016781918341188858230000007038571732263017356_" gradientUnits="userSpaceOnUse" x1="64.2005" y1="67.6163" x2="194.1605" y2="85.7363" gradientTransform="matrix(1 0 0 -1 0 144)">
		<stop  offset="0" style="stop-color:#003C5C"/>
		<stop  offset="0.33" style="stop-color:#00667E"/>
		<stop  offset="0.7" style="stop-color:#009280"/>
		<stop  offset="1" style="stop-color:#B4D6A3"/>
	</linearGradient>
	<path style="fill:url(#SVGID_00000016781918341188858230000007038571732263017356_);" d="M150.3,61.3l-4.1,6.5h11.8
		c2.6,0.1,5.1-1.2,6.6-3.3l2.9-4.5h-6l-0.4,0.6h3c-1.2,0.2-2.2,0.9-2.9,1.9l-1.2,1.8c-1.2,1.8-3.2,2.9-5.4,3h-5.2
		c1.2-0.2,2.2-0.9,2.9-1.9l3.4-5.4h-6.6l-0.4,0.6h1C150.4,60.5,150.6,60.9,150.3,61.3z"/>
	
		<linearGradient id="SVGID_00000008121456605044914250000012225845411969459860_" gradientUnits="userSpaceOnUse" x1="62.556" y1="75.4089" x2="192.476" y2="93.5189" gradientTransform="matrix(1 0 0 -1 0 144)">
		<stop  offset="0" style="stop-color:#003C5C"/>
		<stop  offset="0.33" style="stop-color:#00667E"/>
		<stop  offset="0.7" style="stop-color:#009280"/>
		<stop  offset="1" style="stop-color:#B4D6A3"/>
	</linearGradient>
	<path style="fill:url(#SVGID_00000008121456605044914250000012225845411969459860_);" d="M81.7,65.1h-6l-0.4,0.6H80
		c1.8,0.1,2.4,1.4,1.4,3l-0.7,1.1c-1.2,1.8-3.2,2.9-5.4,3h-5.2c-1.8,0-2.7-1.3-1.6-3.1l0.4-0.7c0.5-0.8,1.2-1.4,2-1.9h-5
		c-0.6,0.5-1.1,1.1-1.6,1.7l-0.2,0.3c-1.2,1.9,0.4,4.2,2.9,4.2h11.5c2.6,0.1,5.1-1.2,6.6-3.3l0.2-0.3c0.8-1.3,0.4-2.9-0.9-3.7
		c-0.2-0.1-0.5-0.2-0.7-0.3h0.7c2.2-0.1,4.1-1.2,5.4-3l1.4-2.2h0.6l0.4-0.6H82.2c0.1,0,0.1-0.1,0.1-0.2c0-0.2-0.2-0.3-0.3-0.3
		c-0.2,0-0.3,0.1-0.3,0.3c0,0,0,0,0,0c0,0.1,0,0.1,0.1,0.2h-7.2c-2.6,0-5,1.2-6.6,3.3h4.7c1.3-1.6,3.1-2.5,5.1-2.7h10.4
		c-1.2,0.2-2.2,0.8-2.9,1.8l-0.6,1C84.1,64.4,82.9,65.1,81.7,65.1"/>
	
		<linearGradient id="SVGID_00000095320030767117453080000010925051605182522504_" gradientUnits="userSpaceOnUse" x1="63.1303" y1="73.1681" x2="193.1203" y2="91.2881" gradientTransform="matrix(1 0 0 -1 0 144)">
		<stop  offset="0" style="stop-color:#003C5C"/>
		<stop  offset="0.33" style="stop-color:#00667E"/>
		<stop  offset="0.7" style="stop-color:#009280"/>
		<stop  offset="1" style="stop-color:#B4D6A3"/>
	</linearGradient>
	<path style="fill:url(#SVGID_00000095320030767117453080000010925051605182522504_);" d="M122.5,63.7c-0.3,0.5-0.9,0.8-1.4,0.8h-1
		l-0.4,0.6h6.6l2.9-4.6h0.8l0.4-0.6h-9.3c-1.4,0-2.8,0.5-4,1.3l0.8-1.3h-6.6l-0.4,0.6h1c0.5,0,0.7,0.3,0.4,0.8l-4.1,6.5h6.6l0.4-0.6
		h-1c-0.5,0-0.7-0.4-0.4-0.8l1.8-2.9c1.3-1.8,3.2-2.9,5.4-3h5.2c-1.2,0.2-2.2,0.9-2.9,1.9L122.5,63.7z"/>
</g>
</svg>
